<svg width="293" height="76" viewBox="0 0 293 76" fill="none" xmlns="http://www.w3.org/2000/svg">
<path d="M109.129 29.144C106.249 28.664 103.561 29.336 101.305 30.584V18.344C101.305 17.72 100.777 17.192 100.105 17.192H96.265C95.593 17.192 95.113 17.72 95.113 18.344V51.32C95.113 51.992 95.593 52.52 96.265 52.52H98.809C100.201 52.52 101.305 51.368 101.305 50.024C102.409 51.224 104.473 53.096 108.457 53.096C113.881 53.096 119.353 47.72 119.257 41C119.257 35.192 114.841 30.152 109.129 29.144ZM107.161 47C103.945 47 101.305 44.36 101.305 41.096C101.305 37.832 103.945 35.192 107.161 35.192C110.425 35.192 113.065 37.832 113.065 41.096C113.065 44.36 110.425 47 107.161 47Z" fill="#151E3F"/>
<path d="M132.927 29C130.815 29 128.367 29.144 125.439 30.68C124.815 31.016 124.623 31.832 125.007 32.408L126.831 35.288C127.167 35.816 127.887 36.008 128.415 35.72C129.855 34.952 130.911 34.808 132.351 34.808C134.175 34.808 136.191 36.392 136.767 38.024C135.231 37.592 133.551 37.352 131.919 37.352C125.631 37.352 121.551 40.712 121.551 45.896C121.551 50.504 125.391 53.192 130.719 53.192C132.879 53.192 136.095 51.752 137.007 50.072C137.007 51.416 138.111 52.472 139.407 52.472H142.047C142.671 52.472 143.199 51.944 143.199 51.32V39.32C143.199 33.608 138.639 29 132.927 29ZM130.719 47.624C130.431 47.624 127.743 47.576 127.743 45.896C127.743 45.176 127.839 44.456 129.231 43.976C130.047 43.64 130.959 43.544 131.871 43.544C133.647 43.544 135.375 43.976 136.383 44.408C135.135 46.904 132.399 47.624 130.719 47.624Z" fill="#151E3F"/>
<path d="M157.421 37.064C156.797 36.92 156.221 36.824 155.789 36.632C154.589 36.152 154.733 35.72 154.877 35.432C154.973 35.144 155.981 34.712 157.181 34.952C157.421 35 157.757 35.192 157.997 35.384C158.189 35.528 158.429 35.672 158.717 35.672L163.277 35.528C163.949 35.528 164.381 34.904 164.285 34.28C163.565 31.064 160.541 29.288 158.429 28.904C154.397 28.04 150.509 29.816 149.117 33.08C147.581 36.824 149.309 40.664 153.389 42.392C154.253 42.728 155.165 42.92 156.125 43.112C158.813 43.688 159.581 44.072 159.677 44.888C159.725 45.272 159.629 45.656 159.341 45.992C158.813 46.664 157.805 47.144 156.749 47.192C155.069 47.336 153.629 46.616 153.149 45.752C152.909 45.416 152.525 45.272 152.141 45.32L147.869 45.848C147.293 45.944 146.861 46.52 147.005 47.144C148.061 50.84 151.853 53.432 156.269 53.432C156.605 53.432 156.941 53.432 157.229 53.384C160.013 53.144 162.557 51.896 164.141 49.88C165.485 48.2 166.109 46.184 165.821 44.12C165.149 38.696 160.109 37.64 157.421 37.064Z" fill="#151E3F"/>
<path d="M181.067 29C178.955 29 176.507 29.144 173.579 30.68C172.955 31.016 172.763 31.832 173.147 32.408L174.971 35.288C175.307 35.816 176.027 36.008 176.555 35.72C177.995 34.952 179.051 34.808 180.491 34.808C182.315 34.808 184.331 36.392 184.907 38.024C183.371 37.592 181.691 37.352 180.059 37.352C173.771 37.352 169.691 40.712 169.691 45.896C169.691 50.504 173.531 53.192 178.859 53.192C181.019 53.192 184.235 51.752 185.147 50.072C185.147 51.416 186.251 52.472 187.547 52.472H190.187C190.811 52.472 191.339 51.944 191.339 51.32V39.32C191.339 33.608 186.779 29 181.067 29ZM178.859 47.624C178.571 47.624 175.883 47.576 175.883 45.896C175.883 45.176 175.979 44.456 177.371 43.976C178.187 43.64 179.099 43.544 180.011 43.544C181.787 43.544 183.515 43.976 184.523 44.408C183.275 46.904 180.539 47.624 178.859 47.624Z" fill="#151E3F"/>
<path d="M210.567 29.144C207.687 28.664 204.999 29.336 202.743 30.584V18.344C202.743 17.72 202.215 17.192 201.543 17.192H197.703C197.031 17.192 196.551 17.72 196.551 18.344V51.32C196.551 51.992 197.031 52.52 197.703 52.52H200.247C201.639 52.52 202.743 51.368 202.743 50.024C203.847 51.224 205.911 53.096 209.895 53.096C215.319 53.096 220.791 47.72 220.695 41C220.695 35.192 216.279 30.152 210.567 29.144ZM208.599 47C205.383 47 202.743 44.36 202.743 41.096C202.743 37.832 205.383 35.192 208.599 35.192C211.863 35.192 214.503 37.832 214.503 41.096C214.503 44.36 211.863 47 208.599 47Z" fill="#151E3F"/>
<path d="M234.364 29C232.252 29 229.804 29.144 226.876 30.68C226.252 31.016 226.06 31.832 226.444 32.408L228.268 35.288C228.604 35.816 229.324 36.008 229.852 35.72C231.292 34.952 232.348 34.808 233.788 34.808C235.612 34.808 237.628 36.392 238.204 38.024C236.668 37.592 234.988 37.352 233.356 37.352C227.068 37.352 222.988 40.712 222.988 45.896C222.988 50.504 226.828 53.192 232.156 53.192C234.316 53.192 237.532 51.752 238.444 50.072C238.444 51.416 239.548 52.472 240.844 52.472H243.484C244.108 52.472 244.636 51.944 244.636 51.32V39.32C244.636 33.608 240.076 29 234.364 29ZM232.156 47.624C231.868 47.624 229.18 47.576 229.18 45.896C229.18 45.176 229.276 44.456 230.668 43.976C231.484 43.64 232.396 43.544 233.308 43.544C235.084 43.544 236.812 43.976 237.82 44.408C236.572 46.904 233.836 47.624 232.156 47.624Z" fill="#151E3F"/>
<path d="M258.858 37.064C258.234 36.92 257.658 36.824 257.226 36.632C256.026 36.152 256.17 35.72 256.314 35.432C256.41 35.144 257.418 34.712 258.618 34.952C258.858 35 259.194 35.192 259.434 35.384C259.626 35.528 259.866 35.672 260.154 35.672L264.714 35.528C265.386 35.528 265.818 34.904 265.722 34.28C265.002 31.064 261.978 29.288 259.866 28.904C255.834 28.04 251.946 29.816 250.554 33.08C249.018 36.824 250.746 40.664 254.826 42.392C255.69 42.728 256.602 42.92 257.562 43.112C260.25 43.688 261.018 44.072 261.114 44.888C261.162 45.272 261.066 45.656 260.778 45.992C260.25 46.664 259.242 47.144 258.186 47.192C256.506 47.336 255.066 46.616 254.586 45.752C254.346 45.416 253.962 45.272 253.578 45.32L249.306 45.848C248.73 45.944 248.298 46.52 248.442 47.144C249.498 50.84 253.29 53.432 257.706 53.432C258.042 53.432 258.378 53.432 258.666 53.384C261.45 53.144 263.994 51.896 265.578 49.88C266.922 48.2 267.546 46.184 267.258 44.12C266.586 38.696 261.546 37.64 258.858 37.064Z" fill="#151E3F"/>
<path d="M282.505 29C280.393 29 277.945 29.144 275.017 30.68C274.393 31.016 274.201 31.832 274.585 32.408L276.409 35.288C276.745 35.816 277.465 36.008 277.993 35.72C279.433 34.952 280.489 34.808 281.929 34.808C283.753 34.808 285.769 36.392 286.345 38.024C284.809 37.592 283.129 37.352 281.497 37.352C275.209 37.352 271.129 40.712 271.129 45.896C271.129 50.504 274.969 53.192 280.297 53.192C282.457 53.192 285.673 51.752 286.585 50.072C286.585 51.416 287.689 52.472 288.985 52.472H291.625C292.249 52.472 292.777 51.944 292.777 51.32V39.32C292.777 33.608 288.217 29 282.505 29ZM280.297 47.624C280.009 47.624 277.321 47.576 277.321 45.896C277.321 45.176 277.417 44.456 278.809 43.976C279.625 43.64 280.537 43.544 281.449 43.544C283.225 43.544 284.953 43.976 285.961 44.408C284.713 46.904 281.977 47.624 280.297 47.624Z" fill="#151E3F"/>
<circle cx="38" cy="38" r="38" fill="#008DD5"/>
<path d="M34.5225 41.8493C32.7036 44.0587 31.9567 46.6697 31.9105 49.1963L21.5208 43.1978C20.9911 42.892 20.2842 43.0814 19.9549 43.6518L18.073 46.9113C17.7437 47.4817 17.9566 48.1479 18.4863 48.4537L46.4773 64.6144C47.0477 64.9437 47.7311 64.795 48.0604 64.2246L49.3072 62.0652C49.9894 60.8836 49.5526 59.3819 48.4117 58.7233C49.9714 58.3742 52.5719 57.5397 54.5243 54.1579C57.1825 49.5539 55.3008 42.2745 49.5497 39.0627C44.6197 36.2163 38.1774 37.4948 34.5225 41.8493ZM48.7147 52.2705C47.1387 55.0004 43.604 55.9475 40.8334 54.3479C38.0628 52.7483 37.1157 49.2136 38.6917 46.4838C40.2913 43.7132 43.826 42.7661 46.5966 44.3657C49.3672 45.9653 50.3143 49.5 48.7147 52.2705Z" fill="white"/>
<path d="M38.3628 34.2256C40.1816 32.0162 40.9285 29.4052 40.9748 26.8786L51.3645 32.8771C51.8941 33.1829 52.6011 32.9935 52.9304 32.4231L54.8123 29.1636C55.1416 28.5932 54.9286 27.927 54.399 27.6212L26.408 11.4605C25.8375 11.1312 25.1541 11.2799 24.8248 11.8503L23.5781 14.0097C22.8959 15.1913 23.3327 16.693 24.4735 17.3516C22.9139 17.7006 20.3134 18.5352 18.3609 21.917C15.7028 26.521 17.5844 33.8004 23.3356 37.0122C28.2656 39.8586 34.7079 38.5801 38.3628 34.2256ZM24.1705 23.8043C25.7466 21.0745 29.2813 20.1274 32.0519 21.727C34.8225 23.3266 35.7696 26.8613 34.1935 29.5911C32.5939 32.3617 29.0592 33.3088 26.2886 31.7092C23.518 30.1096 22.5709 26.5749 24.1705 23.8043Z" fill="white"/>
</svg>
