<svg width="70" height="69" viewBox="0 0 70 69" fill="none" xmlns="http://www.w3.org/2000/svg">
<path d="M0.251953 11.6144C0.251953 5.63062 5.10279 0.779785 11.0866 0.779785H59.1653C65.1491 0.779785 70 5.63062 70 11.6144V57.6617C70 63.6455 65.1491 68.4963 59.1653 68.4963H11.0866C5.10279 68.4963 0.251953 63.6455 0.251953 57.6617V11.6144Z" fill="#330036"/>
<path d="M48.6696 31.252C50.3525 31.252 51.7168 32.6163 51.7168 34.2992C51.7168 35.9821 50.3525 37.3464 48.6696 37.3464L22.2601 37.3464C20.5772 37.3464 19.2129 35.9821 19.2129 34.2992C19.2129 32.6163 20.5772 31.252 22.2601 31.252L48.6696 31.252Z" fill="white"/>
<path d="M32.7559 21.433C32.7559 19.75 34.1202 18.3857 35.8031 18.3857C37.4861 18.3857 38.8503 19.75 38.8503 21.433L38.8503 47.8424C38.8503 49.5254 37.4861 50.8897 35.8031 50.8897C34.1202 50.8897 32.7559 49.5254 32.7559 47.8424L32.7559 21.433Z" fill="white"/>
</svg>
