<svg width="620" height="620" viewBox="0 0 620 620" fill="none" xmlns="http://www.w3.org/2000/svg">
<g clip-path="url(#clip0)">
<path d="M497.921 158.843C572.038 260.203 571.843 411.117 463.086 490.248C354.329 569.379 198.774 558.146 115.947 461.648C34.1529 366.353 55.9664 211.666 164.724 132.536C273.481 53.4049 423.804 57.4829 497.921 158.843Z" fill="#FF9B19"/>
<path d="M466.688 184.664C528.509 269.208 528.347 395.086 437.632 461.089C346.918 527.092 217.169 517.723 148.083 437.234C79.8582 357.748 98.053 228.724 188.768 162.721C279.482 96.7177 404.867 100.119 466.688 184.664Z" fill="#FCA93C"/>
<path d="M439.494 207.146C490.609 277.049 490.475 381.128 415.47 435.701C340.465 490.273 233.186 482.527 176.064 415.977C119.654 350.256 134.698 243.576 209.703 189.003C284.708 134.43 388.379 137.243 439.494 207.146Z" fill="#FFB85C"/>
<path d="M409.223 232.17C448.421 285.777 448.319 365.591 390.8 407.44C333.282 449.29 251.013 443.35 207.209 392.315C163.95 341.916 175.487 260.107 233.005 218.257C290.524 176.407 370.025 178.564 409.223 232.17Z" fill="#FFD094"/>
<path d="M275.739 211.103C260.595 231.858 228.105 244.3 213.754 247.926C216.538 261.7 228.865 285.586 255.893 270.947C282.922 256.307 290.053 235.415 295.28 218.008C298.563 207.078 290.883 190.348 275.739 211.103Z" fill="#C4C4C4"/>
<path d="M158.653 179.729C161.391 205.276 183.306 232.295 193.922 242.612C184.624 253.148 162.005 267.671 145.917 241.478C129.83 215.285 134.1 193.627 138.277 175.939C140.899 164.831 155.915 154.183 158.653 179.729Z" fill="#C4C4C4"/>
<rect x="319.409" y="367.951" width="49.1692" height="170.611" rx="24.5846" transform="rotate(-7.65429 319.409 367.951)" fill="#523D33"/>
<rect x="522.733" y="310.456" width="23.7495" height="116.679" rx="11.8747" transform="rotate(71.3905 522.733 310.456)" fill="#685044"/>
<rect x="202.086" y="334.138" width="49.7616" height="170.611" rx="24.8808" transform="rotate(22.3457 202.086 334.138)" fill="#523D33"/>
<rect x="182.37" y="298.364" width="286.722" height="140.399" rx="30.149" transform="rotate(7.34571 182.37 298.364)" fill="#685044"/>
<rect x="267.835" y="361.166" width="49.1692" height="170.611" rx="24.5846" transform="rotate(22.3457 267.835 361.166)" fill="#685044"/>
<rect x="389.277" y="371.256" width="49.7616" height="170.611" rx="24.8808" transform="rotate(-7.65428 389.277 371.256)" fill="#685044"/>
<path d="M415.417 237.779C417.933 218.377 404.236 200.607 384.822 198.089L360.507 194.935C341.094 192.417 323.316 206.105 320.8 225.508L316.278 260.375C313.761 279.777 327.459 297.547 346.872 300.065L371.187 303.219C390.6 305.737 408.378 292.049 410.894 272.646L415.417 237.779Z" fill="white"/>
<path d="M408.894 340.82C409.512 336.059 406.16 331.7 401.407 331.084L375.724 327.753C370.972 327.136 366.619 330.496 366.001 335.257V335.257C365.384 340.018 368.736 344.378 373.488 344.994L399.171 348.325C403.923 348.941 408.277 345.581 408.894 340.82V340.82Z" fill="#151E3F"/>
<path d="M401.064 250.124C400.089 242.827 405.282 236.113 412.663 235.126L461.093 228.656C468.474 227.67 475.248 232.785 476.223 240.082V240.082C477.198 247.378 472.004 254.093 464.623 255.079L416.193 261.55C408.812 262.536 402.038 257.42 401.064 250.124V250.124Z" fill="#E4BD95"/>
<path d="M448.955 226.445C449.493 222.296 453.319 219.372 457.499 219.914V219.914C461.679 220.457 464.632 224.259 464.094 228.408L463.588 232.307C463.05 236.456 459.225 239.38 455.045 238.838V238.838C450.864 238.296 447.912 234.493 448.45 230.344L448.955 226.445Z" fill="#D6AE86"/>
<path d="M331.904 241.218C329.07 248.097 321.195 251.377 314.316 248.543L269.177 229.947C262.297 227.113 259.018 219.238 261.852 212.359V212.359C264.686 205.479 272.56 202.2 279.44 205.034L324.579 223.63C331.459 226.464 334.738 234.338 331.904 241.218V241.218Z" fill="#E4BD95"/>
<path d="M274.332 204.652C274.87 200.503 278.696 197.579 282.876 198.121V198.121C287.056 198.664 290.009 202.466 289.471 206.615L288.965 210.514C288.427 214.663 284.602 217.587 280.422 217.045V217.045C276.241 216.503 273.289 212.7 273.827 208.551L274.332 204.652Z" fill="#D6AE86"/>
<path d="M396.484 215.62C397.13 210.635 393.637 206.073 388.682 205.43L354.903 201.049C349.948 200.406 345.406 203.926 344.76 208.912L340.284 243.424C339.637 248.409 343.13 252.971 348.085 253.614L381.864 257.995C386.82 258.638 391.361 255.117 392.007 250.132L396.484 215.62Z" fill="#E4BD95"/>
<path d="M312.594 288.784C310.697 303.412 320.991 316.805 335.588 318.698L377.346 324.114C391.943 326.007 405.314 315.684 407.211 301.056L409.993 279.602L315.376 267.331L312.594 288.784Z" fill="#008DD5"/>
<path d="M414.925 239.718C407.72 246.701 399.719 249.621 390.922 248.48L339.926 241.866C331.13 240.725 324.123 235.858 318.905 227.265C313.729 218.595 311.858 208.733 313.292 197.68C313.982 192.355 315.346 187.507 317.381 183.136C316.458 178.926 316.306 174.436 316.925 169.664C318.071 160.83 321.537 153.609 327.324 148.001C333.079 142.39 339.488 140.042 346.551 140.958L423.02 150.876C430.051 151.788 435.649 155.693 439.814 162.591C443.979 169.489 445.488 177.355 444.343 186.19C443.192 195.065 439.723 202.306 433.936 207.913C432.014 209.775 430.023 211.281 427.964 212.43C427.959 212.467 427.954 212.508 427.948 212.551C426.514 223.604 422.173 232.66 414.925 239.718Z" fill="#EECCAA"/>
<path d="M380.604 179.812C381.193 175.275 385.341 172.072 389.87 172.66V172.66C394.399 173.247 397.593 177.402 397.005 181.939L395.045 197.046C394.457 201.584 390.308 204.786 385.78 204.199V204.199C381.251 203.611 378.056 199.457 378.645 194.919L380.604 179.812Z" fill="white"/>
<path d="M344.018 175.067C344.607 170.53 348.755 167.327 353.284 167.915V167.915C357.813 168.502 361.007 172.657 360.419 177.194L358.459 192.301C357.871 196.839 353.722 200.041 349.194 199.454V199.454C344.665 198.866 341.471 194.712 342.059 190.174L344.018 175.067Z" fill="white"/>
<path d="M382.356 182.791C382.716 180.01 385.268 178.049 388.055 178.41V178.41C390.842 178.772 392.809 181.319 392.448 184.1L391.245 193.374C390.885 196.155 388.333 198.116 385.546 197.754V197.754C382.759 197.393 380.792 194.846 381.153 192.065L382.356 182.791Z" fill="#333333"/>
<path d="M348.294 178.372C348.654 175.592 351.206 173.63 353.993 173.992V173.992C356.78 174.353 358.747 176.9 358.386 179.681L357.183 188.956C356.823 191.736 354.271 193.697 351.484 193.336V193.336C348.697 192.974 346.73 190.427 347.091 187.647L348.294 178.372Z" fill="#333333"/>
<path d="M334.807 212.405C335.574 209.256 338.749 207.324 341.899 208.091L388.749 219.502C391.898 220.269 393.829 223.444 393.062 226.593L391.381 233.496C390.614 236.646 387.439 238.577 384.29 237.81L337.44 226.399C334.29 225.632 332.359 222.457 333.126 219.308L334.807 212.405Z" fill="#D81E5B"/>
<path d="M340.657 221.119C341.404 218.05 344.498 216.168 347.567 216.915L379.623 224.723C382.692 225.47 384.573 228.564 383.826 231.633V231.633C383.079 234.702 379.985 236.583 376.916 235.836L344.86 228.029C341.791 227.281 339.909 224.188 340.657 221.119V221.119Z" fill="#881138"/>
<path d="M340.116 204.174L352.103 209.113L364.226 214.107C363.125 216.78 361.014 218.572 357.892 219.483C354.771 220.394 351.539 220.161 348.198 218.785C344.857 217.409 342.399 215.298 340.825 212.452C339.251 209.607 339.014 206.847 340.116 204.174Z" fill="#666666"/>
<path d="M344.932 206.225L354.521 210.176L364.22 214.171C364.77 212.835 364.3 211.31 362.808 209.597C361.317 207.884 359.235 206.477 356.562 205.376C353.889 204.275 351.42 203.807 349.155 203.973C346.89 204.138 345.482 204.889 344.932 206.225Z" fill="#666666"/>
<path d="M390.251 210.678L377.4 212.395L364.404 214.131C364.787 216.996 366.371 219.267 369.157 220.945C371.943 222.622 375.127 223.222 378.708 222.743C382.29 222.265 385.205 220.85 387.453 218.501C389.701 216.151 390.633 213.543 390.251 210.678Z" fill="#666666"/>
<path d="M385.071 211.431L374.791 212.804L364.394 214.193C364.203 212.76 365.047 211.406 366.926 210.131C368.805 208.855 371.177 208.026 374.042 207.643C376.908 207.26 379.414 207.438 381.562 208.175C383.71 208.913 384.88 209.998 385.071 211.431Z" fill="#666666"/>
<path d="M375.071 196.091C375.261 194.631 374.245 193.296 372.804 193.109L364.568 192.04C363.126 191.854 361.804 192.886 361.615 194.346L359.464 210.925C359.275 212.385 360.29 213.721 361.731 213.908L369.968 214.976C371.409 215.163 372.731 214.13 372.921 212.67L375.071 196.091Z" fill="#EEAA99"/>
<path fill-rule="evenodd" clip-rule="evenodd" d="M362.878 191.175C362.922 190.83 363.255 190.59 363.621 190.637L374.493 192.058C374.859 192.106 375.12 192.424 375.076 192.769C375.032 193.114 374.699 193.355 374.333 193.307L363.46 191.887C363.094 191.839 362.833 191.52 362.878 191.175Z" fill="#666666"/>
<path fill-rule="evenodd" clip-rule="evenodd" d="M355.079 186.647C354.039 187.447 353.454 188.458 353.296 189.71C353.137 190.965 353.458 192.075 354.268 193.079C355.119 194.134 356.185 194.733 357.496 194.907C358.806 195.08 359.961 194.776 361 193.981C361.007 193.976 361.014 193.971 361.021 193.966C362.091 193.209 362.69 192.223 362.847 190.976C363.004 189.728 362.672 188.595 361.822 187.541C361.011 186.537 359.965 185.954 358.647 185.78C357.332 185.605 356.154 185.891 355.079 186.647ZM354.26 185.588C355.615 184.63 357.144 184.255 358.811 184.476C360.479 184.697 361.849 185.457 362.884 186.739C363.95 188.06 364.396 189.544 364.193 191.155C363.99 192.762 363.195 194.063 361.84 195.026C360.52 196.032 359.004 196.432 357.332 196.21C355.656 195.988 354.271 195.202 353.205 193.881C352.17 192.598 351.748 191.135 351.95 189.532C352.152 187.929 352.924 186.61 354.24 185.602C354.247 185.597 354.253 185.592 354.26 185.588Z" fill="#666666"/>
<path fill-rule="evenodd" clip-rule="evenodd" d="M376.852 189.471C375.844 190.275 375.274 191.289 375.116 192.541C374.958 193.796 375.263 194.904 376.041 195.904C376.858 196.954 377.886 197.548 379.152 197.716C380.417 197.884 381.534 197.575 382.542 196.775C382.548 196.769 382.555 196.764 382.562 196.76C383.599 195.998 384.182 195.01 384.339 193.763C384.497 192.515 384.18 191.384 383.363 190.334C382.584 189.334 381.576 188.757 380.303 188.588C379.033 188.419 377.894 188.71 376.852 189.471ZM376.066 188.416C377.379 187.452 378.857 187.071 380.468 187.284C382.078 187.498 383.399 188.251 384.393 189.528C385.417 190.844 385.842 192.324 385.639 193.935C385.436 195.543 384.662 196.847 383.348 197.815C382.069 198.827 380.602 199.233 378.988 199.019C377.37 198.805 376.035 198.025 375.011 196.71C374.016 195.432 373.614 193.972 373.817 192.368C374.019 190.765 374.77 189.443 376.046 188.431C376.052 188.425 376.059 188.42 376.066 188.416Z" fill="#666666"/>
<path d="M336.443 162.543C336.409 161.07 337.576 159.849 339.049 159.815L361.452 159.299C362.925 159.265 364.147 160.432 364.18 161.905V161.905C364.214 163.378 363.048 164.6 361.575 164.633L339.172 165.149C337.699 165.183 336.477 164.016 336.443 162.543V162.543Z" fill="#333333"/>
<path d="M382.156 164.209C382.645 162.819 384.167 162.088 385.558 162.576L406.7 170.003C408.09 170.491 408.821 172.014 408.333 173.404V173.404C407.845 174.794 406.322 175.525 404.932 175.037L383.789 167.61C382.399 167.122 381.668 165.599 382.156 164.209V164.209Z" fill="#333333"/>
<mask id="mask0" style="mask-type:alpha" maskUnits="userSpaceOnUse" x="312" y="140" width="133" height="109">
<path d="M414.925 239.719C407.719 246.701 399.718 249.622 390.922 248.481L339.926 241.867C331.13 240.726 324.122 235.859 318.904 227.266C313.729 218.596 311.858 208.734 313.291 197.681C313.982 192.356 315.345 187.508 317.381 183.137C316.458 178.927 316.306 174.437 316.925 169.665C318.071 160.83 321.537 153.61 327.324 148.002C333.079 142.391 339.488 140.043 346.55 140.959L423.02 150.877C430.051 151.789 435.648 155.694 439.813 162.592C443.978 169.49 445.488 177.356 444.342 186.191C443.191 195.066 439.722 202.307 433.935 207.914C432.013 209.776 430.023 211.282 427.963 212.431C427.958 212.468 427.953 212.509 427.948 212.552C426.514 223.605 422.173 232.661 414.925 239.719Z" fill="#EECCAA"/>
</mask>
<g mask="url(#mask0)">
<path d="M446.088 165.865C447.579 178.259 441.834 189.142 433.256 190.174C424.678 191.206 416.516 181.996 415.025 169.603C413.533 157.209 419.278 146.326 427.856 145.294C436.434 144.262 444.597 153.472 446.088 165.865Z" fill="#C4C4C4"/>
<path d="M334.029 159.212C330.24 168.408 321.151 173.383 313.726 170.324C306.302 167.265 303.354 157.332 307.142 148.136C310.931 138.941 320.02 133.966 327.445 137.024C334.869 140.083 337.817 150.017 334.029 159.212Z" fill="#C4C4C4"/>
</g>
<path d="M328.31 116.813C328.97 112.258 331.6 110.279 336.198 110.875L439.936 124.33C444.534 124.926 446.503 127.502 445.842 132.057L442.047 158.223C441.386 162.777 438.757 164.757 434.159 164.16L330.421 150.706C325.823 150.109 323.854 147.534 324.514 142.979L328.31 116.813Z" fill="#333333"/>
<path d="M391.14 110.824C406.915 112.87 420.056 115.566 430.562 118.911C441.069 122.257 445.844 125.267 444.887 127.94C443.93 130.613 437.52 132.171 425.657 132.616C413.794 133.06 399.975 132.26 384.2 130.213C368.424 128.167 355.283 125.471 344.777 122.126C334.27 118.78 329.495 115.771 330.452 113.098C331.409 110.425 337.819 108.866 349.682 108.421C361.545 107.977 375.364 108.778 391.14 110.824Z" fill="#666666"/>
<rect x="159.672" y="258.677" width="33.7668" height="54.3346" rx="16.8834" transform="rotate(165 159.672 258.677)" fill="#523D33"/>
<circle cx="192.49" cy="299.418" r="79.6778" transform="rotate(15 192.49 299.418)" fill="#775D4F"/>
<rect width="28.5112" height="54.723" rx="14.2556" transform="matrix(-0.965926 -0.258819 -0.258819 0.965926 191.512 244.376)" fill="white"/>
<rect width="28.5112" height="54.723" rx="14.2556" transform="matrix(-0.965926 -0.258819 -0.258819 0.965926 233.445 255.967)" fill="white"/>
<rect width="17.4746" height="33.5696" rx="8.73728" transform="matrix(-0.965926 -0.258819 -0.258819 0.965926 185.341 253.197)" fill="#333333"/>
<rect width="17.4746" height="33.5696" rx="8.73729" transform="matrix(-0.965926 -0.258819 -0.258819 0.965926 222.831 263.597)" fill="#333333"/>
<rect x="144.799" y="271.357" width="87.2318" height="63.3788" rx="12.0596" transform="rotate(15 144.799 271.357)" fill="#C88C6C"/>
<rect x="160.485" y="290.313" width="19.5295" height="37.0136" rx="9.76473" transform="rotate(15 160.485 290.313)" fill="#FFC19F"/>
<rect x="187.277" y="297.197" width="19.5295" height="37.0136" rx="9.76473" transform="rotate(15 187.277 297.197)" fill="#FFC19F"/>
<rect x="251.217" y="305.018" width="33.7668" height="54.3346" rx="16.8834" transform="rotate(-116.383 251.217 305.018)" fill="#523D33"/>
</g>
<defs>
<clipPath id="clip0">
<rect width="620" height="620" fill="white"/>
</clipPath>
</defs>
</svg>
