<svg width="620" height="620" viewBox="0 0 620 620" fill="none" xmlns="http://www.w3.org/2000/svg">
<g clip-path="url(#clip0)">
<path d="M532.637 130.143C620.42 250.194 620.19 428.936 491.378 522.659C362.566 616.381 178.328 603.077 80.228 488.785C-16.649 375.918 9.18687 192.707 137.999 98.9852C266.81 5.26303 444.853 10.093 532.637 130.143Z" fill="#FF9B19"/>
<path d="M495.644 160.725C568.865 260.859 568.673 409.949 461.231 488.123C353.788 566.296 200.115 555.2 118.29 459.869C37.4843 365.726 59.0341 212.91 166.476 134.736C273.918 56.562 422.424 60.5907 495.644 160.725Z" fill="#FFAF47"/>
<path d="M463.435 187.353C523.975 270.146 523.817 393.417 434.981 458.052C346.146 522.688 219.085 513.514 151.43 434.692C84.6184 356.852 102.436 230.5 191.272 165.865C280.107 101.229 402.895 104.56 463.435 187.353Z" fill="#FAC98A"/>
<path d="M269.486 192.04C251.549 216.622 213.068 231.358 196.07 235.653C199.368 251.966 213.968 280.258 245.981 262.919C277.993 245.58 286.439 220.836 292.63 200.218C296.518 187.272 287.422 167.458 269.486 192.04Z" fill="#C4C4C4"/>
<path d="M130.809 154.881C134.051 185.138 160.008 217.14 172.581 229.359C161.568 241.837 134.779 259.039 115.725 228.016C96.6706 196.994 101.728 171.342 106.675 150.391C109.782 137.236 127.566 124.624 130.809 154.881Z" fill="#C4C4C4"/>
<rect x="321.208" y="377.81" width="58.2358" height="202.071" rx="29.1179" transform="rotate(-7.65429 321.208 377.81)" fill="#523D33"/>
<rect x="562.024" y="309.712" width="28.1288" height="138.194" rx="14.0644" transform="rotate(71.3905 562.024 309.712)" fill="#685044"/>
<rect x="182.25" y="337.762" width="58.9375" height="202.071" rx="29.4687" transform="rotate(22.3457 182.25 337.762)" fill="#523D33"/>
<rect x="158.899" y="295.392" width="339.592" height="166.288" rx="30.149" transform="rotate(7.34571 158.899 295.392)" fill="#685044"/>
<rect x="260.125" y="369.773" width="58.2358" height="202.071" rx="29.1179" transform="rotate(22.3457 260.125 369.773)" fill="#685044"/>
<rect x="403.959" y="381.724" width="58.9375" height="202.071" rx="29.4687" transform="rotate(-7.65428 403.959 381.724)" fill="#685044"/>
<path d="M434.92 223.634C437.9 200.654 421.677 179.607 398.684 176.625L369.885 172.89C346.892 169.908 325.836 186.12 322.856 209.1L317.5 250.396C314.519 273.377 330.743 294.423 353.736 297.406L382.534 301.141C405.527 304.123 426.583 287.911 429.564 264.931L434.92 223.634Z" fill="white"/>
<path d="M427.194 345.676C427.926 340.037 423.956 334.874 418.327 334.143L387.908 330.198C382.279 329.468 377.123 333.448 376.392 339.087V339.087C375.661 344.726 379.631 349.889 385.26 350.619L415.678 354.564C421.307 355.294 426.463 351.315 427.194 345.676V345.676Z" fill="#151E3F"/>
<path d="M417.92 238.255C416.765 229.613 422.916 221.661 431.658 220.493L489.019 212.829C497.761 211.661 505.784 217.72 506.938 226.362V226.362C508.093 235.004 501.942 242.956 493.2 244.124L435.839 251.788C427.097 252.956 419.074 246.897 417.92 238.255V238.255Z" fill="#E4BD95"/>
<path d="M474.643 210.21C475.28 205.296 479.811 201.833 484.762 202.475V202.475C489.713 203.117 493.21 207.621 492.573 212.535L491.974 217.154C491.337 222.067 486.806 225.53 481.855 224.888V224.888C476.904 224.246 473.407 219.742 474.044 214.828L474.643 210.21Z" fill="#D6AE86"/>
<path d="M336.007 227.707C332.65 235.856 323.324 239.74 315.176 236.383L261.713 214.358C253.565 211.001 249.681 201.675 253.037 193.527V193.527C256.394 185.379 265.721 181.495 273.869 184.851L327.332 206.876C335.48 210.233 339.364 219.559 336.007 227.707V227.707Z" fill="#E4BD95"/>
<path d="M267.82 184.398C268.457 179.484 272.987 176.022 277.939 176.664V176.664C282.89 177.306 286.387 181.81 285.75 186.724L285.151 191.342C284.514 196.256 279.983 199.719 275.032 199.077V199.077C270.081 198.434 266.583 193.93 267.221 189.016L267.82 184.398Z" fill="#D6AE86"/>
<path d="M412.495 197.389C413.261 191.485 409.124 186.082 403.255 185.32L363.247 180.131C357.378 179.37 351.999 183.54 351.234 189.444L345.932 230.32C345.166 236.225 349.303 241.628 355.172 242.389L395.18 247.578C401.049 248.339 406.428 244.17 407.194 238.266L412.495 197.389Z" fill="#E4BD95"/>
<path d="M313.136 284.044C310.889 301.369 323.082 317.232 340.37 319.474L389.829 325.889C407.117 328.131 422.953 315.904 425.2 298.579L428.495 273.17L316.432 258.635L313.136 284.044Z" fill="#008DD5"/>
<path d="M434.338 225.931C425.803 234.201 416.327 237.66 405.909 236.309L345.509 228.475C335.091 227.124 326.792 221.359 320.611 211.181C314.481 200.913 312.265 189.233 313.963 176.141C314.781 169.834 316.396 164.092 318.807 158.916C317.714 153.929 317.534 148.611 318.267 142.959C319.624 132.496 323.729 123.943 330.583 117.302C337.399 110.656 344.99 107.875 353.355 108.96L443.925 120.707C452.253 121.787 458.883 126.412 463.816 134.582C468.749 142.752 470.537 152.069 469.179 162.532C467.816 173.044 463.707 181.62 456.853 188.261C454.577 190.467 452.22 192.25 449.78 193.611C449.775 193.655 449.768 193.703 449.762 193.754C448.064 206.846 442.922 217.571 434.338 225.931Z" fill="#EECCAA"/>
<path d="M393.687 154.978C394.384 149.604 399.298 145.811 404.661 146.507V146.507C410.025 147.202 413.809 152.123 413.112 157.497L410.791 175.39C410.094 180.764 405.18 184.557 399.817 183.861V183.861C394.453 183.166 390.669 178.245 391.366 172.871L393.687 154.978Z" fill="white"/>
<path d="M350.355 149.358C351.052 143.984 355.965 140.191 361.329 140.887V140.887C366.693 141.583 370.477 146.503 369.779 151.878L367.459 169.77C366.762 175.145 361.848 178.937 356.485 178.242V178.242C351.121 177.546 347.337 172.625 348.034 167.251L350.355 149.358Z" fill="white"/>
<path d="M395.761 158.506C396.188 155.213 399.211 152.89 402.511 153.318V153.318C405.812 153.746 408.142 156.763 407.715 160.056L406.29 171.041C405.863 174.334 402.841 176.657 399.54 176.229V176.229C396.239 175.801 393.909 172.784 394.337 169.491L395.761 158.506Z" fill="#333333"/>
<path d="M355.418 153.273C355.846 149.979 358.868 147.657 362.169 148.085V148.085C365.469 148.513 367.799 151.53 367.372 154.823L365.947 165.808C365.52 169.101 362.498 171.424 359.197 170.996V170.996C355.896 170.567 353.567 167.551 353.994 164.257L355.418 153.273Z" fill="#333333"/>
<path d="M339.446 193.581C340.355 189.851 344.115 187.564 347.845 188.472L403.334 201.987C407.065 202.895 409.352 206.655 408.443 210.386L406.452 218.561C405.544 222.291 401.783 224.579 398.053 223.67L342.564 210.156C338.834 209.247 336.547 205.487 337.455 201.757L339.446 193.581Z" fill="#D81E5B"/>
<path d="M346.374 203.902C347.259 200.267 350.924 198.038 354.558 198.924L392.525 208.171C396.16 209.056 398.389 212.72 397.504 216.355V216.355C396.618 219.99 392.954 222.219 389.319 221.333L351.353 212.086C347.718 211.201 345.489 207.537 346.374 203.902V203.902Z" fill="#881138"/>
<path d="M345.733 183.833L359.932 189.682L374.29 195.597C372.986 198.763 370.485 200.885 366.788 201.964C363.091 203.043 359.263 202.768 355.306 201.138C351.349 199.508 348.438 197.007 346.574 193.637C344.709 190.267 344.429 186.999 345.733 183.833Z" fill="#666666"/>
<path d="M351.437 186.262L362.795 190.941L374.282 195.673C374.934 194.09 374.377 192.284 372.61 190.255C370.844 188.227 368.378 186.56 365.212 185.256C362.046 183.952 359.122 183.398 356.439 183.594C353.756 183.79 352.089 184.679 351.437 186.262Z" fill="#666666"/>
<path d="M405.113 191.536L389.892 193.569L374.5 195.625C374.953 199.019 376.83 201.709 380.129 203.696C383.429 205.682 387.2 206.392 391.442 205.826C395.684 205.259 399.137 203.584 401.799 200.801C404.462 198.018 405.566 194.929 405.113 191.536Z" fill="#666666"/>
<path d="M398.979 192.428L386.803 194.054L374.489 195.699C374.263 194.002 375.262 192.398 377.487 190.887C379.713 189.376 382.523 188.394 385.916 187.941C389.31 187.488 392.279 187.698 394.823 188.572C397.367 189.445 398.752 190.731 398.979 192.428Z" fill="#666666"/>
<path d="M387.134 174.26C387.359 172.53 386.156 170.948 384.449 170.727L374.694 169.462C372.987 169.24 371.421 170.463 371.196 172.192L368.65 191.828C368.425 193.558 369.628 195.14 371.335 195.361L381.09 196.626C382.797 196.848 384.363 195.625 384.588 193.896L387.134 174.26Z" fill="#EEAA99"/>
<path fill-rule="evenodd" clip-rule="evenodd" d="M372.694 168.437C372.746 168.028 373.14 167.743 373.574 167.799L386.451 169.482C386.885 169.539 387.194 169.916 387.141 170.324C387.089 170.733 386.694 171.018 386.261 170.962L373.384 169.279C372.95 169.222 372.641 168.845 372.694 168.437Z" fill="#666666"/>
<path fill-rule="evenodd" clip-rule="evenodd" d="M363.456 163.074C362.224 164.021 361.53 165.219 361.343 166.702C361.156 168.189 361.535 169.503 362.495 170.692C363.502 171.941 364.765 172.651 366.318 172.857C367.87 173.062 369.238 172.702 370.469 171.76C370.477 171.754 370.485 171.748 370.493 171.742C371.761 170.846 372.47 169.678 372.656 168.201C372.842 166.723 372.449 165.381 371.441 164.133C370.482 162.943 369.243 162.254 367.681 162.046C366.124 161.84 364.729 162.178 363.456 163.074ZM362.486 161.819C364.091 160.685 365.901 160.241 367.876 160.503C369.851 160.765 371.474 161.664 372.7 163.183C373.963 164.748 374.49 166.505 374.25 168.413C374.01 170.316 373.069 171.858 371.463 172.997C369.899 174.189 368.104 174.663 366.123 174.4C364.139 174.137 362.498 173.206 361.236 171.642C360.01 170.122 359.51 168.39 359.75 166.491C359.989 164.592 360.904 163.03 362.462 161.837C362.47 161.831 362.478 161.825 362.486 161.819Z" fill="#666666"/>
<path fill-rule="evenodd" clip-rule="evenodd" d="M389.245 166.419C388.051 167.371 387.376 168.571 387.189 170.054C387.001 171.541 387.362 172.853 388.284 174.038C389.252 175.281 390.469 175.985 391.969 176.184C393.467 176.382 394.79 176.016 395.984 175.069C395.991 175.063 395.999 175.057 396.007 175.051C397.236 174.149 397.926 172.979 398.112 171.502C398.299 170.024 397.924 168.684 396.956 167.441C396.034 166.256 394.84 165.572 393.332 165.373C391.828 165.173 390.479 165.517 389.245 166.419ZM388.313 165.169C389.868 164.027 391.62 163.576 393.527 163.829C395.434 164.082 396.999 164.973 398.176 166.486C399.389 168.044 399.892 169.798 399.651 171.706C399.411 173.61 398.495 175.155 396.939 176.301C395.423 177.5 393.686 177.981 391.774 177.727C389.858 177.473 388.277 176.55 387.064 174.992C385.886 173.479 385.41 171.749 385.65 169.85C385.889 167.952 386.779 166.386 388.29 165.186C388.298 165.18 388.305 165.174 388.313 165.169Z" fill="#666666"/>
<path d="M341.384 134.525C341.344 132.78 342.725 131.333 344.47 131.293L371.004 130.683C372.749 130.643 374.195 132.024 374.236 133.769V133.769C374.276 135.514 372.894 136.96 371.149 137L344.615 137.611C342.871 137.651 341.424 136.269 341.384 134.525V134.525Z" fill="#333333"/>
<path d="M395.526 136.498C396.104 134.851 397.908 133.985 399.554 134.564L424.596 143.36C426.242 143.938 427.108 145.742 426.529 147.388V147.388C425.951 149.035 424.148 149.901 422.501 149.322L397.46 140.526C395.814 139.948 394.948 138.144 395.526 136.498V136.498Z" fill="#333333"/>
<mask id="mask0" style="mask-type:alpha" maskUnits="userSpaceOnUse" x="307" y="105" width="168" height="139">
<path d="M434.337 225.932C425.803 234.201 416.326 237.66 405.908 236.309L345.509 228.476C335.09 227.124 326.791 221.36 320.611 211.182C314.481 200.913 312.265 189.233 313.963 176.142C314.781 169.834 316.395 164.093 318.806 158.916C317.713 153.93 317.533 148.611 318.266 142.96C319.623 132.496 323.729 123.944 330.583 117.302C337.399 110.656 344.99 107.875 353.355 108.96L443.925 120.707C452.252 121.787 458.882 126.412 463.815 134.582C468.748 142.752 470.536 152.069 469.179 162.533C467.816 173.044 463.707 181.62 456.853 188.262C454.577 190.467 452.219 192.25 449.78 193.611C449.774 193.656 449.768 193.703 449.761 193.755C448.063 206.846 442.922 217.572 434.337 225.932Z" fill="#EECCAA"/>
</mask>
<g mask="url(#mask0)">
<path d="M471.246 138.46C473.012 153.138 466.208 166.029 456.048 167.251C445.889 168.473 436.221 157.565 434.455 142.886C432.689 128.207 439.493 115.317 449.653 114.095C459.813 112.873 469.48 123.781 471.246 138.46Z" fill="#C4C4C4"/>
<path d="M338.524 130.58C334.037 141.471 323.271 147.363 314.478 143.74C305.684 140.118 302.193 128.352 306.68 117.461C311.167 106.57 321.932 100.678 330.726 104.301C339.519 107.923 343.011 119.689 338.524 130.58Z" fill="#C4C4C4"/>
</g>
<path d="M331.75 80.3622C332.533 74.9677 335.647 72.6237 341.093 73.33L463.96 89.2656C469.406 89.972 471.738 93.0224 470.955 98.4169L466.46 129.408C465.678 134.803 462.563 137.147 457.117 136.44L334.251 120.505C328.805 119.798 326.473 116.748 327.255 111.353L331.75 80.3622Z" fill="#333333"/>
<path d="M406.166 73.2687C424.85 75.692 440.414 78.885 452.858 82.8478C465.302 86.8105 470.957 90.3749 469.824 93.5407C468.691 96.7066 461.099 98.5528 447.049 99.0793C432.998 99.6057 416.631 98.6573 397.946 96.234C379.262 93.8106 363.698 90.6176 351.254 86.6548C338.81 82.6921 333.155 79.1278 334.288 75.9619C335.421 72.796 343.013 70.9498 357.063 70.4233C371.114 69.8969 387.482 70.8453 406.166 73.2687Z" fill="#666666"/>
<rect x="132.016" y="248.386" width="39.9933" height="64.3537" rx="19.9966" transform="rotate(165 132.016 248.386)" fill="#523D33"/>
<circle cx="170.886" cy="296.64" r="94.3701" transform="rotate(15 170.886 296.64)" fill="#775D4F"/>
<rect width="33.7685" height="64.8137" rx="16.8843" transform="matrix(-0.965926 -0.258819 -0.258819 0.965926 169.728 231.449)" fill="white"/>
<rect width="33.7685" height="64.8137" rx="16.8843" transform="matrix(-0.965926 -0.258819 -0.258819 0.965926 219.393 245.177)" fill="white"/>
<rect width="20.6968" height="39.7597" rx="10.3484" transform="matrix(-0.965926 -0.258819 -0.258819 0.965926 162.419 241.895)" fill="#333333"/>
<rect width="20.6968" height="39.7597" rx="10.3484" transform="matrix(-0.965926 -0.258819 -0.258819 0.965926 206.821 254.214)" fill="#333333"/>
<rect x="114.4" y="263.404" width="103.317" height="75.0657" rx="12.0596" transform="rotate(15 114.4 263.404)" fill="#C88C6C"/>
<rect x="132.979" y="285.856" width="23.1306" height="43.8388" rx="11.5653" transform="rotate(15 132.979 285.856)" fill="#FFC19F"/>
<rect x="164.711" y="294.009" width="23.1306" height="43.8388" rx="11.5653" transform="rotate(15 164.711 294.009)" fill="#FFC19F"/>
<rect x="240.441" y="303.272" width="39.9933" height="64.3537" rx="19.9966" transform="rotate(-116.383 240.441 303.272)" fill="#523D33"/>
</g>
<defs>
<clipPath id="clip0">
<rect width="620" height="620" fill="white"/>
</clipPath>
</defs>
</svg>
