<svg width="632" height="620" viewBox="0 0 632 620" fill="none" xmlns="http://www.w3.org/2000/svg">
<g clip-path="url(#clip0)">
<path d="M559.587 567.503C557.994 568.661 556.022 569.182 554.049 568.966C552.075 568.751 550.238 567.814 548.889 566.336L441.867 449.058C440.44 447.46 439.69 445.37 439.779 443.244C439.868 441.118 440.789 439.126 442.343 437.701C443.897 436.276 445.958 435.532 448.079 435.632C450.2 435.731 452.209 436.666 453.672 438.232L560.695 555.512C562.15 557.106 562.924 559.206 562.847 561.349C562.769 563.491 561.846 565.501 560.281 566.937C560.06 567.138 559.828 567.327 559.587 567.503Z" fill="#FF9B19"/>
<path d="M425.569 216.657C470.116 277.578 469.999 368.283 404.632 415.843C339.265 463.403 245.771 456.652 195.989 398.654C146.827 341.378 159.938 248.405 225.305 200.845C290.672 153.285 381.022 155.736 425.569 216.657Z" fill="#FF9B19"/>
<path d="M200.519 186.841C198.964 187.971 197.048 188.495 195.119 188.319C193.19 188.143 191.377 187.278 190.011 185.881L83.655 77.1908C82.9071 76.4264 82.3142 75.524 81.9102 74.5352C81.5062 73.5464 81.2989 72.4905 81.3002 71.4278C81.3029 69.2817 82.1551 67.2382 83.6693 65.7469C85.1835 64.2555 87.2357 63.4386 89.3744 63.4757C91.5131 63.5128 93.5632 64.401 95.0736 65.9448L201.423 174.636C202.242 175.472 202.875 176.473 203.278 177.571C203.681 178.668 203.845 179.835 203.759 180.994C203.672 182.153 203.338 183.275 202.778 184.285C202.218 185.294 201.446 186.167 200.514 186.844L200.519 186.841Z" fill="#FF9B19"/>
<path d="M300.531 135.825C299.415 136.636 298.105 137.142 296.727 137.294C295.349 137.446 293.95 137.24 292.664 136.694C291.378 136.148 290.248 135.282 289.383 134.178C288.519 133.074 287.948 131.77 287.727 130.392L268.764 12.4879C268.421 10.3584 268.934 8.19331 270.19 6.46884C271.446 4.74437 273.341 3.60182 275.459 3.29254C277.578 2.98326 279.745 3.53257 281.485 4.81965C283.225 6.10672 284.395 8.02613 284.737 10.1556L303.701 128.06C303.939 129.533 303.768 131.036 303.209 132.406C302.65 133.775 301.724 134.958 300.531 135.825V135.825Z" fill="#FF9B19"/>
<path d="M129.242 310.052C127.828 311.076 126.112 311.605 124.353 311.558L10.9917 308.726C8.8917 308.599 6.90983 307.66 5.46344 306.107C4.01705 304.555 3.21902 302.51 3.23742 300.403C3.25582 298.296 4.0892 296.291 5.56207 294.811C7.03494 293.331 9.03235 292.492 11.1337 292.469L124.484 295.302C126.185 295.344 127.839 295.921 129.211 296.951C130.583 297.982 131.605 299.414 132.131 301.044C132.657 302.675 132.661 304.422 132.143 306.038C131.624 307.655 130.61 309.059 129.242 310.052V310.052Z" fill="#FF9B19"/>
<path d="M173.288 421.914L59.0886 505.139C57.3519 506.405 55.1746 506.918 53.0357 506.565C50.8967 506.212 48.9713 505.023 47.6831 503.258C46.3948 501.493 45.8492 499.298 46.1663 497.155C46.4834 495.013 47.6371 493.098 49.3738 491.832L163.573 408.607C165.31 407.341 167.487 406.828 169.626 407.181C171.765 407.534 173.69 408.723 174.979 410.488C176.267 412.253 176.813 414.448 176.496 416.591C176.178 418.733 175.025 420.648 173.288 421.914Z" fill="#FF9B19"/>
<path d="M276.181 615.217C274.942 616.118 273.466 616.641 271.927 616.725C270.388 616.809 268.85 616.45 267.494 615.691C266.138 614.931 265.02 613.803 264.272 612.438C263.524 611.074 263.176 609.53 263.27 607.987L270.98 481.464C271.029 480.388 271.29 479.337 271.75 478.37C272.21 477.404 272.858 476.541 273.658 475.834C274.457 475.126 275.391 474.588 276.406 474.249C277.421 473.911 278.496 473.779 279.569 473.862C280.642 473.945 281.691 474.241 282.655 474.733C283.619 475.224 284.479 475.902 285.185 476.726C285.891 477.55 286.428 478.504 286.766 479.532C287.104 480.56 287.235 481.643 287.153 482.716L279.443 609.239C279.372 610.421 279.044 611.569 278.48 612.602C277.917 613.635 277.132 614.528 276.181 615.217V615.217Z" fill="#FF9B19"/>
<path d="M625.108 264.254C624.075 265.005 622.874 265.497 621.605 265.687L489.522 285.616C488.464 285.789 487.379 285.749 486.329 285.498C485.28 285.247 484.287 284.791 483.408 284.155C482.53 283.52 481.783 282.718 481.212 281.795C480.64 280.873 480.255 279.849 480.078 278.783C479.902 277.717 479.937 276.63 480.183 275.584C480.429 274.539 480.88 273.556 481.511 272.693C482.141 271.83 482.938 271.103 483.856 270.556C484.773 270.008 485.792 269.651 486.855 269.504L618.939 249.57C620.739 249.297 622.588 249.641 624.187 250.548C625.787 251.454 627.045 252.869 627.757 254.565C628.47 256.261 628.596 258.14 628.115 259.897C627.635 261.655 626.575 263.189 625.108 264.254Z" fill="#FF9B19"/>
<path d="M409.305 169.5C407.709 170.658 405.736 171.184 403.758 170.979C401.78 170.773 399.934 169.85 398.567 168.384C397.2 166.917 396.407 165.009 396.336 163.017C396.266 161.026 396.924 159.089 398.186 157.571L476.38 63.5813C477.757 61.9497 479.73 60.9409 481.869 60.775C484.007 60.609 486.138 61.2995 487.796 62.6956C489.455 64.0917 490.506 66.0802 490.721 68.2275C490.936 70.3748 490.297 72.5066 488.943 74.1579L410.748 168.148C410.324 168.656 409.84 169.11 409.305 169.5Z" fill="#FF9B19"/>
<path d="M281.693 229.868C268.6 247.811 240.512 258.568 228.105 261.703C230.512 273.61 241.169 294.261 264.536 281.605C287.903 268.948 294.068 250.887 298.587 235.838C301.425 226.388 294.786 211.925 281.693 229.868Z" fill="#C4C4C4"/>
<path d="M180.468 202.745C182.835 224.831 201.782 248.19 210.959 257.109C202.921 266.217 183.367 278.773 169.458 256.129C155.55 233.484 159.242 214.761 162.853 199.468C165.12 189.866 178.101 180.659 180.468 202.745Z" fill="#C4C4C4"/>
<rect x="319.447" y="365.467" width="42.5081" height="147.498" rx="21.2541" transform="rotate(-7.65429 319.447 365.467)" fill="#523D33"/>
<rect x="495.225" y="315.761" width="20.5321" height="100.872" rx="10.266" transform="rotate(71.3905 495.225 315.761)" fill="#685044"/>
<rect x="218.017" y="336.235" width="43.0203" height="147.498" rx="21.5101" transform="rotate(22.3457 218.017 336.235)" fill="#523D33"/>
<rect x="200.973" y="305.308" width="247.879" height="121.379" rx="30.149" transform="rotate(7.34571 200.973 305.308)" fill="#685044"/>
<rect x="274.86" y="359.601" width="42.5081" height="147.498" rx="21.2541" transform="rotate(22.3457 274.86 359.601)" fill="#685044"/>
<rect x="379.849" y="368.324" width="43.0203" height="147.498" rx="21.5101" transform="rotate(-7.65428 379.849 368.324)" fill="#685044"/>
<path d="M402.448 252.93C404.624 236.156 392.782 220.793 375.999 218.617L354.978 215.89C338.194 213.714 322.825 225.547 320.65 242.321L316.74 272.465C314.565 289.239 326.406 304.601 343.19 306.778L364.211 309.504C380.994 311.681 396.363 299.848 398.539 283.074L402.448 252.93Z" fill="white"/>
<path d="M396.809 342.012C397.343 337.896 394.445 334.127 390.337 333.594L368.133 330.714C364.024 330.181 360.261 333.086 359.727 337.202V337.202C359.193 341.318 362.091 345.087 366.2 345.62L388.403 348.5C392.512 349.032 396.275 346.128 396.809 342.012V342.012Z" fill="#151E3F"/>
<path d="M390.04 263.602C389.197 257.294 393.687 251.49 400.068 250.637L441.937 245.043C448.318 244.19 454.174 248.613 455.017 254.921V254.921C455.86 261.229 451.37 267.034 444.989 267.886L403.12 273.481C396.739 274.333 390.883 269.911 390.04 263.602V263.602Z" fill="#E4BD95"/>
<path d="M431.444 243.132C431.909 239.545 435.216 237.017 438.83 237.486V237.486C442.444 237.955 444.997 241.242 444.532 244.829L444.094 248.2C443.629 251.787 440.322 254.314 436.708 253.846V253.846C433.094 253.377 430.541 250.089 431.007 246.503L431.444 243.132Z" fill="#D6AE86"/>
<path d="M330.249 255.904C327.799 261.851 320.991 264.687 315.044 262.236L276.019 246.16C270.072 243.71 267.237 236.902 269.687 230.954V230.954C272.137 225.007 278.945 222.172 284.892 224.622L323.916 240.698C329.864 243.149 332.699 249.956 330.249 255.904V255.904Z" fill="#E4BD95"/>
<path d="M280.477 224.291C280.942 220.704 284.249 218.176 287.863 218.645V218.645C291.477 219.114 294.03 222.401 293.565 225.988L293.127 229.359C292.662 232.946 289.355 235.474 285.741 235.005V235.005C282.127 234.536 279.574 231.249 280.04 227.662L280.477 224.291Z" fill="#D6AE86"/>
<path d="M386.08 233.773C386.639 229.464 383.619 225.52 379.335 224.964L350.132 221.176C345.848 220.621 341.922 223.664 341.363 227.974L337.493 257.811C336.934 262.12 339.954 266.065 344.238 266.62L373.441 270.408C377.725 270.963 381.651 267.92 382.21 263.61L386.08 233.773Z" fill="#E4BD95"/>
<path d="M313.555 297.026C311.915 309.672 320.815 321.25 333.434 322.887L369.535 327.569C382.154 329.206 393.713 320.281 395.354 307.635L397.759 289.088L315.96 278.479L313.555 297.026Z" fill="#008DD5"/>
<path d="M402.023 254.607C395.794 260.643 388.877 263.168 381.272 262.182L337.185 256.464C329.58 255.477 323.522 251.27 319.011 243.84C314.536 236.345 312.919 227.819 314.158 218.264C314.755 213.66 315.934 209.468 317.694 205.69C316.896 202.05 316.764 198.168 317.299 194.043C318.29 186.405 321.287 180.163 326.29 175.315C331.265 170.464 336.806 168.434 342.912 169.226L409.022 177.8C415.1 178.589 419.939 181.965 423.54 187.928C427.141 193.892 428.446 200.692 427.455 208.33C426.46 216.002 423.461 222.263 418.458 227.11C416.797 228.72 415.076 230.022 413.295 231.015C413.291 231.047 413.286 231.082 413.282 231.12C412.042 240.676 408.289 248.505 402.023 254.607Z" fill="#EECCAA"/>
<path d="M372.351 202.816C372.86 198.893 376.446 196.125 380.362 196.633V196.633C384.277 197.14 387.038 200.732 386.53 204.655L384.836 217.715C384.327 221.638 380.741 224.407 376.825 223.899V223.899C372.91 223.391 370.149 219.799 370.657 215.876L372.351 202.816Z" fill="white"/>
<path d="M340.723 198.714C341.231 194.791 344.818 192.023 348.733 192.531V192.531C352.648 193.038 355.41 196.63 354.901 200.553L353.207 213.613C352.698 217.536 349.112 220.305 345.197 219.797V219.797C341.281 219.289 338.52 215.697 339.029 211.774L340.723 198.714Z" fill="white"/>
<path d="M373.866 205.391C374.177 202.988 376.383 201.292 378.793 201.605V201.605C381.202 201.917 382.903 204.119 382.591 206.523L381.551 214.541C381.239 216.945 379.033 218.64 376.624 218.328V218.328C374.214 218.015 372.514 215.813 372.826 213.409L373.866 205.391Z" fill="#333333"/>
<path d="M344.418 201.572C344.73 199.168 346.936 197.473 349.345 197.785V197.785C351.754 198.098 353.455 200.3 353.143 202.704L352.103 210.722C351.791 213.125 349.585 214.821 347.176 214.508V214.508C344.767 214.196 343.066 211.994 343.378 209.59L344.418 201.572Z" fill="#333333"/>
<path d="M332.76 230.994C333.423 228.271 336.167 226.602 338.89 227.265L379.393 237.129C382.116 237.793 383.786 240.537 383.123 243.26L381.669 249.228C381.006 251.95 378.261 253.62 375.539 252.957L335.035 243.092C332.313 242.429 330.643 239.684 331.306 236.962L332.76 230.994Z" fill="#D81E5B"/>
<path d="M337.816 238.527C338.462 235.874 341.137 234.247 343.79 234.893L371.503 241.643C374.156 242.289 375.783 244.964 375.137 247.617V247.617C374.491 250.27 371.816 251.897 369.163 251.251L341.45 244.501C338.797 243.855 337.17 241.18 337.816 238.527V238.527Z" fill="#881138"/>
<path d="M337.348 223.878L347.712 228.148L358.193 232.465C357.241 234.776 355.415 236.325 352.716 237.113C350.018 237.901 347.224 237.7 344.336 236.51C341.447 235.32 339.322 233.495 337.961 231.035C336.601 228.575 336.396 226.189 337.348 223.878Z" fill="#666666"/>
<path d="M341.511 225.651L349.802 229.067L358.186 232.52C358.662 231.365 358.255 230.047 356.966 228.566C355.677 227.085 353.877 225.869 351.566 224.917C349.255 223.965 347.121 223.561 345.162 223.704C343.204 223.847 341.987 224.496 341.511 225.651Z" fill="#666666"/>
<path d="M380.691 229.5L369.581 230.984L358.346 232.485C358.677 234.962 360.046 236.926 362.455 238.376C364.863 239.826 367.616 240.344 370.712 239.931C373.809 239.517 376.329 238.295 378.272 236.263C380.216 234.232 381.022 231.977 380.691 229.5Z" fill="#666666"/>
<path d="M376.213 230.152L367.326 231.339L358.337 232.54C358.172 231.301 358.901 230.13 360.526 229.027C362.15 227.924 364.201 227.208 366.678 226.877C369.155 226.546 371.323 226.699 373.18 227.337C375.037 227.975 376.048 228.913 376.213 230.152Z" fill="#666666"/>
<path d="M367.568 216.89C367.732 215.628 366.854 214.473 365.608 214.312L358.488 213.388C357.241 213.227 356.098 214.119 355.935 215.381L354.076 229.714C353.912 230.977 354.79 232.131 356.036 232.293L363.156 233.216C364.403 233.378 365.546 232.486 365.709 231.223L367.568 216.89Z" fill="#EEAA99"/>
<path fill-rule="evenodd" clip-rule="evenodd" d="M357.027 212.64C357.065 212.341 357.353 212.133 357.67 212.174L367.069 213.403C367.386 213.444 367.611 213.719 367.573 214.018C367.534 214.316 367.247 214.524 366.93 214.483L357.531 213.255C357.214 213.213 356.989 212.938 357.027 212.64Z" fill="#666666"/>
<path fill-rule="evenodd" clip-rule="evenodd" d="M350.284 208.726C349.385 209.417 348.879 210.291 348.742 211.374C348.605 212.459 348.882 213.418 349.583 214.286C350.318 215.198 351.24 215.716 352.373 215.866C353.506 216.016 354.504 215.754 355.403 215.066C355.409 215.061 355.415 215.057 355.421 215.053C356.346 214.398 356.864 213.546 357 212.468C357.136 211.389 356.848 210.409 356.113 209.498C355.412 208.63 354.508 208.127 353.368 207.976C352.232 207.825 351.214 208.072 350.284 208.726ZM349.576 207.81C350.747 206.981 352.069 206.658 353.511 206.849C354.952 207.04 356.137 207.696 357.032 208.805C357.953 209.947 358.339 211.23 358.163 212.622C357.988 214.012 357.301 215.137 356.129 215.969C354.987 216.839 353.677 217.184 352.231 216.993C350.783 216.801 349.585 216.121 348.664 214.979C347.769 213.87 347.404 212.606 347.579 211.219C347.754 209.834 348.421 208.693 349.559 207.822C349.564 207.818 349.57 207.814 349.576 207.81Z" fill="#666666"/>
<path fill-rule="evenodd" clip-rule="evenodd" d="M369.108 211.167C368.237 211.862 367.744 212.738 367.607 213.821C367.471 214.906 367.734 215.864 368.407 216.728C369.114 217.636 370.002 218.15 371.097 218.295C372.191 218.44 373.156 218.173 374.027 217.481C374.033 217.477 374.039 217.472 374.044 217.468C374.941 216.81 375.445 215.956 375.581 214.878C375.717 213.799 375.444 212.821 374.737 211.913C374.064 211.048 373.193 210.549 372.092 210.403C370.994 210.258 370.009 210.509 369.108 211.167ZM368.428 210.255C369.564 209.422 370.842 209.092 372.234 209.277C373.626 209.461 374.768 210.112 375.628 211.216C376.513 212.354 376.88 213.634 376.704 215.027C376.529 216.416 375.861 217.544 374.724 218.381C373.618 219.256 372.35 219.607 370.955 219.422C369.556 219.236 368.402 218.562 367.516 217.425C366.656 216.321 366.309 215.058 366.484 213.672C366.659 212.286 367.309 211.143 368.411 210.268C368.417 210.263 368.423 210.259 368.428 210.255Z" fill="#666666"/>
<path d="M334.174 187.886C334.144 186.613 335.153 185.557 336.426 185.528L355.794 185.082C357.068 185.053 358.124 186.061 358.153 187.335V187.335C358.183 188.608 357.174 189.664 355.901 189.694L336.532 190.139C335.259 190.168 334.203 189.16 334.174 187.886V187.886Z" fill="#333333"/>
<path d="M373.694 189.327C374.116 188.125 375.432 187.493 376.634 187.915L394.913 194.336C396.114 194.758 396.746 196.075 396.324 197.276V197.276C395.902 198.478 394.586 199.11 393.384 198.688L375.106 192.267C373.904 191.845 373.272 190.529 373.694 189.327V189.327Z" fill="#333333"/>
<mask id="mask0" style="mask-type:alpha" maskUnits="userSpaceOnUse" x="313" y="169" width="115" height="94">
<path d="M402.023 254.607C395.794 260.643 388.877 263.168 381.272 262.182L337.185 256.464C329.58 255.478 323.522 251.27 319.011 243.841C314.536 236.345 312.919 227.82 314.158 218.264C314.755 213.66 315.934 209.469 317.694 205.69C316.896 202.051 316.764 198.168 317.299 194.043C318.29 186.405 321.287 180.163 326.29 175.315C331.265 170.464 336.806 168.434 342.912 169.226L409.022 177.8C415.1 178.589 419.939 181.965 423.54 187.928C427.141 193.892 428.446 200.693 427.455 208.33C426.46 216.003 423.461 222.263 418.458 227.11C416.797 228.72 415.076 230.022 413.295 231.015C413.291 231.048 413.286 231.083 413.282 231.12C412.042 240.676 408.289 248.505 402.023 254.607Z" fill="#EECCAA"/>
</mask>
<g mask="url(#mask0)">
<path d="M428.964 190.759C430.253 201.473 425.286 210.882 417.871 211.774C410.455 212.666 403.398 204.704 402.109 193.99C400.82 183.275 405.787 173.866 413.202 172.974C420.618 172.082 427.675 180.044 428.964 190.759Z" fill="#C4C4C4"/>
<path d="M332.086 185.007C328.811 192.957 320.952 197.258 314.534 194.614C308.115 191.969 305.567 183.381 308.842 175.432C312.117 167.482 319.975 163.181 326.393 165.825C332.812 168.469 335.361 177.058 332.086 185.007Z" fill="#C4C4C4"/>
</g>
<path d="M327.142 148.351C327.713 144.414 329.986 142.703 333.961 143.218L423.645 154.85C427.621 155.366 429.323 157.592 428.752 161.53L425.471 184.151C424.9 188.089 422.626 189.8 418.651 189.284L328.967 177.652C324.992 177.137 323.29 174.91 323.861 170.973L327.142 148.351Z" fill="#333333"/>
<path d="M381.46 143.174C395.098 144.943 406.459 147.273 415.542 150.166C424.625 153.059 428.753 155.66 427.926 157.971C427.099 160.282 421.557 161.63 411.302 162.014C401.046 162.398 389.099 161.706 375.46 159.937C361.822 158.168 350.461 155.837 341.378 152.945C332.295 150.052 328.167 147.451 328.994 145.14C329.821 142.829 335.363 141.481 345.619 141.097C355.875 140.713 367.822 141.405 381.46 143.174Z" fill="#666666"/>
<rect x="181.349" y="270.997" width="29.1923" height="46.9737" rx="14.5962" transform="rotate(165 181.349 270.997)" fill="#523D33"/>
<circle cx="209.721" cy="306.219" r="68.8836" transform="rotate(15 209.721 306.219)" fill="#775D4F"/>
<rect width="24.6487" height="47.3095" rx="12.3243" transform="matrix(-0.965926 -0.258819 -0.258819 0.965926 208.877 258.634)" fill="white"/>
<rect width="24.6487" height="47.3095" rx="12.3243" transform="matrix(-0.965926 -0.258819 -0.258819 0.965926 245.129 268.655)" fill="white"/>
<rect width="15.1072" height="29.0218" rx="7.55362" transform="matrix(-0.965926 -0.258819 -0.258819 0.965926 203.542 266.259)" fill="#333333"/>
<rect width="15.1072" height="29.0218" rx="7.55362" transform="matrix(-0.965926 -0.258819 -0.258819 0.965926 235.952 275.251)" fill="#333333"/>
<rect x="168.491" y="281.959" width="75.4143" height="54.7927" rx="12.0596" transform="rotate(15 168.491 281.959)" fill="#C88C6C"/>
<rect x="182.053" y="298.348" width="16.8837" height="31.9993" rx="8.44187" transform="rotate(15 182.053 298.348)" fill="#FFC19F"/>
<rect x="205.215" y="304.299" width="16.8837" height="31.9993" rx="8.44187" transform="rotate(15 205.215 304.299)" fill="#FFC19F"/>
<rect x="260.493" y="311.06" width="29.1923" height="46.9737" rx="14.5962" transform="rotate(-116.383 260.493 311.06)" fill="#523D33"/>
</g>
<defs>
<clipPath id="clip0">
<rect width="631.66" height="620" fill="white"/>
</clipPath>
</defs>
</svg>
