<svg width="620" height="620" viewBox="0 0 620 620" fill="none" xmlns="http://www.w3.org/2000/svg">
<g clip-path="url(#clip0)">
<path d="M506.367 151.86C583.809 257.768 583.606 415.453 469.97 498.133C356.333 580.814 193.799 569.078 107.257 468.251C21.7928 368.68 44.585 207.054 158.222 124.373C271.858 41.6919 428.926 45.9529 506.367 151.86Z" fill="#FF9B19"/>
<path d="M473.733 178.84C538.327 267.177 538.158 398.702 443.374 467.667C348.589 536.631 213.019 526.842 140.834 442.741C69.5485 359.689 88.5595 224.876 183.344 155.912C278.128 86.948 409.139 90.5021 473.733 178.84Z" fill="#FCA93C"/>
<path d="M445.319 202.331C498.727 275.37 498.587 384.118 420.217 441.139C341.847 498.16 229.755 490.066 170.071 420.53C111.13 351.861 126.849 240.395 205.219 183.374C283.589 126.353 391.911 129.291 445.319 202.331Z" fill="#FFB85C"/>
<path d="M413.69 228.478C454.646 284.489 454.539 367.884 394.44 411.611C334.341 455.338 248.382 449.132 202.612 395.807C157.413 343.147 169.467 257.668 229.566 213.94C289.665 170.213 372.733 172.466 413.69 228.478Z" fill="#FFD094"/>
<path d="M274.218 206.464C258.394 228.15 224.447 241.151 209.451 244.94C212.361 259.331 225.24 284.289 253.482 268.993C281.723 253.697 289.174 231.868 294.636 213.679C298.065 202.259 290.041 184.778 274.218 206.464Z" fill="#C4C4C4"/>
<path d="M151.878 173.683C154.739 200.376 177.638 228.608 188.73 239.387C179.014 250.395 155.381 265.57 138.572 238.202C121.762 210.835 126.224 188.205 130.588 169.722C133.329 158.117 149.018 146.991 151.878 173.683Z" fill="#C4C4C4"/>
<rect x="319.847" y="370.349" width="51.3751" height="178.265" rx="25.6876" transform="rotate(-7.65429 319.847 370.349)" fill="#523D33"/>
<rect x="532.292" y="310.275" width="24.815" height="121.914" rx="12.4075" transform="rotate(71.3905 532.292 310.275)" fill="#685044"/>
<rect x="197.26" y="335.019" width="51.9941" height="178.265" rx="25.997" transform="rotate(22.3457 197.26 335.019)" fill="#523D33"/>
<rect x="176.659" y="297.641" width="299.585" height="146.698" rx="30.149" transform="rotate(7.34571 176.659 297.641)" fill="#685044"/>
<rect x="265.959" y="363.26" width="51.3751" height="178.265" rx="25.6876" transform="rotate(22.3457 265.959 363.26)" fill="#685044"/>
<rect x="392.849" y="373.803" width="51.9941" height="178.265" rx="25.997" transform="rotate(-7.65428 392.849 373.803)" fill="#685044"/>
<path d="M420.161 234.338C422.791 214.065 408.479 195.498 388.194 192.867L362.789 189.572C342.504 186.941 323.929 201.243 321.3 221.516L316.575 257.948C313.945 278.221 328.257 296.788 348.542 299.419L373.947 302.714C394.232 305.345 412.807 291.043 415.436 270.77L420.161 234.338Z" fill="white"/>
<path d="M413.346 342.002C413.991 337.027 410.489 332.473 405.523 331.828L378.688 328.348C373.722 327.704 369.174 331.215 368.529 336.189V336.189C367.883 341.164 371.386 345.719 376.351 346.363L403.187 349.843C408.152 350.487 412.701 346.977 413.346 342.002V342.002Z" fill="#151E3F"/>
<path d="M405.164 247.236C404.145 239.613 409.571 232.597 417.284 231.566L467.886 224.805C475.599 223.775 482.676 229.12 483.695 236.744V236.744C484.714 244.368 479.287 251.384 471.575 252.414L420.972 259.175C413.26 260.205 406.182 254.86 405.164 247.236V247.236Z" fill="#E4BD95"/>
<path d="M455.204 222.495C455.766 218.16 459.763 215.105 464.131 215.672V215.672C468.499 216.238 471.584 220.212 471.022 224.547L470.494 228.621C469.931 232.956 465.935 236.011 461.567 235.444V235.444C457.199 234.878 454.114 230.904 454.676 226.569L455.204 222.495Z" fill="#D6AE86"/>
<path d="M332.902 237.931C329.941 245.119 321.713 248.546 314.525 245.584L267.36 226.154C260.172 223.193 256.745 214.965 259.707 207.777V207.777C262.668 200.589 270.896 197.162 278.084 200.124L325.248 219.554C332.437 222.515 335.863 230.743 332.902 237.931V237.931Z" fill="#E4BD95"/>
<path d="M272.747 199.724C273.309 195.389 277.306 192.334 281.674 192.901V192.901C286.042 193.467 289.127 197.441 288.565 201.776L288.037 205.85C287.474 210.185 283.478 213.24 279.11 212.673V212.673C274.742 212.107 271.656 208.133 272.219 203.798L272.747 199.724Z" fill="#D6AE86"/>
<path d="M400.379 211.185C401.054 205.976 397.405 201.209 392.227 200.537L356.933 195.96C351.755 195.288 347.01 198.966 346.334 204.175L341.657 240.236C340.982 245.445 344.632 250.212 349.809 250.883L385.104 255.461C390.281 256.132 395.026 252.454 395.702 247.245L400.379 211.185Z" fill="#E4BD95"/>
<path d="M312.726 287.632C310.743 302.916 321.5 316.909 336.751 318.887L380.383 324.546C395.634 326.524 409.605 315.738 411.587 300.454L414.495 278.038L315.633 265.216L312.726 287.632Z" fill="#008DD5"/>
<path d="M419.648 236.364C412.119 243.66 403.759 246.711 394.568 245.519L341.284 238.608C332.093 237.416 324.772 232.331 319.319 223.352C313.911 214.293 311.956 203.989 313.454 192.44C314.176 186.876 315.6 181.81 317.728 177.244C316.763 172.845 316.604 168.153 317.251 163.167C318.448 153.936 322.07 146.391 328.117 140.532C334.13 134.669 340.826 132.216 348.206 133.173L428.106 143.536C435.452 144.489 441.301 148.569 445.653 155.777C450.005 162.984 451.582 171.204 450.385 180.434C449.182 189.707 445.558 197.273 439.511 203.132C437.503 205.078 435.423 206.651 433.271 207.852C433.266 207.891 433.261 207.933 433.255 207.978C431.757 219.527 427.221 228.989 419.648 236.364Z" fill="#EECCAA"/>
<path d="M383.786 173.771C384.401 169.03 388.736 165.684 393.468 166.297V166.297C398.2 166.911 401.537 171.252 400.923 175.993L398.875 191.778C398.26 196.519 393.926 199.865 389.194 199.251V199.251C384.462 198.637 381.124 194.296 381.739 189.555L383.786 173.771Z" fill="white"/>
<path d="M345.559 168.813C346.174 164.071 350.509 160.726 355.241 161.339V161.339C359.973 161.953 363.31 166.294 362.695 171.035L360.648 186.82C360.033 191.561 355.699 194.907 350.967 194.293V194.293C346.235 193.679 342.897 189.338 343.512 184.597L345.559 168.813Z" fill="white"/>
<path d="M385.617 176.883C385.993 173.977 388.659 171.928 391.571 172.306V172.306C394.483 172.684 396.539 175.345 396.162 178.25L394.905 187.941C394.528 190.846 391.862 192.895 388.95 192.518V192.518C386.038 192.14 383.983 189.479 384.36 186.573L385.617 176.883Z" fill="#333333"/>
<path d="M350.026 172.265C350.403 169.36 353.069 167.311 355.981 167.689V167.689C358.893 168.066 360.948 170.728 360.571 173.633L359.315 183.324C358.938 186.229 356.272 188.278 353.36 187.9V187.9C350.448 187.523 348.393 184.861 348.769 181.956L350.026 172.265Z" fill="#333333"/>
<path d="M335.936 207.826C336.738 204.536 340.055 202.518 343.345 203.319L392.298 215.242C395.588 216.043 397.606 219.361 396.805 222.651L395.048 229.864C394.246 233.154 390.929 235.172 387.639 234.371L338.686 222.448C335.396 221.647 333.378 218.33 334.179 215.039L335.936 207.826Z" fill="#D81E5B"/>
<path d="M342.047 216.931C342.828 213.724 346.061 211.758 349.267 212.539L382.761 220.697C385.968 221.478 387.934 224.71 387.153 227.917V227.917C386.372 231.123 383.14 233.09 379.933 232.309L346.439 224.151C343.233 223.37 341.266 220.138 342.047 216.931V216.931Z" fill="#881138"/>
<path d="M341.481 199.226L354.006 204.385L366.673 209.604C365.523 212.397 363.317 214.269 360.055 215.221C356.793 216.173 353.417 215.93 349.926 214.492C346.435 213.054 343.867 210.848 342.222 207.875C340.577 204.902 340.33 202.019 341.481 199.226Z" fill="#666666"/>
<path d="M346.513 201.368L356.534 205.496L366.667 209.671C367.242 208.274 366.751 206.681 365.192 204.891C363.634 203.102 361.458 201.632 358.666 200.481C355.873 199.331 353.293 198.842 350.926 199.015C348.56 199.187 347.089 199.972 346.513 201.368Z" fill="#666666"/>
<path d="M393.865 206.02L380.438 207.814L366.859 209.628C367.259 212.622 368.914 214.995 371.825 216.748C374.736 218.5 378.063 219.127 381.805 218.627C385.548 218.127 388.593 216.649 390.942 214.194C393.291 211.739 394.265 209.014 393.865 206.02Z" fill="#666666"/>
<path d="M388.454 206.808L377.712 208.243L366.849 209.694C366.649 208.197 367.531 206.782 369.494 205.449C371.458 204.116 373.936 203.25 376.93 202.85C379.924 202.45 382.543 202.635 384.787 203.406C387.032 204.177 388.254 205.311 388.454 206.808Z" fill="#666666"/>
<path d="M378.005 190.78C378.203 189.254 377.143 187.859 375.636 187.663L367.031 186.547C365.524 186.352 364.143 187.43 363.945 188.956L361.698 206.279C361.5 207.805 362.561 209.2 364.067 209.395L372.673 210.511C374.179 210.707 375.561 209.628 375.759 208.102L378.005 190.78Z" fill="#EEAA99"/>
<path fill-rule="evenodd" clip-rule="evenodd" d="M365.265 185.643C365.312 185.283 365.659 185.031 366.042 185.081L377.402 186.566C377.784 186.616 378.057 186.948 378.011 187.309C377.964 187.669 377.617 187.921 377.234 187.871L365.874 186.387C365.492 186.337 365.219 186.004 365.265 185.643Z" fill="#666666"/>
<path fill-rule="evenodd" clip-rule="evenodd" d="M357.116 180.912C356.03 181.748 355.418 182.805 355.253 184.113C355.087 185.424 355.422 186.584 356.268 187.633C357.157 188.735 358.271 189.361 359.641 189.542C361.01 189.724 362.217 189.406 363.303 188.575C363.31 188.57 363.317 188.564 363.324 188.559C364.443 187.768 365.068 186.739 365.232 185.436C365.397 184.132 365.05 182.947 364.161 181.846C363.314 180.797 362.222 180.188 360.844 180.006C359.47 179.824 358.239 180.122 357.116 180.912ZM356.26 179.805C357.676 178.804 359.273 178.413 361.016 178.644C362.758 178.875 364.19 179.669 365.271 181.009C366.385 182.389 366.851 183.939 366.638 185.622C366.427 187.302 365.596 188.661 364.18 189.667C362.801 190.718 361.216 191.136 359.469 190.904C357.719 190.672 356.271 189.851 355.158 188.471C354.076 187.13 353.635 185.602 353.847 183.926C354.058 182.252 354.865 180.873 356.239 179.821C356.246 179.815 356.253 179.81 356.26 179.805Z" fill="#666666"/>
<path fill-rule="evenodd" clip-rule="evenodd" d="M379.866 183.863C378.812 184.703 378.216 185.762 378.051 187.07C377.886 188.382 378.204 189.539 379.018 190.584C379.872 191.681 380.946 192.302 382.268 192.477C383.59 192.653 384.758 192.33 385.81 191.494C385.817 191.488 385.824 191.483 385.831 191.478C386.915 190.683 387.524 189.65 387.688 188.347C387.853 187.043 387.522 185.861 386.668 184.764C385.855 183.719 384.802 183.116 383.471 182.94C382.144 182.764 380.954 183.067 379.866 183.863ZM379.044 182.76C380.416 181.753 381.961 181.355 383.643 181.578C385.326 181.801 386.706 182.588 387.745 183.922C388.815 185.297 389.258 186.844 389.046 188.527C388.834 190.207 388.026 191.57 386.653 192.581C385.316 193.638 383.784 194.063 382.097 193.839C380.406 193.615 379.011 192.801 377.941 191.426C376.902 190.091 376.482 188.565 376.694 186.89C376.905 185.215 377.69 183.833 379.023 182.775C379.03 182.77 379.037 182.765 379.044 182.76Z" fill="#666666"/>
<path d="M337.645 155.727C337.609 154.188 338.828 152.911 340.367 152.876L363.776 152.337C365.315 152.302 366.591 153.521 366.626 155.06V155.06C366.662 156.599 365.443 157.875 363.904 157.911L340.495 158.449C338.956 158.485 337.68 157.266 337.645 155.727V155.727Z" fill="#333333"/>
<path d="M385.409 157.467C385.919 156.015 387.51 155.251 388.962 155.761L411.054 163.521C412.506 164.031 413.27 165.622 412.76 167.075V167.075C412.249 168.527 410.658 169.291 409.206 168.781L387.115 161.021C385.662 160.511 384.899 158.92 385.409 157.467V157.467Z" fill="#333333"/>
<mask id="mask0" style="mask-type:alpha" maskUnits="userSpaceOnUse" x="312" y="132" width="139" height="114">
<path d="M419.648 236.365C412.119 243.661 403.759 246.712 394.568 245.52L341.284 238.609C332.093 237.417 324.772 232.332 319.319 223.353C313.911 214.294 311.956 203.99 313.454 192.441C314.176 186.877 315.6 181.811 317.728 177.245C316.763 172.846 316.604 168.154 317.251 163.168C318.448 153.937 322.07 146.392 328.117 140.533C334.13 134.67 340.826 132.217 348.206 133.174L428.106 143.537C435.452 144.49 441.301 148.57 445.653 155.778C450.005 162.985 451.582 171.204 450.385 180.435C449.182 189.708 445.558 197.274 439.511 203.133C437.503 205.079 435.423 206.652 433.271 207.853C433.266 207.892 433.261 207.934 433.255 207.979C431.757 219.528 427.221 228.99 419.648 236.365Z" fill="#EECCAA"/>
</mask>
<g mask="url(#mask0)">
<path d="M452.209 159.198C453.767 172.147 447.764 183.519 438.802 184.597C429.839 185.676 421.31 176.052 419.752 163.103C418.194 150.154 424.197 138.782 433.16 137.704C442.122 136.625 450.651 146.249 452.209 159.198Z" fill="#C4C4C4"/>
<path d="M335.122 152.247C331.164 161.855 321.666 167.053 313.909 163.857C306.151 160.661 303.071 150.282 307.029 140.674C310.988 131.066 320.485 125.868 328.243 129.063C336 132.259 339.08 142.639 335.122 152.247Z" fill="#C4C4C4"/>
</g>
<path d="M329.146 107.944C329.836 103.185 332.584 101.117 337.388 101.74L445.78 115.799C450.585 116.422 452.642 119.113 451.951 123.872L447.986 151.212C447.296 155.971 444.548 158.039 439.744 157.416L331.352 143.357C326.547 142.734 324.49 140.043 325.181 135.284L329.146 107.944Z" fill="#333333"/>
<path d="M394.794 101.687C411.277 103.825 425.008 106.642 435.986 110.138C446.963 113.633 451.953 116.778 450.953 119.571C449.953 122.364 443.256 123.992 430.861 124.457C418.465 124.921 404.026 124.085 387.543 121.947C371.06 119.809 357.329 116.992 346.351 113.496C335.373 110 330.384 106.856 331.384 104.063C332.384 101.27 339.081 99.6413 351.476 99.1768C363.872 98.7124 378.311 99.5491 394.794 101.687Z" fill="#666666"/>
<rect x="152.943" y="256.173" width="35.2817" height="56.7722" rx="17.6409" transform="rotate(165 152.943 256.173)" fill="#523D33"/>
<circle cx="187.234" cy="298.743" r="83.2524" transform="rotate(15 187.234 298.743)" fill="#775D4F"/>
<rect width="29.7903" height="57.1781" rx="14.8951" transform="matrix(-0.965926 -0.258819 -0.258819 0.965926 186.212 241.231)" fill="white"/>
<rect width="29.7903" height="57.1781" rx="14.8951" transform="matrix(-0.965926 -0.258819 -0.258819 0.965926 230.026 253.341)" fill="white"/>
<rect width="18.2585" height="35.0756" rx="9.12927" transform="matrix(-0.965926 -0.258819 -0.258819 0.965926 179.764 250.447)" fill="#333333"/>
<rect width="18.2586" height="35.0756" rx="9.12928" transform="matrix(-0.965926 -0.258819 -0.258819 0.965926 218.936 261.314)" fill="#333333"/>
<rect x="137.403" y="269.422" width="91.1454" height="66.2223" rx="12.0596" transform="rotate(15 137.403 269.422)" fill="#C88C6C"/>
<rect x="153.793" y="289.229" width="20.4056" height="38.6742" rx="10.2028" transform="rotate(15 153.793 289.229)" fill="#FFC19F"/>
<rect x="181.787" y="296.421" width="20.4056" height="38.6742" rx="10.2028" transform="rotate(15 181.787 296.421)" fill="#FFC19F"/>
<rect x="248.595" y="304.593" width="35.2817" height="56.7722" rx="17.6409" transform="rotate(-116.383 248.595 304.593)" fill="#523D33"/>
</g>
<defs>
<clipPath id="clip0">
<rect width="620" height="620" fill="white"/>
</clipPath>
</defs>
</svg>
