<svg width="620" height="620" viewBox="0 0 620 620" fill="none" xmlns="http://www.w3.org/2000/svg">
<g clip-path="url(#clip0)">
<path d="M505.241 152.791C582.24 258.093 582.038 414.875 469.052 497.082C356.066 579.29 194.463 567.621 108.416 467.371C23.4408 368.37 46.1025 207.669 159.088 125.461C272.074 43.2538 428.243 47.4904 505.241 152.791Z" fill="#FF9B19"/>
<path d="M472.794 179.616C537.018 267.448 536.85 398.22 442.608 466.79C348.366 535.359 213.573 525.626 141.801 442.007C70.9233 359.431 89.8255 225.389 184.067 156.82C278.309 88.2506 408.569 91.7844 472.794 179.616Z" fill="#FCA93C"/>
<path d="M444.542 202.973C497.645 275.594 497.505 383.719 419.584 440.414C341.663 497.109 230.213 489.061 170.87 419.923C112.267 351.647 127.896 240.819 205.817 184.124C283.738 127.43 391.44 130.351 444.542 202.973Z" fill="#FFB85C"/>
<path d="M413.095 228.97C453.817 284.661 453.71 367.578 393.955 411.055C334.2 454.532 248.733 448.361 203.225 395.341C158.285 342.983 170.27 257.993 230.025 214.516C289.78 171.039 372.372 173.279 413.095 228.97Z" fill="#FFD094"/>
<path d="M274.42 207.083C258.687 228.645 224.935 241.571 210.025 245.338C212.918 259.647 225.723 284.463 253.803 269.254C281.883 254.045 289.291 232.341 294.722 214.257C298.131 202.902 290.154 185.521 274.42 207.083Z" fill="#C4C4C4"/>
<path d="M152.781 174.49C155.626 201.03 178.394 229.1 189.422 239.818C179.762 250.763 156.264 265.851 139.551 238.64C122.838 211.429 127.274 188.929 131.613 170.552C134.338 159.013 149.937 147.95 152.781 174.49Z" fill="#C4C4C4"/>
<rect x="319.789" y="370.03" width="51.081" height="177.245" rx="25.5405" transform="rotate(-7.65429 319.789 370.03)" fill="#523D33"/>
<rect x="531.018" y="310.299" width="24.6729" height="121.216" rx="12.3365" transform="rotate(71.3905 531.018 310.299)" fill="#685044"/>
<rect x="197.903" y="334.902" width="51.6964" height="177.245" rx="25.8482" transform="rotate(22.3457 197.903 334.902)" fill="#523D33"/>
<rect x="177.421" y="297.738" width="297.87" height="145.858" rx="30.149" transform="rotate(7.34571 177.421 297.738)" fill="#685044"/>
<rect x="266.209" y="362.981" width="51.081" height="177.245" rx="25.5405" transform="rotate(22.3457 266.209 362.981)" fill="#685044"/>
<rect x="392.373" y="373.463" width="51.6964" height="177.245" rx="25.8482" transform="rotate(-7.65428 392.373 373.463)" fill="#685044"/>
<path d="M419.529 234.797C422.143 214.64 407.913 196.179 387.745 193.564L362.484 190.287C342.316 187.671 323.847 201.891 321.233 222.048L316.535 258.271C313.92 278.428 328.151 296.889 348.319 299.505L373.579 302.781C393.747 305.397 412.216 291.177 414.83 271.02L419.529 234.797Z" fill="white"/>
<path d="M412.753 341.845C413.394 336.898 409.912 332.37 404.974 331.729L378.293 328.269C373.356 327.628 368.833 331.119 368.192 336.065V336.065C367.55 341.011 371.033 345.54 375.97 346.18L402.651 349.641C407.589 350.281 412.111 346.791 412.753 341.845V341.845Z" fill="#151E3F"/>
<path d="M404.617 247.621C403.604 240.041 408.999 233.065 416.667 232.041L466.981 225.319C474.649 224.294 481.686 229.609 482.699 237.189V237.189C483.711 244.769 478.316 251.745 470.648 252.769L420.335 259.492C412.667 260.516 405.63 255.202 404.617 247.621V247.621Z" fill="#E4BD95"/>
<path d="M454.371 223.022C454.93 218.712 458.904 215.674 463.247 216.238V216.238C467.59 216.801 470.657 220.752 470.098 225.062L469.573 229.113C469.014 233.423 465.04 236.46 460.697 235.897V235.897C456.354 235.334 453.287 231.383 453.846 227.073L454.371 223.022Z" fill="#D6AE86"/>
<path d="M332.769 238.369C329.824 245.516 321.644 248.923 314.497 245.979L267.602 226.66C260.455 223.716 257.048 215.535 259.992 208.388V208.388C262.937 201.241 271.117 197.834 278.264 200.778L325.159 220.097C332.306 223.042 335.713 231.222 332.769 238.369V238.369Z" fill="#E4BD95"/>
<path d="M272.959 200.381C273.518 196.071 277.491 193.034 281.834 193.597V193.597C286.177 194.16 289.245 198.111 288.686 202.421L288.16 206.472C287.601 210.782 283.628 213.819 279.285 213.256V213.256C274.942 212.693 271.874 208.742 272.433 204.432L272.959 200.381Z" fill="#D6AE86"/>
<path d="M399.859 211.776C400.531 206.597 396.902 201.858 391.754 201.19L356.662 196.639C351.514 195.971 346.796 199.628 346.124 204.807L341.474 240.661C340.803 245.84 344.431 250.58 349.579 251.247L384.672 255.799C389.82 256.466 394.538 252.809 395.209 247.63L399.859 211.776Z" fill="#E4BD95"/>
<path d="M312.708 287.785C310.737 302.982 321.432 316.895 336.596 318.862L379.978 324.488C395.142 326.455 409.033 315.73 411.004 300.534L413.894 278.246L315.599 265.498L312.708 287.785Z" fill="#008DD5"/>
<path d="M419.018 236.812C411.532 244.065 403.22 247.099 394.082 245.914L341.103 239.043C331.965 237.858 324.685 232.801 319.264 223.874C313.887 214.867 311.943 204.622 313.433 193.139C314.15 187.606 315.566 182.57 317.681 178.029C316.723 173.656 316.565 168.99 317.208 164.033C318.398 154.855 321.999 147.354 328.011 141.528C333.99 135.699 340.648 133.26 347.985 134.211L427.428 144.515C434.732 145.462 440.547 149.519 444.874 156.685C449.201 163.852 450.77 172.024 449.579 181.202C448.383 190.422 444.779 197.944 438.768 203.77C436.771 205.704 434.703 207.268 432.563 208.462C432.558 208.501 432.553 208.543 432.547 208.588C431.058 220.071 426.548 229.479 419.018 236.812Z" fill="#EECCAA"/>
<path d="M383.362 174.576C383.974 169.862 388.283 166.535 392.988 167.145V167.145C397.693 167.756 401.012 172.072 400.4 176.786L398.365 192.48C397.753 197.194 393.443 200.521 388.739 199.911V199.911C384.034 199.3 380.715 194.984 381.327 190.27L383.362 174.576Z" fill="white"/>
<path d="M345.354 169.646C345.965 164.932 350.275 161.606 354.98 162.216V162.216C359.685 162.826 363.003 167.142 362.392 171.856L360.356 187.55C359.745 192.264 355.435 195.591 350.73 194.981V194.981C346.025 194.371 342.707 190.055 343.318 185.341L345.354 169.646Z" fill="white"/>
<path d="M385.182 177.67C385.557 174.781 388.207 172.744 391.103 173.119V173.119C393.998 173.495 396.042 176.141 395.667 179.03L394.417 188.665C394.043 191.554 391.392 193.591 388.496 193.215V193.215C385.601 192.84 383.558 190.194 383.932 187.305L385.182 177.67Z" fill="#333333"/>
<path d="M349.795 173.08C350.17 170.191 352.821 168.154 355.716 168.529V168.529C358.611 168.905 360.655 171.551 360.28 174.439L359.03 184.075C358.656 186.963 356.005 189.001 353.11 188.625V188.625C350.214 188.25 348.171 185.603 348.546 182.715L349.795 173.08Z" fill="#333333"/>
<path d="M335.785 208.437C336.582 205.165 339.88 203.159 343.152 203.956L391.824 215.81C395.096 216.607 397.102 219.905 396.305 223.177L394.559 230.348C393.762 233.62 390.464 235.626 387.192 234.829L338.52 222.975C335.248 222.178 333.242 218.88 334.039 215.608L335.785 208.437Z" fill="#D81E5B"/>
<path d="M341.862 217.489C342.639 214.301 345.853 212.346 349.041 213.122L382.343 221.233C385.531 222.01 387.486 225.224 386.71 228.412V228.412C385.933 231.6 382.719 233.555 379.531 232.779L346.229 224.668C343.041 223.891 341.086 220.677 341.862 217.489V217.489Z" fill="#881138"/>
<path d="M341.299 199.885L353.753 205.016L366.348 210.204C365.204 212.981 363.01 214.843 359.767 215.789C356.524 216.736 353.167 216.494 349.696 215.064C346.225 213.634 343.672 211.441 342.036 208.485C340.401 205.529 340.155 202.662 341.299 199.885Z" fill="#666666"/>
<path d="M346.303 202.016L356.265 206.12L366.341 210.271C366.913 208.883 366.424 207.299 364.875 205.519C363.325 203.74 361.162 202.278 358.385 201.134C355.608 199.99 353.043 199.504 350.69 199.676C348.337 199.848 346.875 200.628 346.303 202.016Z" fill="#666666"/>
<path d="M393.384 206.642L380.033 208.425L366.532 210.229C366.93 213.206 368.576 215.565 371.47 217.308C374.364 219.05 377.672 219.673 381.393 219.176C385.114 218.679 388.142 217.21 390.478 214.769C392.813 212.327 393.782 209.618 393.384 206.642Z" fill="#666666"/>
<path d="M388.004 207.424L377.323 208.851L366.523 210.294C366.324 208.806 367.2 207.399 369.152 206.073C371.105 204.748 373.569 203.887 376.546 203.489C379.522 203.091 382.127 203.276 384.358 204.042C386.59 204.809 387.805 205.936 388.004 207.424Z" fill="#666666"/>
<path d="M377.614 191.488C377.811 189.971 376.757 188.584 375.259 188.39L366.703 187.28C365.205 187.086 363.831 188.158 363.635 189.675L361.401 206.898C361.204 208.415 362.259 209.803 363.756 209.997L372.313 211.107C373.81 211.301 375.184 210.229 375.381 208.712L377.614 191.488Z" fill="#EEAA99"/>
<path fill-rule="evenodd" clip-rule="evenodd" d="M364.947 186.381C364.993 186.022 365.339 185.772 365.719 185.822L377.014 187.298C377.394 187.347 377.665 187.678 377.619 188.037C377.573 188.395 377.228 188.645 376.847 188.596L365.552 187.12C365.172 187.07 364.901 186.739 364.947 186.381Z" fill="#666666"/>
<path fill-rule="evenodd" clip-rule="evenodd" d="M356.845 181.677C355.765 182.507 355.156 183.558 354.992 184.859C354.828 186.163 355.16 187.316 356.002 188.359C356.886 189.454 357.993 190.077 359.356 190.257C360.717 190.438 361.916 190.122 362.996 189.295C363.003 189.29 363.01 189.285 363.017 189.28C364.13 188.494 364.751 187.47 364.915 186.174C365.078 184.878 364.733 183.7 363.849 182.605C363.008 181.562 361.921 180.957 360.551 180.775C359.185 180.594 357.962 180.891 356.845 181.677ZM355.994 180.576C357.402 179.581 358.99 179.192 360.722 179.422C362.455 179.651 363.878 180.44 364.954 181.772C366.061 183.145 366.524 184.686 366.313 186.359C366.102 188.029 365.277 189.381 363.868 190.381C362.497 191.427 360.922 191.841 359.185 191.611C357.444 191.381 356.005 190.564 354.898 189.192C353.823 187.859 353.384 186.339 353.594 184.673C353.804 183.008 354.606 181.638 355.973 180.591C355.98 180.586 355.987 180.581 355.994 180.576Z" fill="#666666"/>
<path fill-rule="evenodd" clip-rule="evenodd" d="M379.465 184.611C378.417 185.446 377.825 186.499 377.661 187.799C377.496 189.104 377.813 190.255 378.622 191.293C379.471 192.384 380.538 193.001 381.854 193.176C383.168 193.35 384.329 193.029 385.375 192.198C385.382 192.193 385.389 192.187 385.396 192.182C386.474 191.391 387.079 190.365 387.242 189.069C387.406 187.773 387.077 186.598 386.228 185.507C385.419 184.468 384.372 183.868 383.05 183.693C381.73 183.518 380.547 183.82 379.465 184.611ZM378.647 183.514C380.011 182.513 381.548 182.117 383.22 182.339C384.894 182.561 386.266 183.343 387.299 184.67C388.363 186.036 388.803 187.575 388.592 189.248C388.382 190.919 387.578 192.273 386.213 193.279C384.884 194.33 383.36 194.752 381.683 194.53C380.002 194.307 378.615 193.497 377.551 192.131C376.518 190.803 376.101 189.286 376.311 187.62C376.521 185.955 377.302 184.581 378.627 183.529C378.634 183.524 378.64 183.519 378.647 183.514Z" fill="#666666"/>
<path d="M337.484 156.635C337.449 155.105 338.661 153.836 340.191 153.801L363.465 153.266C364.996 153.23 366.265 154.442 366.3 155.973V155.973C366.335 157.503 365.123 158.772 363.593 158.807L340.319 159.343C338.788 159.378 337.519 158.166 337.484 156.635V156.635Z" fill="#333333"/>
<path d="M384.975 158.366C385.482 156.922 387.064 156.163 388.508 156.67L410.473 164.386C411.917 164.893 412.677 166.475 412.169 167.919V167.919C411.662 169.363 410.08 170.123 408.636 169.615L386.671 161.9C385.227 161.392 384.468 159.81 384.975 158.366V158.366Z" fill="#333333"/>
<mask id="mask0" style="mask-type:alpha" maskUnits="userSpaceOnUse" x="312" y="134" width="138" height="113">
<path d="M419.017 236.813C411.532 244.066 403.22 247.1 394.081 245.915L341.103 239.044C331.964 237.859 324.685 232.802 319.263 223.875C313.887 214.868 311.943 204.623 313.432 193.14C314.15 187.607 315.566 182.571 317.681 178.03C316.722 173.657 316.564 168.991 317.207 164.034C318.397 154.856 321.999 147.355 328.011 141.529C333.989 135.7 340.647 133.261 347.984 134.212L427.427 144.516C434.731 145.463 440.547 149.52 444.874 156.686C449.201 163.853 450.769 172.025 449.579 181.203C448.383 190.423 444.779 197.945 438.767 203.77C436.771 205.705 434.703 207.269 432.563 208.463C432.558 208.502 432.552 208.544 432.547 208.589C431.057 220.072 426.548 229.48 419.017 236.813Z" fill="#EECCAA"/>
</mask>
<g mask="url(#mask0)">
<path d="M451.392 160.087C452.941 172.962 446.973 184.269 438.062 185.341C429.15 186.413 420.67 176.845 419.121 163.97C417.572 151.095 423.541 139.788 432.452 138.716C441.363 137.644 449.843 147.212 451.392 160.087Z" fill="#C4C4C4"/>
<path d="M334.976 153.175C331.04 162.728 321.597 167.896 313.884 164.719C306.171 161.541 303.109 151.221 307.044 141.668C310.98 132.115 320.423 126.947 328.136 130.125C335.849 133.302 338.911 143.622 334.976 153.175Z" fill="#C4C4C4"/>
</g>
<path d="M329.034 109.127C329.72 104.395 332.452 102.339 337.229 102.959L445 116.936C449.777 117.556 451.823 120.232 451.137 124.963L447.194 152.147C446.508 156.879 443.776 158.935 438.999 158.315L331.228 144.337C326.451 143.718 324.405 141.042 325.091 136.31L329.034 109.127Z" fill="#333333"/>
<path d="M394.307 102.905C410.696 105.031 424.348 107.832 435.263 111.307C446.177 114.783 451.138 117.91 450.144 120.687C449.15 123.464 442.491 125.083 430.167 125.545C417.842 126.006 403.486 125.175 387.097 123.049C370.708 120.923 357.056 118.123 346.141 114.647C335.226 111.171 330.266 108.044 331.26 105.268C332.254 102.491 338.913 100.871 351.237 100.409C363.561 99.9476 377.918 100.78 394.307 102.905Z" fill="#666666"/>
<rect x="153.84" y="256.507" width="35.0797" height="56.4472" rx="17.5399" transform="rotate(165 153.84 256.507)" fill="#523D33"/>
<circle cx="187.935" cy="298.833" r="82.7758" transform="rotate(15 187.935 298.833)" fill="#775D4F"/>
<rect width="29.6197" height="56.8507" rx="14.8099" transform="matrix(-0.965926 -0.258819 -0.258819 0.965926 186.918 241.65)" fill="white"/>
<rect width="29.6197" height="56.8507" rx="14.8099" transform="matrix(-0.965926 -0.258819 -0.258819 0.965926 230.482 253.692)" fill="white"/>
<rect width="18.154" height="34.8748" rx="9.07701" transform="matrix(-0.965926 -0.258819 -0.258819 0.965926 180.508 250.814)" fill="#333333"/>
<rect width="18.154" height="34.8748" rx="9.07701" transform="matrix(-0.965926 -0.258819 -0.258819 0.965926 219.455 261.619)" fill="#333333"/>
<rect x="138.389" y="269.68" width="90.6236" height="65.8431" rx="12.0596" transform="rotate(15 138.389 269.68)" fill="#C88C6C"/>
<rect x="154.685" y="289.374" width="20.2888" height="38.4528" rx="10.1444" transform="rotate(15 154.685 289.374)" fill="#FFC19F"/>
<rect x="182.519" y="296.525" width="20.2888" height="38.4528" rx="10.1444" transform="rotate(15 182.519 296.525)" fill="#FFC19F"/>
<rect x="248.944" y="304.65" width="35.0797" height="56.4472" rx="17.5399" transform="rotate(-116.383 248.944 304.65)" fill="#523D33"/>
</g>
<defs>
<clipPath id="clip0">
<rect width="620" height="620" fill="white"/>
</clipPath>
</defs>
</svg>
