<svg width="620" height="620" viewBox="0 0 620 620" fill="none" xmlns="http://www.w3.org/2000/svg">
<g clip-path="url(#clip0)">
<path d="M512.951 146.417C592.985 255.869 592.775 418.832 475.335 504.28C357.895 589.728 189.922 577.599 100.483 473.397C12.1582 370.494 35.7132 203.458 153.153 118.01C270.593 32.5616 432.918 36.9652 512.951 146.417Z" fill="#FF9B19"/>
<path d="M479.225 174.299C545.981 265.594 545.806 401.521 447.849 472.793C349.892 544.066 209.785 533.949 135.184 447.034C61.5124 361.202 81.1597 221.877 179.117 150.605C277.073 79.3322 412.469 83.0052 479.225 174.299Z" fill="#FFAF47"/>
<path d="M449.859 198.576C505.055 274.06 504.91 386.448 423.917 445.378C342.924 504.307 227.081 495.942 165.399 424.079C104.485 353.111 120.73 237.914 201.723 178.985C282.716 120.055 394.664 123.092 449.859 198.576Z" fill="#FAC98A"/>
<path d="M273.032 202.849C256.678 225.261 221.595 238.697 206.098 242.613C209.105 257.486 222.415 283.279 251.602 267.471C280.788 251.663 288.488 229.103 294.133 210.306C297.677 198.503 289.385 180.438 273.032 202.849Z" fill="#C4C4C4"/>
<path d="M146.598 168.971C149.554 196.557 173.219 225.734 184.682 236.874C174.642 248.251 150.218 263.934 132.846 235.65C115.473 207.366 120.085 183.979 124.595 164.878C127.427 152.884 143.641 141.385 146.598 168.971Z" fill="#C4C4C4"/>
<rect x="320.188" y="372.219" width="53.0946" height="184.232" rx="26.5473" transform="rotate(-7.65429 320.188 372.219)" fill="#523D33"/>
<rect x="539.744" y="310.134" width="25.6455" height="125.994" rx="12.8228" transform="rotate(71.3905 539.744 310.134)" fill="#685044"/>
<rect x="193.498" y="335.707" width="53.7343" height="184.232" rx="26.8672" transform="rotate(22.3457 193.498 335.707)" fill="#523D33"/>
<rect x="172.208" y="297.077" width="309.612" height="151.608" rx="30.149" transform="rotate(7.34571 172.208 297.077)" fill="#685044"/>
<rect x="264.497" y="364.893" width="53.0946" height="184.232" rx="26.5473" transform="rotate(22.3457 264.497 364.893)" fill="#685044"/>
<rect x="395.634" y="375.788" width="53.7343" height="184.232" rx="26.8672" transform="rotate(-7.65428 395.634 375.788)" fill="#685044"/>
<path d="M423.861 231.655C426.578 210.704 411.787 191.515 390.824 188.796L364.567 185.391C343.604 182.672 324.407 197.452 321.69 218.404L316.807 256.055C314.089 277.006 328.88 296.195 349.844 298.914L376.1 302.319C397.063 305.038 416.26 290.258 418.977 269.306L423.861 231.655Z" fill="white"/>
<path d="M416.817 342.922C417.484 337.781 413.864 333.074 408.732 332.408L380.999 328.811C375.867 328.146 371.167 331.774 370.5 336.915V336.915C369.833 342.056 373.453 346.763 378.584 347.429L406.318 351.026C411.45 351.691 416.15 348.063 416.817 342.922V342.922Z" fill="#151E3F"/>
<path d="M408.362 244.985C407.309 237.106 412.917 229.855 420.887 228.791L473.184 221.803C481.154 220.738 488.469 226.262 489.521 234.142V234.142C490.574 242.021 484.966 249.271 476.996 250.336L424.699 257.323C416.729 258.388 409.414 252.864 408.362 244.985V244.985Z" fill="#E4BD95"/>
<path d="M460.077 219.416C460.658 214.935 464.788 211.778 469.303 212.364V212.364C473.817 212.949 477.005 217.056 476.424 221.536L475.878 225.746C475.297 230.226 471.166 233.383 466.652 232.798V232.798C462.138 232.212 458.95 228.106 459.531 223.626L460.077 219.416Z" fill="#D6AE86"/>
<path d="M333.68 235.368C330.62 242.797 322.117 246.338 314.688 243.278L265.945 223.198C258.516 220.137 254.975 211.634 258.035 204.205V204.205C261.096 196.777 269.599 193.235 277.028 196.296L325.771 216.376C333.2 219.436 336.741 227.94 333.68 235.368V235.368Z" fill="#E4BD95"/>
<path d="M271.513 195.883C272.094 191.403 276.224 188.246 280.739 188.831V188.831C285.253 189.417 288.441 193.523 287.86 198.003L287.314 202.214C286.733 206.694 282.602 209.851 278.088 209.265V209.265C273.574 208.68 270.386 204.573 270.967 200.093L271.513 195.883Z" fill="#D6AE86"/>
<path d="M403.416 207.727C404.114 202.344 400.342 197.417 394.991 196.723L358.516 191.993C353.165 191.299 348.261 195.1 347.563 200.483L342.729 237.75C342.031 243.133 345.803 248.06 351.154 248.754L387.629 253.485C392.98 254.179 397.884 250.378 398.582 244.995L403.416 207.727Z" fill="#E4BD95"/>
<path d="M312.829 286.732C310.78 302.527 321.897 316.989 337.658 319.034L382.75 324.882C398.512 326.926 412.95 315.779 414.999 299.983L418.004 276.817L315.833 263.566L312.829 286.732Z" fill="#008DD5"/>
<path d="M423.33 233.749C415.549 241.289 406.909 244.442 397.411 243.21L342.344 236.068C332.845 234.836 325.278 229.581 319.644 220.301C314.055 210.939 312.034 200.29 313.582 188.355C314.328 182.604 315.8 177.369 317.999 172.65C317.002 168.104 316.838 163.254 317.506 158.102C318.743 148.562 322.487 140.765 328.735 134.71C334.95 128.65 341.87 126.115 349.497 127.104L432.071 137.814C439.663 138.799 445.708 143.015 450.205 150.464C454.703 157.913 456.333 166.407 455.096 175.947C453.853 185.53 450.107 193.35 443.858 199.405C441.783 201.415 439.633 203.041 437.409 204.282C437.404 204.322 437.398 204.366 437.392 204.413C435.844 216.348 431.157 226.127 423.33 233.749Z" fill="#EECCAA"/>
<path d="M386.269 169.06C386.904 164.16 391.384 160.702 396.274 161.336V161.336C401.165 161.971 404.614 166.457 403.978 171.357L401.863 187.67C401.227 192.57 396.747 196.028 391.857 195.393V195.393C386.967 194.759 383.517 190.273 384.153 185.373L386.269 169.06Z" fill="white"/>
<path d="M346.762 163.936C347.397 159.037 351.877 155.579 356.767 156.213V156.213C361.658 156.847 365.107 161.333 364.471 166.233L362.356 182.546C361.72 187.446 357.241 190.904 352.35 190.27V190.27C347.46 189.635 344.011 185.149 344.646 180.249L346.762 163.936Z" fill="white"/>
<path d="M388.16 172.277C388.549 169.274 391.304 167.156 394.314 167.547V167.547C397.323 167.937 399.447 170.687 399.058 173.69L397.759 183.705C397.369 186.707 394.614 188.825 391.605 188.435V188.435C388.595 188.044 386.471 185.294 386.861 182.291L388.16 172.277Z" fill="#333333"/>
<path d="M351.378 167.505C351.768 164.502 354.523 162.385 357.533 162.775V162.775C360.542 163.165 362.666 165.916 362.277 168.918L360.978 178.933C360.588 181.936 357.833 184.054 354.823 183.663V183.663C351.814 183.273 349.69 180.522 350.079 177.52L351.378 167.505Z" fill="#333333"/>
<path d="M336.816 204.255C337.644 200.854 341.073 198.769 344.474 199.597L395.064 211.918C398.465 212.747 400.55 216.175 399.722 219.576L397.907 227.03C397.078 230.431 393.65 232.516 390.249 231.688L339.659 219.366C336.258 218.538 334.172 215.11 335.001 211.709L336.816 204.255Z" fill="#D81E5B"/>
<path d="M343.132 213.664C343.939 210.35 347.28 208.318 350.594 209.125L385.209 217.556C388.523 218.363 390.555 221.704 389.748 225.018V225.018C388.941 228.332 385.6 230.364 382.286 229.557L347.671 221.126C344.357 220.319 342.325 216.978 343.132 213.664V213.664Z" fill="#881138"/>
<path d="M342.548 195.367L355.493 200.7L368.584 206.093C367.395 208.979 365.115 210.914 361.744 211.898C358.373 212.882 354.884 212.631 351.276 211.144C347.668 209.658 345.014 207.379 343.314 204.306C341.614 201.233 341.359 198.254 342.548 195.367Z" fill="#666666"/>
<path d="M347.748 197.582L358.104 201.848L368.576 206.162C369.171 204.719 368.663 203.072 367.052 201.223C365.442 199.373 363.193 197.854 360.307 196.665C357.421 195.476 354.755 194.971 352.309 195.149C349.863 195.328 348.343 196.139 347.748 197.582Z" fill="#666666"/>
<path d="M396.685 202.39L382.809 204.244L368.775 206.119C369.188 209.213 370.899 211.665 373.908 213.477C376.916 215.288 380.354 215.935 384.222 215.418C388.089 214.902 391.237 213.375 393.664 210.837C396.092 208.3 397.099 205.484 396.685 202.39Z" fill="#666666"/>
<path d="M391.093 203.204L379.992 204.686L368.765 206.186C368.558 204.639 369.47 203.177 371.499 201.799C373.528 200.422 376.089 199.526 379.183 199.113C382.277 198.7 384.984 198.891 387.304 199.688C389.623 200.485 390.886 201.656 391.093 203.204Z" fill="#666666"/>
<path d="M380.294 186.639C380.499 185.062 379.403 183.621 377.846 183.419L368.952 182.265C367.396 182.063 365.968 183.178 365.763 184.755L363.441 202.657C363.237 204.234 364.333 205.676 365.89 205.878L374.783 207.031C376.34 207.233 377.768 206.119 377.972 204.542L380.294 186.639Z" fill="#EEAA99"/>
<path fill-rule="evenodd" clip-rule="evenodd" d="M367.128 181.33C367.176 180.958 367.535 180.698 367.93 180.749L379.671 182.283C380.066 182.335 380.348 182.679 380.3 183.051C380.252 183.424 379.893 183.684 379.497 183.632L367.757 182.098C367.362 182.047 367.08 181.703 367.128 181.33Z" fill="#666666"/>
<path fill-rule="evenodd" clip-rule="evenodd" d="M358.706 176.441C357.583 177.304 356.951 178.397 356.78 179.748C356.609 181.104 356.955 182.302 357.83 183.387C358.749 184.525 359.9 185.172 361.316 185.36C362.731 185.547 363.977 185.219 365.1 184.36C365.107 184.354 365.114 184.349 365.122 184.344C366.278 183.526 366.924 182.462 367.094 181.116C367.264 179.768 366.905 178.544 365.987 177.406C365.112 176.321 363.982 175.693 362.558 175.504C361.139 175.316 359.867 175.624 358.706 176.441ZM357.822 175.297C359.285 174.262 360.935 173.858 362.736 174.097C364.537 174.336 366.017 175.155 367.134 176.54C368.285 177.967 368.766 179.569 368.547 181.308C368.328 183.044 367.47 184.449 366.006 185.488C364.581 186.575 362.944 187.006 361.138 186.767C359.329 186.527 357.833 185.678 356.682 184.252C355.565 182.867 355.109 181.287 355.327 179.556C355.545 177.825 356.379 176.4 357.8 175.313C357.807 175.307 357.814 175.302 357.822 175.297Z" fill="#666666"/>
<path fill-rule="evenodd" clip-rule="evenodd" d="M382.218 179.49C381.129 180.358 380.513 181.453 380.343 182.805C380.172 184.161 380.501 185.357 381.342 186.437C382.224 187.571 383.334 188.212 384.701 188.393C386.067 188.575 387.274 188.241 388.362 187.377C388.369 187.371 388.376 187.366 388.383 187.361C389.503 186.539 390.132 185.472 390.302 184.125C390.472 182.777 390.131 181.556 389.248 180.422C388.407 179.342 387.319 178.719 385.944 178.537C384.573 178.355 383.343 178.669 382.218 179.49ZM381.368 178.351C382.786 177.31 384.383 176.899 386.122 177.129C387.861 177.36 389.287 178.173 390.361 179.552C391.467 180.972 391.925 182.571 391.705 184.311C391.486 186.047 390.651 187.455 389.232 188.501C387.851 189.593 386.267 190.032 384.524 189.801C382.777 189.569 381.335 188.727 380.229 187.307C379.155 185.927 378.721 184.351 378.94 182.619C379.158 180.888 379.97 179.46 381.347 178.367C381.354 178.361 381.361 178.356 381.368 178.351Z" fill="#666666"/>
<path d="M338.582 150.412C338.546 148.822 339.806 147.503 341.396 147.466L365.588 146.91C367.178 146.873 368.497 148.133 368.534 149.723V149.723C368.571 151.314 367.311 152.633 365.72 152.669L341.529 153.226C339.938 153.262 338.619 152.003 338.582 150.412V150.412Z" fill="#333333"/>
<path d="M387.945 152.211C388.472 150.71 390.116 149.921 391.617 150.448L414.448 158.468C415.949 158.995 416.738 160.639 416.211 162.14V162.14C415.684 163.641 414.039 164.431 412.538 163.903L389.708 155.884C388.207 155.356 387.417 153.712 387.945 152.211V152.211Z" fill="#333333"/>
<mask id="mask0" style="mask-type:alpha" maskUnits="userSpaceOnUse" x="313" y="126" width="143" height="118">
<path d="M423.329 233.75C415.548 241.289 406.909 244.443 397.41 243.211L342.343 236.069C332.845 234.837 325.278 229.581 319.643 220.302C314.054 210.94 312.034 200.291 313.582 188.355C314.328 182.605 315.8 177.37 317.998 172.65C317.002 168.104 316.837 163.255 317.506 158.102C318.743 148.563 322.486 140.765 328.735 134.71C334.949 128.651 341.87 126.116 349.496 127.105L432.071 137.815C439.663 138.799 445.707 143.016 450.205 150.465C454.703 157.914 456.333 166.408 455.095 175.948C453.852 185.531 450.106 193.35 443.858 199.405C441.782 201.416 439.633 203.042 437.409 204.282C437.404 204.323 437.398 204.366 437.392 204.413C435.844 216.349 431.156 226.128 423.329 233.75Z" fill="#EECCAA"/>
</mask>
<g mask="url(#mask0)">
<path d="M456.98 154C458.59 167.382 452.387 179.135 443.124 180.249C433.861 181.364 425.047 171.418 423.437 158.035C421.827 144.653 428.03 132.9 437.293 131.786C446.556 130.671 455.37 140.617 456.98 154Z" fill="#C4C4C4"/>
<path d="M335.975 146.815C331.884 156.745 322.069 162.117 314.052 158.814C306.034 155.511 302.851 144.785 306.942 134.855C311.033 124.925 320.848 119.553 328.865 122.856C336.882 126.159 340.065 136.886 335.975 146.815Z" fill="#C4C4C4"/>
</g>
<path d="M329.799 101.031C330.513 96.1131 333.352 93.976 338.318 94.62L450.337 109.149C455.302 109.793 457.428 112.574 456.715 117.492L452.617 145.747C451.904 150.666 449.064 152.803 444.099 152.159L332.079 137.63C327.114 136.986 324.988 134.205 325.701 129.287L329.799 101.031Z" fill="#333333"/>
<path d="M397.645 94.5642C414.68 96.7736 428.87 99.6847 440.215 103.298C451.561 106.91 456.717 110.16 455.684 113.047C454.651 115.933 447.729 117.616 434.919 118.096C422.109 118.576 407.186 117.711 390.151 115.502C373.116 113.293 358.926 110.381 347.581 106.769C336.236 103.156 331.08 99.906 332.113 97.0196C333.146 94.1332 340.068 92.45 352.878 91.97C365.688 91.49 380.61 92.3548 397.645 94.5642Z" fill="#666666"/>
<rect x="147.698" y="254.221" width="36.4626" height="58.6724" rx="18.2313" transform="rotate(165 147.698 254.221)" fill="#523D33"/>
<circle cx="183.137" cy="298.215" r="86.0389" transform="rotate(15 183.137 298.215)" fill="#775D4F"/>
<rect width="30.7873" height="59.0918" rx="15.3937" transform="matrix(-0.965926 -0.258819 -0.258819 0.965926 182.081 238.779)" fill="white"/>
<rect width="30.7873" height="59.0918" rx="15.3937" transform="matrix(-0.965926 -0.258819 -0.258819 0.965926 227.361 251.295)" fill="white"/>
<rect width="18.8696" height="36.2496" rx="9.43482" transform="matrix(-0.965926 -0.258819 -0.258819 0.965926 175.417 248.304)" fill="#333333"/>
<rect width="18.8697" height="36.2496" rx="9.43483" transform="matrix(-0.965926 -0.258819 -0.258819 0.965926 215.899 259.535)" fill="#333333"/>
<rect x="131.638" y="267.914" width="94.1959" height="68.4387" rx="12.0596" transform="rotate(15 131.638 267.914)" fill="#C88C6C"/>
<rect x="148.577" y="288.384" width="21.0886" height="39.9686" rx="10.5443" transform="rotate(15 148.577 288.384)" fill="#FFC19F"/>
<rect x="177.507" y="295.816" width="21.0886" height="39.9686" rx="10.5443" transform="rotate(15 177.507 295.816)" fill="#FFC19F"/>
<rect x="246.552" y="304.262" width="36.4626" height="58.6724" rx="18.2313" transform="rotate(-116.383 246.552 304.262)" fill="#523D33"/>
</g>
<defs>
<clipPath id="clip0">
<rect width="620" height="620" fill="white"/>
</clipPath>
</defs>
</svg>
