<svg width="650" height="350" viewBox="0 0 650 350" fill="none" xmlns="http://www.w3.org/2000/svg">
<mask id="mask0" style="mask-type:alpha" maskUnits="userSpaceOnUse" x="0" y="0" width="650" height="350">
<rect width="650" height="350" fill="#7CB518"/>
</mask>
<g mask="url(#mask0)">
<path d="M-2 319.009H280.356V349.262H-2V319.009Z" fill="#758190"/>
<path d="M227.556 298.841H50.8012C36.9809 298.841 24.3505 306.651 18.1689 319.009H260.188C254.006 306.651 241.376 298.841 227.556 298.841Z" fill="#C18E59"/>
<path d="M227.556 298.842H50.8012C36.9809 298.842 24.3505 291.031 18.1689 278.673H260.188C254.006 291.031 241.376 298.842 227.556 298.842Z" fill="#976947"/>
<path d="M240.018 278.673V258.505H38.3359V278.673" fill="#758190"/>
<path d="M113.967 117.327V97.1587H164.387V117.327" fill="#C1C8D1"/>
<path d="M103.884 137.495V117.327H174.473V137.495" fill="#A8B0BC"/>
<path d="M129.093 97.1588L139.177 46.7382L149.261 97.1588" fill="#A8B0BC"/>
<path d="M229.935 258.505L228.367 255.762C216.18 234.429 209.767 210.288 209.767 185.718V182.874C209.767 157.81 189.452 137.495 164.388 137.495H113.968C88.9036 137.495 68.5892 157.81 68.5892 182.874V185.718C68.5892 210.288 62.1756 234.429 49.989 255.762L48.4209 258.505" fill="#A8B0BC"/>
<path d="M103.883 243.379C154.006 243.379 194.64 208.387 194.64 165.227C194.64 158.924 193.677 152.823 192.044 146.954C184.38 141.045 174.81 137.495 164.388 137.495H113.967C88.9033 137.495 68.5888 157.81 68.5888 182.874V185.718C68.5888 202.14 65.6594 218.35 60.1182 233.683C73.1015 239.849 88.0109 243.379 103.883 243.379Z" fill="#C1C8D1"/>
<path d="M88.7305 172.79L103.858 157.662L118.985 172.79L103.858 187.917L88.7305 172.79Z" fill="#758190"/>
<path d="M159.314 172.794L174.442 157.667L189.569 172.794L174.442 187.922L159.314 172.794Z" fill="#758190"/>
<path d="M88.7266 223.205L103.854 208.077L118.981 223.205L103.854 238.332L88.7266 223.205Z" fill="#758190"/>
<path d="M159.311 223.21L174.438 208.082L189.565 223.21L174.438 238.337L159.311 223.21Z" fill="#758190"/>
<path d="M124.02 197.999L139.147 182.872L154.275 197.999L139.147 213.127L124.02 197.999Z" fill="#758190"/>
<path d="M368 319.009H650.356V349.262H368V319.009Z" fill="#758190"/>
<path d="M597.556 298.841H420.801C406.981 298.841 394.351 306.651 388.169 319.009H630.188C624.006 306.651 611.376 298.841 597.556 298.841Z" fill="#C18E59"/>
<path d="M597.556 298.842H420.801C406.981 298.842 394.351 291.031 388.169 278.673H630.188C624.006 291.031 611.376 298.842 597.556 298.842Z" fill="#976947"/>
<path d="M610.018 278.673V258.505H408.336V278.673" fill="#758190"/>
<path d="M483.967 117.327V97.1587H534.387V117.327" fill="#C1C8D1"/>
<path d="M473.884 137.495V117.327H544.473V137.495" fill="#A8B0BC"/>
<path d="M499.093 97.1588L509.177 46.7382L519.261 97.1588" fill="#A8B0BC"/>
<path d="M599.935 258.505L598.367 255.762C586.18 234.429 579.767 210.288 579.767 185.718V182.874C579.767 157.81 559.452 137.495 534.388 137.495H483.968C458.904 137.495 438.589 157.81 438.589 182.874V185.718C438.589 210.288 432.176 234.429 419.989 255.762L418.421 258.505" fill="#A8B0BC"/>
<path d="M473.883 243.379C524.006 243.379 564.64 208.387 564.64 165.227C564.64 158.924 563.677 152.823 562.044 146.954C554.38 141.045 544.81 137.495 534.388 137.495H483.967C458.903 137.495 438.589 157.81 438.589 182.874V185.718C438.589 202.14 435.659 218.35 430.118 233.683C443.101 239.849 458.011 243.379 473.883 243.379Z" fill="#C1C8D1"/>
<path d="M458.73 172.79L473.858 157.662L488.985 172.79L473.858 187.917L458.73 172.79Z" fill="#758190"/>
<path d="M529.314 172.794L544.442 157.667L559.569 172.794L544.442 187.922L529.314 172.794Z" fill="#758190"/>
<path d="M458.727 223.205L473.854 208.077L488.981 223.205L473.854 238.332L458.727 223.205Z" fill="#758190"/>
<path d="M529.311 223.21L544.438 208.082L559.565 223.21L544.438 238.337L529.311 223.21Z" fill="#758190"/>
<path d="M494.02 197.999L509.147 182.872L524.275 197.999L509.147 213.127L494.02 197.999Z" fill="#758190"/>
<path d="M436.933 325H209.069C191.252 325 174.97 335.069 167.001 351H479.001C471.032 335.069 454.75 325 436.933 325Z" fill="#C18E59"/>
<path d="M436.933 325.001H209.069C191.252 325.001 174.97 314.932 167.001 299.001H479.001C471.032 314.932 454.75 325.001 436.933 325.001Z" fill="#976947"/>
<path d="M452.999 299V273H192.999V299" fill="#758190"/>
<path d="M290.499 90.9998V64.9998H355.499V90.9998" fill="#C1C8D1"/>
<path d="M277.501 117V90.9998H368.501V117" fill="#A8B0BC"/>
<path d="M309.999 65L322.999 0L335.999 65" fill="#A8B0BC"/>
<path d="M440.001 273L437.98 269.464C422.269 241.963 414.001 210.841 414.001 179.166V175.5C414.001 143.189 387.813 117 355.501 117H290.501C258.19 117 232.001 143.189 232.001 175.5V179.166C232.001 210.841 223.733 241.963 208.022 269.464L206.001 273" fill="#A8B0BC"/>
<path d="M277.499 253.5C342.116 253.5 394.499 208.39 394.499 152.75C394.499 144.625 393.258 136.76 391.152 129.194C381.272 121.576 368.935 117 355.499 117H290.499C258.188 117 231.999 143.189 231.999 175.5V179.166C231.999 200.337 228.223 221.234 221.079 241.001C237.817 248.95 257.037 253.5 277.499 253.5Z" fill="#C1C8D1"/>
<path d="M257.968 162.5L277.469 142.998L296.971 162.5L277.469 182.002L257.968 162.5Z" fill="#758190"/>
<path d="M348.961 162.506L368.463 143.004L387.964 162.506L368.463 182.008L348.961 162.506Z" fill="#758190"/>
<path d="M257.962 227.493L277.464 207.992L296.965 227.493L277.464 246.995L257.962 227.493Z" fill="#758190"/>
<path d="M348.955 227.5L368.457 207.998L387.958 227.5L368.457 247.001L348.955 227.5Z" fill="#758190"/>
<path d="M303.46 195L322.962 175.498L342.463 195L322.962 214.501L303.46 195Z" fill="#758190"/>
</g>
</svg>
