<svg width="28" height="28" viewBox="0 0 28 28" fill="none" xmlns="http://www.w3.org/2000/svg">
<path d="M27.7559 22.173C27.7559 25.1649 25.3304 27.5903 22.3385 27.5903L6.08657 27.5903C3.09466 27.5903 0.669247 25.1649 0.669247 22.173L0.669249 5.92104C0.669249 2.92914 3.09467 0.503717 6.08657 0.503717L22.3385 0.503719C25.3304 0.503719 27.7559 2.92914 27.7559 5.92104L27.7559 22.173Z" fill="#330036"/>
<path d="M13.579 19.0992C12.9847 19.6935 12.0212 19.6935 11.4269 19.0992C10.8326 18.505 10.8326 17.5414 11.4269 16.9471L20.0226 8.35145C20.6169 7.75716 21.5804 7.75716 22.1747 8.35145C22.769 8.94573 22.769 9.90926 22.1747 10.5036L13.579 19.0992Z" fill="white"/>
<path d="M13.2155 16.6066C13.8097 17.2009 13.8097 18.1644 13.2155 18.7587C12.6212 19.353 11.6576 19.353 11.0633 18.7587L6.48572 14.181C5.89143 13.5868 5.89143 12.6232 6.48572 12.0289C7.08001 11.4346 8.04354 11.4346 8.63782 12.0289L13.2155 16.6066Z" fill="white"/>
</svg>
