<svg width="28" height="28" viewBox="0 0 28 28" fill="none" xmlns="http://www.w3.org/2000/svg">
<path fill-rule="evenodd" clip-rule="evenodd" d="M6.08657 23.3696L22.3385 23.3696C23.0865 23.3696 23.6929 22.7633 23.6929 22.0153L23.6929 5.76333C23.6929 5.01535 23.0865 4.409 22.3385 4.409L6.08657 4.40899C5.33859 4.40899 4.73224 5.01535 4.73224 5.76333L4.73224 22.0153C4.73224 22.7633 5.33859 23.3696 6.08657 23.3696ZM22.3385 27.4326C25.3304 27.4326 27.7559 25.0072 27.7559 22.0153L27.7559 5.76333C27.7559 2.77142 25.3304 0.346004 22.3385 0.346004L6.08657 0.346003C3.09467 0.346002 0.669249 2.77142 0.669249 5.76333L0.669247 22.0153C0.669247 25.0072 3.09466 27.4326 6.08657 27.4326L22.3385 27.4326Z" fill="#330036"/>
</svg>
