<svg width="42" height="42" viewBox="0 0 42 42" fill="none" xmlns="http://www.w3.org/2000/svg">
<path d="M41.0708 20.8897C41.0708 32.1093 31.9755 41.2046 20.7559 41.2046C9.53623 41.2046 0.440918 32.1093 0.440918 20.8897C0.440918 9.67002 9.53623 0.574707 20.7559 0.574707C31.9755 0.574707 41.0708 9.67002 41.0708 20.8897Z" fill="#DB162F"/>
<path d="M26.5877 24.4447C27.2164 25.0734 27.2164 26.0927 26.5877 26.7213C25.9591 27.35 24.9398 27.35 24.3111 26.7213L14.4456 16.8558C13.8169 16.2272 13.8169 15.2079 14.4456 14.5792C15.0743 13.9505 16.0936 13.9505 16.7223 14.5792L26.5877 24.4447Z" fill="white"/>
<path d="M24.3109 14.8322C24.9396 14.2035 25.9589 14.2035 26.5875 14.8322C27.2162 15.4609 27.2162 16.4801 26.5875 17.1088L16.7221 26.9743C16.0934 27.603 15.0741 27.603 14.4454 26.9743C13.8167 26.3456 13.8167 25.3264 14.4454 24.6977L24.3109 14.8322Z" fill="white"/>
</svg>
