<svg width="321" height="311" viewBox="0 0 321 311" fill="none" xmlns="http://www.w3.org/2000/svg">
<path d="M115.36 2.86215L19.211 17.1871C8.60108 18.7679 1.28809 28.6949 2.87703 39.3599L10.2614 88.9234C11.8503 99.5883 21.7395 106.953 32.3495 105.372L128.498 91.0468C139.108 89.466 146.421 79.539 144.832 68.874L137.448 19.3105C135.859 8.64556 125.97 1.28139 115.36 2.86215Z" fill="#330036"/>
<path d="M138.653 27.3964L4.08203 47.4458L6.56954 64.1419L141.14 44.0925L138.653 27.3964Z" fill="#FEBB00"/>
<path d="M60.8944 67.1942L37.3132 70.7075C33.018 71.3475 30.0576 75.3661 30.7008 79.6835C31.3441 84.0009 35.3474 86.9821 39.6425 86.3421L63.2238 82.8288C67.5189 82.1889 70.4794 78.1702 69.8361 73.8528C69.1929 69.5355 65.1895 66.5543 60.8944 67.1942Z" fill="#D81E5B"/>
<path d="M106.118 13.8124L102.923 14.2884C99.6135 14.7814 97.3324 17.8779 97.8281 21.2044C98.3237 24.531 101.408 26.828 104.718 26.335L107.912 25.859C111.222 25.3659 113.503 22.2695 113.007 18.9429C112.512 15.6163 109.427 13.3193 106.118 13.8124Z" fill="#D81E5B"/>
<path d="M68.3286 266.572C66.8214 268.096 70.0137 274.781 70.6622 276.456C72.8287 282.044 74.5605 284.246 79.8456 287.221C92.7854 294.503 106.546 300.355 120.749 304.677C132.911 308.377 145.604 310.966 158.285 310.077C196.952 307.366 209.315 270.637 230.044 244.268C235.245 237.65 243.659 225.013 253.402 226.114C266.447 227.591 262.06 176.332 262.06 176.332L209.606 173.832L122.887 211.751C122.887 211.751 68.5101 266.389 68.3286 266.572Z" fill="#D81E5B"/>
<path d="M107.129 204.311C118.188 191.672 129.601 179.344 141.01 167.024C151.379 155.826 162.59 145.326 172.706 133.956C181.751 123.787 194.253 116.753 207.69 114.486C220.067 112.398 232.465 114.425 244.389 117.886C260.16 122.461 275.656 131.534 290.035 139.657C298.076 144.2 309.045 151.646 313.024 160.392C317.463 170.151 309.081 183.638 303.261 190.95C296.662 199.242 290.055 207.949 283.313 216.028C277.539 222.948 267.461 230.154 257.999 227.808C254.383 226.912 251.173 224.746 247.548 223.885C233.968 220.659 230.007 227.72 222.942 236.815C212.948 249.678 202.953 262.543 192.959 275.407C187.096 282.953 181.054 290.663 172.923 295.687C166.544 299.628 158.712 301.593 151.293 299.994C143.836 298.388 136.283 297.902 128.679 296.547C111.607 293.506 94.9562 287.72 79.9271 279.028C76.5175 277.056 73.115 274.877 70.7168 271.753C67.2155 267.194 67.5856 261.827 69.2293 256.617C74.6294 239.492 89.3207 225.067 100.822 211.602C102.909 209.161 105.013 206.731 107.129 204.311Z" fill="#330036"/>
<path d="M270.853 177.88C276.036 171.884 281.801 165.983 289.209 163.163C293.58 161.498 299.345 161.387 302.081 165.18C304.307 168.266 303.529 172.556 302.23 176.132C298.405 186.666 291.061 195.484 283.856 204.068C280.885 207.609 277.911 211.147 274.94 214.688C273.602 216.283 272.21 217.919 270.348 218.854C268.137 219.962 265.55 219.938 263.078 219.892C254.182 219.719 243.244 215.141 250.259 205.248C256.872 195.92 263.36 186.549 270.853 177.88Z" fill="#D81E5B"/>
<path d="M173.248 140.478C177.574 135.946 181.971 131.4 187.197 127.945C192.423 124.491 198.614 122.169 204.865 122.584C207.714 122.772 210.495 123.519 213.251 124.268C228.932 128.533 244.802 133.142 258.502 141.885C261.09 143.537 263.63 145.37 265.477 147.823C267.324 150.277 268.411 153.453 267.771 156.454C267.279 158.764 265.845 160.742 264.446 162.644C262.362 165.477 260.278 168.308 258.196 171.141C253.098 178.071 247.991 185.012 242.276 191.443C238.831 195.319 234.79 199.206 229.663 199.986C222.991 200.999 216.907 196.528 211.146 193.011C202.183 187.541 192.222 183.966 182.412 180.219C176.521 177.969 170.659 175.644 164.828 173.246C161.224 171.764 153.232 170.072 153.356 165.026C153.455 161.03 158.767 156.587 161.129 153.794C165.008 149.206 169.102 144.822 173.248 140.478Z" fill="#00BFA6"/>
<path d="M140.684 177.111C146.837 177.284 152.538 180.284 157.707 183.627C158.161 183.921 158.627 184.23 158.927 184.681C159.683 185.82 159.121 187.347 158.47 188.55C157.971 189.475 157.412 190.399 156.598 191.065C155.244 192.175 153.352 192.425 151.62 192.17C149.889 191.915 148.261 191.212 146.625 190.591C143.253 189.31 135.307 189.055 133.814 185.324C132.106 181.054 136.841 177.004 140.684 177.111Z" fill="white"/>
<path d="M170.721 189.625C176.874 189.797 182.576 192.797 187.744 196.14C188.199 196.434 188.664 196.743 188.964 197.194C189.72 198.333 189.158 199.86 188.508 201.063C188.008 201.989 187.449 202.912 186.636 203.578C185.281 204.688 183.389 204.938 181.658 204.683C179.926 204.428 178.298 203.726 176.662 203.104C173.29 201.823 165.344 201.568 163.851 197.837C162.143 193.568 166.877 189.517 170.721 189.625Z" fill="white"/>
<path d="M200.754 202.14C206.907 202.312 212.609 205.312 217.778 208.655C218.232 208.95 218.697 209.259 218.997 209.709C219.754 210.848 219.191 212.375 218.541 213.579C218.042 214.504 217.483 215.427 216.669 216.093C215.315 217.204 213.423 217.453 211.691 217.198C209.959 216.943 208.332 216.241 206.695 215.619C203.323 214.338 195.378 214.083 193.885 210.352C192.178 206.083 196.912 202.032 200.754 202.14Z" fill="white"/>
<path d="M125.978 194.004C132.131 194.176 137.833 197.176 143.001 200.519C143.456 200.814 143.921 201.123 144.221 201.574C144.977 202.712 144.415 204.239 143.765 205.443C143.265 206.368 142.707 207.291 141.893 207.958C140.538 209.068 138.647 209.317 136.915 209.062C135.183 208.807 133.555 208.105 131.919 207.483C128.547 206.203 120.601 205.948 119.109 202.217C117.402 197.947 122.136 193.898 125.978 194.004Z" fill="white"/>
<path d="M156.015 206.519C162.168 206.691 167.87 209.691 173.038 213.034C173.492 213.328 173.958 213.637 174.258 214.088C175.014 215.227 174.452 216.754 173.801 217.957C173.302 218.883 172.743 219.806 171.929 220.472C170.575 221.582 168.683 221.832 166.952 221.577C165.22 221.322 163.592 220.62 161.956 219.998C158.584 218.717 150.638 218.462 149.145 214.731C147.437 210.462 152.172 206.411 156.015 206.519Z" fill="white"/>
<path d="M186.051 219.031C192.204 219.204 197.906 222.204 203.074 225.546C203.529 225.841 203.994 226.15 204.294 226.601C205.05 227.74 204.488 229.267 203.838 230.47C203.338 231.395 202.779 232.319 201.966 232.985C200.611 234.095 198.72 234.345 196.988 234.09C195.256 233.835 193.628 233.132 191.992 232.511C188.62 231.23 180.674 230.975 179.181 227.244C177.473 222.974 182.207 218.925 186.051 219.031Z" fill="white"/>
<path d="M113.062 212.15C119.214 212.322 124.916 215.322 130.085 218.665C130.539 218.96 131.005 219.269 131.305 219.72C132.061 220.858 131.499 222.385 130.848 223.589C130.349 224.514 129.79 225.437 128.976 226.104C127.622 227.214 125.73 227.463 123.998 227.208C122.267 226.953 120.639 226.251 119.003 225.629C115.631 224.349 107.685 224.094 106.192 220.363C104.484 216.093 109.219 212.042 113.062 212.15Z" fill="white"/>
<path d="M143.098 224.663C149.251 224.835 154.953 227.835 160.121 231.178C160.575 231.472 161.041 231.781 161.341 232.232C162.097 233.371 161.535 234.898 160.884 236.101C160.385 237.027 159.826 237.95 159.013 238.616C157.658 239.726 155.766 239.976 154.035 239.721C152.303 239.466 150.675 238.764 149.039 238.142C145.667 236.861 137.721 236.606 136.228 232.875C134.52 228.606 139.254 224.557 143.098 224.663Z" fill="white"/>
<path d="M173.133 237.178C179.286 237.35 184.988 240.35 190.156 243.693C190.611 243.988 191.076 244.297 191.376 244.747C192.133 245.886 191.57 247.413 190.92 248.617C190.421 249.542 189.862 250.465 189.048 251.131C187.694 252.242 185.802 252.491 184.07 252.236C182.338 251.981 180.711 251.279 179.074 250.657C175.702 249.377 167.757 249.121 166.264 245.391C164.557 241.121 169.291 237.07 173.133 237.178Z" fill="white"/>
<path d="M97.7316 228.73C103.884 228.903 109.586 231.902 114.755 235.245C115.209 235.54 115.674 235.849 115.974 236.3C116.731 237.438 116.168 238.965 115.518 240.169C115.019 241.094 114.46 242.017 113.646 242.684C112.292 243.794 110.4 244.043 108.668 243.788C106.937 243.533 105.309 242.831 103.672 242.209C100.301 240.929 92.3549 240.674 90.862 236.943C89.1536 232.675 93.889 228.624 97.7316 228.73Z" fill="white"/>
<path d="M127.767 241.245C133.92 241.417 139.622 244.417 144.79 247.76C145.244 248.055 145.71 248.363 146.01 248.814C146.766 249.953 146.204 251.48 145.553 252.684C145.054 253.609 144.495 254.532 143.682 255.198C142.327 256.308 140.435 256.558 138.704 256.303C136.972 256.048 135.344 255.346 133.708 254.724C130.336 253.443 122.39 253.188 120.897 249.457C119.189 245.188 123.922 241.137 127.767 241.245Z" fill="white"/>
<path d="M157.801 253.757C163.954 253.93 169.656 256.93 174.824 260.273C175.279 260.567 175.744 260.876 176.044 261.327C176.8 262.466 176.238 263.993 175.588 265.196C175.088 266.121 174.53 267.045 173.716 267.711C172.361 268.821 170.47 269.071 168.738 268.816C167.006 268.561 165.379 267.858 163.742 267.237C160.37 265.956 152.425 265.701 150.932 261.97C149.225 257.702 153.959 253.651 157.801 253.757Z" fill="white"/>
<path d="M113.412 259.102C115.956 257.965 118.877 258.689 121.553 259.425C123.533 259.971 125.513 260.516 127.492 261.062C129.817 261.701 132.481 262.657 133.252 265.019C134.001 267.314 132.547 269.698 131.166 271.654C129.628 273.833 128.091 276.012 126.555 278.191C126.003 278.972 125.432 279.774 124.629 280.269C123.935 280.699 123.123 280.864 122.324 280.982C117.42 281.717 105.996 281.27 104.009 275.03C102.621 270.666 109.643 260.783 113.412 259.102Z" fill="#FEBB00"/>
<path d="M90.7402 247.131C88.6114 246.285 86.373 245.423 84.0951 245.684C83.0784 245.8 82.0418 246.174 81.3843 246.959C80.8005 247.658 80.5867 248.586 80.4376 249.484C79.8861 252.815 79.9813 256.233 80.4915 259.571C80.8651 262.014 81.5029 264.512 83.0694 266.423C84.6359 268.335 87.3377 269.499 89.6515 268.633C90.6845 268.247 91.5414 267.51 92.3749 266.79C95.2385 264.311 103.944 259.161 104.14 255.057C104.364 250.381 94.1444 248.484 90.7402 247.131Z" fill="#D81E5B"/>
<path d="M150.802 270.693C155.236 271.833 159.671 272.976 164.105 274.117C164.825 274.302 165.567 274.497 166.16 274.948C167.32 275.83 167.617 277.535 167.177 278.925C166.736 280.316 165.703 281.438 164.593 282.385C161.049 285.406 156.506 287.066 151.912 287.838C147.504 288.58 130.617 291.571 134.298 283.26C137.39 276.283 142.58 268.577 150.802 270.693Z" fill="#008DD5"/>
<path d="M132.095 48.3775L48.7114 72.1834C39.51 74.8104 34.1869 84.422 36.8219 93.6517L49.0679 136.545C51.7029 145.775 61.2982 151.127 70.4996 148.5L153.884 124.694C163.085 122.067 168.408 112.456 165.773 103.226L153.527 60.3326C150.892 51.103 141.297 45.7505 132.095 48.3775Z" fill="#008DD5"/>
<path d="M155.525 67.3299L38.8203 100.649L42.9455 115.098L159.651 81.779L155.525 67.3299Z" fill="#FEBB00"/>
<path d="M91.3436 111.486L70.893 117.324C67.1681 118.388 65.0132 122.279 66.0799 126.015C67.1466 129.752 71.031 131.918 74.7559 130.855L95.2065 125.016C98.9314 123.953 101.086 120.062 100.02 116.326C98.9529 112.589 95.0685 110.422 91.3436 111.486Z" fill="#330036"/>
<path d="M125.185 59.116L122.414 59.907C119.544 60.7264 117.884 63.7244 118.706 66.6033C119.528 69.4822 122.521 71.1517 125.391 70.3323L128.162 69.5413C131.032 68.7219 132.692 65.7239 131.87 62.845C131.048 59.9661 128.055 58.2966 125.185 59.116Z" fill="#330036"/>
<path d="M284.907 103.163C294.939 95.8885 304.367 87.8237 313.097 79.0464C319.389 72.7498 308.808 63.9277 302.608 70.1918C294.701 78.0945 286.166 85.3513 277.087 91.8903C269.881 97.0981 277.735 108.388 284.985 103.136L284.907 103.163Z" fill="#008DD5"/>
<path d="M263.394 84.9443C268.147 67.1535 273.742 49.6266 280.182 32.364C283.268 24.1154 270.822 18.1986 267.707 26.487C260.851 44.8398 254.882 63.4699 249.8 82.3781C247.508 90.9573 261.074 93.4458 263.362 84.8537L263.394 84.9443Z" fill="#008DD5"/>
<path d="M236.443 72.1076L233.544 35.3392C232.852 26.5073 219.024 27.5502 219.738 36.3599L222.637 73.1283C223.329 81.9603 237.157 80.9174 236.443 72.1076Z" fill="#008DD5"/>
</svg>
