<svg width="352" height="345" viewBox="0 0 352 345" fill="none" xmlns="http://www.w3.org/2000/svg">
<path d="M148.63 105.312C138.01 119.866 115.226 128.592 105.162 131.135C107.115 140.793 115.759 157.544 134.713 147.278C153.667 137.012 158.668 122.361 162.334 110.154C164.635 102.489 159.25 90.7571 148.63 105.312Z" fill="#C4C4C4"/>
<path d="M66.5217 83.3104C68.4417 101.225 83.8103 120.173 91.2546 127.408C84.7342 134.796 68.8728 144.981 57.5909 126.613C46.3091 108.245 49.3038 93.0569 52.2328 80.6522C54.0719 72.8633 64.6017 65.3956 66.5217 83.3104Z" fill="#C4C4C4"/>
<rect x="179.254" y="215.303" width="34.4806" height="119.643" rx="17.2403" transform="rotate(-7.65429 179.254 215.303)" fill="#523D33"/>
<rect x="321.838" y="174.984" width="16.6547" height="81.8226" rx="8.32733" transform="rotate(71.3905 321.838 174.984)" fill="#685044"/>
<rect x="96.98" y="191.591" width="34.896" height="119.643" rx="17.448" transform="rotate(22.3457 96.98 191.591)" fill="#523D33"/>
<rect x="83.1543" y="166.505" width="201.067" height="98.4566" rx="24.4555" transform="rotate(7.34571 83.1543 166.505)" fill="#685044"/>
<rect x="143.088" y="210.545" width="34.4806" height="119.643" rx="17.2403" transform="rotate(22.3457 143.088 210.545)" fill="#685044"/>
<rect x="228.25" y="217.621" width="34.896" height="119.643" rx="17.448" transform="rotate(-7.65428 228.25 217.621)" fill="#685044"/>
<path d="M246.582 124.018C248.346 110.412 238.741 97.9505 225.127 96.1848L208.076 93.9732C194.462 92.2075 181.995 101.806 180.23 115.412L177.059 139.864C175.294 153.47 184.9 165.931 198.514 167.697L215.565 169.908C229.179 171.674 241.646 162.076 243.41 148.469L246.582 124.018Z" fill="white"/>
<path d="M242.007 196.277C242.44 192.938 240.09 189.881 236.757 189.449L218.747 187.113C215.414 186.681 212.361 189.037 211.928 192.376C211.495 195.715 213.846 198.772 217.179 199.204L235.189 201.54C238.522 201.972 241.574 199.616 242.007 196.277Z" fill="#151E3F"/>
<path d="M236.516 132.675C235.832 127.558 239.474 122.85 244.65 122.158L278.612 117.62C283.788 116.929 288.539 120.516 289.222 125.633C289.906 130.75 286.264 135.459 281.088 136.15L247.126 140.688C241.95 141.379 237.199 137.792 236.516 132.675Z" fill="#E4BD95"/>
<path d="M270.101 116.07C270.479 113.161 273.161 111.11 276.093 111.491C279.024 111.871 281.095 114.538 280.718 117.447L280.363 120.181C279.986 123.091 277.303 125.141 274.372 124.761C271.44 124.381 269.369 121.714 269.747 118.805L270.101 116.07Z" fill="#D6AE86"/>
<path d="M188.018 126.431C186.03 131.255 180.508 133.555 175.684 131.567L144.029 118.527C139.205 116.539 136.905 111.017 138.892 106.193C140.88 101.368 146.402 99.0686 151.226 101.056L182.881 114.097C187.705 116.084 190.005 121.606 188.018 126.431Z" fill="#E4BD95"/>
<path d="M147.644 100.788C148.021 97.8782 150.704 95.8279 153.635 96.2081C156.567 96.5883 158.637 99.2551 158.26 102.164L157.905 104.899C157.528 107.808 154.846 109.859 151.914 109.478C148.983 109.098 146.912 106.431 147.289 103.522L147.644 100.788Z" fill="#D6AE86"/>
<path d="M233.304 108.479C233.757 104.984 231.308 101.784 227.833 101.334L204.145 98.2613C200.67 97.8106 197.485 100.279 197.032 103.775L193.893 127.977C193.44 131.473 195.889 134.672 199.364 135.123L223.052 138.195C226.527 138.646 229.712 136.178 230.165 132.682L233.304 108.479Z" fill="#E4BD95"/>
<path d="M174.475 159.787C173.145 170.044 180.364 179.436 190.6 180.764L219.884 184.562C230.12 185.89 239.496 178.65 240.827 168.392L242.778 153.348L176.427 144.742L174.475 159.787Z" fill="#008DD5"/>
<path d="M246.237 125.379C241.184 130.275 235.573 132.323 229.405 131.523L193.643 126.885C187.475 126.085 182.561 122.671 178.901 116.645C175.272 110.565 173.96 103.65 174.965 95.8986C175.449 92.1642 176.405 88.7645 177.833 85.6995C177.186 82.7473 177.079 79.5981 177.513 76.2519C178.317 70.0566 180.748 64.9929 184.806 61.0607C188.842 57.1256 193.336 55.4792 198.289 56.1215L251.914 63.0767C256.844 63.7161 260.77 66.4545 263.691 71.2919C266.611 76.1293 267.67 81.6456 266.866 87.8409C266.059 94.0645 263.627 99.1424 259.568 103.075C258.221 104.38 256.825 105.436 255.38 106.242C255.377 106.268 255.373 106.297 255.369 106.327C254.364 114.078 251.32 120.429 246.237 125.379Z" fill="#EECCAA"/>
<path d="M222.169 83.368C222.581 80.186 225.491 77.9404 228.666 78.3523C231.842 78.7642 234.082 81.6777 233.67 84.8597L232.296 95.4536C231.883 98.6357 228.974 100.881 225.798 100.469C222.622 100.057 220.382 97.144 220.795 93.962L222.169 83.368Z" fill="white"/>
<path d="M196.513 80.0408C196.926 76.8587 199.835 74.6131 203.011 75.025C206.187 75.4369 208.427 78.3504 208.014 81.5324L206.64 92.1263C206.228 95.3084 203.319 97.554 200.143 97.1421C196.967 96.7302 194.727 93.8167 195.139 90.6347L196.513 80.0408Z" fill="white"/>
<path d="M223.397 85.4573C223.65 83.5074 225.439 82.1321 227.394 82.3856C229.348 82.6391 230.727 84.4253 230.475 86.3752L229.631 92.8791C229.378 94.829 227.589 96.2043 225.634 95.9508C223.68 95.6973 222.301 93.9111 222.554 91.9611L223.397 85.4573Z" fill="#333333"/>
<path d="M199.511 82.3589C199.764 80.409 201.553 79.0337 203.507 79.2872C205.462 79.5407 206.841 81.3269 206.588 83.2768L205.745 89.7807C205.492 91.7306 203.702 93.1059 201.748 92.8524C199.794 92.5989 198.414 90.8127 198.667 88.8628L199.511 82.3589Z" fill="#333333"/>
<path d="M190.053 106.225C190.591 104.016 192.818 102.662 195.026 103.2L227.881 111.202C230.089 111.74 231.443 113.966 230.906 116.175L229.727 121.015C229.189 123.224 226.962 124.578 224.754 124.04L191.899 116.038C189.691 115.501 188.337 113.274 188.874 111.066L190.053 106.225Z" fill="#D81E5B"/>
<path d="M194.154 112.335C194.679 110.183 196.848 108.863 199 109.388L221.48 114.863C223.632 115.387 224.952 117.556 224.427 119.708C223.903 121.86 221.734 123.18 219.582 122.656L197.102 117.181C194.95 116.657 193.63 114.487 194.154 112.335Z" fill="#881138"/>
<path d="M193.776 100.453L202.182 103.916L210.684 107.418C209.912 109.293 208.431 110.549 206.242 111.188C204.053 111.827 201.787 111.664 199.444 110.699C197.101 109.734 195.377 108.253 194.273 106.258C193.169 104.262 193.004 102.327 193.776 100.453Z" fill="#666666"/>
<path d="M197.153 101.891L203.878 104.662L210.679 107.463C211.065 106.526 210.735 105.457 209.689 104.256C208.643 103.054 207.183 102.068 205.309 101.296C203.435 100.523 201.703 100.195 200.115 100.311C198.526 100.427 197.539 100.954 197.153 101.891Z" fill="#666666"/>
<path d="M228.934 105.013L219.922 106.217L210.808 107.434C211.077 109.444 212.188 111.037 214.141 112.213C216.095 113.389 218.328 113.809 220.84 113.474C223.351 113.138 225.395 112.147 226.972 110.499C228.548 108.851 229.202 107.022 228.934 105.013Z" fill="#666666"/>
<path d="M225.301 105.542L218.091 106.505L210.801 107.479C210.666 106.474 211.258 105.524 212.576 104.63C213.894 103.735 215.557 103.154 217.566 102.885C219.576 102.617 221.334 102.741 222.84 103.259C224.346 103.776 225.166 104.537 225.301 105.542Z" fill="#666666"/>
<path d="M218.288 94.7846C218.421 93.7606 217.709 92.8241 216.698 92.693L210.923 91.9439C209.912 91.8128 208.985 92.5367 208.852 93.5607L207.344 105.187C207.211 106.211 207.923 107.147 208.934 107.278L214.71 108.028C215.72 108.159 216.648 107.435 216.78 106.411L218.288 94.7846Z" fill="#EEAA99"/>
<path fill-rule="evenodd" clip-rule="evenodd" d="M209.737 91.3371C209.768 91.0952 210.001 90.9262 210.258 90.9598L217.882 91.956C218.139 91.9896 218.322 92.2129 218.291 92.4548C218.26 92.6968 218.026 92.8657 217.77 92.8322L210.145 91.836C209.889 91.8024 209.706 91.5791 209.737 91.3371Z" fill="#666666"/>
<path fill-rule="evenodd" clip-rule="evenodd" d="M204.268 88.1615C203.539 88.7222 203.128 89.4315 203.018 90.3094C202.907 91.1897 203.131 91.9681 203.699 92.6722C204.296 93.4114 205.044 93.8317 205.963 93.9536C206.882 94.0754 207.692 93.8622 208.421 93.3042C208.425 93.3006 208.43 93.2971 208.435 93.2937C209.186 92.7629 209.605 92.0717 209.716 91.1972C209.826 90.3221 209.593 89.5274 208.996 88.7882C208.428 88.0839 207.695 87.6756 206.77 87.5531C205.848 87.4308 205.022 87.6309 204.268 88.1615ZM203.694 87.4184C204.644 86.7467 205.716 86.4842 206.885 86.6392C208.055 86.7942 209.016 87.3267 209.742 88.2261C210.489 89.1524 210.802 90.1927 210.659 91.3223C210.517 92.4496 209.96 93.3621 209.009 94.0369C208.083 94.7428 207.02 95.0229 205.848 94.8674C204.673 94.7117 203.701 94.1604 202.954 93.2342C202.228 92.3346 201.932 91.3087 202.074 90.1843C202.216 89.0604 202.757 88.1351 203.68 87.4288C203.684 87.4253 203.689 87.4218 203.694 87.4184Z" fill="#666666"/>
<path fill-rule="evenodd" clip-rule="evenodd" d="M219.538 90.1421C218.831 90.7057 218.431 91.4165 218.32 92.2946C218.209 93.1749 218.423 93.9519 218.969 94.6532C219.542 95.3894 220.262 95.8061 221.15 95.9238C222.038 96.0414 222.821 95.8247 223.528 95.2637C223.532 95.2601 223.537 95.2566 223.541 95.2532C224.269 94.7192 224.678 94.0265 224.788 93.1518C224.898 92.2766 224.676 91.4833 224.103 90.7472C223.557 90.0457 222.85 89.641 221.958 89.5226C221.067 89.4046 220.268 89.6083 219.538 90.1421ZM218.986 89.4018C219.907 88.7262 220.944 88.459 222.073 88.6086C223.202 88.7583 224.128 89.2862 224.826 90.182C225.544 91.1045 225.842 92.1429 225.699 93.2726C225.557 94.4001 225.015 95.3146 224.093 95.9934C223.196 96.7031 222.167 96.9878 221.035 96.8378C219.901 96.6874 218.964 96.1407 218.246 95.2183C217.549 94.3224 217.267 93.2983 217.409 92.1738C217.551 91.0497 218.078 90.1224 218.972 89.4123C218.977 89.4087 218.981 89.4052 218.986 89.4018Z" fill="#666666"/>
<path d="M191.2 71.2578C191.176 70.2248 191.995 69.3682 193.028 69.3444L208.738 68.9831C209.771 68.9593 210.628 69.7774 210.651 70.8104C210.675 71.8433 209.857 72.6999 208.824 72.7237L193.114 73.085C192.081 73.1088 191.224 72.2907 191.2 71.2578Z" fill="#333333"/>
<path d="M223.257 72.4264C223.599 71.4516 224.667 70.939 225.642 71.2814L240.469 76.4896C241.443 76.832 241.956 77.8998 241.614 78.8746C241.271 79.8495 240.203 80.3621 239.228 80.0197L224.402 74.8115C223.427 74.4691 222.915 73.4013 223.257 72.4264Z" fill="#333333"/>
<mask id="mask0" style="mask-type:alpha" maskUnits="userSpaceOnUse" x="171" y="53" width="99" height="83">
<path d="M246.237 125.379C241.184 130.275 235.573 132.323 229.405 131.523L193.643 126.885C187.475 126.085 182.561 122.672 178.901 116.645C175.272 110.565 173.96 103.65 174.965 95.8988C175.449 92.1643 176.405 88.7646 177.833 85.6997C177.186 82.7474 177.079 79.5982 177.513 76.2521C178.317 70.0568 180.748 64.993 184.806 61.0608C188.842 57.1257 193.336 55.4793 198.289 56.1217L251.914 63.0768C256.844 63.7163 260.77 66.4547 263.691 71.292C266.611 76.1294 267.67 81.6458 266.866 87.841C266.059 94.0646 263.627 99.1425 259.568 103.075C258.221 104.381 256.825 105.436 255.38 106.242C255.377 106.268 255.373 106.297 255.369 106.327C254.364 114.078 251.32 120.429 246.237 125.379Z" fill="#EECCAA"/>
</mask>
<g mask="url(#mask0)">
<path d="M268.091 73.588C269.137 82.279 265.108 89.9111 259.092 90.6348C253.077 91.3586 247.353 84.8998 246.307 76.2088C245.262 67.5179 249.29 59.8857 255.306 59.162C261.321 58.4383 267.045 64.897 268.091 73.588Z" fill="#C4C4C4"/>
<path d="M189.507 68.9224C186.851 75.3708 180.476 78.8595 175.27 76.7146C170.063 74.5697 167.996 67.6034 170.653 61.155C173.309 54.7066 179.684 51.2179 184.89 53.3628C190.097 55.5077 192.164 62.4739 189.507 68.9224Z" fill="#C4C4C4"/>
</g>
<path d="M185.496 39.1892C185.959 35.9952 187.803 34.6073 191.028 35.0256L263.775 44.4608C267 44.879 268.381 46.6851 267.917 49.8791L265.256 68.2286C264.793 71.4225 262.949 72.8104 259.724 72.3922L186.977 62.957C183.752 62.5387 182.371 60.7326 182.835 57.5386L185.496 39.1892Z" fill="#333333"/>
<path d="M229.556 34.9893C240.619 36.4241 249.834 38.3146 257.202 40.6609C264.57 43.0072 267.918 45.1176 267.247 46.9921C266.576 48.8665 262.081 49.9596 253.762 50.2713C245.443 50.583 235.752 50.0215 224.689 48.5867C213.627 47.1518 204.411 45.2613 197.044 42.915C189.676 40.5687 186.327 38.4584 186.998 36.5839C187.669 34.7094 192.164 33.6163 200.483 33.3046C208.802 32.9929 218.493 33.5544 229.556 34.9893Z" fill="#666666"/>
<rect x="67.2363" y="138.673" width="23.6794" height="38.1029" rx="11.8397" transform="rotate(165 67.2363 138.673)" fill="#523D33"/>
<circle cx="90.2504" cy="167.244" r="55.8751" transform="rotate(15 90.2504 167.244)" fill="#775D4F"/>
<rect width="19.9938" height="38.3752" rx="9.99691" transform="matrix(-0.965926 -0.258819 -0.258819 0.965926 89.5649 128.645)" fill="white"/>
<rect width="19.9938" height="38.3752" rx="9.99691" transform="matrix(-0.965926 -0.258819 -0.258819 0.965926 118.971 136.774)" fill="white"/>
<rect width="12.2543" height="23.5411" rx="6.12714" transform="matrix(-0.965926 -0.258819 -0.258819 0.965926 85.2378 134.83)" fill="#333333"/>
<rect width="12.2543" height="23.5411" rx="6.12714" transform="matrix(-0.965926 -0.258819 -0.258819 0.965926 111.528 142.124)" fill="#333333"/>
<rect x="56.8062" y="147.565" width="61.1725" height="44.4453" rx="9.78219" transform="rotate(15 56.8062 147.565)" fill="#C88C6C"/>
<rect x="67.8071" y="160.859" width="13.6953" height="25.9563" rx="6.84765" transform="rotate(15 67.8071 160.859)" fill="#FFC19F"/>
<rect x="86.5952" y="165.686" width="13.6953" height="25.9563" rx="6.84765" transform="rotate(15 86.5952 165.686)" fill="#FFC19F"/>
<rect x="131.434" y="171.17" width="23.6794" height="38.1029" rx="11.8397" transform="rotate(-116.383 131.434 171.17)" fill="#523D33"/>
</svg>
