<svg width="357" height="334" viewBox="0 0 357 334" fill="none" xmlns="http://www.w3.org/2000/svg">
<g clip-path="url(#clip0)">
<path d="M147.287 307.171L166.737 150.844L49.2695 172.53L123.39 311.583C124.652 313.96 126.648 315.873 129.086 317.042C131.525 318.211 134.278 318.576 136.946 318.084C139.613 317.592 142.055 316.267 143.915 314.304C145.775 312.341 146.956 309.842 147.287 307.171Z" fill="#FEBB00"/>
<path d="M166.162 116.337L152.334 118.89C156.055 117.131 159.014 114.1 160.664 110.354C162.315 106.609 162.547 102.401 161.316 98.5084C160.086 94.6154 157.477 91.2993 153.97 89.1716C150.463 87.044 146.295 86.2483 142.235 86.9312L123.809 90.3329C127.094 89.2528 130.008 87.275 132.215 84.6275C134.422 81.98 135.832 78.7703 136.282 75.368C138.088 61.2716 125.7 55.6448 114.802 50.5687C107.991 47.7264 101.514 44.1574 95.4842 39.9246C96.3042 35.8027 95.5511 31.5304 93.3712 27.9377C91.1913 24.3451 87.7403 21.6888 83.6888 20.485C79.6374 19.2811 75.2748 19.6158 71.4489 21.4239C67.6229 23.232 64.6068 26.3844 62.9867 30.2686C56.5291 45.6712 63.4184 57.2335 73.6366 65.7726L63.0981 67.7182C59.0573 68.523 55.442 70.75 52.9197 73.988C50.3974 77.2261 49.1385 81.2564 49.3754 85.3349C49.6123 89.4133 51.3291 93.2645 54.2086 96.1773C57.0882 99.0901 60.9361 100.868 65.042 101.182L48.7979 104.181C44.7612 104.993 41.152 107.225 38.6361 110.464C36.1201 113.704 34.867 117.733 35.1079 121.808C35.3488 125.884 37.0674 129.731 39.9467 132.641C42.8261 135.55 46.6721 137.325 50.7753 137.639L36.9478 140.192C32.4972 141.013 28.5524 143.554 25.9814 147.255C23.4103 150.956 22.4236 155.514 23.2381 159.927C24.0527 164.339 26.602 168.244 30.325 170.783C34.0481 173.322 38.64 174.287 43.0906 173.466L172.305 149.611C176.755 148.789 180.7 146.248 183.271 142.547C185.842 138.846 186.829 134.288 186.014 129.876C185.2 125.463 182.65 121.558 178.927 119.019C175.204 116.48 170.612 115.515 166.162 116.337Z" fill="#330036"/>
<path d="M111.681 247.406C110.163 247.687 108.595 247.45 107.233 246.733C105.871 246.015 104.797 244.861 104.184 243.457L81.6163 191.71C80.898 190.064 80.8696 188.199 81.5372 186.527C82.2049 184.855 83.5139 183.513 85.1763 182.795C86.8387 182.078 88.7184 182.044 90.4018 182.701C92.0852 183.358 93.4344 184.652 94.1526 186.299L116.721 238.046C117.077 238.861 117.267 239.739 117.281 240.628C117.295 241.518 117.132 242.402 116.801 243.23C116.471 244.058 115.979 244.813 115.354 245.454C114.729 246.094 113.984 246.606 113.161 246.961C112.683 247.157 112.188 247.306 111.681 247.406Z" fill="#E1A600"/>
</g>
<g clip-path="url(#clip1)">
<path d="M128.609 119.643C131.594 119.643 134.014 117.224 134.014 114.239C134.014 111.254 131.594 108.834 128.609 108.834C125.625 108.834 123.205 111.254 123.205 114.239C123.205 117.224 125.625 119.643 128.609 119.643Z" fill="white"/>
</g>
<g clip-path="url(#clip2)">
<path d="M75.0302 127.055C77.9296 127.055 80.2801 124.705 80.2801 121.805C80.2801 118.906 77.9296 116.555 75.0302 116.555C72.1307 116.555 69.7803 118.906 69.7803 121.805C69.7803 124.705 72.1307 127.055 75.0302 127.055Z" fill="white"/>
</g>
<g clip-path="url(#clip3)">
<path d="M108.624 149.954C119.138 148.201 126.241 138.256 124.488 127.742C122.735 117.227 112.79 110.124 102.276 111.877C91.7611 113.63 84.6583 123.575 86.4113 134.09C88.1642 144.604 98.109 151.707 108.624 149.954Z" fill="white"/>
</g>
<g clip-path="url(#clip4)">
<path d="M109.583 152.294C118.274 150.529 123.889 142.053 122.124 133.361C120.36 124.669 111.883 119.054 103.192 120.819C94.5 122.584 88.8848 131.061 90.6496 139.752C92.4145 148.444 100.891 154.059 109.583 152.294Z" fill="#D81E5B"/>
</g>
<g clip-path="url(#clip5)">
<path d="M280.864 84.2888C286.143 84.2888 290.423 80.0755 290.423 74.8783C290.423 69.681 286.143 65.4678 280.864 65.4678C275.584 65.4678 271.304 69.681 271.304 74.8783C271.304 80.0755 275.584 84.2888 280.864 84.2888Z" fill="#330036"/>
</g>
<g clip-path="url(#clip6)">
<path d="M276.83 80.4049C279.717 80.4049 282.058 78.1311 282.058 75.3262C282.058 72.5214 279.717 70.2476 276.83 70.2476C273.942 70.2476 271.602 72.5214 271.602 75.3262C271.602 78.1311 273.942 80.4049 276.83 80.4049Z" fill="white"/>
</g>
<g clip-path="url(#clip7)">
<path d="M252.664 289.786C248.491 289.037 244.781 286.687 242.345 283.251C239.909 279.816 238.947 275.574 239.668 271.454L255.803 180.506C256.534 176.386 258.895 172.728 262.366 170.338C265.837 167.948 270.134 167.022 274.312 167.763C278.49 168.505 282.206 170.852 284.644 174.29C287.081 177.728 288.039 181.975 287.308 186.096L271.173 277.043C270.442 281.164 268.082 284.822 264.61 287.212C261.139 289.601 256.842 290.528 252.664 289.786Z" fill="#FEBB00"/>
<path d="M302.385 9.52037C288.153 6.99541 273.514 10.1506 261.689 18.2918C249.864 26.4331 241.822 38.8935 239.331 52.9319L218.094 172.641C216.576 181.198 218.564 190.015 223.62 197.156C228.677 204.297 236.389 209.178 245.062 210.726L287.069 218.178C295.74 219.698 304.652 217.762 311.849 212.796C319.046 207.83 323.939 200.239 325.456 191.688L346.694 71.9788C347.927 65.0248 347.76 57.8925 346.2 50.9894C344.641 44.0863 341.721 37.5478 337.606 31.7475C333.491 25.9471 328.263 20.9987 322.219 17.1848C316.176 13.371 309.436 10.7666 302.385 9.52037Z" fill="#D81E5B"/>
</g>
<g clip-path="url(#clip8)">
<path d="M310.982 100.842C313.871 100.842 316.212 98.5009 316.212 95.6124C316.212 92.7239 313.871 90.3823 310.982 90.3823C308.094 90.3823 305.752 92.7239 305.752 95.6124C305.752 98.5009 308.094 100.842 310.982 100.842Z" fill="white"/>
</g>
<g clip-path="url(#clip9)">
<path d="M258.364 93.2347C260.902 93.2347 262.96 91.177 262.96 88.6386C262.96 86.1002 260.902 84.0425 258.364 84.0425C255.825 84.0425 253.768 86.1002 253.768 88.6386C253.768 91.177 255.825 93.2347 258.364 93.2347Z" fill="white"/>
</g>
<g clip-path="url(#clip10)">
<path d="M280.05 128.252C290.986 129.679 300.999 122.04 302.415 111.191C303.83 100.342 296.112 90.3902 285.176 88.9635C274.239 87.5369 264.227 95.1755 262.811 106.025C261.396 116.874 269.114 126.826 280.05 128.252Z" fill="white"/>
</g>
<g clip-path="url(#clip11)">
<path d="M279.38 129.892C288.946 130.988 297.581 124.192 298.666 114.713C299.752 105.234 292.877 96.6618 283.312 95.5663C273.746 94.4707 265.111 101.267 264.026 110.745C262.94 120.224 269.814 128.796 279.38 129.892Z" fill="#FEBB00"/>
</g>
<defs>
<clipPath id="clip0">
<rect width="165.527" height="304.186" fill="white" transform="translate(0 34.0508) rotate(-10.4599)"/>
</clipPath>
<clipPath id="clip1">
<rect width="10.8087" height="10.8087" fill="white" transform="translate(123.205 108.834)"/>
</clipPath>
<clipPath id="clip2">
<rect width="10.4998" height="10.4998" fill="white" transform="translate(69.7803 116.555)"/>
</clipPath>
<clipPath id="clip3">
<rect width="38.6023" height="19.1468" fill="white" transform="translate(86.3857 133.938) rotate(-9.465)"/>
</clipPath>
<clipPath id="clip4">
<rect width="31.8083" height="8.95574" fill="white" transform="translate(92.001 146.41) rotate(-11.478)"/>
</clipPath>
<clipPath id="clip5">
<rect width="19.1197" height="18.821" fill="white" transform="translate(271.304 65.4678)"/>
</clipPath>
<clipPath id="clip6">
<rect width="10.4561" height="10.1574" fill="white" transform="translate(271.602 70.2476)"/>
</clipPath>
<clipPath id="clip7">
<rect width="109.039" height="284.642" fill="white" transform="translate(248.722) rotate(10.06)"/>
</clipPath>
<clipPath id="clip8">
<rect width="10.4601" height="10.4601" fill="white" transform="translate(305.752 90.3823)"/>
</clipPath>
<clipPath id="clip9">
<rect width="9.19224" height="9.19224" fill="white" transform="translate(253.768 84.0425)"/>
</clipPath>
<clipPath id="clip10">
<rect width="39.6217" height="19.3354" fill="white" transform="translate(262.791 106.182) rotate(7.43236)"/>
</clipPath>
<clipPath id="clip11">
<rect width="34.5501" height="8.55829" fill="white" transform="translate(263.069 119.09) rotate(6.53375)"/>
</clipPath>
</defs>
</svg>
