<svg width="52" height="52" viewBox="0 0 52 52" fill="none" xmlns="http://www.w3.org/2000/svg">
<circle cx="26" cy="26" r="26" fill="#330036"/>
<path d="M21.8952 13.7251L14.6641 16.6186C14.1496 16.8244 13.8125 17.321 13.8125 17.8749V36.8332C13.8125 37.7906 14.7795 38.4457 15.6692 38.0895L21.9798 35.5663L30.1048 38.2747L37.3359 35.3812C37.8504 35.1754 38.1875 34.6787 38.1875 34.1249V15.1665C38.1875 14.2091 37.2205 13.5541 36.3308 13.9102L30.0202 16.4334L21.8952 13.7251ZM23.2917 17.0444L28.7083 18.8508V34.9554L23.2917 33.1489V17.0444ZM20.5833 17.1661V33.2071L16.5208 34.8337V18.7926L20.5833 17.1661ZM35.4792 17.1661V33.2071L31.4167 34.8337V18.7926L35.4792 17.1661Z" fill="white"/>
</svg>
