<svg width="52" height="52" viewBox="0 0 52 52" fill="none" xmlns="http://www.w3.org/2000/svg">
<circle cx="26" cy="26" r="26" fill="#330036"/>
<path d="M18.5419 12.7969C18.0102 12.7969 17.4866 12.9873 17.0502 13.3364L16.9867 13.3682L16.9549 13.3999L13.7811 16.6689L13.8128 16.7007C12.8329 17.6052 12.5314 18.9581 12.9559 20.1284C12.9599 20.1364 12.9519 20.1522 12.9559 20.1602C13.8168 22.6238 16.0187 27.3806 20.3192 31.6812C24.6356 35.9976 29.4559 38.1121 31.8402 39.0444H31.8719C33.1058 39.457 34.4427 39.1635 35.3949 38.3462L38.6004 35.1406C39.4415 34.2996 39.4415 32.8396 38.6004 31.9985L34.4745 27.8726L34.4427 27.8091C33.6017 26.968 32.11 26.968 31.2689 27.8091L29.2377 29.8403C28.5037 29.4872 26.7541 28.5827 25.0799 26.9839C23.4176 25.397 22.5686 23.572 22.2552 22.8579L24.2865 20.8267C25.1394 19.9737 25.1553 18.5534 24.2547 17.7163L24.2865 17.6846L24.1913 17.5894L20.1288 13.3999L20.097 13.3682L20.0336 13.3364C19.5972 12.9873 19.0735 12.7969 18.5419 12.7969ZM18.5419 14.8281C18.6172 14.8281 18.6926 14.8638 18.764 14.9233L22.8265 19.0811L22.9217 19.1763C22.9138 19.1683 22.9812 19.2755 22.8583 19.3984L20.3192 21.9375L19.8431 22.3818L20.0653 23.0166C20.0653 23.0166 21.2317 26.1389 23.6835 28.4756L23.9056 28.666C26.2662 30.8203 29.0472 31.9985 29.0472 31.9985L29.682 32.2842L32.6971 29.269C32.8717 29.0945 32.8399 29.0945 33.0145 29.269L37.1722 33.4268C37.3468 33.6013 37.3468 33.5378 37.1722 33.7124L34.0619 36.8228C33.5937 37.2234 33.0978 37.3068 32.5067 37.1084C30.2057 36.2039 25.7345 34.2401 21.7474 30.2529C17.7286 26.2341 15.6299 21.6757 14.8602 19.4619C14.7055 19.0493 14.8166 18.4384 15.1776 18.1289L15.2411 18.0654L18.3197 14.9233C18.3911 14.8638 18.4665 14.8281 18.5419 14.8281Z" fill="white"/>
</svg>
