<svg width="100" height="100" viewBox="0 0 100 100" fill="none" xmlns="http://www.w3.org/2000/svg">
<path d="M74.7827 79.363C71.1479 83.7877 66.7503 86 61.59 86L31.6732 86C26.5129 86 22.1059 83.7877 18.4522 79.3631C14.8174 74.8926 13 69.5165 13 63.2349C13 60.2085 13.4237 57.4001 14.2712 54.8098C13.4237 52.5238 13 50.0249 13 47.3131C13 42.2924 14.4596 38.0054 17.3787 34.4519C20.2791 30.8984 23.8009 29.1217 27.9442 29.1217L72.8052 29.1217C76.9297 29.1217 80.4515 30.8984 83.3707 34.4519C86.2899 38.0054 87.7494 42.2924 87.7494 47.3131C87.7494 52.3568 86.2899 56.6553 83.3707 60.2088C82.4013 61.3888 81.3655 62.3746 80.2632 63.1661C80.2632 63.1874 80.2632 63.2103 80.2632 63.2349C80.2632 69.5165 78.4364 74.8926 74.7827 79.363Z" fill="#EECCAA"/>
<path d="M16.1796 35.6516C14.7928 30.8751 21.8714 22.4744 27.399 19.0846C32.9266 15.6949 40.2742 14 49.442 14C58.629 14 66.9589 15.6949 74.4317 19.0846C81.9239 22.4744 86.3633 26.5575 87.75 31.3339V51.5569L59.139 32.3007L16.1796 35.6516Z" fill="#333333"/>
<path d="M45.4774 79.9853C38.4545 79.9853 32.7614 74.2921 32.7614 67.2693H58.1934C58.1934 74.2921 52.5002 79.9853 45.4774 79.9853Z" fill="#D81E5B"/>
<mask id="mask0" style="mask-type:alpha" maskUnits="userSpaceOnUse" x="32" y="67" width="27" height="13">
<path d="M45.4774 79.9853C38.4545 79.9853 32.7614 74.2921 32.7614 67.2693H58.1934C58.1934 74.2921 52.5002 79.9853 45.4774 79.9853Z" fill="#D81E5B"/>
</mask>
<g mask="url(#mask0)">
<path d="M45.4777 72.0811C50.0331 72.0811 53.7259 75.774 53.7259 80.3293L37.2295 80.3293C37.2295 75.774 40.9223 72.0811 45.4777 72.0811Z" fill="#881138"/>
</g>
<rect width="8.07638" height="13.0597" rx="4.03819" transform="matrix(-1 0 0 1 49.6025 51.6323)" fill="#EEAA99"/>
<rect x="51.5938" y="43.438" width="9.75068" height="18.715" rx="4.87534" fill="white"/>
<rect x="29.7334" y="43.439" width="9.75068" height="18.715" rx="4.87534" fill="white"/>
<rect x="52.8506" y="46.8979" width="5.97622" height="11.4806" rx="2.98811" fill="#333333"/>
<rect x="32.5645" y="46.8979" width="5.97622" height="11.4806" rx="2.98811" fill="#333333"/>
<path d="M65.9781 46.0267C64.856 41.3832 60.182 38.5286 55.5385 39.6507" stroke="#333333" stroke-width="3.56883" stroke-linecap="round"/>
<path d="M36.8844 39.7807C32.27 38.5443 27.527 41.2827 26.2906 45.8971" stroke="#333333" stroke-width="3.56883" stroke-linecap="round"/>
</svg>
