<svg width="75" height="72" viewBox="0 0 75 72" fill="none" xmlns="http://www.w3.org/2000/svg">
<path d="M62.0327 65.363C58.3979 69.7877 54.0003 72 48.84 72L18.9232 72C13.7629 72 9.35591 69.7877 5.70225 65.3631C2.06741 60.8926 0.249999 55.5165 0.249998 49.2349C0.249998 46.2085 0.673747 43.4001 1.52125 40.8098C0.673747 38.5238 0.249997 36.0249 0.249997 33.3131C0.249996 28.2924 1.70958 24.0054 4.62874 20.4519C7.52907 16.8984 11.0509 15.1217 15.1942 15.1217L60.0552 15.1217C64.1797 15.1217 67.7015 16.8984 70.6207 20.4519C73.5399 24.0054 74.9994 28.2924 74.9994 33.3131C74.9994 38.3568 73.5399 42.6553 70.6207 46.2087C69.6513 47.3888 68.6155 48.3746 67.5132 49.1661C67.5132 49.1874 67.5132 49.2103 67.5132 49.2349C67.5132 55.5165 65.6864 60.8926 62.0327 65.363Z" fill="#EECCAA"/>
<path d="M3.42957 21.6516C2.04285 16.8751 9.12135 8.47437 14.649 5.08462C20.1766 1.69487 27.5242 0 36.692 0C45.879 0 54.2089 1.69487 61.6817 5.08462C69.1739 8.47437 73.6133 12.5575 75 17.3339V37.5569L46.389 18.3007L3.42957 21.6516Z" fill="#333333"/>
<path d="M32.7274 65.9853C25.7045 65.9853 20.0114 60.2921 20.0114 53.2693H45.4434C45.4434 60.2921 39.7502 65.9853 32.7274 65.9853Z" fill="#D81E5B"/>
<mask id="mask0" style="mask-type:alpha" maskUnits="userSpaceOnUse" x="20" y="53" width="26" height="13">
<path d="M32.7274 65.9853C25.7045 65.9853 20.0114 60.2921 20.0114 53.2693H45.4434C45.4434 60.2921 39.7502 65.9853 32.7274 65.9853Z" fill="#D81E5B"/>
</mask>
<g mask="url(#mask0)">
<path d="M32.7277 58.0811C37.2831 58.0811 40.9759 61.774 40.9759 66.3293L24.4795 66.3293C24.4795 61.774 28.1723 58.0811 32.7277 58.0811Z" fill="#881138"/>
</g>
<rect width="8.07638" height="13.0597" rx="4.03819" transform="matrix(-1 0 0 1 36.8525 37.6323)" fill="#EEAA99"/>
<rect x="38.8442" y="29.438" width="9.75068" height="18.715" rx="4.87534" fill="white"/>
<rect x="16.9844" y="29.439" width="9.75068" height="18.715" rx="4.87534" fill="white"/>
<rect x="40.1021" y="32.8979" width="5.97622" height="11.4806" rx="2.98811" fill="#333333"/>
<rect x="19.8149" y="32.8979" width="5.97622" height="11.4806" rx="2.98811" fill="#333333"/>
<path d="M53.2291 32.0267C52.107 27.3832 47.433 24.5286 42.7895 25.6507" stroke="#333333" stroke-width="3.56883" stroke-linecap="round"/>
<path d="M24.1349 25.7807C19.5205 24.5443 14.7775 27.2827 13.5411 31.8971" stroke="#333333" stroke-width="3.56883" stroke-linecap="round"/>
</svg>
