<svg width="116" height="72" viewBox="0 0 116 72" fill="none" xmlns="http://www.w3.org/2000/svg">
<path d="M29.655 66.0002V11.5218L-0.000234604 66.0002H29.655Z" fill="#333333"/>
<path d="M85.5427 66.0002V7.95779L115.198 66.0002H85.5427ZM115.498 7.3715V7.95779L115.198 7.3715H115.498Z" fill="#333333"/>
<path d="M85.6355 65.0388C82.0093 69.6796 77.6222 72 72.4742 72L42.6286 72C37.4805 72 33.084 69.6796 29.439 65.0388C25.8128 60.3499 23.9998 54.7112 23.9998 48.1226C23.9998 44.9483 24.4225 42.0027 25.268 39.2859C24.4225 36.8881 23.9998 34.2672 23.9998 31.4229C23.9998 26.1569 25.4559 21.6604 28.3681 17.9333C31.2615 14.2062 34.775 12.3427 38.9084 12.3427L83.6627 12.3427C87.7774 12.3427 91.2909 14.2062 94.2031 17.9333C97.1153 21.6604 98.5714 26.1569 98.5714 31.4229C98.5714 36.713 97.1153 41.2215 94.2031 44.9486C93.236 46.1863 92.2026 47.2203 91.103 48.0505C91.103 48.0728 91.103 48.0968 91.103 48.1226C91.103 54.7112 89.2805 60.3499 85.6355 65.0388Z" fill="#EECCAA"/>
<path d="M56.4004 66.0002C49.3943 66.0002 43.7147 60.3206 43.7147 53.3145H69.0862C69.0862 60.3206 63.4066 66.0002 56.4004 66.0002Z" fill="#D81E5B"/>
<mask id="mask0" style="mask-type:alpha" maskUnits="userSpaceOnUse" x="43" y="53" width="27" height="14">
<path d="M56.4004 66.0002C49.3943 66.0002 43.7147 60.3206 43.7147 53.3145H69.0862C69.0862 60.3206 63.4066 66.0002 56.4004 66.0002Z" fill="#D81E5B"/>
</mask>
<g mask="url(#mask0)">
<path d="M56.4007 58.1142C60.9452 58.1142 64.6293 61.7982 64.6293 66.3428L48.1721 66.3428C48.1721 61.7982 51.8562 58.1142 56.4007 58.1142Z" fill="#881138"/>
</g>
<rect width="8.05717" height="13.0286" rx="4.02858" transform="matrix(-4.37114e-08 1 1 4.37114e-08 49.9717 40.2)" fill="#EEAA99"/>
<rect x="62.5017" y="29.5393" width="9.72749" height="18.6705" rx="4.86375" fill="white"/>
<rect x="40.6931" y="29.5393" width="9.72749" height="18.6705" rx="4.86375" fill="white"/>
<rect x="63.7566" y="32.991" width="5.96201" height="11.4533" rx="2.98101" fill="#333333"/>
<rect x="43.5171" y="32.991" width="5.96201" height="11.4533" rx="2.98101" fill="#333333"/>
<rect x="40.5381" y="32.5" width="4.95067" height="1.77981" rx="0.889904" transform="rotate(-105 40.5381 32.5)" fill="#333333"/>
<rect x="62.4814" y="32.5" width="4.95067" height="1.77981" rx="0.889904" transform="rotate(-105 62.4814 32.5)" fill="#333333"/>
<rect x="48.6855" y="31.5776" width="4.95067" height="1.77981" rx="0.889904" transform="rotate(-60 48.6855 31.5776)" fill="#333333"/>
<rect x="70.6284" y="31.5776" width="4.95067" height="1.77981" rx="0.889904" transform="rotate(-60 70.6284 31.5776)" fill="#333333"/>
<rect x="44.5708" y="30.1511" width="4.95067" height="1.77981" rx="0.889904" transform="rotate(-90 44.5708 30.1511)" fill="#333333"/>
<rect x="66.5142" y="30.1506" width="4.95067" height="1.77981" rx="0.889904" transform="rotate(-90 66.5142 30.1506)" fill="#333333"/>
<path d="M86.6574 41.5956V41.4173L86.7762 41.5956H86.6574ZM39.1493 23.65L39.2979 23.7986H24.2938C24.2938 17.2423 27.9383 11.6269 35.2274 6.9524C42.4571 2.31747 51.1922 0 61.4326 0C71.6929 0 80.4577 2.31747 87.727 6.9524C94.9567 11.6269 98.5715 17.2423 98.5715 23.7986V41.4173L86.7762 23.7986H58.7884L58.9369 23.65L49.0431 14.1425L39.1493 23.65Z" fill="#333333"/>
</svg>
