<svg width="100" height="100" viewBox="0 0 100 100" fill="none" xmlns="http://www.w3.org/2000/svg">
<g clip-path="url(#clip0)">
<path d="M21.6553 80.0005L17 32L5 80.0005H21.6553Z" fill="#333333"/>
<path d="M77.543 80.0005L90 36.5L100 80.0005H77.543ZM107.498 21.3717V21.958L107.198 21.3717H107.498Z" fill="#333333"/>
<path d="M77.6358 79.0388C74.0096 83.6796 69.6225 86 64.4744 86L34.6288 86C29.4808 86 25.0843 83.6796 21.4393 79.0388C17.8131 74.3499 16 68.7112 16 62.1226C16 58.9483 16.4227 56.0027 17.2682 53.2859C16.4227 50.8881 16 48.2672 16 45.4229C16 40.1569 17.4561 35.6604 20.3683 31.9333C23.2618 28.2062 26.7752 26.3427 30.9087 26.3427L75.663 26.3427C79.7777 26.3427 83.2911 28.2062 86.2033 31.9333C89.1156 35.6604 90.5717 40.1569 90.5717 45.4229C90.5717 50.713 89.1156 55.2215 86.2033 58.9486C85.2362 60.1863 84.2029 61.2203 83.1032 62.0505C83.1032 62.0728 83.1032 62.0968 83.1032 62.1226C83.1032 68.7112 81.2807 74.3499 77.6358 79.0388Z" fill="#EECCAA"/>
<path d="M48.4012 80.0002C41.395 80.0002 35.7154 74.3206 35.7154 67.3145H61.0869C61.0869 74.3206 55.4073 80.0002 48.4012 80.0002Z" fill="#D81E5B"/>
<mask id="mask0" style="mask-type:alpha" maskUnits="userSpaceOnUse" x="35" y="67" width="27" height="14">
<path d="M48.4012 80.0002C41.395 80.0002 35.7154 74.3206 35.7154 67.3145H61.0869C61.0869 74.3206 55.4073 80.0002 48.4012 80.0002Z" fill="#D81E5B"/>
</mask>
<g mask="url(#mask0)">
<path d="M48.4014 72.1142C52.946 72.1142 56.63 75.7982 56.63 80.3428L40.1729 80.3428C40.1729 75.7982 43.8569 72.1142 48.4014 72.1142Z" fill="#881138"/>
</g>
<rect width="8.05717" height="13.0286" rx="4.02858" transform="matrix(-4.37114e-08 1 1 4.37114e-08 41.9717 54.2)" fill="#EEAA99"/>
<rect x="54.502" y="43.5393" width="9.72749" height="18.6705" rx="4.86375" fill="white"/>
<rect x="32.6934" y="43.5393" width="9.72749" height="18.6705" rx="4.86375" fill="white"/>
<rect x="55.7568" y="46.991" width="5.96201" height="11.4533" rx="2.98101" fill="#333333"/>
<rect x="35.5176" y="46.991" width="5.96201" height="11.4533" rx="2.98101" fill="#333333"/>
<rect x="32.5391" y="46.5" width="4.95067" height="1.77981" rx="0.889904" transform="rotate(-105 32.5391 46.5)" fill="#333333"/>
<rect x="54.4814" y="46.5" width="4.95067" height="1.77981" rx="0.889904" transform="rotate(-105 54.4814 46.5)" fill="#333333"/>
<rect x="40.6855" y="45.5776" width="4.95067" height="1.77981" rx="0.889904" transform="rotate(-60 40.6855 45.5776)" fill="#333333"/>
<rect x="62.6289" y="45.5776" width="4.95067" height="1.77981" rx="0.889904" transform="rotate(-60 62.6289 45.5776)" fill="#333333"/>
<rect x="36.5713" y="44.1511" width="4.95067" height="1.77981" rx="0.889904" transform="rotate(-90 36.5713 44.1511)" fill="#333333"/>
<rect x="58.5146" y="44.1506" width="4.95067" height="1.77981" rx="0.889904" transform="rotate(-90 58.5146 44.1506)" fill="#333333"/>
<path d="M78.6581 55.5956V55.4173L78.777 55.5956H78.6581ZM31.15 37.65L31.2986 37.7986H16.2945C16.2945 31.2423 19.939 25.6269 27.2282 20.9524C34.4579 16.3175 43.1929 14 53.4334 14C63.6936 14 72.4584 16.3175 79.7277 20.9524C86.9574 25.6269 90.5723 31.2423 90.5723 37.7986V55.4173L78.777 37.7986H50.7891L50.9376 37.65L41.0438 28.1425L31.15 37.65Z" fill="#333333"/>
</g>
<defs>
<clipPath id="clip0">
<rect width="100" height="100" fill="white"/>
</clipPath>
</defs>
</svg>
