<svg width="620" height="620" viewBox="0 0 620 620" fill="none" xmlns="http://www.w3.org/2000/svg">
<g clip-path="url(#clip0)">
<path d="M400.593 218.161C396.345 219.3 392.212 220.643 388.159 222.119C395.69 196.887 396.369 170.089 390.124 144.486C383.88 118.884 370.939 95.4051 352.635 76.4706C334.332 57.5361 311.329 43.8315 285.999 36.77C260.669 29.7085 233.928 29.5458 208.533 36.2985C183.139 43.0512 160.011 56.4749 141.534 75.1855C123.057 93.8961 109.9 117.216 103.42 142.741C96.9399 168.266 97.3709 195.071 104.669 220.394C111.966 245.716 125.867 268.638 144.937 286.796C143.291 287.177 141.648 287.546 140.007 287.985C114.33 294.863 90.9908 308.562 72.4491 327.637C53.9075 346.713 40.8507 370.458 34.6554 396.368C28.4601 422.279 29.3559 449.396 37.2484 474.86C45.1409 500.323 59.7375 523.19 79.4994 541.049C99.2612 558.908 123.456 571.098 149.533 576.333C175.609 581.567 202.601 579.653 227.663 570.793C252.725 561.932 274.928 546.452 291.931 525.986C308.934 505.52 320.106 480.826 324.271 454.508C341.037 475.218 363.06 491.017 388.017 500.24C412.975 509.462 439.943 511.767 466.077 506.91C492.212 502.053 516.544 490.214 536.51 472.643C556.476 455.072 571.335 432.418 579.52 407.071C587.705 381.724 588.913 354.623 583.017 328.625C577.121 302.627 564.339 278.695 546.019 259.353C527.699 240.01 504.519 225.975 478.925 218.725C453.33 211.475 426.268 211.281 400.593 218.161V218.161Z" fill="#FF9B19"/>
<rect width="192.12" height="249.881" rx="83.503" transform="matrix(-1 0 0 1 467.015 285.844)" fill="white"/>
<rect width="84.7587" height="40.8098" rx="20.4049" transform="matrix(-1 0 0 1 352.748 550.793)" fill="#151E3F"/>
<rect width="84.7587" height="40.8098" rx="20.4049" transform="matrix(-1 0 0 1 473.294 550.793)" fill="#151E3F"/>
<path d="M487.734 515.006C487.734 480.332 459.624 452.222 424.95 452.222L316.961 452.222C282.286 452.222 254.177 480.332 254.177 515.006L254.177 535.725L487.734 535.725L487.734 515.006Z" fill="#DB162F"/>
<rect x="304.276" y="413.475" width="140" height="64" rx="32" transform="rotate(163.851 304.276 413.475)" fill="#E4BD95"/>
<rect x="478.308" y="345" width="140" height="64" rx="32" transform="rotate(56.4011 478.308 345)" fill="#E4BD95"/>
<path d="M210.593 373.973L255.739 360.9C272.714 355.985 290.461 365.762 295.376 382.737V382.737C300.292 399.713 290.515 417.459 273.54 422.375L228.394 435.448L210.593 373.973Z" fill="white"/>
<path d="M468.717 446.218L442.708 407.07C432.928 392.349 436.933 372.488 451.654 362.708V362.708C466.374 352.928 486.236 356.933 496.016 371.654L522.024 410.802L468.717 446.218Z" fill="white"/>
<path d="M369.011 413.341C371.434 408.495 373.857 408.419 376.28 413.114L386.957 434.696C389.381 439.39 389.381 444.161 386.957 449.008L376.28 470.589C373.857 475.436 371.434 475.512 369.011 470.817L358.333 449.235C355.91 444.54 355.91 439.769 358.333 434.923L369.011 413.341Z" fill="#9B1727"/>
<path d="M268.61 368.719V169.197L160 368.719H268.61Z" fill="#333333"/>
<path d="M473.293 368.719V156.144L581.903 368.719H473.293ZM583 153.997V156.144L581.903 153.997H583Z" fill="#333333"/>
<path d="M473.633 365.199C460.352 382.196 444.285 390.694 425.431 390.694L316.124 390.694C297.27 390.694 281.168 382.196 267.819 365.199C254.538 348.026 247.898 327.375 247.898 303.245C247.898 291.62 249.446 280.832 252.543 270.881C249.446 262.1 247.898 252.501 247.898 242.084C247.898 222.798 253.231 206.33 263.897 192.68C274.493 179.03 287.361 172.205 302.5 172.205L466.408 172.205C481.477 172.205 494.345 179.03 505.011 192.68C515.677 206.33 521.009 222.798 521.009 242.084C521.009 261.459 515.677 277.971 505.011 291.621C501.469 296.154 497.684 299.94 493.657 302.981C493.657 303.063 493.657 303.151 493.657 303.245C493.657 327.375 486.982 348.026 473.633 365.199Z" fill="#EECCAA"/>
<path d="M372.526 410.157L403.79 390.38L341.261 390.38L372.526 410.157Z" fill="#E4BD95"/>
<path d="M366.561 368.719C340.902 368.719 320.101 347.918 320.101 322.259H413.021C413.021 347.918 392.22 368.719 366.561 368.719Z" fill="#D81E5B"/>
<mask id="mask0" style="mask-type:alpha" maskUnits="userSpaceOnUse" x="320" y="322" width="94" height="47">
<path d="M366.561 368.719C340.902 368.719 320.101 347.918 320.101 322.259H413.021C413.021 347.918 392.22 368.719 366.561 368.719Z" fill="#D81E5B"/>
</mask>
<g mask="url(#mask0)">
<path d="M366.561 339.838C383.205 339.838 396.698 353.331 396.698 369.975L336.425 369.975C336.425 353.331 349.917 339.838 366.561 339.838Z" fill="#881138"/>
</g>
<rect width="29.5086" height="47.716" rx="14.7543" transform="matrix(-4.37114e-08 1 1 4.37114e-08 343.017 274.229)" fill="#EEAA99"/>
<rect x="388.908" y="235.184" width="35.626" height="68.3789" rx="17.813" fill="white"/>
<rect x="309.037" y="235.185" width="35.626" height="68.3789" rx="17.813" fill="white"/>
<rect x="389" y="247.826" width="21.8353" height="41.9467" rx="10.9176" fill="#333333"/>
<rect x="309" y="247.826" width="21.8353" height="41.9467" rx="10.9176" fill="#333333"/>
<rect x="308.469" y="246.027" width="18.1314" height="6.51837" rx="3.25919" transform="rotate(-105 308.469 246.027)" fill="#333333"/>
<rect x="388.832" y="246.027" width="18.1314" height="6.51837" rx="3.25919" transform="rotate(-105 388.832 246.027)" fill="#333333"/>
<rect x="338.307" y="242.648" width="18.1314" height="6.51837" rx="3.25919" transform="rotate(-60 338.307 242.648)" fill="#333333"/>
<rect x="418.67" y="242.648" width="18.1314" height="6.51837" rx="3.25919" transform="rotate(-60 418.67 242.648)" fill="#333333"/>
<rect x="323.239" y="237.424" width="18.1314" height="6.51837" rx="3.25919" transform="rotate(-90 323.239 237.424)" fill="#333333"/>
<rect x="403.603" y="237.423" width="18.1314" height="6.51837" rx="3.25919" transform="rotate(-90 403.603 237.423)" fill="#333333"/>
<path d="M477.376 279.34V278.687L477.811 279.34H477.376ZM303.382 213.616L303.926 214.16H248.975C248.975 190.148 262.323 169.583 289.019 152.462C315.497 135.487 347.488 127 384.993 127C422.57 127 454.67 135.487 481.293 152.462C507.771 169.583 521.01 190.148 521.01 214.16V278.687L477.811 214.16H375.308L375.852 213.616L339.617 178.795L303.382 213.616Z" fill="#333333"/>
<path d="M30.5677 199.256C33.7527 192.198 37.7346 185.529 42.4354 179.377C47.6465 172.628 56.9486 179.404 53.1386 186.702L51.3361 190.16C74.579 184.124 100.804 183.258 123.752 183.179C135.856 183.128 152.261 181.346 163.45 186.879C175.122 192.65 176.121 209.139 178.251 220.348C184.273 252.346 190.228 284.795 195.089 316.992C197.084 330.251 197.887 343.669 199.978 356.914C200.662 361.545 201.54 366.266 202.176 370.971C205.641 365.331 214.258 368.933 214 375.038C213.548 387.933 203.258 399.654 194.252 408.036C193.558 408.753 192.686 409.273 191.725 409.543C190.765 409.812 189.751 409.822 188.786 409.572C175.094 414.11 159.846 414.301 145.586 415.212C128.828 416.418 112.555 419.59 95.9056 421.472C72.5417 424.094 45.3252 419.7 41.2669 392.453C36.3057 359.225 34.5469 324.911 31.4899 291.427C29.8042 272.9 28.2616 254.354 26.8621 235.788C25.9728 223.867 22.5452 209.478 30.5677 199.256Z" fill="#151E3F"/>
<path d="M56.1048 172.714C81.9402 165.565 110.016 163.218 136.768 163.194C147.719 163.135 160.052 162.547 170.782 165.036C182.105 167.654 185.69 175.629 188.236 186.162C194.891 213.733 197.189 242.195 203.06 269.929C208.501 295.669 210.983 321.809 214.715 347.822C217.449 366.345 219.017 385.742 197.292 390.935C169.59 396.165 140.449 397.371 112.464 400.318C97.1323 401.879 64.842 406.42 57.5396 387.942C53.1538 376.868 53.7502 362.428 52.4412 350.68C50.7627 335.709 49.174 320.738 47.6751 305.768C44.7579 276.614 42.1844 247.434 39.9545 218.227C38.4985 199.296 33.8084 178.916 56.1048 172.714Z" fill="#7CB518"/>
<path d="M84.149 180.264C121.782 173.62 167.326 166.348 177.059 214.221C181.875 239.049 185.961 263.989 189.316 289.042C191.736 307.481 196.114 327.252 195.79 345.932C195.658 359.551 188.716 369.941 175.516 374.169C154.888 380.741 129.069 379.833 107.474 380.08C89.556 380.302 73.071 377.198 69.4605 357.121C64.957 332.159 64.105 305.993 61.5827 280.755C59.1626 257.146 53.7845 231.884 54.7151 208.084C55.6317 189.518 67.5792 183.173 84.149 180.264Z" fill="#E9FACC"/>
<path d="M135.562 352.193L135.546 352.198L135.562 352.193Z" fill="#008DD5"/>
<path d="M130.031 343.045C132.303 342.043 134.81 341.706 137.264 342.071L137.415 342.094C139.813 342.408 142.069 343.409 143.911 344.977C145.754 346.545 147.104 348.613 147.8 350.932C149.441 356.814 145.067 363.608 139.223 365.04C139.206 365.045 139.192 365.053 139.175 365.057L139.143 365.062C138.807 365.139 138.468 365.198 138.126 365.239C136.212 365.431 134.281 365.19 132.474 364.532C130.668 363.874 129.034 362.816 127.692 361.438C126.373 360.168 125.35 358.621 124.696 356.909C124.043 355.196 123.775 353.36 123.912 351.531C124.109 349.707 124.776 347.965 125.849 346.477C126.922 344.989 128.363 343.806 130.031 343.045V343.045Z" fill="#008DD5"/>
<path d="M135.542 352.162L135.575 352.157L135.567 352.179L135.542 352.171L135.542 352.162Z" fill="#008DD5"/>
<path d="M117.754 322.784C109.763 323.652 102.586 317.923 101.723 309.987C100.861 302.051 106.64 294.913 114.631 294.045C122.622 293.177 129.8 298.906 130.662 306.842C131.524 314.778 125.745 321.916 117.754 322.784Z" fill="#008DD5"/>
<path d="M114.665 294.072L143.573 290.931L146.693 319.64L117.784 322.781L114.665 294.072Z" fill="#008DD5"/>
<path d="M146.693 319.64C138.701 320.508 131.524 314.779 130.662 306.843C129.799 298.907 135.579 291.769 143.57 290.901C151.561 290.033 158.738 295.762 159.601 303.698C160.463 311.634 154.684 318.772 146.693 319.64Z" fill="#FEBB00"/>
<path d="M154.447 311.368C155.153 311.291 155.818 311.002 156.354 310.539C156.89 310.076 157.271 309.462 157.446 308.778C157.876 307.097 157.923 305.341 157.583 303.64C157.243 301.939 156.525 300.335 155.481 298.946C154.437 297.557 153.093 296.417 151.548 295.61C150.003 294.804 148.296 294.35 146.551 294.283C146.094 294.265 145.638 294.337 145.21 294.494C144.781 294.651 144.387 294.891 144.051 295.199C143.716 295.507 143.444 295.878 143.252 296.29C143.061 296.702 142.952 297.148 142.934 297.601C142.915 298.055 142.987 298.507 143.145 298.933C143.302 299.359 143.543 299.749 143.853 300.082C144.163 300.415 144.535 300.685 144.95 300.874C145.365 301.064 145.813 301.171 146.27 301.189C146.98 301.216 147.674 301.401 148.303 301.729C148.932 302.057 149.478 302.521 149.903 303.086C150.328 303.651 150.62 304.303 150.758 304.996C150.897 305.688 150.878 306.402 150.702 307.086C150.565 307.627 150.56 308.192 150.69 308.735C150.82 309.277 151.08 309.78 151.447 310.2C151.815 310.621 152.28 310.947 152.802 311.15C153.325 311.353 153.889 311.428 154.447 311.368L154.447 311.368Z" fill="#FEBB00"/>
<path d="M90.6239 213.809L145.853 207.229L152.427 262.412L97.1985 268.992L90.6239 213.809Z" fill="#151E3F"/>
<path d="M97.6641 272.897L152.893 266.317C155.051 266.06 156.592 264.103 156.335 261.947L149.761 206.764C149.504 204.607 147.546 203.068 145.388 203.325L90.1591 209.905C88.0009 210.162 86.4597 212.118 86.7166 214.275L93.2912 269.458C93.5482 271.614 95.5059 273.154 97.6641 272.897ZM148.055 258.973L100.641 264.622L94.9971 217.248L142.41 211.599L148.055 258.973Z" fill="#008DD5"/>
<path d="M128.592 259.887C127.168 260.269 125.593 260.051 124.282 259.16L101.628 243.773C99.2323 242.146 98.6111 238.885 100.241 236.49C101.87 234.094 105.134 233.473 107.53 235.1L125.962 247.62L157.161 204.371C158.856 202.022 162.135 201.489 164.486 203.181C166.836 204.874 167.368 208.151 165.673 210.5L131.488 257.889C130.754 258.907 129.72 259.585 128.592 259.887Z" fill="#FEBB00"/>
</g>
<defs>
<clipPath id="clip0">
<rect width="620" height="620" fill="white"/>
</clipPath>
</defs>
</svg>
