<svg width="620" height="620" viewBox="0 0 620 620" fill="none" xmlns="http://www.w3.org/2000/svg">
<g clip-path="url(#clip0)">
<path d="M27.0862 477.943C64.9268 340.071 98.0073 167.756 98.1356 22.4047C233.528 58.8968 404.949 64.4194 557.841 69.5617C537.222 208.827 533.967 404.193 549.633 562.392C440.727 524.198 197.072 485.494 27.0862 477.943Z" fill="#008DD5"/>
<path d="M137.25 369.985C137.25 323.895 174.613 286.532 220.703 286.532H299.764C345.853 286.532 383.217 323.895 383.217 369.985V452.811C383.217 498.9 345.853 536.264 299.764 536.264H220.703C174.613 536.264 137.25 498.9 137.25 452.811V369.985Z" fill="white"/>
<path d="M298.509 571.716C298.509 560.453 307.639 551.323 318.901 551.323H362.824C374.087 551.323 383.217 560.453 383.217 571.716V571.716C383.217 582.978 374.087 592.108 362.824 592.108H318.901C307.639 592.108 298.509 582.978 298.509 571.716V571.716Z" fill="#151E3F"/>
<path d="M143.525 571.716C143.525 560.453 152.655 551.323 163.917 551.323H207.84C219.103 551.323 228.233 560.453 228.233 571.716V571.716C228.233 582.978 219.103 592.108 207.84 592.108H163.917C152.655 592.108 143.525 582.978 143.525 571.716V571.716Z" fill="#151E3F"/>
<path d="M383.217 473.517C383.217 508.171 355.124 536.264 320.47 536.264H199.996C165.342 536.264 137.25 508.171 137.25 473.517V452.811H383.217V473.517Z" fill="#DB162F"/>
<path d="M134.426 338.612C116.233 338.612 101.484 353.36 101.484 371.554L101.484 445.595C101.484 463.788 116.233 478.537 134.426 478.537V478.537C152.619 478.537 167.368 463.788 167.368 445.595L167.368 371.554C167.368 353.36 152.619 338.612 134.426 338.612V338.612Z" fill="#E4BD95"/>
<path d="M386.668 338.612C368.474 338.612 353.726 353.36 353.726 371.554L353.726 445.595C353.726 463.788 368.474 478.537 386.668 478.537V478.537C404.861 478.537 419.61 463.788 419.61 445.595L419.61 371.554C419.61 353.36 404.861 338.612 386.668 338.612V338.612Z" fill="#E4BD95"/>
<path d="M167.368 417.672L167.368 371.554C167.368 353.36 152.62 338.612 134.426 338.612V338.612C116.233 338.612 101.484 353.36 101.484 371.554L101.484 417.672L167.368 417.672Z" fill="white"/>
<path d="M419.609 417.672L419.609 371.554C419.609 353.36 404.861 338.612 386.667 338.612V338.612C368.474 338.612 353.725 353.36 353.725 371.554L353.725 417.672L419.609 417.672Z" fill="white"/>
<path d="M262.178 413.953C259.756 409.109 257.334 409.034 254.913 413.726L244.242 435.295C241.82 439.987 241.82 444.755 244.242 449.598L254.913 471.167C257.334 476.01 259.756 476.086 262.178 471.394L272.849 449.825C275.271 445.133 275.271 440.365 272.849 435.522L262.178 413.953Z" fill="#9B1727"/>
<path d="M157.617 367.084C170.889 383.241 186.947 391.319 205.79 391.319L315.031 391.319C333.874 391.319 349.966 383.241 363.308 367.084C376.58 350.76 383.217 331.129 383.217 308.192C383.217 297.141 381.669 286.886 378.575 277.428C381.669 269.08 383.217 259.956 383.217 250.054C383.217 231.72 377.887 216.066 367.228 203.091C356.637 190.115 343.777 183.627 328.648 183.627L164.838 183.627C149.777 183.627 136.917 190.115 126.258 203.091C115.598 216.066 110.269 231.72 110.269 250.054C110.269 268.47 115.598 284.166 126.258 297.142C129.797 301.451 133.58 305.051 137.605 307.941C137.605 308.018 137.605 308.102 137.605 308.192C137.605 331.129 144.275 350.76 157.617 367.084Z" fill="#EECCAA"/>
<path d="M371.608 207.471C376.672 190.03 350.825 159.355 330.641 146.977C310.457 134.599 283.627 128.41 250.151 128.41C216.604 128.41 186.187 134.599 158.9 146.977C131.543 159.355 115.332 174.264 110.269 191.705V265.55L214.742 195.236L371.608 207.471Z" fill="#333333"/>
<path d="M258.665 410.771L227.419 391.005L289.91 391.005L258.665 410.771Z" fill="#E4BD95"/>
<path d="M264.625 369.358C290.269 369.358 311.058 348.569 311.058 322.925H218.193C218.193 348.569 238.981 369.358 264.625 369.358Z" fill="#D81E5B"/>
<mask id="mask0" style="mask-type:alpha" maskUnits="userSpaceOnUse" x="218" y="322" width="94" height="48">
<path d="M264.625 369.358C290.269 369.358 311.058 348.569 311.058 322.925H218.193C218.193 348.569 238.981 369.358 264.625 369.358Z" fill="#D81E5B"/>
</mask>
<g mask="url(#mask0)">
<path d="M264.626 340.494C247.992 340.494 234.507 353.979 234.507 370.613L294.744 370.613C294.744 353.979 281.259 340.494 264.626 340.494Z" fill="#881138"/>
</g>
<path d="M249.566 280.571C249.566 272.427 256.168 265.826 264.312 265.826V265.826C272.456 265.826 279.057 272.427 279.057 280.571V298.768C279.057 306.911 272.456 313.513 264.312 313.513V313.513C256.168 313.513 249.566 306.911 249.566 298.768V280.571Z" fill="#EEAA99"/>
<path d="M242.292 253.705C242.292 243.873 234.322 235.902 224.49 235.902V235.902C214.658 235.902 206.688 243.873 206.688 253.705V286.438C206.688 296.27 214.658 304.24 224.49 304.24V304.24C234.322 304.24 242.292 296.27 242.292 286.438V253.705Z" fill="white"/>
<path d="M322.116 253.705C322.116 243.873 314.145 235.902 304.313 235.902V235.902C294.481 235.902 286.511 243.873 286.511 253.705V286.438C286.511 296.27 294.481 304.24 304.313 304.24V304.24C314.145 304.24 322.116 296.27 322.116 286.438V253.705Z" fill="white"/>
<path d="M237.698 259.447C237.698 253.421 232.813 248.536 226.787 248.536V248.536C220.761 248.536 215.876 253.421 215.876 259.447V279.547C215.876 285.573 220.761 290.458 226.787 290.458V290.458C232.813 290.458 237.698 285.573 237.698 279.547V259.447Z" fill="#333333"/>
<path d="M311.779 259.447C311.779 253.421 306.894 248.536 300.868 248.536V248.536C294.842 248.536 289.957 253.421 289.957 259.447V279.547C289.957 285.573 294.842 290.458 300.868 290.458V290.458C306.894 290.458 311.779 285.573 311.779 279.547V259.447Z" fill="#333333"/>
<path fill-rule="evenodd" clip-rule="evenodd" d="M226.414 228.173C212.827 224.889 199.15 233.242 195.867 246.829C195.053 250.198 191.662 252.268 188.294 251.454C184.925 250.64 182.855 247.25 183.669 243.881C188.58 223.557 209.038 211.063 229.362 215.975C232.73 216.789 234.801 220.179 233.987 223.548C233.173 226.916 229.782 228.987 226.414 228.173Z" fill="#333333"/>
<path fill-rule="evenodd" clip-rule="evenodd" d="M328.63 246.505C325.012 233.003 311.133 224.991 297.631 228.608C294.284 229.505 290.843 227.519 289.946 224.172C289.049 220.824 291.036 217.384 294.383 216.487C314.58 211.075 335.34 223.061 340.751 243.257C341.648 246.605 339.662 250.045 336.315 250.942C332.967 251.839 329.527 249.853 328.63 246.505Z" fill="#333333"/>
<path d="M505.581 290.015L437.709 263.008C429.818 259.868 420.877 263.719 417.737 271.609L404.044 306.022C400.905 313.912 404.756 322.854 412.646 325.993L480.518 353C488.408 356.14 497.349 352.289 500.489 344.399L514.182 309.986C517.322 302.096 513.471 293.154 505.581 290.015Z" fill="#3B301B"/>
<path d="M562.66 135.249L502.564 111.337C499.601 110.158 496.291 110.204 493.362 111.466C490.433 112.727 488.125 115.101 486.946 118.064L464.93 173.392C461.42 182.181 461.422 191.983 464.938 200.769C468.454 209.556 475.213 216.655 483.817 220.596L474.866 243.091C468.03 242.527 461.193 244.169 455.36 247.777C449.526 251.385 445.003 256.768 442.455 263.136L441.862 264.626L501.451 288.337L502.044 286.847C504.585 280.464 505.008 273.434 503.252 266.792C501.496 260.151 497.653 254.248 492.289 249.955L501.24 227.46C510.2 230.507 519.989 229.993 528.58 226.024C537.171 222.055 543.907 214.935 547.395 206.137L569.387 150.868C570.566 147.905 570.52 144.595 569.258 141.665C567.997 138.736 565.623 136.428 562.66 135.249V135.249Z" fill="#FEBB00"/>
<path d="M477.502 184.469C476.317 183.997 475.367 183.074 474.863 181.902C474.358 180.731 474.339 179.407 474.811 178.221L495.558 126.081C496.03 124.896 496.953 123.946 498.125 123.442C499.296 122.937 500.621 122.919 501.806 123.39C502.991 123.862 503.941 124.785 504.445 125.957C504.95 127.128 504.968 128.452 504.497 129.638L483.749 181.778C483.278 182.963 482.355 183.913 481.183 184.417C480.011 184.922 478.687 184.941 477.502 184.469Z" fill="#C79200"/>
<path d="M554.834 218.363C552.391 217.363 550.411 215.486 549.283 213.1C548.416 211.259 547.921 209.264 547.827 207.231C547.733 205.197 548.042 203.165 548.735 201.251C550.223 197.512 554.464 191.452 566.389 192.315C589.065 194.09 597.627 178.86 600.223 172.335C602.153 167.529 605.329 155.817 593.441 151.087C588.466 149.107 583.803 149.288 580.556 151.55C577.309 153.813 575.472 158.69 575.758 165.171C575.808 166.448 575.349 167.692 574.483 168.63C573.616 169.568 572.412 170.124 571.135 170.174C569.859 170.225 568.615 169.766 567.677 168.899C566.738 168.032 566.183 166.828 566.133 165.552C565.758 155.739 568.923 147.957 575.031 143.623C581.139 139.289 589.016 138.834 597.045 142.029C610.453 147.364 615.252 160.628 609.224 175.779C602.11 193.655 585.839 203.367 565.671 201.796C559.078 201.278 558.094 203.75 557.727 204.674C557.339 206.014 557.42 207.447 557.957 208.735C558.208 209.231 558.387 209.303 558.482 209.323C559.714 209.678 560.754 210.508 561.374 211.63C561.994 212.752 562.143 214.075 561.788 215.306C561.432 216.538 560.603 217.578 559.481 218.198C558.359 218.818 557.036 218.966 555.805 218.611C555.45 218.591 555.146 218.488 554.834 218.363Z" fill="#FEBB00"/>
<path d="M451.149 177.104C450.836 176.979 450.538 176.861 450.226 176.736C449.087 176.148 448.228 175.132 447.839 173.91C447.449 172.689 447.561 171.363 448.149 170.224C448.737 169.085 449.754 168.227 450.975 167.837C452.196 167.448 453.522 167.559 454.661 168.148C454.75 168.183 454.929 168.254 455.447 168.081C456.722 167.514 457.765 166.529 458.404 165.289C458.772 164.365 459.756 161.892 454.61 157.739C438.875 145.025 433.73 126.774 440.838 108.912C446.866 93.7616 459.452 87.4151 472.874 92.756C480.934 95.963 486.366 101.869 487.775 109.039C489.185 116.209 486.189 124.214 479.175 131.087C478.723 131.529 478.188 131.877 477.601 132.112C477.013 132.348 476.386 132.465 475.753 132.458C474.476 132.443 473.257 131.922 472.364 131.008C471.472 130.094 470.978 128.864 470.993 127.586C471.008 126.309 471.529 125.09 472.443 124.197C477.127 119.625 479.161 115.033 478.314 111.003C477.467 106.973 474.293 103.674 469.318 101.694C457.43 96.964 451.691 107.657 449.776 112.469C447.15 119.068 442.953 135.948 460.634 150.231C469.916 157.738 468.81 165.115 467.322 168.854C465.671 172.616 462.602 175.574 458.783 177.087C456.331 178.05 453.606 178.056 451.149 177.104V177.104Z" fill="#FEBB00"/>
<path d="M486.09 304.347L442.024 286.812C437.738 285.107 432.88 287.199 431.174 291.486L427.464 300.811C425.758 305.098 427.85 309.955 432.137 311.661L476.203 329.195C480.489 330.901 485.347 328.809 487.053 324.522L490.763 315.197C492.469 310.91 490.377 306.052 486.09 304.347Z" fill="#FEBB00"/>
<path d="M458.247 266.814L457.86 266.66C456.722 266.089 455.857 265.09 455.455 263.881C455.052 262.673 455.145 261.355 455.714 260.215C457.849 255.888 464.49 248.177 474.075 250.714C475.32 251.038 476.384 251.842 477.036 252.951C477.687 254.059 477.871 255.381 477.547 256.625C477.224 257.87 476.419 258.935 475.311 259.586C474.202 260.237 472.88 260.421 471.636 260.097C467.228 258.947 464.412 264.332 464.302 264.565C463.752 265.624 462.828 266.441 461.708 266.857C460.589 267.273 459.356 267.258 458.247 266.814V266.814Z" fill="#C79200"/>
</g>
<defs>
<clipPath id="clip0">
<rect width="620" height="620" fill="white"/>
</clipPath>
</defs>
</svg>
