<svg width="568" height="529" viewBox="0 0 568 529" fill="none" xmlns="http://www.w3.org/2000/svg">
<rect x="19" width="530" height="358" rx="36" fill="#7CB518"/>
<rect x="53" y="33" width="462" height="292" rx="36" fill="#FEBB00"/>
<circle cx="284" cy="179" r="107" fill="#008DD5"/>
<path d="M274.208 189.839C269.086 196.06 266.983 203.412 266.853 210.526L237.598 193.636C236.106 192.775 234.116 193.308 233.188 194.914L227.889 204.092C226.962 205.698 227.562 207.574 229.053 208.435L307.87 253.94C309.476 254.868 311.401 254.449 312.328 252.843L315.838 246.762C317.759 243.435 316.529 239.207 313.317 237.352C317.709 236.369 325.031 234.019 330.529 224.497C338.014 211.533 332.715 191.036 316.521 181.992C302.639 173.977 284.499 177.577 274.208 189.839ZM314.17 219.183C309.732 226.869 299.779 229.536 291.978 225.032C284.177 220.528 281.51 210.575 285.948 202.888C290.452 195.087 300.405 192.42 308.206 196.924C316.007 201.428 318.674 211.381 314.17 219.183Z" fill="white"/>
<path d="M285.022 168.371C290.143 162.15 292.246 154.798 292.377 147.684L321.632 164.574C323.123 165.435 325.114 164.902 326.041 163.296L331.34 154.118C332.267 152.512 331.668 150.636 330.176 149.775L251.359 104.27C249.753 103.342 247.829 103.761 246.902 105.367L243.391 111.448C241.47 114.775 242.7 119.003 245.912 120.858C241.521 121.841 234.198 124.19 228.701 133.713C221.216 146.677 226.514 167.174 242.708 176.218C256.59 184.233 274.73 180.633 285.022 168.371ZM245.059 139.027C249.497 131.341 259.45 128.674 267.252 133.178C275.053 137.682 277.72 147.635 273.282 155.322C268.778 163.123 258.825 165.79 251.023 161.286C243.222 156.782 240.555 146.829 245.059 139.027Z" fill="white"/>
<ellipse cx="287.5" cy="476" rx="272.5" ry="53" fill="#00BFA6"/>
<path d="M522.834 342.803C512.39 355.516 499.755 361.872 484.928 361.872L398.971 361.872C384.144 361.872 371.482 355.516 360.984 342.803C350.54 329.958 345.318 314.511 345.318 296.463C345.318 287.767 346.536 279.698 348.971 272.256C346.536 265.687 345.318 258.508 345.318 250.716C345.318 236.291 349.512 223.973 357.899 213.763C366.233 203.553 376.352 198.448 388.256 198.448L517.152 198.448C529.003 198.448 539.122 203.553 547.509 213.763C555.896 223.973 560.09 236.291 560.09 250.716C560.09 265.208 555.896 277.558 547.509 287.768C544.724 291.159 541.747 293.991 538.58 296.265C538.58 296.326 538.58 296.392 538.58 296.463C538.58 314.511 533.332 329.958 522.834 342.803Z" fill="#EECCAA"/>
<path d="M541.082 320.399C555.397 320.399 567.002 332.005 567.002 346.32L567.002 404.58C567.002 418.896 555.397 430.501 541.082 430.501C526.766 430.501 515.161 418.896 515.161 404.58L515.161 346.32C515.161 332.005 526.766 320.399 541.082 320.399Z" fill="#E4BD95"/>
<path d="M342.603 320.399C356.919 320.399 368.524 332.005 368.524 346.32L368.524 404.58C368.524 418.896 356.919 430.501 342.603 430.501C328.288 430.501 316.682 418.896 316.682 404.58L316.682 346.32C316.682 332.005 328.288 320.399 342.603 320.399Z" fill="#E4BD95"/>
<path d="M538.86 345.085C538.86 308.819 509.46 279.419 473.194 279.419H410.984C374.718 279.419 345.319 308.819 345.319 345.085V410.257C345.319 446.524 374.718 475.923 410.984 475.923H473.194C509.46 475.923 538.86 446.524 538.86 410.257V345.085Z" fill="white"/>
<path d="M345.318 426.551C345.318 453.818 367.423 475.923 394.691 475.923H489.487C516.755 475.923 538.86 453.818 538.86 426.551V410.258H345.318V426.551Z" fill="#DB162F"/>
<path d="M515.161 382.609L515.161 346.32C515.161 332.004 526.766 320.399 541.081 320.399C555.397 320.399 567.002 332.004 567.002 346.32L567.002 382.609L515.161 382.609Z" fill="white"/>
<path d="M316.682 382.609L316.682 346.32C316.682 332.004 328.287 320.399 342.603 320.399C356.918 320.399 368.524 332.004 368.524 346.32L368.524 382.609L316.682 382.609Z" fill="white"/>
<path d="M354.453 217.21C350.469 203.486 370.807 179.349 386.689 169.609C402.571 159.87 423.682 155 450.023 155C476.42 155 500.353 159.87 521.825 169.609C543.351 179.349 556.106 191.08 560.091 204.804V262.909H378.058L354.453 217.21Z" fill="#333333"/>
<path d="M246.617 344.612L253.995 197.152L331.814 344.612H246.617Z" fill="#333333"/>
<path d="M86.0571 344.612L55.1221 198.233L0.860428 344.612H86.0571ZM-0.000144958 176.177V177.861L0.860428 176.177H-0.000144958Z" fill="#333333"/>
<path d="M85.7917 341.85C96.2093 355.183 108.813 361.849 123.603 361.849L209.346 361.849C224.136 361.849 236.767 355.183 247.239 341.85C257.656 328.379 262.865 312.18 262.865 293.252C262.865 284.132 261.651 275.67 259.222 267.865C261.651 260.976 262.865 253.446 262.865 245.275C262.865 230.146 258.682 217.228 250.315 206.521C242.003 195.813 231.909 190.459 220.034 190.459L91.4593 190.459C79.6382 190.459 69.5444 195.813 61.1779 206.521C52.8114 217.228 48.6281 230.146 48.6281 245.275C48.6281 260.473 52.8113 273.426 61.1779 284.133C63.9562 287.689 66.925 290.659 70.0842 293.045C70.0842 293.108 70.0842 293.178 70.0842 293.252C70.0842 312.18 75.32 328.379 85.7917 341.85Z" fill="#EECCAA"/>
<path d="M82.8552 274.5V273.988L82.5137 274.5H82.8552ZM223.563 346.401L276.904 334.635L269.462 279.003L262.02 223.371C262.02 204.536 251.549 188.403 230.608 174.974C209.838 161.658 184.743 155 155.323 155C125.847 155 100.666 161.658 79.7823 174.974C59.0121 188.403 48.627 204.536 48.627 223.371V273.988L82.8552 346.401L147.473 295.413L200.03 310.317L212.581 316.593L223.563 346.401Z" fill="#333333"/>
<rect x="90.9814" y="279.603" width="150.705" height="196.015" rx="75.3524" fill="white"/>
<path d="M74.7295 472.898C74.7295 438.224 102.839 410.114 137.514 410.114L195.155 410.114C229.83 410.114 257.939 438.224 257.939 472.898L257.939 475.617L74.7295 475.617L74.7295 472.898Z" fill="#DB162F"/>
<rect width="109.82" height="50.2036" rx="25.1018" transform="matrix(-0.553375 0.832932 0.832932 0.553375 82.1235 326.006)" fill="#E4BD95"/>
<rect x="248.906" y="326.006" width="109.82" height="50.2036" rx="25.1018" transform="rotate(56.4011 248.906 326.006)" fill="#E4BD95"/>
<path d="M89.647 405.404L110.049 374.696C117.721 363.148 114.579 347.568 103.032 339.897C91.4844 332.225 75.9044 335.367 68.2328 346.914L47.8308 377.623L89.647 405.404Z" fill="white"/>
<path d="M241.382 405.404L220.98 374.696C213.309 363.148 216.45 347.568 227.998 339.897C239.545 332.225 255.125 335.367 262.797 346.914L283.199 377.623L241.382 405.404Z" fill="white"/>
</svg>
