<svg width="885" height="273" viewBox="0 0 885 273" fill="none" xmlns="http://www.w3.org/2000/svg">
<g clip-path="url(#clip0)">
<rect x="3" width="881" height="273" fill="white"/>
<path d="M186.785 90.3294C185.02 90.8023 183.303 91.3605 181.619 91.9738C184.748 81.4909 185.03 70.357 182.436 59.7203C179.841 49.0835 174.465 39.3289 166.86 31.4623C159.256 23.5958 149.699 17.9021 139.175 14.9683C128.652 12.0345 117.542 11.9669 106.992 14.7724C96.4412 17.5778 86.8324 23.1549 79.156 30.9284C71.4795 38.7019 66.0133 48.3905 63.321 58.9951C60.6287 69.5997 60.8078 80.7364 63.8397 91.2568C66.8717 101.777 72.6468 111.3 80.5695 118.845C79.8858 119.003 79.203 119.156 78.5213 119.339C67.8537 122.196 58.1571 127.887 50.4537 135.813C42.7504 143.738 37.3258 153.603 34.7519 164.368C32.178 175.133 32.5502 186.399 35.8292 196.978C39.1082 207.557 45.1726 217.057 53.3828 224.477C61.5931 231.897 71.6451 236.961 82.4789 239.136C93.3127 241.311 104.527 240.515 114.939 236.834C125.351 233.153 134.576 226.722 141.64 218.219C148.704 209.716 153.346 199.457 155.076 188.522C162.042 197.126 171.191 203.69 181.56 207.522C191.929 211.354 203.133 212.311 213.991 210.293C224.849 208.275 234.958 203.357 243.253 196.057C251.548 188.757 257.721 179.345 261.122 168.814C264.523 158.284 265.025 147.024 262.575 136.223C260.125 125.422 254.815 115.479 247.204 107.443C239.592 99.4069 229.962 93.5755 219.329 90.5636C208.695 87.5517 197.452 87.4708 186.785 90.3294Z" fill="#FF9B19"/>
<path d="M740.795 204.412C741.268 202.647 741.643 200.881 741.953 199.116C749.467 207.067 758.969 212.878 769.478 215.95C779.986 219.022 791.122 219.243 801.737 216.591C812.352 213.938 822.061 208.509 829.864 200.862C837.667 193.215 843.28 183.627 846.126 173.088C848.971 162.548 848.946 151.438 846.052 140.903C843.158 130.369 837.501 120.79 829.663 113.157C821.825 105.523 812.091 100.109 801.464 97.4749C790.837 94.8404 779.702 95.0802 769.208 98.1694C769.412 97.4983 769.621 96.8303 769.804 96.1486C772.663 85.4815 772.582 74.2382 769.571 63.6044C766.559 52.9706 760.728 43.3402 752.692 35.7287C744.656 28.1171 734.714 22.8064 723.912 20.3566C713.111 17.9067 701.851 18.4085 691.321 21.8089C680.79 25.2093 671.378 31.3825 664.078 39.6774C656.777 47.9723 651.859 58.0817 649.841 68.9397C647.823 79.7976 648.78 91.0018 652.612 101.371C656.443 111.74 663.007 120.89 671.611 127.855C660.677 129.585 650.418 134.227 641.915 141.291C633.412 148.355 626.981 157.579 623.3 167.992C619.618 178.404 618.823 189.618 620.998 200.452C623.173 211.285 628.237 221.337 635.656 229.548C643.076 237.758 652.576 243.822 663.155 247.102C673.734 250.381 685 250.753 695.765 248.18C706.53 245.606 716.395 240.182 724.32 232.479C732.245 224.776 737.937 215.079 740.795 204.412Z" fill="#FF9B19"/>
<path d="M372.376 159.104C374.203 159.104 376.006 159.009 377.791 158.853C372.056 168.168 368.902 178.85 368.655 189.796C368.408 200.742 371.076 211.555 376.386 221.122C381.695 230.689 389.452 238.662 398.858 244.219C408.264 249.777 418.978 252.718 429.895 252.738C440.812 252.759 451.537 249.859 460.963 244.337C470.39 238.815 478.178 230.872 483.523 221.325C488.868 211.779 491.578 200.975 491.372 190.029C491.166 179.082 488.053 168.389 482.352 159.051C483.054 159.075 483.753 159.104 484.459 159.104C495.502 159.105 506.342 156.117 515.834 150.456C525.326 144.794 533.119 136.669 538.391 126.937C543.663 117.205 546.22 106.227 545.791 95.1597C545.361 84.0924 541.962 73.3462 535.952 64.0543C529.942 54.7624 521.543 47.269 511.642 42.3643C501.74 37.4596 490.702 35.3252 479.692 36.1862C468.681 37.0472 458.107 40.8717 449.083 47.2565C440.059 53.6413 432.92 62.3497 428.418 72.4636C423.917 62.3498 416.778 53.6414 407.754 47.2567C398.73 40.8719 388.156 37.0473 377.146 36.1862C366.136 35.3251 355.098 37.4594 345.196 42.3639C335.294 47.2685 326.895 54.7617 320.885 64.0534C314.875 73.3451 311.476 84.0911 311.046 95.1584C310.617 106.226 313.173 117.204 318.445 126.936C323.717 136.668 331.51 144.793 341.002 150.455C350.493 156.116 361.332 159.104 372.376 159.104Z" fill="#FF9B19"/>
<path d="M465.9 227.032C454.894 235.164 443.545 237.663 431.854 234.53L364.072 216.368C352.38 213.236 343.78 205.391 338.273 192.834C332.836 180.182 332.084 166.517 336.017 151.84C337.912 144.768 340.63 138.463 344.172 132.925C343.683 127.069 344.288 120.973 345.985 114.637C349.129 102.906 355.12 93.7748 363.958 87.2441C372.754 80.7019 381.846 78.6885 391.234 81.2039L492.874 108.438C502.219 110.942 509.086 117.232 513.475 127.307C517.865 137.382 518.487 148.285 515.344 160.017C512.186 171.801 506.188 180.959 497.349 187.49C494.414 189.659 491.45 191.333 488.457 192.514C488.444 192.563 488.43 192.617 488.414 192.674C484.481 207.352 476.976 218.804 465.9 227.032Z" fill="#EECCAA"/>
<rect x="432.98" y="128.948" width="22.5708" height="43.3214" rx="11.2854" transform="rotate(15 432.98 128.948)" fill="white"/>
<rect x="384.103" y="115.851" width="22.5708" height="43.3214" rx="11.2854" transform="rotate(15 384.103 115.851)" fill="white"/>
<rect x="433.721" y="137.438" width="13.8337" height="26.5753" rx="6.91686" transform="rotate(15 433.721 137.438)" fill="#333333"/>
<rect x="388.359" y="125.283" width="13.8337" height="26.5753" rx="6.91686" transform="rotate(15 388.359 125.283)" fill="#333333"/>
<rect x="365.117" y="168.015" width="81.8196" height="25.7133" rx="12.8566" transform="rotate(21.2982 365.117 168.015)" fill="#D81E5B"/>
<rect x="371.378" y="181.048" width="60.6314" height="15.6088" rx="7.80439" transform="rotate(21.2982 371.378 181.048)" fill="#881138"/>
<path d="M370.875 165.304L386.197 174.15L401.692 183.096C399.719 186.512 396.54 188.555 392.153 189.223C387.766 189.891 383.437 188.992 379.166 186.527C374.896 184.061 371.953 180.762 370.338 176.629C368.723 172.495 368.902 168.721 370.875 165.304Z" fill="#666666"/>
<path d="M377.016 168.948L389.274 176.024L401.67 183.18C402.656 181.472 402.295 179.325 400.587 176.739C398.88 174.152 396.318 171.873 392.901 169.901C389.485 167.928 386.23 166.849 383.136 166.664C380.043 166.478 378.003 167.239 377.016 168.948Z" fill="#666666"/>
<path d="M437.511 183.159L419.819 183.159L401.927 183.159C401.927 187.104 403.66 190.462 407.125 193.235C410.59 196.007 414.788 197.393 419.719 197.393C424.65 197.393 428.848 196.007 432.314 193.235C435.779 190.463 437.511 187.104 437.511 183.159Z" fill="#666666"/>
<path d="M430.37 183.244L416.217 183.243L401.904 183.243C401.904 181.271 403.29 179.591 406.062 178.205C408.834 176.82 412.192 176.127 416.137 176.127C420.082 176.127 423.44 176.82 426.213 178.206C428.985 179.592 430.37 181.271 430.37 183.244Z" fill="#666666"/>
<rect width="18.7682" height="30.1073" rx="9.3841" transform="matrix(-0.965926 -0.258819 -0.258819 0.965926 420.696 156.938)" fill="#EEAA99"/>
<path d="M404.954 151.966L419.371 155.829" stroke="#666666" stroke-width="5" stroke-linecap="round" stroke-linejoin="round"/>
<path d="M404.773 151.884C404.244 153.823 403.087 155.288 401.3 156.279C399.552 157.335 397.708 157.607 395.768 157.096C393.829 156.585 392.344 155.435 391.315 153.646C390.323 151.924 390.091 150.093 390.62 148.153C391.148 146.213 392.286 144.715 394.035 143.658C395.821 142.668 397.684 142.429 399.624 142.94C401.563 143.451 403.029 144.568 404.021 146.291C405.05 148.079 405.301 149.944 404.773 151.884Z" stroke="#666666" stroke-width="5" stroke-linecap="round" stroke-linejoin="round"/>
<path d="M433.539 159.592C433.011 161.531 431.854 162.996 430.067 163.987C428.319 165.043 426.475 165.315 424.535 164.804C422.596 164.293 421.111 163.143 420.081 161.354C419.09 159.632 418.858 157.801 419.386 155.861C419.915 153.921 421.053 152.423 422.801 151.366C424.588 150.376 426.451 150.137 428.39 150.648C430.33 151.159 431.796 152.276 432.787 153.999C433.817 155.787 434.068 157.652 433.539 159.592Z" stroke="#666666" stroke-width="5" stroke-linecap="round" stroke-linejoin="round"/>
<rect x="373.831" y="104.711" width="37.8607" height="7.28091" rx="3.64045" transform="rotate(6.29245 373.831 104.711)" fill="#333333"/>
<rect x="436.612" y="115.599" width="37.8607" height="7.28091" rx="3.64045" transform="rotate(26.9651 436.612 115.599)" fill="#333333"/>
<mask id="mask0" style="mask-type:alpha" maskUnits="userSpaceOnUse" x="333" y="80" width="185" height="156">
<path d="M465.899 227.032C454.893 235.164 443.544 237.663 431.853 234.53L364.071 216.368C352.379 213.236 343.779 205.391 338.272 192.834C332.835 180.182 332.083 166.517 336.016 151.84C337.911 144.768 340.629 138.463 344.171 132.925C343.682 127.069 344.287 120.973 345.984 114.637C349.128 102.906 355.119 93.7748 363.957 87.2441C372.754 80.7019 381.845 78.6885 391.233 81.2039L492.874 108.438C502.218 110.942 509.085 117.232 513.475 127.307C517.864 137.382 518.487 148.285 515.343 160.017C512.185 171.801 506.187 180.959 497.349 187.49C494.413 189.659 491.449 191.333 488.456 192.514C488.443 192.563 488.429 192.617 488.413 192.674C484.48 207.352 476.976 218.804 465.899 227.032Z" fill="#EECCAA"/>
</mask>
<g mask="url(#mask0)">
<ellipse cx="499.789" cy="132.358" rx="21.3477" ry="30.843" transform="rotate(0.749662 499.789 132.358)" fill="#C4C4C4"/>
<ellipse cx="353.584" cy="93.4672" rx="19.8405" ry="24.5731" transform="rotate(30 353.584 93.4672)" fill="#C4C4C4"/>
</g>
<path d="M370.693 45.0047C372.41 38.9635 376.324 36.7618 382.436 38.3994L520.319 75.3453C526.431 76.9829 528.629 80.8223 526.912 86.8635L517.05 121.57C515.334 127.611 511.419 129.813 505.308 128.175L367.424 91.2295C361.312 89.5919 359.114 85.7524 360.831 79.7113L370.693 45.0047Z" fill="#333333"/>
<path d="M456.759 48.2587C477.727 53.8771 495.014 59.8983 508.621 66.3225C522.227 72.7467 528.142 77.6801 526.365 81.1227C524.587 84.5653 515.636 85.5153 499.509 83.9727C483.383 82.43 464.836 78.8495 443.868 73.2311C422.9 67.6127 405.612 61.5914 392.006 55.1672C378.4 48.743 372.485 43.8096 374.262 40.367C376.039 36.9244 384.991 35.9745 401.117 37.5171C417.244 39.0597 435.791 42.6403 456.759 48.2587Z" fill="#666666"/>
<path d="M132.354 223.748C144.121 232.18 156.301 234.709 168.895 231.334L241.906 211.771C254.5 208.397 263.807 200.11 269.827 186.912C275.771 173.614 276.688 159.292 272.576 143.947C270.595 136.554 267.722 129.97 263.959 124.196C264.531 118.058 263.929 111.676 262.154 105.051C258.867 92.7861 252.499 83.2675 243.049 76.4956C233.645 69.7114 223.887 67.674 213.775 70.3834L104.293 99.719C94.2273 102.416 86.7953 109.06 81.9972 119.649C77.1991 130.239 76.4432 141.666 79.7297 153.932C83.0311 166.253 89.4069 175.799 98.8571 182.571C101.995 184.82 105.169 186.551 108.377 187.764C108.391 187.816 108.406 187.872 108.422 187.932C112.534 203.277 120.511 215.216 132.354 223.748Z" fill="#EECCAA"/>
<path d="M246.413 78.7104C246.682 66.205 223.974 50.4224 208.305 45.7975C192.635 41.1725 173.636 41.8517 151.306 47.8349C128.93 53.8307 109.743 63.3833 93.7478 76.4929C77.7053 89.615 69.5494 102.429 69.2801 114.934L82.4402 164.048L139.596 98.6094L246.413 78.7104Z" fill="#333333"/>
<path d="M204.317 206.311C221.265 201.77 231.221 183.967 226.554 166.548L165.177 182.993C169.845 200.413 187.368 210.853 204.317 206.311Z" fill="#D81E5B"/>
<mask id="mask1" style="mask-type:alpha" maskUnits="userSpaceOnUse" x="165" y="166" width="63" height="42">
<path d="M204.316 206.311C221.265 201.77 231.221 183.967 226.553 166.547L165.177 182.993C169.844 200.413 187.368 210.852 204.316 206.311Z" fill="#D81E5B"/>
</mask>
<g mask="url(#mask1)">
<path d="M199.063 186.705C187.764 189.732 181.058 201.346 184.086 212.645L225.003 201.681C221.976 190.382 210.362 183.677 199.063 186.705Z" fill="#881138"/>
</g>
<path d="M178.199 149.756C176.756 144.37 179.975 138.828 185.389 137.377C190.803 135.926 196.362 139.117 197.806 144.503L201.03 156.538C202.474 161.924 199.255 167.467 193.84 168.918C188.426 170.368 182.867 167.178 181.424 161.792L178.199 149.756Z" fill="#EEAA99"/>
<path d="M169.055 132.678C167.28 126.055 160.499 122.118 153.908 123.884C147.316 125.65 143.412 132.451 145.186 139.074L151.094 161.123C152.869 167.746 159.651 171.683 166.242 169.917C172.833 168.151 176.738 161.35 174.963 154.727L169.055 132.678Z" fill="white"/>
<path d="M221.906 118.517C220.131 111.894 213.349 107.957 206.758 109.723C200.167 111.489 196.262 118.289 198.037 124.912L203.945 146.961C205.72 153.584 212.501 157.521 219.092 155.755C225.684 153.989 229.588 147.188 227.814 140.566L221.906 118.517Z" fill="white"/>
<path d="M166.677 137.446C165.594 133.403 161.471 130.994 157.47 132.066C153.468 133.138 151.102 137.286 152.186 141.329L155.799 154.817C156.883 158.86 161.005 161.269 165.007 160.197C169.009 159.125 171.375 154.977 170.291 150.934L166.677 137.446Z" fill="#333333"/>
<path d="M216.12 124.198C215.036 120.155 210.914 117.746 206.912 118.818C202.91 119.89 200.544 124.038 201.628 128.081L205.242 141.569C206.325 145.613 210.448 148.021 214.45 146.949C218.451 145.877 220.817 141.73 219.734 137.686L216.12 124.198Z" fill="#333333"/>
<path fill-rule="evenodd" clip-rule="evenodd" d="M153.462 118.603C143.793 118.841 136.148 126.873 136.387 136.542C136.446 138.939 134.551 140.93 132.154 140.99C129.757 141.049 127.766 139.154 127.707 136.757C127.35 122.293 138.785 110.279 153.248 109.922C155.645 109.863 157.636 111.758 157.695 114.155C157.755 116.552 155.859 118.543 153.462 118.603Z" fill="#333333"/>
<path fill-rule="evenodd" clip-rule="evenodd" d="M225.061 112.55C220.225 104.174 209.514 101.304 201.138 106.14C199.062 107.339 196.406 106.627 195.207 104.551C194.009 102.474 194.72 99.8191 196.797 98.6202C209.326 91.3864 225.347 95.6792 232.581 108.209C233.78 110.285 233.068 112.94 230.992 114.139C228.915 115.338 226.26 114.627 225.061 112.55Z" fill="#333333"/>
<path d="M636.775 224.946L602.13 98.066L568.804 242.82L636.775 224.946Z" fill="#333333"/>
<path d="M767.173 189.669L730.315 54.5418L835.145 171.778L767.173 189.669ZM798.601 35.1049L798.973 36.4698L797.915 35.2856L798.601 35.1049Z" fill="#333333"/>
<path d="M765.989 187.382C760.464 200.397 751.732 208.503 739.795 211.702L670.587 230.246C658.649 233.445 647.013 230.796 635.677 222.299C624.355 213.679 616.647 201.731 612.553 186.453C610.581 179.092 609.731 171.999 610.003 165.173C606.553 160.139 603.944 154.324 602.177 147.728C598.905 135.517 599.488 124.186 603.925 113.734C608.319 103.293 615.308 96.7889 624.893 94.2206L728.672 66.4131C738.213 63.8565 747.519 65.9947 756.587 72.8278C765.656 79.661 771.827 89.1831 775.099 101.394C778.385 113.661 777.81 125.021 773.373 135.473C771.9 138.944 770.146 141.983 768.112 144.592C768.125 144.643 768.14 144.699 768.156 144.759C772.25 160.037 771.528 174.245 765.989 187.382Z" fill="#EECCAA"/>
<path d="M698.793 207.776C682.546 212.13 665.847 202.488 661.494 186.242L720.327 170.478C724.68 186.724 715.039 203.423 698.793 207.776Z" fill="#D81E5B"/>
<mask id="mask2" style="mask-type:alpha" maskUnits="userSpaceOnUse" x="661" y="170" width="68" height="46">
<path d="M698.793 207.776C682.546 212.13 665.847 202.488 661.494 186.242L720.327 170.478C724.68 186.724 715.039 203.423 698.793 207.776Z" fill="#D81E5B"/>
</mask>
<g mask="url(#mask2)">
<path d="M693.893 189.49C704.431 186.667 715.263 192.92 718.087 203.459L679.925 213.684C677.101 203.146 683.355 192.314 693.893 189.49Z" fill="#881138"/>
</g>
<path d="M677.197 149.441C672.038 150.823 668.976 156.126 670.359 161.286C671.741 166.445 677.044 169.507 682.203 168.124L693.732 165.035C698.891 163.653 701.953 158.35 700.57 153.19C699.188 148.031 693.885 144.969 688.725 146.352L677.197 149.441Z" fill="#EEAA99"/>
<path d="M693.31 130.716C691.641 124.487 695.337 118.085 701.566 116.416C707.795 114.747 714.197 118.443 715.866 124.672L721.423 145.41C723.092 151.639 719.396 158.041 713.167 159.71C706.938 161.379 700.535 157.683 698.866 151.454L693.31 130.716Z" fill="white"/>
<path d="M642.739 144.266C641.07 138.037 644.766 131.635 650.995 129.966C657.224 128.297 663.627 131.993 665.296 138.222L670.852 158.96C672.521 165.189 668.825 171.591 662.596 173.26C656.367 174.929 649.964 171.233 648.295 165.004L642.739 144.266Z" fill="white"/>
<path d="M697.195 133.574C696.172 129.756 698.438 125.832 702.255 124.809C706.073 123.786 709.997 126.052 711.02 129.87L714.432 142.603C715.455 146.421 713.189 150.345 709.372 151.368C705.554 152.391 701.63 150.125 700.607 146.308L697.195 133.574Z" fill="#333333"/>
<path d="M650.262 146.15C649.239 142.332 651.505 138.408 655.323 137.385C659.14 136.362 663.065 138.628 664.087 142.445L667.499 155.179C668.522 158.997 666.257 162.921 662.439 163.944C658.621 164.967 654.697 162.701 653.674 158.883L650.262 146.15Z" fill="#333333"/>
<path d="M643.047 138.881C642.025 139.471 640.719 139.121 640.129 138.099L636.323 131.506C635.733 130.485 636.083 129.178 637.104 128.588C638.126 127.998 639.433 128.348 640.023 129.37L643.829 135.962C644.419 136.984 644.069 138.291 643.047 138.881Z" fill="#333333"/>
<path d="M693.929 125.247C692.907 125.837 691.601 125.487 691.011 124.465L687.205 117.873C686.615 116.851 686.965 115.544 687.987 114.954C689.009 114.364 690.315 114.715 690.905 115.736L694.711 122.329C695.301 123.35 694.951 124.657 693.929 125.247Z" fill="#333333"/>
<path d="M661.579 133.3C660.44 132.995 659.763 131.824 660.069 130.684L662.039 123.331C662.344 122.192 663.516 121.515 664.655 121.821C665.795 122.126 666.471 123.297 666.166 124.437L664.196 131.79C663.89 132.93 662.719 133.606 661.579 133.3Z" fill="#333333"/>
<path d="M712.462 119.666C711.322 119.361 710.646 118.19 710.951 117.05L712.922 109.697C713.227 108.557 714.398 107.881 715.538 108.187C716.678 108.492 717.354 109.663 717.049 110.803L715.078 118.156C714.773 119.295 713.602 119.972 712.462 119.666Z" fill="#333333"/>
<path d="M651.152 131.443C650.013 131.748 648.841 131.072 648.536 129.932L646.566 122.579C646.26 121.44 646.937 120.268 648.076 119.963C649.216 119.658 650.388 120.334 650.693 121.474L652.663 128.826C652.968 129.966 652.292 131.138 651.152 131.443Z" fill="#333333"/>
<path d="M702.035 117.809C700.895 118.114 699.724 117.438 699.418 116.298L697.448 108.945C697.143 107.806 697.819 106.634 698.959 106.329C700.098 106.024 701.27 106.7 701.575 107.84L703.545 115.192C703.851 116.332 703.174 117.504 702.035 117.809Z" fill="#333333"/>
<path d="M753.915 133.271L753.801 132.853L754.19 133.198L753.915 133.271ZM632.762 120.046L633.2 120.305L598.563 129.414C594.368 114.045 599.188 98.6684 613.023 83.2847C626.746 68.03 645.428 57.294 669.067 51.0766C692.752 44.8472 714.468 44.9584 734.215 51.4102C753.896 57.9789 765.834 68.9478 770.03 84.3171L781.305 125.619L742.801 91.4785L678.192 108.471L678.44 108.033L649.517 91.7518L632.762 120.046Z" fill="#333333"/>
</g>
<defs>
<clipPath id="clip0">
<rect width="885" height="273" fill="white"/>
</clipPath>
</defs>
</svg>
