<svg width="394" height="395" viewBox="0 0 394 395" fill="none" xmlns="http://www.w3.org/2000/svg">
<g clip-path="url(#clip0)">
<path d="M81.254 251.538C83.2565 248.481 85.0749 245.307 86.6996 242.033C86.8116 241.823 86.8381 241.578 86.7736 241.348C86.709 241.119 86.5585 240.924 86.3533 240.803C86.2192 240.732 86.0699 240.694 85.918 240.693C85.7661 240.691 85.6161 240.727 85.4808 240.796C85.735 240.162 85.7818 239.463 85.6146 238.801C85.5247 238.392 85.3273 238.014 85.0426 237.707C84.8119 237.346 84.4887 237.054 84.1065 236.861C83.8402 236.726 83.5596 236.621 83.2701 236.548C83.1426 236.312 82.9768 236.099 82.7794 235.918C82.3525 235.52 81.8346 235.233 81.271 235.082C81.1798 234.862 81.0905 234.642 81.0033 234.42L80.9256 233.838C80.8357 233.429 80.6383 233.052 80.3536 232.745C80.2109 232.498 80.0045 232.294 79.7559 232.154C79.4457 231.872 79.066 231.679 78.6559 231.594C78.3363 231.526 78.0097 231.496 77.683 231.505L77.7076 231.305C77.7234 230.895 77.6326 230.488 77.4441 230.124C77.3716 229.853 77.2281 229.606 77.0284 229.41C76.7977 229.049 76.4744 228.756 76.0923 228.563C75.6749 228.349 75.2199 228.218 74.7524 228.177C74.7535 228.125 74.7575 228.074 74.7553 228.021L74.6482 227.219C74.5583 226.81 74.3608 226.432 74.0762 226.125C73.9335 225.878 73.7271 225.674 73.4784 225.534C73.1681 225.253 72.7884 225.06 72.3784 224.974L71.5755 224.876C71.5165 224.876 71.4585 224.879 71.4005 224.883C71.3671 224.815 71.3302 224.749 71.2899 224.685C71.0779 224.32 70.7959 224.001 70.4601 223.746C70.1244 223.491 69.7415 223.305 69.3334 223.198C68.8202 223.085 68.2879 223.091 67.7773 223.216C67.7538 223.21 67.7318 223.202 67.7082 223.197L67.6887 223.194C68.4552 222.878 69.2281 222.578 70.0074 222.293C70.2353 222.225 70.4286 222.073 70.5473 221.867C70.6661 221.66 70.7012 221.417 70.6455 221.186C70.5818 220.955 70.43 220.759 70.223 220.64C70.016 220.52 69.7702 220.487 69.5388 220.547C68.9761 220.751 68.4194 220.967 67.8628 221.186C67.7266 221.023 67.5379 220.912 67.3289 220.872C67.1198 220.832 66.9034 220.866 66.7165 220.968C63.7498 222.476 60.8344 224.088 58.0081 225.846C55.1524 227.615 52.4035 229.551 49.7757 231.644C47.2362 233.662 44.852 235.868 42.643 238.243C40.4639 240.591 38.4907 243.122 36.7453 245.807C35.0033 248.499 33.541 251.361 32.381 254.35C32.2387 254.717 32.1017 255.085 31.9698 255.455C31.7746 256.001 32.3091 256.6 32.8501 256.583C34.8713 256.482 36.8639 256.062 38.7535 255.337C35.6698 258.588 33.2196 262.404 30.9561 266.257C29.6968 268.4 28.4555 270.556 27.252 272.731C26.0505 274.863 24.9604 277.055 23.9861 279.299C23.4423 280.58 22.9455 281.883 22.5284 283.211C22.4293 283.525 22.3352 283.84 22.2462 284.157C22.1113 284.634 21.9996 285.162 22.3429 285.573C22.34 285.712 22.3691 285.85 22.428 285.976C22.4869 286.102 22.5739 286.213 22.6824 286.3C22.7909 286.387 22.9179 286.448 23.0537 286.478C23.1895 286.508 23.3305 286.507 23.4657 286.474C28.1737 285.668 32.5756 283.626 36.6765 281.235C38.7786 280.009 40.8214 278.685 42.8519 277.345C45.1057 275.858 47.3379 274.339 49.5485 272.788C50.7255 271.963 51.8961 271.128 53.0604 270.283C52.3789 271.697 51.8709 273.187 51.5476 274.723C51.3568 275.645 51.2302 276.579 51.1689 277.519C51.1712 277.718 51.2388 277.912 51.3615 278.069C51.4842 278.226 51.6551 278.339 51.848 278.39C53.0841 278.683 54.2385 278.134 55.2621 277.491C55.5889 277.343 55.9085 277.179 56.2211 276.999C56.7399 276.7 57.2469 276.378 57.7448 276.042C59.1503 275.247 60.4332 274.13 61.6135 273.185C64.1452 271.158 66.5674 268.998 68.87 266.714C73.5163 262.101 77.6669 257.015 81.254 251.538Z" fill="#DB162F"/>
<path d="M70.1471 247.246C70.926 246.301 71.5789 245.259 72.0894 244.146C72.6236 242.887 72.9526 241.537 72.7753 240.163C72.7211 239.736 72.6292 239.316 72.5008 238.906C72.3824 238.233 72.14 237.588 71.7859 237.004C71.3139 236.259 70.7012 235.612 69.982 235.101C68.6843 234.178 67.1093 233.73 65.5199 233.829C61.9804 234.021 58.8498 236.287 56.9167 239.159C55.8117 240.8 55.2407 242.72 54.5256 244.548C53.2208 247.788 51.6296 250.906 49.7709 253.863C49.2384 254.71 48.6846 255.543 48.1096 256.361C48.006 256.538 47.9466 256.738 47.9361 256.943C47.9257 257.147 47.9646 257.352 48.0496 257.538C48.1294 257.732 48.2525 257.904 48.4095 258.043C48.5665 258.182 48.7532 258.282 48.9552 258.338C51.0956 259.031 53.325 258.414 55.3237 257.579C56.3365 257.156 57.3204 256.661 58.2987 256.165C59.3972 255.608 60.4821 255.025 61.5452 254.402C63.7476 253.138 65.8058 251.637 67.6832 249.927C68.5753 249.101 69.3992 248.205 70.1471 247.246Z" fill="#FEBB00"/>
<path d="M166.378 335.726C168.38 332.669 170.199 329.496 171.823 326.222C171.935 326.012 171.962 325.766 171.897 325.537C171.833 325.308 171.682 325.113 171.477 324.992C171.343 324.921 171.194 324.883 171.042 324.881C170.89 324.88 170.74 324.916 170.605 324.985C170.859 324.35 170.905 323.652 170.738 322.99C170.649 322.581 170.451 322.203 170.166 321.896C169.936 321.535 169.612 321.243 169.23 321.049C168.964 320.914 168.683 320.81 168.394 320.737C168.266 320.501 168.101 320.288 167.903 320.106C167.476 319.709 166.958 319.422 166.395 319.271C166.304 319.051 166.214 318.83 166.127 318.609L166.049 318.027C165.96 317.618 165.762 317.241 165.477 316.933C165.335 316.686 165.128 316.482 164.88 316.342C164.57 316.061 164.19 315.868 163.78 315.783C163.46 315.715 163.134 315.685 162.807 315.694L162.831 315.494C162.847 315.084 162.756 314.677 162.568 314.313C162.496 314.042 162.352 313.795 162.152 313.599C161.922 313.238 161.598 312.945 161.216 312.752C160.799 312.538 160.344 312.406 159.876 312.365C159.877 312.313 159.881 312.262 159.879 312.21L159.772 311.408C159.682 310.999 159.485 310.621 159.2 310.314C159.057 310.067 158.851 309.863 158.602 309.723C158.292 309.442 157.912 309.249 157.502 309.163L156.699 309.065C156.641 309.066 156.583 309.068 156.525 309.072C156.491 309.004 156.454 308.938 156.414 308.874C156.202 308.509 155.92 308.19 155.584 307.935C155.248 307.68 154.865 307.494 154.457 307.387C153.944 307.274 153.412 307.28 152.901 307.405C152.878 307.399 152.856 307.391 152.832 307.386L152.813 307.383C153.579 307.067 154.352 306.767 155.131 306.482C155.359 306.414 155.553 306.262 155.671 306.056C155.79 305.849 155.825 305.606 155.77 305.374C155.706 305.144 155.554 304.948 155.347 304.828C155.14 304.709 154.894 304.676 154.663 304.736C154.1 304.94 153.543 305.156 152.987 305.375C152.851 305.212 152.662 305.101 152.453 305.061C152.244 305.021 152.027 305.055 151.841 305.157C148.874 306.665 145.958 308.276 143.132 310.035C140.276 311.804 137.528 313.74 134.9 315.832C132.36 317.851 129.976 320.057 127.767 322.432C125.588 324.78 123.615 327.311 121.869 329.996C120.127 332.687 118.663 335.548 117.502 338.536C117.36 338.903 117.223 339.271 117.091 339.641C116.896 340.187 117.43 340.786 117.971 340.769C119.992 340.669 121.984 340.249 123.873 339.524C120.79 342.776 118.339 346.592 116.076 350.444C114.817 352.587 113.575 354.743 112.372 356.919C111.17 359.05 110.08 361.242 109.106 363.486C108.562 364.768 108.065 366.07 107.648 367.399C107.549 367.712 107.455 368.028 107.366 368.345C107.231 368.821 107.119 369.349 107.463 369.76C107.46 369.899 107.489 370.037 107.548 370.163C107.607 370.29 107.694 370.4 107.802 370.487C107.911 370.574 108.038 370.635 108.174 370.666C108.309 370.696 108.45 370.695 108.586 370.662C113.294 369.855 117.696 367.813 121.796 365.422C123.898 364.197 125.941 362.872 127.972 361.533C130.226 360.046 132.458 358.527 134.668 356.976C135.845 356.15 137.016 355.315 138.18 354.471C137.499 355.884 136.991 357.375 136.667 358.91C136.477 359.833 136.35 360.767 136.289 361.707C136.291 361.906 136.359 362.099 136.481 362.257C136.604 362.414 136.775 362.526 136.968 362.577C138.204 362.871 139.358 362.322 140.382 361.678C140.709 361.531 141.028 361.367 141.341 361.187C141.86 360.888 142.367 360.566 142.865 360.23C144.27 359.435 145.553 358.317 146.733 357.372C149.265 355.346 151.687 353.186 153.99 350.902C158.637 346.29 162.789 341.203 166.378 335.726Z" fill="#DB162F"/>
<path d="M155.272 331.435C156.051 330.49 156.704 329.448 157.214 328.335C157.749 327.075 158.078 325.726 157.9 324.352C157.846 323.925 157.754 323.505 157.626 323.094C157.507 322.422 157.265 321.777 156.911 321.193C156.439 320.448 155.826 319.801 155.107 319.29C153.809 318.367 152.234 317.919 150.645 318.018C147.105 318.21 143.975 320.476 142.042 323.348C140.937 324.989 140.366 326.908 139.651 328.737C138.346 331.977 136.754 335.095 134.896 338.052C134.364 338.899 133.81 339.732 133.235 340.551C133.131 340.727 133.072 340.927 133.061 341.131C133.051 341.336 133.089 341.54 133.175 341.727C133.254 341.921 133.377 342.093 133.534 342.232C133.691 342.371 133.878 342.471 134.08 342.527C136.221 343.22 138.45 342.603 140.449 341.768C141.461 341.345 142.445 340.85 143.424 340.354C144.522 339.797 145.607 339.214 146.67 338.591C148.873 337.326 150.931 335.826 152.808 334.116C153.7 333.29 154.524 332.393 155.272 331.435Z" fill="#FEBB00"/>
<path d="M175.68 302.477C163.226 299.586 148.487 284.702 127.731 263.741C107.505 243.318 95.8553 231.553 93.0427 220.747C82.1609 178.944 189.108 96.0255 263.316 67.5011C291.523 56.659 314.998 53.6767 325.478 63.7964C336.355 74.3026 333.569 99.2592 322.684 129.277C295.34 204.69 216.901 312.045 175.68 302.477Z" fill="#7CB518"/>
<path d="M98.6731 252.869C94.3059 252.011 88.4492 246.272 76.7369 234.795C65.6718 223.952 60.139 218.53 59.3395 214.571C54.4486 190.357 141.645 138.531 158.213 155.158C174.671 171.672 123.453 257.737 98.6731 252.869Z" fill="#330036"/>
<path d="M180.492 334.615C176.124 333.757 170.268 328.018 158.555 316.541C147.49 305.697 141.957 300.276 141.158 296.317C136.267 272.102 223.463 220.277 240.032 236.903C256.489 253.418 205.27 339.483 180.492 334.615Z" fill="#330036"/>
<path d="M322.685 129.277C308.461 128.695 293.749 122.535 282.1 111.014C269.593 98.6442 263.227 82.6742 263.318 67.5019C291.524 56.6592 314.999 53.6769 325.479 63.7966C336.356 74.3028 333.57 99.2593 322.685 129.277Z" fill="#DB162F"/>
<path d="M214.169 179.815C228.091 193.584 250.544 193.455 264.32 179.526C278.095 165.598 277.976 143.145 264.054 129.376C250.132 115.607 227.679 115.736 213.903 129.664C200.128 143.593 200.247 166.046 214.169 179.815Z" fill="#FEBB00"/>
<path d="M222.251 171.643C231.657 180.946 246.828 180.859 256.135 171.448C265.443 162.037 265.362 146.867 255.956 137.564C246.549 128.26 231.379 128.348 222.071 137.758C212.764 147.169 212.844 162.34 222.251 171.643Z" fill="#E1A600"/>
<path d="M252.382 151.551C252.629 151.242 252.762 150.858 252.759 150.463C252.749 150.066 252.611 149.682 252.367 149.369C252.122 149.056 251.784 148.829 251.401 148.722C248.287 147.923 245.227 146.928 242.239 145.743C241.768 145.552 241.299 145.357 240.831 145.157C241.494 145.062 242.156 144.969 242.818 144.88C246.038 144.452 249.266 144.09 252.501 143.794C252.978 143.778 253.432 143.587 253.776 143.257C254.111 142.914 254.298 142.455 254.299 141.976C254.295 141.497 254.103 141.039 253.763 140.701C253.595 140.533 253.395 140.4 253.175 140.311C252.955 140.221 252.72 140.176 252.482 140.179C247.697 140.616 242.927 141.196 238.173 141.919C236.88 142.114 235.588 142.321 234.298 142.538C234.153 142.598 234.009 142.658 233.864 142.717L233.481 143.013C233.29 143.214 233.146 143.455 233.062 143.718C232.977 143.982 232.953 144.261 232.992 144.535C233.03 144.809 233.13 145.07 233.284 145.3C233.438 145.53 233.642 145.722 233.881 145.861C236.802 147.377 239.814 148.708 242.901 149.846C240.986 150.039 239.066 150.194 237.149 150.362C233.984 150.638 230.816 150.955 227.686 151.509C225.985 151.805 224.302 152.193 222.644 152.672C222.177 152.806 221.78 153.115 221.535 153.534C221.308 153.947 221.247 154.43 221.366 154.886C221.654 155.804 222.61 156.447 223.579 156.163C226.049 155.463 228.566 154.945 231.111 154.612C233.659 154.276 236.221 154.056 238.782 153.837C241.535 153.601 244.285 153.349 247.024 152.974C248.497 152.772 249.964 152.527 251.42 152.22C251.81 152.117 252.15 151.88 252.382 151.551Z" fill="white"/>
<path d="M257.49 158.848C257.717 158.435 257.777 157.952 257.659 157.496C257.596 157.263 257.487 157.046 257.339 156.855C257.191 156.665 257.007 156.506 256.797 156.387C256.38 156.177 255.902 156.117 255.445 156.219L243.143 158.499L230.841 160.78L223.913 162.064C223.566 162.157 223.254 162.352 223.018 162.623C222.782 162.894 222.632 163.229 222.587 163.586C222.542 163.943 222.605 164.305 222.767 164.625C222.929 164.946 223.183 165.211 223.496 165.387C223.914 165.597 224.392 165.657 224.848 165.556C228.949 164.796 233.05 164.036 237.151 163.275C241.252 162.515 245.353 161.755 249.453 160.995L256.382 159.711C256.614 159.647 256.831 159.538 257.022 159.39C257.212 159.242 257.371 159.058 257.49 158.848Z" fill="white"/>
<path d="M270.375 160.347C271.233 156.943 271.207 153.428 270.639 149.982C270.059 146.461 268.785 143.086 267.256 139.875C266.391 138.06 265.424 136.295 264.413 134.558C264.102 134.036 263.601 133.656 263.015 133.496C262.728 133.422 262.429 133.406 262.135 133.448C261.841 133.49 261.559 133.589 261.303 133.741C261.048 133.892 260.825 134.092 260.647 134.329C260.469 134.567 260.339 134.837 260.265 135.124C260.128 135.696 260.21 136.299 260.496 136.813C261.902 139.18 263.155 141.634 264.248 144.161C265.254 146.593 265.963 149.137 266.36 151.739C266.58 153.514 266.598 155.308 266.413 157.087C266.313 157.807 266.175 158.522 265.999 159.227C265.861 159.799 265.943 160.402 266.229 160.915C266.537 161.44 267.039 161.821 267.627 161.977C268.198 162.121 268.803 162.038 269.315 161.746C269.835 161.434 270.215 160.933 270.375 160.347Z" fill="#E1A600"/>
<path d="M265.779 172.366C266.196 171.653 266.538 170.9 266.801 170.118C266.946 169.546 266.864 168.941 266.571 168.429C266.263 167.905 265.761 167.524 265.173 167.367C264.602 167.223 263.997 167.306 263.485 167.598C263.325 167.722 263.165 167.845 263.005 167.969C262.723 168.253 262.522 168.608 262.423 168.997C262.419 169.007 262.414 169.018 262.411 169.029C262.155 169.621 261.838 170.185 261.465 170.711C261.336 170.87 261.203 171.026 261.063 171.176C260.651 171.608 260.417 172.181 260.41 172.778C260.412 173.224 260.547 173.66 260.797 174.031C261.047 174.401 261.402 174.688 261.815 174.857C262.229 175.025 262.684 175.068 263.121 174.978C263.559 174.888 263.96 174.671 264.275 174.353C264.842 173.743 265.347 173.078 265.779 172.366Z" fill="#E1A600"/>
<path d="M213.493 166.96L213.564 166.387C213.562 165.996 213.459 165.612 213.264 165.273C213.233 165.203 213.204 165.133 213.175 165.063C212.281 162.833 211.657 160.503 211.316 158.125C211.012 155.66 210.999 153.168 211.277 150.7C211.599 148.271 212.208 145.889 213.091 143.603C213.512 142.579 213.99 141.58 214.523 140.61C214.803 140.092 214.879 139.489 214.735 138.919C214.659 138.632 214.526 138.364 214.346 138.128C214.165 137.893 213.94 137.695 213.683 137.547C213.426 137.399 213.142 137.303 212.848 137.264C212.554 137.225 212.255 137.245 211.968 137.322C211.384 137.488 210.887 137.875 210.582 138.4C208.725 141.772 207.492 145.451 206.941 149.26C206.647 151.232 206.522 153.226 206.569 155.219C206.631 157.222 206.869 159.216 207.279 161.178C207.748 163.36 208.441 165.487 209.346 167.526C209.565 168.029 210.236 168.458 210.744 168.588C211.031 168.662 211.33 168.678 211.624 168.636C211.918 168.594 212.201 168.495 212.456 168.344C212.711 168.192 212.935 167.992 213.113 167.755C213.291 167.517 213.42 167.247 213.494 166.96L213.493 166.96Z" fill="#E1A600"/>
<path d="M221.186 178.905C221.387 178.683 221.525 178.412 221.586 178.119C221.731 177.548 221.648 176.943 221.356 176.431L220.986 175.951C220.747 175.717 220.459 175.538 220.142 175.429C219.992 175.356 219.847 175.273 219.707 175.183C219.577 175.068 219.454 174.947 219.338 174.818C219.287 174.741 219.238 174.663 219.192 174.583C219.051 174.312 218.84 174.083 218.58 173.921C218.358 173.72 218.087 173.582 217.794 173.521C217.222 173.401 216.625 173.482 216.106 173.752C215.846 173.904 215.618 174.106 215.435 174.345C215.253 174.585 215.12 174.859 215.044 175.15C214.907 175.722 214.989 176.324 215.274 176.839C215.5 177.211 215.757 177.564 216.04 177.895C216.205 178.095 216.387 178.28 216.585 178.447C216.915 178.732 217.268 178.99 217.64 179.217C218.023 179.428 218.423 179.606 218.837 179.748C219.268 179.866 219.724 179.848 220.144 179.697C220.565 179.547 220.929 179.27 221.187 178.906L221.186 178.905Z" fill="#E1A600"/>
<path d="M219.101 285.38C220.808 283.072 222.427 280.702 223.959 278.272C225.49 275.843 226.928 273.36 228.274 270.822C229.62 268.287 230.869 265.703 232.023 263.072C233.136 260.531 234.246 257.944 234.917 255.245C235.272 253.802 235.494 252.329 235.579 250.845C235.65 249.376 235.528 247.903 235.216 246.466C235.157 246.185 235.087 245.907 235.009 245.632C234.893 245.106 234.639 244.621 234.273 244.226C233.779 243.602 233.117 243.132 232.365 242.872C231.613 242.612 230.802 242.573 230.028 242.758C229.01 243.078 228.028 243.716 227.532 244.698C227.026 245.628 226.89 246.714 227.152 247.74C227.26 248.12 227.349 248.505 227.418 248.893C227.487 249.708 227.485 250.527 227.412 251.341C227.081 253.314 226.533 255.245 225.778 257.098C224.463 260.319 222.96 263.47 221.339 266.546C219.591 269.865 217.684 273.094 215.618 276.232C214.462 277.989 213.258 279.713 212.007 281.405C211.532 282.344 211.397 283.42 211.625 284.447C211.741 284.973 211.995 285.458 212.361 285.853C212.657 286.317 213.073 286.693 213.564 286.942C214.488 287.407 215.592 287.641 216.606 287.321L217.581 286.918C218.216 286.551 218.741 286.02 219.101 285.38Z" fill="#690270"/>
<path d="M209.772 299.687C210.504 298.906 210.909 297.875 210.903 296.805C210.897 295.735 210.482 294.708 209.741 293.936L208.871 293.279C208.256 292.935 207.563 292.757 206.86 292.762L205.828 292.9C205.132 293.087 204.497 293.456 203.99 293.969C203.208 295.002 202.425 296.034 201.643 297.065C200.911 297.845 200.506 298.877 200.512 299.946C200.518 301.016 200.934 302.043 201.674 302.815L202.544 303.472C203.159 303.816 203.852 303.994 204.556 303.99L205.586 303.851C206.283 303.665 206.918 303.296 207.424 302.782C208.207 301.75 208.99 300.718 209.772 299.687Z" fill="#690270"/>
<path d="M196.375 315.871C196.659 315.13 196.727 314.324 196.571 313.547C196.414 312.77 196.04 312.053 195.491 311.481C194.711 310.775 193.692 310.253 192.61 310.306C191.536 310.336 190.513 310.767 189.741 311.514C187.943 313.258 186.132 314.997 184.171 316.558C182.694 317.679 181.098 318.632 179.412 319.402C179.323 319.436 179.236 319.474 179.146 319.505C178.62 319.621 178.135 319.875 177.74 320.241C177.116 320.736 176.646 321.398 176.386 322.15C176.125 322.903 176.085 323.713 176.27 324.488C176.59 325.506 177.227 326.487 178.209 326.982L179.188 327.373C179.865 327.546 180.575 327.542 181.251 327.361C183.463 326.569 185.56 325.488 187.489 324.146C189.429 322.767 191.274 321.258 193.011 319.63C193.86 318.843 194.691 318.038 195.523 317.232C195.923 316.862 196.217 316.392 196.375 315.871Z" fill="#690270"/>
<path d="M149.109 184.363C151.041 180.296 152.488 176.016 153.419 171.611C153.954 168.992 154.311 166.34 154.49 163.673C154.51 163.147 154.393 162.624 154.151 162.155C153.965 161.647 153.668 161.186 153.283 160.805C152.898 160.424 152.434 160.133 151.923 159.952C151.452 159.715 150.928 159.604 150.402 159.63C149.35 159.682 148.26 160.034 147.533 160.838C147.314 161.128 147.095 161.419 146.876 161.709C146.531 162.323 146.353 163.016 146.357 163.72C146.306 164.479 146.232 165.237 146.147 165.994C145.703 169.307 144.944 172.57 143.88 175.739C143.618 176.518 143.333 177.288 143.036 178.054C141.726 181.238 140.108 184.286 138.204 187.154C137.747 187.839 137.274 188.514 136.784 189.177C136.56 189.467 136.334 189.756 136.104 190.042C135.533 190.603 135.146 191.325 134.997 192.112C134.847 192.898 134.942 193.711 135.267 194.443C135.431 194.962 135.731 195.428 136.135 195.793C136.915 196.498 137.934 197.02 139.016 196.967L140.047 196.829C140.744 196.643 141.378 196.274 141.885 195.76C144.739 192.263 147.164 188.436 149.109 184.363Z" fill="#690270"/>
<path d="M133.125 210.078C133.52 209.608 133.886 209.114 134.22 208.599C134.363 208.372 134.49 208.136 134.601 207.893C134.855 207.347 135.075 206.787 135.261 206.214C135.479 205.184 135.333 204.111 134.848 203.177C134.594 202.688 134.213 202.277 133.746 201.985C133.347 201.624 132.859 201.375 132.332 201.265L131.3 201.139C130.596 201.143 129.905 201.329 129.294 201.68C129.007 201.902 128.719 202.124 128.431 202.347C127.942 202.84 127.588 203.451 127.404 204.121C127.322 204.283 127.233 204.442 127.137 204.596C127.027 204.716 126.914 204.833 126.794 204.945C126.223 205.505 125.837 206.227 125.687 207.014C125.537 207.8 125.632 208.614 125.958 209.345C126.121 209.864 126.421 210.33 126.825 210.695L127.695 211.352C128.31 211.696 129.002 211.874 129.706 211.87L130.737 211.731C131.434 211.545 132.069 211.176 132.575 210.662C132.771 210.48 132.955 210.284 133.125 210.078Z" fill="#690270"/>
<path d="M118.59 229.383C119.161 228.822 119.548 228.1 119.697 227.313C119.847 226.527 119.752 225.713 119.427 224.982C119.263 224.463 118.963 223.997 118.559 223.632C117.779 222.926 116.76 222.405 115.678 222.457L114.647 222.596C113.95 222.782 113.316 223.151 112.809 223.665C110.388 226.749 107.676 229.593 104.711 232.158C104.02 232.755 103.316 233.336 102.599 233.901C101.384 234.842 100.072 235.649 98.6849 236.31C98.1621 236.501 97.6254 236.651 97.0794 236.759C96.7617 236.781 96.4429 236.785 96.1247 236.771C95.1005 236.583 94.043 236.783 93.1574 237.331C92.2719 237.879 91.6217 238.737 91.333 239.738C91.1202 240.749 91.175 241.879 91.7458 242.775L92.4123 243.639C92.9243 244.146 93.5626 244.508 94.2614 244.686C95.2914 244.885 96.3433 244.947 97.3896 244.87C98.4111 244.787 99.4211 244.596 100.403 244.301C102.122 243.737 103.757 242.942 105.263 241.938C105.876 241.532 106.47 241.097 107.054 240.647C108.08 239.856 109.1 239.06 110.088 238.221C111.553 236.977 112.957 235.666 114.3 234.287C115.816 232.729 117.248 231.092 118.59 229.383Z" fill="#690270"/>
<path d="M322.296 102.291C323.589 98.3281 324.889 94.3397 325.527 90.2094C325.924 87.8931 326.103 85.5449 326.063 83.1954C326 81.8768 325.867 80.5626 325.664 79.2583C325.536 78.3395 325.35 77.4297 325.108 76.5343C324.713 75.1544 324.21 73.8077 323.604 72.5066C323.177 71.5558 322.663 70.6463 322.069 69.7895C321.759 69.1923 321.294 68.6894 320.723 68.333C320.236 67.8912 319.639 67.5875 318.995 67.4533C318.381 67.2689 317.729 67.2448 317.103 67.3834C316.457 67.4148 315.829 67.6135 315.282 67.96C314.93 68.2315 314.578 68.5031 314.227 68.7747C313.605 69.4008 313.163 70.1814 312.945 71.0358L312.791 72.2977C312.795 73.1581 313.022 74.0026 313.451 74.7485C314.033 75.5906 314.538 76.4831 314.96 77.4153C315.424 78.6797 315.766 79.9856 315.982 81.3152C316.183 83.2535 316.183 85.2076 315.98 87.1459C315.515 90.4873 314.606 93.7466 313.592 96.9593C313.29 97.9166 312.978 98.8714 312.667 99.8258C312.482 100.44 312.458 101.091 312.596 101.718C312.656 102.372 312.859 103.005 313.191 103.571C313.523 104.138 313.976 104.624 314.518 104.995C315.006 105.436 315.602 105.74 316.247 105.874L317.507 106.03C318.368 106.025 319.212 105.797 319.959 105.369C320.31 105.097 320.662 104.825 321.014 104.554C321.635 103.927 322.078 103.146 322.296 102.291Z" fill="#A61124"/>
<path d="M315.54 119.947C315.808 119.592 316.076 119.237 316.343 118.883C316.764 118.132 316.982 117.285 316.977 116.424L316.809 115.165C316.581 114.313 316.131 113.537 315.503 112.919L315.3 112.717C314.332 111.838 313.084 111.33 311.777 111.283C311.134 111.259 310.494 111.402 309.922 111.698C309.287 111.899 308.717 112.265 308.271 112.759C308.003 113.114 307.735 113.469 307.468 113.824C307.047 114.574 306.829 115.421 306.834 116.282L307.002 117.542C307.23 118.393 307.681 119.169 308.308 119.788L308.512 119.989C309.197 120.687 310.079 121.159 311.04 121.341C312.001 121.523 312.995 121.408 313.889 121.009C314.524 120.808 315.094 120.442 315.54 119.947Z" fill="#DB162F"/>
<path d="M286.819 185.889C288.471 183.365 290.054 180.796 291.568 178.185C293.088 175.562 294.535 172.899 295.91 170.196C297.278 167.507 298.573 164.782 299.794 162.022C301.182 158.883 302.476 155.7 303.693 152.491C304.763 149.67 305.755 146.821 306.67 143.945C306.783 143.588 306.896 143.23 307.007 142.871C307.266 141.923 307.228 140.919 306.896 139.994C306.565 139.069 305.958 138.269 305.156 137.702C304.668 137.26 304.072 136.956 303.428 136.822L302.167 136.667C301.307 136.671 300.462 136.899 299.716 137.328C299.364 137.599 299.012 137.871 298.66 138.143C298.039 138.769 297.597 139.549 297.378 140.404C296.355 143.696 295.23 146.955 294.005 150.18C293.744 150.867 293.477 151.552 293.206 152.235C291.661 156.053 289.977 159.811 288.155 163.509C286.247 167.375 284.192 171.162 281.99 174.872C280.754 176.951 279.473 179.004 278.148 181.029C277.567 182.177 277.403 183.491 277.682 184.747C277.824 185.39 278.134 185.983 278.581 186.466C278.944 187.033 279.451 187.492 280.052 187.796L281.248 188.275C282.076 188.486 282.944 188.481 283.77 188.26C284.167 188.096 284.563 187.932 284.96 187.768C285.737 187.319 286.379 186.67 286.819 185.889Z" fill="#659315"/>
<path d="M263.793 221.649C266.892 217.848 269.793 213.889 272.484 209.789C273.872 207.667 275.196 205.505 276.457 203.304C277.038 202.155 277.202 200.841 276.923 199.586C276.781 198.943 276.471 198.35 276.024 197.867C275.661 197.3 275.153 196.841 274.553 196.537L273.357 196.058C272.529 195.847 271.661 195.852 270.835 196.073L269.645 196.565C268.868 197.014 268.226 197.663 267.786 198.444C265.685 202.111 263.407 205.669 260.955 209.118C260.389 209.912 259.812 210.7 259.228 211.481C256.502 215.058 253.591 218.49 250.508 221.763C249.588 222.739 248.654 223.7 247.704 224.646C246.809 225.6 246.314 226.86 246.321 228.168C246.328 229.475 246.836 230.73 247.74 231.674L248.804 232.477C249.555 232.897 250.402 233.115 251.262 233.11L252.522 232.941C253.374 232.713 254.149 232.262 254.768 231.634C257.948 228.464 260.96 225.132 263.793 221.649Z" fill="#659315"/>
</g>
<defs>
<clipPath id="clip0">
<rect width="186.127" height="371.172" fill="white" transform="translate(261.004) rotate(44.6834)"/>
</clipPath>
</defs>
</svg>
