<svg width="640" height="640" viewBox="0 0 640 640" fill="none" xmlns="http://www.w3.org/2000/svg">
<circle cx="320" cy="320" r="220" fill="#DB162F"/>
<path d="M421.022 202.127H219.695C215.697 202.127 212.456 205.368 212.456 209.367V345.891C212.456 349.89 215.697 353.131 219.695 353.131H421.022C425.02 353.131 428.261 349.89 428.261 345.891V209.367C428.261 205.368 425.02 202.127 421.022 202.127Z" fill="#151E3F"/>
<path d="M475.51 411.568L475.801 414.337C476.263 418.732 471.888 422.5 466.326 422.5H172.167C167.235 422.5 163.122 419.511 162.694 415.616L162.389 412.835C162.304 411.954 162.403 411.065 162.68 410.224C162.956 409.382 163.404 408.608 163.995 407.949L209.327 355.014C211.097 352.948 214.042 351.71 217.193 351.71H421.512C424.691 351.71 427.66 352.97 429.423 355.067L473.947 408.012C474.813 409.014 475.357 410.253 475.51 411.568V411.568Z" fill="#151E3F"/>
<path d="M415.621 213.653H225.752V341.755H415.621V213.653Z" fill="#FFF8E3"/>
<path d="M231.148 359.985H219.504C218.15 359.985 217.052 361.083 217.052 362.437V367.646C217.052 369.001 218.15 370.098 219.504 370.098H231.148C232.502 370.098 233.599 369.001 233.599 367.646V362.437C233.599 361.083 232.502 359.985 231.148 359.985Z" fill="#DB162F"/>
<path d="M256.888 359.525H245.244C243.89 359.525 242.792 360.623 242.792 361.977V367.187C242.792 368.541 243.89 369.638 245.244 369.638H256.888C258.242 369.638 259.34 368.541 259.34 367.187V361.977C259.34 360.623 258.242 359.525 256.888 359.525Z" fill="#DB162F"/>
<path d="M283.088 359.985H271.444C270.09 359.985 268.992 361.083 268.992 362.437V367.646C268.992 369.001 270.09 370.098 271.444 370.098H283.088C284.442 370.098 285.54 369.001 285.54 367.646V362.437C285.54 361.083 284.442 359.985 283.088 359.985Z" fill="#DB162F"/>
<path d="M311.127 360.904H299.483C298.129 360.904 297.031 362.002 297.031 363.356V368.565C297.031 369.919 298.129 371.017 299.483 371.017H311.127C312.481 371.017 313.578 369.919 313.578 368.565V363.356C313.578 362.002 312.481 360.904 311.127 360.904Z" fill="#DB162F"/>
<path d="M336.867 360.445H325.223C323.869 360.445 322.771 361.543 322.771 362.897V368.106C322.771 369.46 323.869 370.558 325.223 370.558H336.867C338.221 370.558 339.319 369.46 339.319 368.106V362.897C339.319 361.543 338.221 360.445 336.867 360.445Z" fill="#DB162F"/>
<path d="M363.067 360.904H351.423C350.069 360.904 348.972 362.002 348.972 363.356V368.565C348.972 369.919 350.069 371.017 351.423 371.017H363.067C364.421 371.017 365.519 369.919 365.519 368.565V363.356C365.519 362.002 364.421 360.904 363.067 360.904Z" fill="#DB162F"/>
<path d="M388.808 360.675H377.164C375.81 360.675 374.712 361.772 374.712 363.127V368.336C374.712 369.69 375.81 370.788 377.164 370.788H388.808C390.162 370.788 391.259 369.69 391.259 368.336V363.127C391.259 361.772 390.162 360.675 388.808 360.675Z" fill="#DB162F"/>
<path d="M415.008 361.134H403.364C402.01 361.134 400.912 362.232 400.912 363.586V368.795C400.912 370.149 402.01 371.247 403.364 371.247H415.008C416.362 371.247 417.459 370.149 417.459 368.795V363.586C417.459 362.232 416.362 361.134 415.008 361.134Z" fill="#DB162F"/>
<path d="M219.197 376.074H207.553C206.199 376.074 205.101 377.171 205.101 378.525V383.735C205.101 385.089 206.199 386.187 207.553 386.187H219.197C220.551 386.187 221.648 385.089 221.648 383.735V378.525C221.648 377.171 220.551 376.074 219.197 376.074Z" fill="#DB162F"/>
<path d="M244.937 375.614H233.293C231.939 375.614 230.842 376.712 230.842 378.066V383.275C230.842 384.629 231.939 385.727 233.293 385.727H244.937C246.291 385.727 247.389 384.629 247.389 383.275V378.066C247.389 376.712 246.291 375.614 244.937 375.614Z" fill="#DB162F"/>
<path d="M271.137 376.074H259.493C258.139 376.074 257.041 377.171 257.041 378.525V383.735C257.041 385.089 258.139 386.187 259.493 386.187H271.137C272.491 386.187 273.589 385.089 273.589 383.735V378.525C273.589 377.171 272.491 376.074 271.137 376.074Z" fill="#DB162F"/>
<path d="M298.716 376.534H287.072C285.718 376.534 284.621 377.631 284.621 378.985V384.195C284.621 385.549 285.718 386.647 287.072 386.647H298.716C300.07 386.647 301.168 385.549 301.168 384.195V378.985C301.168 377.631 300.07 376.534 298.716 376.534Z" fill="#DB162F"/>
<path d="M324.457 376.074H312.812C311.458 376.074 310.361 377.171 310.361 378.525V383.735C310.361 385.089 311.458 386.187 312.812 386.187H324.457C325.811 386.187 326.908 385.089 326.908 383.735V378.525C326.908 377.171 325.811 376.074 324.457 376.074Z" fill="#DB162F"/>
<path d="M350.657 376.534H339.012C337.658 376.534 336.561 377.631 336.561 378.985V384.195C336.561 385.549 337.658 386.647 339.012 386.647H350.657C352.011 386.647 353.108 385.549 353.108 384.195V378.985C353.108 377.631 352.011 376.534 350.657 376.534Z" fill="#DB162F"/>
<path d="M378.236 376.534H366.591C365.237 376.534 364.14 377.631 364.14 378.985V384.195C364.14 385.549 365.237 386.647 366.591 386.647H378.236C379.59 386.647 380.687 385.549 380.687 384.195V378.985C380.687 377.631 379.59 376.534 378.236 376.534Z" fill="#DB162F"/>
<path d="M403.976 376.074H392.332C390.978 376.074 389.88 377.171 389.88 378.525V383.735C389.88 385.089 390.978 386.187 392.332 386.187H403.976C405.33 386.187 406.428 385.089 406.428 383.735V378.525C406.428 377.171 405.33 376.074 403.976 376.074Z" fill="#DB162F"/>
<path d="M430.176 376.534H418.532C417.178 376.534 416.081 377.631 416.081 378.985V384.195C416.081 385.549 417.178 386.647 418.532 386.647H430.176C431.53 386.647 432.628 385.549 432.628 384.195V378.985C432.628 377.631 431.53 376.534 430.176 376.534Z" fill="#DB162F"/>
<path d="M205.867 394.001H194.223C192.869 394.001 191.771 395.099 191.771 396.453V401.662C191.771 403.016 192.869 404.114 194.223 404.114H205.867C207.221 404.114 208.319 403.016 208.319 401.662V396.453C208.319 395.099 207.221 394.001 205.867 394.001Z" fill="#DB162F"/>
<path d="M231.608 393.542H219.963C218.609 393.542 217.512 394.639 217.512 395.993V401.203C217.512 402.557 218.609 403.654 219.963 403.654H231.608C232.961 403.654 234.059 402.557 234.059 401.203V395.993C234.059 394.639 232.961 393.542 231.608 393.542Z" fill="#DB162F"/>
<path d="M257.808 394.001H246.164C244.81 394.001 243.712 395.099 243.712 396.453V401.662C243.712 403.016 244.81 404.114 246.164 404.114H257.808C259.162 404.114 260.259 403.016 260.259 401.662V396.453C260.259 395.099 259.162 394.001 257.808 394.001Z" fill="#DB162F"/>
<path d="M398.001 394.001H386.356C385.002 394.001 383.905 395.099 383.905 396.453V401.662C383.905 403.016 385.002 404.114 386.356 404.114H398.001C399.355 404.114 400.452 403.016 400.452 401.662V396.453C400.452 395.099 399.355 394.001 398.001 394.001Z" fill="#DB162F"/>
<path d="M423.741 393.542H412.097C410.743 393.542 409.646 394.639 409.646 395.993V401.203C409.646 402.557 410.743 403.654 412.097 403.654H423.741C425.095 403.654 426.193 402.557 426.193 401.203V395.993C426.193 394.639 425.095 393.542 423.741 393.542Z" fill="#DB162F"/>
<path d="M449.941 394.001H438.297C436.943 394.001 435.845 395.099 435.845 396.453V401.662C435.845 403.016 436.943 404.114 438.297 404.114H449.941C451.295 404.114 452.392 403.016 452.392 401.662V396.453C452.392 395.099 451.295 394.001 449.941 394.001Z" fill="#DB162F"/>
<path d="M322.232 394.001H270.215C268.353 394.001 266.844 395.51 266.844 397.372V400.743C266.844 402.605 268.353 404.114 270.215 404.114H322.232C324.094 404.114 325.603 402.605 325.603 400.743V397.372C325.603 395.51 324.094 394.001 322.232 394.001Z" fill="#DB162F"/>
<path d="M347.439 393.542H335.795C334.441 393.542 333.343 394.639 333.343 395.993V401.203C333.343 402.557 334.441 403.654 335.795 403.654H347.439C348.793 403.654 349.891 402.557 349.891 401.203V395.993C349.891 394.639 348.793 393.542 347.439 393.542Z" fill="#DB162F"/>
<path d="M373.639 394.001H361.995C360.641 394.001 359.543 395.099 359.543 396.453V401.662C359.543 403.016 360.641 404.114 361.995 404.114H373.639C374.993 404.114 376.091 403.016 376.091 401.662V396.453C376.091 395.099 374.993 394.001 373.639 394.001Z" fill="#DB162F"/>
<path d="M408.263 266.949C407.969 268.304 407.588 269.639 407.122 270.945C402.484 283.564 388.993 290.016 376.127 289.591C372.311 289.276 368.612 288.125 365.293 286.219C363.952 285.462 362.673 284.6 361.467 283.642V283.642C354.45 278.092 349.775 269.386 350.026 260.445C350.026 259.77 350.095 259.099 350.169 258.424C350.216 258.017 350.272 257.614 350.336 257.221C351.417 250.852 354.96 246.069 359.853 242.498L360.317 242.155C361.248 241.499 362.213 240.891 363.206 240.333C366.067 238.751 369.081 237.464 372.204 236.494L372.668 236.35C377.588 234.829 383.335 234.935 388.738 236.35C393.332 237.495 397.61 239.651 401.26 242.66C405.828 246.578 408.249 251.911 408.857 257.586C409.161 260.719 408.96 263.879 408.263 266.949V266.949Z" fill="#008DD5"/>
<path d="M385.412 262.319C382.444 262.319 378.919 260.006 378.919 265.557C378.919 271.108 383.557 270.183 383.557 270.183C383.557 270.183 393.761 267.407 389.586 275.271C385.412 283.134 386.804 282.672 387.731 283.134C388.659 283.597 401.181 273.421 400.717 269.257C400.254 265.094 398.064 261.163 395.616 260.469C394.489 260.145 393.204 258.619 391.442 259.081C389.313 259.659 386.665 262.319 385.412 262.319Z" fill="#FEBB00"/>
<path d="M366.861 281.746C366.268 282.773 366.49 283.814 365.294 286.219C363.952 285.462 362.673 284.601 361.468 283.643V283.643C361.157 282.139 360.54 280.067 359.445 278.971C357.59 277.121 353.88 273.42 355.271 271.57C356.663 269.72 356.663 268.795 356.663 268.795C358.518 266.019 363.156 268.332 364.083 270.182C365.011 272.033 366.402 273.883 369.649 275.27C372.895 276.658 367.743 280.22 366.861 281.746Z" fill="#FEBB00"/>
<path d="M366.861 252.142C361.296 254.918 364.543 260.931 360.832 261.394C357.122 261.856 358.977 259.543 354.803 260.006C350.629 260.468 354.803 267.869 354.803 267.869C354.339 271.107 354.339 269.72 352.484 267.407C351.58 266.283 350.768 263.142 350.026 260.445C350.026 259.77 350.096 259.099 350.17 258.424C350.216 258.017 350.272 257.614 350.337 257.221C351.417 250.852 354.961 246.069 359.854 242.498L360.317 242.156C360.202 242.766 360.011 243.617 359.886 244.741C359.422 248.904 364.524 244.741 366.379 244.741C368.234 244.741 372.427 249.367 366.861 252.142Z" fill="#FEBB00"/>
<path d="M408.263 266.949C407.67 265.075 406.965 261.712 406.283 262.786C403.036 267.874 401.645 266.486 400.718 264.173C399.79 261.86 397.007 258.623 395.616 256.31C394.225 253.997 388.659 254.922 386.34 256.31C384.021 257.697 385.876 262.323 379.383 260.01C372.89 257.697 376.601 255.847 377.065 255.385C377.528 254.922 377.992 252.609 379.847 251.684C381.702 250.759 383.557 247.059 383.557 244.283C383.557 242.738 386.294 239.195 388.715 236.336C393.309 237.481 397.587 239.637 401.237 242.646C405.805 246.564 408.226 251.897 408.834 257.573C409.147 260.708 408.954 263.874 408.263 266.949V266.949Z" fill="#FEBB00"/>
<path d="M374.282 243.354C371.963 244.742 367.325 240.579 364.078 240.579C363.776 240.547 363.481 240.464 363.207 240.334C366.067 238.752 369.081 237.465 372.204 236.495C372.445 236.462 372.668 236.434 372.89 236.416C378.511 235.907 376.601 241.967 374.282 243.354Z" fill="#FEBB00"/>
<mask id="mask0" style="mask-type:alpha" maskUnits="userSpaceOnUse" x="225" y="213" width="191" height="129">
<path d="M415.621 213.653H225.753V341.754H415.621V213.653Z" fill="#EAE2C2"/>
</mask>
<g mask="url(#mask0)">
<path d="M325.36 287.379H299.993C293.613 287.379 288.44 282.209 288.44 275.831V256.529H336.913V275.831C336.913 282.209 331.741 287.379 325.36 287.379Z" fill="#DB162F"/>
<path d="M295.307 215.666C291.515 215.666 288.44 218.739 288.44 222.53V256.53H302.174V222.53C302.174 218.739 299.1 215.666 295.307 215.666Z" fill="#DB162F"/>
<path d="M330.046 215.666C326.254 215.666 323.179 218.739 323.179 222.53V256.53H336.913V222.53C336.913 218.739 333.839 215.666 330.046 215.666Z" fill="#DB162F"/>
<path d="M299.266 274.659C303.193 274.659 306.376 271.478 306.376 267.553C306.376 263.628 303.193 260.446 299.266 260.446C295.34 260.446 292.157 263.628 292.157 267.553C292.157 271.478 295.34 274.659 299.266 274.659Z" fill="#FFF8E3"/>
<path d="M299.267 272.578C302.043 272.578 304.294 270.328 304.294 267.553C304.294 264.777 302.043 262.527 299.267 262.527C296.49 262.527 294.24 264.777 294.24 267.553C294.24 270.328 296.49 272.578 299.267 272.578Z" fill="#151E3F"/>
<path d="M325.998 274.659C329.924 274.659 333.107 271.478 333.107 267.553C333.107 263.628 329.924 260.446 325.998 260.446C322.072 260.446 318.889 263.628 318.889 267.553C318.889 271.478 322.072 274.659 325.998 274.659Z" fill="#FFF8E3"/>
<path d="M325.998 272.578C328.774 272.578 331.025 270.328 331.025 267.553C331.025 264.777 328.774 262.527 325.998 262.527C323.221 262.527 320.971 264.777 320.971 267.553C320.971 270.328 323.221 272.578 325.998 272.578Z" fill="#151E3F"/>
<path d="M314.09 282.211H311.263C308.519 282.211 306.294 279.988 306.294 277.245V275.75H319.059V277.245C319.059 279.988 316.834 282.211 314.09 282.211Z" fill="#151E3F"/>
<path d="M327.077 295.333H298.277C291.773 295.333 286.501 300.604 286.501 307.104V339.025C286.501 340.72 287.876 342.094 289.571 342.094H335.782C337.477 342.094 338.852 340.72 338.852 339.025V307.104C338.852 300.604 333.58 295.333 327.077 295.333Z" fill="#DB162F"/>
<path d="M317.847 291.355H307.506C306.465 291.355 305.621 290.512 305.621 289.471V289.264C305.621 288.224 306.465 287.38 307.506 287.38H317.847C318.888 287.38 319.732 288.223 319.732 289.264V289.471C319.732 290.512 318.888 291.355 317.847 291.355Z" fill="#FEBB00"/>
<path d="M317.847 295.33H307.506C306.465 295.33 305.621 294.486 305.621 293.445V293.239C305.621 292.198 306.465 291.354 307.506 291.354H317.847C318.888 291.354 319.732 292.198 319.732 293.239V293.445C319.732 294.486 318.888 295.33 317.847 295.33Z" fill="#FEBB00"/>
<path d="M317.847 299.305H307.506C306.465 299.305 305.621 298.462 305.621 297.421V297.215C305.621 296.174 306.465 295.33 307.506 295.33H317.847C318.888 295.33 319.732 296.174 319.732 297.215V297.421C319.732 298.462 318.888 299.305 317.847 299.305Z" fill="#FEBB00"/>
<path d="M342.693 305.663C342.031 305.663 341.359 305.527 340.716 305.239C340.367 305.083 340.15 305.091 340.111 305.101C337.613 306.062 334.81 304.817 333.848 302.319C332.886 299.822 334.133 297.017 336.632 296.056C339.159 295.084 342.016 295.203 344.677 296.394C347.12 297.487 348.214 300.353 347.12 302.796C346.315 304.596 344.546 305.663 342.693 305.663Z" fill="#FEBB00"/>
<path d="M366.659 337.909C364.825 337.909 362.972 337.669 361.151 337.196C359.19 336.686 357.823 335.046 357.567 333.156C355.903 334.063 353.787 333.943 352.215 332.685C349.552 330.555 347.353 327.874 345.854 324.932C344.924 323.108 345.261 320.971 346.539 319.524C344.816 318.874 343.541 317.266 343.411 315.31C343.369 314.68 343.338 314.058 343.308 313.456C343.262 312.536 343.219 311.667 343.141 310.828C343.048 309.829 342.907 308.985 342.712 308.25C342.024 305.663 343.563 303.009 346.151 302.321C348.738 301.633 351.393 303.173 352.081 305.759C352.417 307.022 352.65 308.387 352.794 309.931C352.891 310.977 352.942 311.993 352.99 312.975C353.02 313.562 353.047 314.117 353.084 314.666C353.173 316.01 352.706 317.262 351.879 318.197C352.972 318.608 353.92 319.411 354.492 320.533C355.37 322.257 356.678 323.843 358.272 325.118C359.285 325.929 359.887 327.063 360.047 328.254C361.092 327.683 362.348 327.494 363.592 327.817C364.87 328.149 366.172 328.276 367.406 328.193C368.016 328.152 368.633 328.06 369.242 327.919C370.471 327.635 371.7 327.844 372.718 328.419C372.895 327.244 373.503 326.131 374.51 325.338C376.102 324.082 377.438 322.493 378.374 320.742C378.96 319.644 379.909 318.864 380.994 318.47C380.349 317.715 379.93 316.755 379.85 315.688C379.772 314.633 379.054 311.98 378.42 309.639L378.182 308.757C377.485 306.173 379.016 303.514 381.601 302.818C384.186 302.121 386.846 303.652 387.543 306.236L387.778 307.108C388.633 310.266 389.371 312.993 389.518 314.968C389.683 317.183 388.332 319.16 386.342 319.883C387.594 321.354 387.891 323.499 386.925 325.307C385.365 328.228 383.147 330.87 380.513 332.947C378.923 334.2 376.792 334.3 375.131 333.365C374.842 335.27 373.424 336.898 371.432 337.36C370.317 337.618 369.18 337.787 368.054 337.863C367.595 337.893 367.125 337.909 366.659 337.909Z" fill="#FEBB00"/>
<path d="M381.066 304.5C378.688 304.5 376.612 302.749 376.272 300.327C375.912 297.765 375.758 294.523 377.777 292.172C379.522 290.143 382.582 289.91 384.613 291.655C386.358 293.153 386.774 295.623 385.75 297.576C385.751 297.831 385.773 298.276 385.872 298.98C386.244 301.63 384.397 304.08 381.746 304.452C381.517 304.484 381.29 304.5 381.066 304.5ZM385.133 298.486C385.132 298.486 385.132 298.487 385.131 298.488C385.132 298.487 385.132 298.486 385.133 298.486Z" fill="#FEBB00"/>
<path d="M282.211 311.378C280.639 311.378 279.098 310.616 278.165 309.208C276.687 306.977 277.298 303.97 279.53 302.493C280.624 301.769 281.684 300.983 282.682 300.156C284.743 298.449 287.799 298.735 289.507 300.796C291.215 302.857 290.928 305.911 288.867 307.619C287.604 308.665 286.264 309.658 284.883 310.573C284.059 311.118 283.13 311.378 282.211 311.378Z" fill="#FEBB00"/>
<path d="M257.355 318.636C257.331 318.636 257.308 318.636 257.283 318.636C254.704 318.599 252.128 318.349 249.627 317.896C248.883 317.761 248.158 317.603 247.47 317.427C245.186 316.84 243.702 314.719 243.837 312.45C241.635 313.765 238.765 313.135 237.324 310.979C236.981 310.465 236.674 309.921 236.413 309.364C235.645 307.723 235.256 305.928 235.256 304.029C235.256 301.983 235.723 299.869 236.606 297.916C237.601 295.717 240.033 294.62 242.29 295.234C241.5 293.225 242.132 290.862 243.963 289.538C244.091 289.445 244.221 289.353 244.35 289.261C246.905 287.463 249.683 285.943 252.606 284.744C255.083 283.729 257.915 284.912 258.931 287.388C259.947 289.864 258.762 292.695 256.286 293.71C254.032 294.634 251.895 295.803 249.933 297.185C249.837 297.252 249.74 297.321 249.644 297.39C248.411 298.282 246.899 298.51 245.535 298.141C245.997 299.315 246.001 300.668 245.44 301.908C245.125 302.606 244.951 303.359 244.951 304.029C244.951 304.498 245.033 304.911 245.194 305.257C245.249 305.374 245.312 305.486 245.386 305.596C245.996 306.509 246.255 307.554 246.195 308.572C247.265 307.933 248.581 307.706 249.884 308.04C250.347 308.159 250.843 308.267 251.358 308.36C253.336 308.719 255.377 308.916 257.425 308.946C259.177 308.971 260.699 309.924 261.53 311.329C262.109 309.8 263.448 308.6 265.173 308.277C267.729 307.797 270.246 307.064 272.653 306.096C275.137 305.097 277.96 306.3 278.959 308.783C279.958 311.266 278.754 314.088 276.271 315.087C273.274 316.292 270.141 317.205 266.96 317.802C264.899 318.188 262.898 317.209 261.89 315.502C261.197 317.337 259.423 318.636 257.355 318.636Z" fill="#FEBB00"/>
<path d="M262.864 291.713C260.521 291.713 258.46 290.011 258.082 287.624C257.664 284.981 259.468 282.499 262.112 282.081C263.767 281.819 265.45 281.656 267.113 281.595C269.79 281.506 272.036 283.587 272.134 286.261C272.231 288.935 270.142 291.182 267.466 291.28C266.191 291.326 264.899 291.452 263.627 291.653C263.371 291.693 263.116 291.713 262.864 291.713Z" fill="#FEBB00"/>
<path d="M320.379 339.87C319.486 339.87 318.763 339.147 318.763 338.255V303.047C318.763 302.155 319.486 301.432 320.379 301.432C321.271 301.432 321.994 302.155 321.994 303.047V338.255C321.994 339.147 321.271 339.87 320.379 339.87Z" fill="#151E3F"/>
<path d="M320.273 325.767H290.002C289.11 325.767 288.387 325.044 288.387 324.152C288.387 323.26 289.11 322.537 290.002 322.537H320.273C321.165 322.537 321.888 323.26 321.888 324.152C321.888 325.044 321.165 325.767 320.273 325.767Z" fill="#151E3F"/>
<path d="M330.127 336.267C331.897 336.267 333.332 334.832 333.332 333.063C333.332 331.293 331.897 329.859 330.127 329.859C328.357 329.859 326.922 331.293 326.922 333.063C326.922 334.832 328.357 336.267 330.127 336.267Z" fill="#FEBB00"/>
<path d="M376.89 291.057C376.682 291.057 376.472 291.016 376.268 290.932C375.223 290.495 374.039 290.001 373.019 289.134C371.717 288.028 370.994 286.486 371.084 285.008C371.138 284.118 371.905 283.44 372.795 283.494C373.686 283.549 374.364 284.314 374.31 285.205C374.282 285.659 374.597 286.235 375.112 286.673C375.749 287.214 376.646 287.588 377.513 287.951C378.337 288.294 378.726 289.24 378.382 290.063C378.123 290.683 377.522 291.057 376.89 291.057Z" fill="#DB162F"/>
<path d="M381.707 289.129C381.406 289.129 381.101 289.045 380.829 288.869C380.081 288.383 379.868 287.383 380.354 286.634C381.372 285.067 381.889 283.176 381.809 281.308C381.771 280.417 382.463 279.664 383.354 279.626C384.246 279.586 384.999 280.279 385.037 281.17C385.146 283.703 384.445 286.268 383.064 288.394C382.754 288.87 382.236 289.129 381.707 289.129Z" fill="#DB162F"/>
<path d="M387.246 291.592C386.532 291.592 385.879 291.115 385.686 290.393C385.456 289.531 385.969 288.646 386.831 288.416C388.766 287.9 390.492 286.732 391.689 285.126C392.222 284.411 393.234 284.263 393.95 284.796C394.665 285.329 394.813 286.341 394.28 287.056C392.65 289.243 390.3 290.834 387.664 291.537C387.524 291.574 387.384 291.592 387.246 291.592Z" fill="#DB162F"/>
<path d="M272.7 284.034C272.235 284.034 271.775 283.835 271.455 283.45C270.885 282.764 270.98 281.745 271.667 281.176C274.581 278.759 278.421 277.454 282.205 277.595C283.097 277.629 283.793 278.378 283.759 279.27C283.726 280.161 282.973 280.854 282.084 280.823C279.086 280.711 276.04 281.746 273.731 283.662C273.429 283.912 273.063 284.034 272.7 284.034Z" fill="#DB162F"/>
<path d="M277.163 290.741C276.383 290.741 275.697 290.176 275.57 289.381C275.431 288.517 276.006 287.703 276.86 287.54C276.909 287.486 276.964 287.351 276.949 287.262C276.897 286.97 276.555 286.642 276.136 286.482C275.605 286.28 274.979 286.301 274.463 286.539C273.652 286.912 272.693 286.558 272.319 285.747C271.946 284.937 272.3 283.978 273.111 283.605C274.419 283.002 275.941 282.951 277.287 283.464C278.788 284.035 279.877 285.274 280.13 286.696C280.295 287.622 280.069 288.603 279.511 289.388C278.995 290.114 278.252 290.587 277.42 290.721C277.334 290.734 277.248 290.741 277.163 290.741Z" fill="#DB162F"/>
<path d="M275.512 295.037C274.976 295.037 274.439 294.93 273.94 294.709C273.124 294.347 272.756 293.393 273.118 292.578C273.48 291.763 274.434 291.395 275.25 291.756C275.498 291.866 275.866 291.794 276.055 291.599C276.243 291.404 276.301 291.034 276.182 290.79C275.982 290.38 275.288 290.129 274.633 290.231C273.751 290.368 272.925 289.765 272.788 288.884C272.651 288.002 273.254 287.177 274.136 287.04C276.222 286.715 278.258 287.675 279.087 289.374C279.8 290.835 279.509 292.672 278.381 293.842C277.631 294.619 276.573 295.037 275.512 295.037Z" fill="#DB162F"/>
<path d="M291.995 257.18C291.014 257.18 290.218 256.384 290.218 255.403V225.518C290.218 224.537 291.014 223.742 291.995 223.742C292.977 223.742 293.773 224.537 293.773 225.518V255.403C293.773 256.384 292.977 257.18 291.995 257.18Z" fill="#DB162F"/>
<path d="M326.734 256.546C325.752 256.546 324.957 255.75 324.957 254.769V225.357C324.957 224.376 325.752 223.58 326.734 223.58C327.715 223.58 328.511 224.376 328.511 225.357V254.769C328.511 255.75 327.715 256.546 326.734 256.546Z" fill="#DB162F"/>
<path d="M299.961 285.473C297.644 285.473 295.38 284.608 293.654 283.043C291.745 281.311 290.625 278.841 290.58 276.265C290.563 275.284 291.345 274.475 292.326 274.458C293.306 274.443 294.117 275.222 294.134 276.203C294.162 277.779 294.875 279.352 296.043 280.411C297.21 281.47 298.845 282.027 300.417 281.901C301.396 281.823 302.252 282.552 302.331 283.53C302.409 284.509 301.679 285.365 300.701 285.443C300.454 285.463 300.207 285.473 299.961 285.473Z" fill="#DB162F"/>
<path d="M324.795 326.85C323.814 326.85 323.018 326.054 323.018 325.073V303.208C323.018 302.227 323.814 301.432 324.795 301.432C325.777 301.432 326.572 302.227 326.572 303.208V325.073C326.572 326.054 325.777 326.85 324.795 326.85Z" fill="#DB162F"/>
<path d="M290.056 340.032C289.074 340.032 288.279 339.236 288.279 338.255V328.889C288.279 327.907 289.074 327.112 290.056 327.112C291.037 327.112 291.833 327.907 291.833 328.889V338.255C291.833 339.236 291.037 340.032 290.056 340.032Z" fill="#DB162F"/>
<path d="M308.643 330.667H290.056C289.074 330.667 288.279 329.871 288.279 328.89C288.279 327.909 289.074 327.113 290.056 327.113H308.643C309.625 327.113 310.421 327.909 310.421 328.89C310.421 329.871 309.625 330.667 308.643 330.667Z" fill="#DB162F"/>
<path d="M308.644 321.137H290.379C289.398 321.137 288.602 320.341 288.602 319.36C288.602 318.379 289.398 317.583 290.379 317.583H308.644C309.625 317.583 310.421 318.379 310.421 319.36C310.421 320.341 309.625 321.137 308.644 321.137Z" fill="#DB162F"/>
<path d="M244.802 295.521C244.469 295.521 244.132 295.427 243.832 295.231C243.01 294.694 242.779 293.593 243.317 292.772C245.552 289.354 249.3 286.958 253.341 286.363C254.312 286.22 255.215 286.891 255.358 287.862C255.502 288.832 254.83 289.735 253.859 289.878C250.808 290.328 247.979 292.136 246.292 294.716C245.951 295.238 245.382 295.521 244.802 295.521Z" fill="#FEBB00"/>
<path d="M247.837 316.323C247.403 316.323 246.968 316.165 246.626 315.846C245.275 314.587 245.244 312.294 246.559 310.838C247.468 309.832 248.9 309.289 250.49 309.346C251.402 309.38 252.25 309.591 252.998 309.778C253.187 309.825 253.375 309.872 253.564 309.916C254.154 310.053 254.904 310.191 255.462 310.041C256.41 309.787 257.385 310.349 257.639 311.296C257.894 312.244 257.332 313.218 256.384 313.473C255.064 313.827 253.754 313.608 252.76 313.377C252.553 313.329 252.345 313.277 252.138 313.226C251.502 313.067 250.901 312.918 250.36 312.898C249.847 312.878 249.391 313.005 249.198 313.22C249.176 313.243 249.156 313.299 249.148 313.345C249.77 314.022 249.775 315.074 249.138 315.757C248.788 316.133 248.313 316.323 247.837 316.323Z" fill="#FEBB00"/>
<path d="M281.401 309.457C281.029 309.457 280.654 309.341 280.334 309.1C278.899 308.021 278.631 305.818 279.737 304.19C280.547 302.996 281.806 302.387 282.638 301.984C283.317 301.655 283.949 301.349 284.241 300.96C284.831 300.176 285.945 300.018 286.73 300.607C287.514 301.197 287.672 302.311 287.083 303.095C286.273 304.172 285.122 304.729 284.198 305.177C283.538 305.496 282.933 305.81 282.678 306.186C282.641 306.241 282.619 306.319 282.612 306.379C283.272 306.99 283.376 308.014 282.823 308.749C282.473 309.213 281.941 309.457 281.401 309.457ZM282.612 306.447H282.614H282.612ZM282.471 306.261C282.471 306.261 282.472 306.261 282.472 306.262C282.472 306.261 282.471 306.261 282.471 306.261Z" fill="#FEBB00"/>
<path d="M344.177 301.493C343.737 301.493 343.297 301.331 342.953 301.004C342.244 300.331 341.276 299.943 340.297 299.941C340.294 299.941 340.291 299.941 340.289 299.941C339.313 299.941 338.347 300.324 337.637 300.992C336.922 301.665 335.797 301.631 335.124 300.917C334.451 300.202 334.485 299.078 335.2 298.405C336.563 297.122 338.417 296.387 340.289 296.387C340.294 296.387 340.3 296.387 340.305 296.387C342.183 296.391 344.04 297.135 345.401 298.428C346.113 299.104 346.142 300.229 345.466 300.94C345.116 301.307 344.647 301.493 344.177 301.493Z" fill="#FEBB00"/>
<path d="M353.563 330.754C353.342 330.754 353.117 330.713 352.9 330.625C349.575 329.287 347.241 325.982 347.091 322.402C347.051 321.422 347.813 320.594 348.793 320.553C349.774 320.513 350.602 321.274 350.643 322.255C350.734 324.429 352.208 326.516 354.227 327.329C355.138 327.695 355.579 328.73 355.212 329.64C354.933 330.333 354.267 330.754 353.563 330.754Z" fill="#FEBB00"/>
<path d="M376.021 332.404C375.438 332.404 374.867 332.118 374.527 331.592C373.833 330.521 373.77 329.102 374.359 327.798C374.785 326.854 375.457 326.142 375.998 325.569L380.98 320.292C381.653 319.578 382.778 319.545 383.492 320.219C384.206 320.893 384.239 322.017 383.565 322.731L378.583 328.008C378.188 328.426 377.78 328.859 377.599 329.259C377.508 329.461 377.509 329.627 377.52 329.677C378.042 330.499 377.804 331.589 376.985 332.119C376.686 332.312 376.351 332.404 376.021 332.404Z" fill="#FEBB00"/>
<path d="M380.196 303.27C379.685 303.27 379.178 303.051 378.826 302.627C376.705 300.069 376.467 296.181 378.261 293.383C378.79 292.557 379.89 292.317 380.716 292.846C381.542 293.375 381.783 294.474 381.254 295.3C380.288 296.807 380.421 298.982 381.563 300.359C382.19 301.115 382.085 302.235 381.329 302.861C380.997 303.136 380.595 303.27 380.196 303.27Z" fill="#FEBB00"/>
<path d="M311.882 295.456H307.883C306.902 295.456 306.106 294.66 306.106 293.679C306.106 292.698 306.902 291.902 307.883 291.902H311.882C312.864 291.902 313.659 292.698 313.659 293.679C313.659 294.66 312.864 295.456 311.882 295.456Z" fill="#FEBB00"/>
<path d="M315.75 291.364H313.916C312.934 291.364 312.138 290.568 312.138 289.587C312.138 288.606 312.934 287.811 313.916 287.811H315.75C316.731 287.811 317.527 288.606 317.527 289.587C317.527 290.568 316.732 291.364 315.75 291.364Z" fill="#FEBB00"/>
<path d="M315.005 299.44H313.161C312.18 299.44 311.384 298.645 311.384 297.663C311.384 296.682 312.18 295.887 313.161 295.887H315.005C315.987 295.887 316.782 296.682 316.782 297.663C316.782 298.645 315.987 299.44 315.005 299.44Z" fill="#FEBB00"/>
</g>
<path d="M401.058 236.562C401.058 249.046 393.11 261.36 383.7 269.45C383.3 269.796 382.796 269.999 382.268 270.027C381.74 270.054 381.218 269.904 380.784 269.601C370.381 262.278 362.015 248.24 363.022 235.337C363.286 230.829 365.663 225.791 368.832 222.609C372.794 218.896 377.547 216.244 383.093 216.775C391.016 217.57 401.058 224.887 401.058 236.562Z" fill="#DB162F"/>
<path d="M370.572 229.359C372.54 224.719 377.424 221.779 382.271 221.809C387.063 221.838 391.818 224.706 393.992 229.181C396.166 233.655 395.494 239.556 392.167 243.171C387.647 248.083 379.671 248.01 374.322 244.621C369.99 241.877 368.653 233.88 370.572 229.359Z" fill="#FFF8E3"/>
<path d="M381.621 266.408C381.061 266.408 380.516 266.229 380.064 265.896C375.543 262.577 372.088 258.365 370.073 253.717C369.934 253.398 369.86 253.054 369.853 252.706C369.847 252.358 369.909 252.012 370.036 251.688C370.293 251.034 370.797 250.508 371.439 250.227C372.082 249.947 372.809 249.933 373.46 250.191C374.112 250.448 374.635 250.955 374.915 251.6C376.557 255.387 379.416 258.85 383.182 261.615C383.632 261.945 383.966 262.41 384.137 262.942C384.307 263.475 384.306 264.048 384.133 264.58C383.96 265.112 383.624 265.575 383.172 265.903C382.721 266.231 382.178 266.408 381.621 266.408V266.408Z" fill="#DB162F"/>
</svg>
