<svg width="640" height="640" viewBox="0 0 640 640" fill="none" xmlns="http://www.w3.org/2000/svg">
<circle cx="320" cy="320" r="220" fill="#7CB518"/>
<g clip-path="url(#clip0)">
<path d="M281.98 212.538H234.272L223.538 237.586L234.27 260.845H283.288L281.98 212.538Z" fill="#151E3F"/>
<path d="M421.131 285.929C421.461 269.122 421.893 251.616 417.149 235.318C414.09 224.804 407.422 207.229 395.807 204.252C387.456 202.111 375.85 203.735 367.274 203.535C359.171 203.351 351.069 203.195 342.966 203.067C329.974 202.866 316.976 202.76 303.982 202.929C284.849 203.176 265.779 204.266 246.734 206.048L246.204 206.07C244.856 205.582 243.378 205.592 242.037 206.099C226.202 211.498 215.946 229.273 219.999 245.761C221.782 252.978 226.363 259.642 234.192 260.66C240.979 261.54 249.178 258.234 251.976 251.692C255.319 243.869 243.811 237.052 240.433 244.946C240.247 245.5 239.927 246 239.5 246.4C239.073 246.8 238.554 247.088 237.989 247.237C237.423 247.387 236.83 247.393 236.261 247.257C235.693 247.12 235.167 246.844 234.731 246.454C232.14 244.326 232.254 238.493 232.699 235.597C233.174 232.223 234.455 229.014 236.433 226.24C238.411 223.466 241.028 221.21 244.062 219.662C245.531 219.519 246.999 219.416 248.47 219.287C275.289 221.116 258.433 303.985 255.568 317.411C252.34 332.537 252.56 347.731 252.449 363.126C252.342 379.416 252.712 395.6 256.773 411.475C257.182 412.875 258.029 414.106 259.19 414.989C260.35 415.871 261.764 416.358 263.222 416.377C313.732 417.599 364.268 415.515 414.507 410.139C415.077 410.07 415.637 409.935 416.176 409.737C416.942 409.719 417.694 409.533 418.381 409.192C419.067 408.851 419.67 408.364 420.148 407.765C420.626 407.166 420.968 406.47 421.148 405.725C421.328 404.981 421.343 404.205 421.191 403.454C416.029 364.341 420.362 325.145 421.131 285.929Z" fill="#FFF8E3"/>
<path d="M398.701 425.911C393.29 407.921 389.598 389.458 387.675 370.771C387.551 369.638 387.152 368.552 386.512 367.609C385.978 366.592 385.188 365.731 384.22 365.113C383.251 364.495 382.138 364.141 380.99 364.087L362.905 362.763C361.442 362.762 360.02 363.241 358.856 364.127C357.691 365.012 356.849 366.255 356.459 367.665C353.371 388.551 356.194 409.216 354.586 430.173C354.066 436.958 363.943 439.003 367.112 433.515C369.311 429.69 371.697 423.872 374.64 419.302C379.629 423.83 384.221 429.393 389.539 433.455C394.274 437.071 400.314 431.105 398.701 425.911Z" fill="#DB162F"/>
<path d="M292.2 263.073C326.472 260.121 360.379 261.246 394.691 263.073C403.289 263.519 403.264 250.15 394.691 249.705C360.379 247.878 326.472 246.752 292.2 249.705C283.693 250.438 283.618 263.813 292.2 263.073V263.073Z" fill="#151E3F"/>
<path d="M292.2 298.722C326.218 297.428 360.697 296.579 394.691 298.722C403.282 299.264 403.251 285.893 394.691 285.354C360.697 283.21 326.218 284.059 292.2 285.354C283.626 285.679 283.584 299.05 292.2 298.722V298.722Z" fill="#151E3F"/>
<path d="M319.536 325.223C312.529 330.851 306.109 337.174 300.375 344.094C298.019 346.964 295.77 349.919 293.628 352.96C293.118 353.684 292.652 354.435 292.155 355.17C291.391 353.252 290.714 351.382 290.076 349.936C286.592 342.091 275.068 348.883 278.533 356.683C280.723 361.609 282.949 368.539 287.082 372.213C288.155 373.209 289.513 373.846 290.965 374.033C292.418 374.22 293.892 373.949 295.183 373.258C297.343 371.921 299.036 369.95 300.031 367.614C302.669 363.244 305.555 359.029 308.676 354.99C314.674 347.486 321.487 340.673 328.99 334.674C335.672 329.253 326.162 319.846 319.536 325.223Z" fill="#DB162F"/>
<path d="M394.457 350.357C394.29 349.82 394.06 349.305 393.773 348.822C390.665 343.617 387.507 338.35 381.565 336.102C374.797 333.663 367.364 333.822 360.706 336.548C347.703 341.995 338.702 357.046 348.211 369.746C355.742 379.801 370.017 388.976 382.953 384.366C395.889 379.757 399.33 361.905 394.457 350.357Z" fill="#FEBB00"/>
</g>
<defs>
<clipPath id="clip0">
<rect width="202.647" height="233.824" fill="white" transform="translate(218.888 202.843)"/>
</clipPath>
</defs>
</svg>
