<svg width="640" height="640" viewBox="0 0 640 640" fill="none" xmlns="http://www.w3.org/2000/svg">
<circle cx="320" cy="320" r="220" fill="#330036"/>
<g clip-path="url(#clip0)">
<path d="M238.327 263.461C240.739 251.082 243.37 238.205 251.085 228.228C258.893 218.134 271.158 212.22 283.685 209.785C296.211 207.349 309.119 208.065 321.836 209.129C344.8 211.05 367.672 214.073 390.347 218.184C402.632 220.411 416.304 223.948 422.573 234.746C427.656 243.502 426.249 254.434 424.508 264.409C416.828 308.404 405.654 351.788 391.127 394.02C387.692 404.008 383.783 414.365 375.892 421.384C365.569 430.567 350.673 432.127 336.858 432.347C302.539 432.891 268.138 427.836 235.427 417.44C203.101 407.167 215.393 381.173 220.412 355.412C226.384 324.761 232.355 294.111 238.327 263.461Z" fill="#DB162F"/>
<path d="M234.745 383.193C239.337 376.894 246.679 373.342 254.105 371.995C261.532 370.649 269.137 371.28 276.644 371.959C309.471 374.929 342.228 378.747 374.877 383.408C377.336 383.759 379.87 384.143 382 385.486C387.81 389.152 388.014 398.271 385.078 404.705C380.413 414.925 370.167 421.307 359.655 423.711C349.143 426.116 338.232 425.117 327.518 424.106C308.212 422.284 288.907 420.463 269.601 418.641C258.529 417.596 246.275 416.455 236.705 409.89C228.38 404.18 229.064 390.986 234.745 383.193Z" fill="#EAE2C2"/>
<path d="M289.303 260.558C289.876 258.034 290.523 255.372 292.337 253.525C295.224 250.583 299.923 250.729 304.031 251.08C328.488 253.171 352.945 255.263 377.403 257.354C380.525 257.621 384.063 258.117 385.852 260.69C387.664 263.296 386.851 266.833 385.968 269.883C383.299 279.097 380.632 288.312 377.963 297.526C356.791 295.449 335.62 293.372 314.448 291.295C309.197 290.78 303.947 290.264 298.696 289.749C295.768 289.462 286.61 290.126 284.636 287.837C281.008 283.629 288.129 265.722 289.303 260.558Z" fill="#FEBB00"/>
<path d="M377.967 303.719C377.765 303.719 377.562 303.709 377.358 303.689L298.091 295.912C297.623 295.866 296.469 295.854 295.451 295.843C288.306 295.766 283.012 295.438 279.945 291.88C275.268 286.455 277.777 276.907 281.831 264.009C282.457 262.018 283.048 260.137 283.264 259.186C283.883 256.461 284.819 252.344 287.916 249.188C293.077 243.93 300.831 244.592 304.557 244.911L377.929 251.186C380.985 251.447 387.343 251.99 390.935 257.156C394.58 262.399 392.779 268.617 391.914 271.606L383.91 299.249C383.138 301.917 380.696 303.719 377.967 303.719ZM289.787 283.217C291.603 283.417 294.246 283.446 295.583 283.459C297.038 283.475 298.295 283.489 299.3 283.587L373.447 290.862L380.02 268.161C380.741 265.669 380.798 264.655 380.736 264.245C380.378 264.045 379.423 263.742 376.875 263.524L303.503 257.25C302.1 257.129 297.832 256.764 296.755 257.862C296.118 258.512 295.65 260.569 295.34 261.931C295.013 263.371 294.409 265.292 293.645 267.723C292.587 271.087 290.013 279.274 289.787 283.217Z" fill="#151E3F"/>
<path d="M238.618 347.009C238.062 347.009 237.499 346.953 236.933 346.835C232.469 345.909 229.6 341.54 230.526 337.075L247.419 255.62C248.903 248.466 250.749 239.563 256.02 232.125C261.668 224.156 272.455 217.59 283.826 220.883C288.206 222.151 290.728 226.729 289.46 231.109C288.191 235.489 283.613 238.011 279.233 236.743C276.328 235.901 272.048 238.066 269.492 241.672C266.216 246.295 264.88 252.74 263.587 258.973L246.693 340.428C245.885 344.327 242.449 347.008 238.618 347.009Z" fill="#F74B61"/>
</g>
<defs>
<clipPath id="clip0">
<rect width="212.367" height="224.241" fill="white" transform="translate(213.816 208.145)"/>
</clipPath>
</defs>
</svg>
