<svg width="50" height="50" viewBox="0 0 50 50" fill="none" xmlns="http://www.w3.org/2000/svg">
<path d="M24.9998 8.3335C24.9998 8.3335 11.9697 8.33343 8.71973 9.20426C6.92598 9.68343 5.51644 11.0951 5.03727 12.8867C4.16644 16.1367 4.1665 25.0002 4.1665 25.0002C4.1665 25.0002 4.16644 33.8636 5.03727 37.1136C5.51644 38.9074 6.92806 40.3169 8.71973 40.7961C11.9697 41.6669 24.9998 41.6668 24.9998 41.6668C24.9998 41.6668 38.0299 41.6669 41.2799 40.7961C43.0716 40.3169 44.4832 38.9053 44.9624 37.1136C45.8332 33.8636 45.8332 25.0002 45.8332 25.0002C45.8332 25.0002 45.8332 16.1367 44.9624 12.8867C44.4832 11.0951 43.0716 9.68343 41.2799 9.20426C38.0299 8.33343 24.9998 8.3335 24.9998 8.3335ZM24.9998 12.5002C31.004 12.5002 38.5225 12.7785 40.2017 13.2285C40.5537 13.3223 40.8423 13.6108 40.9381 13.965C41.4402 15.8358 41.6665 21.546 41.6665 25.0002C41.6665 28.4543 41.4402 34.1624 40.9381 36.0353C40.8444 36.3874 40.5558 36.676 40.2017 36.7718C38.5246 37.2218 31.004 37.5002 24.9998 37.5002C18.9978 37.5002 11.4793 37.2218 9.79801 36.7718C9.44593 36.6781 9.15736 36.3895 9.06152 36.0353C8.55944 34.1645 8.33317 28.4543 8.33317 25.0002C8.33317 21.546 8.55944 15.8359 9.06152 13.9609C9.15527 13.6109 9.44385 13.3223 9.79801 13.2285C11.4751 12.7785 18.9957 12.5002 24.9998 12.5002ZM20.8332 17.7817V32.2186L33.3332 25.0002L20.8332 17.7817Z" fill="#DB162F"/>
</svg>
