<svg id="Layer_3" enable-background="new 0 0 64 64" height="512" viewBox="0 0 64 64" width="512" xmlns="http://www.w3.org/2000/svg"><path d="m4 56h56v6h-56z" fill="#758190"/><path d="m49.528 52h-35.056c-2.741 0-5.246 1.549-6.472 4h48c-1.226-2.451-3.731-4-6.472-4z" fill="#c18e59"/><path d="m49.528 52h-35.056c-2.741 0-5.246-1.549-6.472-4h48c-1.226 2.451-3.731 4-6.472 4z" fill="#976947"/><path d="m52 48v-4h-40v4" fill="#758190"/><path d="m27 16v-4h10v4" fill="#c1c8d1"/><path d="m25 20v-4h14v4" fill="#a8b0bc"/><path d="m30 12 2-10 2 10" fill="#a8b0bc"/><path d="m50 44-.311-.544c-2.417-4.231-3.689-9.019-3.689-13.892v-.564c0-4.971-4.029-9-9-9h-10c-4.971 0-9 4.029-9 9v.564c0 4.873-1.272 9.661-3.689 13.892l-.311.544" fill="#a8b0bc"/><path d="m25 41c9.941 0 18-6.94 18-15.5 0-1.25-.191-2.46-.515-3.624-1.52-1.172-3.418-1.876-5.485-1.876h-10c-4.971 0-9 4.029-9 9v.564c0 3.257-.581 6.472-1.68 9.513 2.575 1.223 5.532 1.923 8.68 1.923z" fill="#c1c8d1"/><g fill="#758190"><path d="m22.879 24.879h4.243v4.243h-4.243z" transform="matrix(.707 -.707 .707 .707 -11.77 25.586)"/><path d="m36.879 24.879h4.243v4.243h-4.243z" transform="matrix(.707 -.707 .707 .707 -7.669 35.485)"/><path d="m22.879 34.879h4.243v4.243h-4.243z" transform="matrix(.707 -.707 .707 .707 -18.841 28.515)"/><path d="m36.879 34.879h4.243v4.243h-4.243z" transform="matrix(.707 -.707 .707 .707 -14.74 38.414)"/><path d="m29.879 29.879h4.243v4.243h-4.243z" transform="matrix(.707 -.707 .707 .707 -13.255 32)"/></g><path d="m15 6c-.034 0-.066.009-.1.01-.459-2.287-2.478-4.01-4.9-4.01s-4.441 1.723-4.9 4.01c-.034-.001-.066-.01-.1-.01-1.657 0-3 1.343-3 3s1.343 3 3 3c.841 0 1.598-.348 2.143-.905.811.567 1.793.905 2.857.905s2.046-.338 2.857-.905c.545.557 1.302.905 2.143.905 1.657 0 3-1.343 3-3s-1.343-3-3-3z" fill="#a1cdfb"/><path d="m59 6c-.034 0-.066.009-.1.01-.459-2.287-2.478-4.01-4.9-4.01s-4.441 1.723-4.9 4.01c-.034-.001-.066-.01-.1-.01-1.657 0-3 1.343-3 3s1.343 3 3 3c.841 0 1.598-.348 2.143-.905.811.567 1.793.905 2.857.905s2.046-.338 2.857-.905c.545.557 1.302.905 2.143.905 1.657 0 3-1.343 3-3s-1.343-3-3-3z" fill="#a1cdfb"/></svg>