<svg height="512" viewBox="0 0 128 128" width="512" xmlns="http://www.w3.org/2000/svg"><g><path d="m1.75 99.83h49.875v14.31h-49.875z" fill="#ffc080"/><path d="m35.125 80.705h-8.813a12.313 12.313 0 0 1 -12.312-12.313 14 14 0 0 0 12.793 19.686h3.644v11.752h21.188v-19.125z" fill="#e69f6e"/><path d="m30.2 64.52a10.42 10.42 0 0 1 -10.415-10.42 11.847 11.847 0 0 0 10.826 16.66h1.082v9.945h19.932v-16.185z" fill="#995a4d"/><path d="m35.208 48.335a10.419 10.419 0 0 1 -10.419-10.419 11.847 11.847 0 0 0 10.826 16.659h1.085v9.945h14.925v-16.185z" fill="#e69f6e"/><path d="m39.211 32.151a10.42 10.42 0 0 1 -10.419-10.42 11.847 11.847 0 0 0 10.826 16.659h1.082v9.945h10.925v-16.184z" fill="#995a4d"/><path d="m17.469 88.078h12.968a0 0 0 0 1 0 0v11.752a0 0 0 0 1 0 0h-16.968a0 0 0 0 1 0 0v-7.752a4 4 0 0 1 4-4z" fill="#995a4d"/><path d="m39.211 32.151 5.162-18.412h7.252v18.412z" fill="#e69f6e"/><path d="m76.375 99.83h49.875v14.31h-49.875z" fill="#ffc080" transform="matrix(-1 0 0 -1 202.625 213.969)"/><path d="m92.875 80.705h8.812a12.313 12.313 0 0 0 12.313-12.313 14 14 0 0 1 -12.793 19.686h-3.645v11.752h-21.187v-19.125z" fill="#e69f6e"/><path d="m97.8 64.52a10.42 10.42 0 0 0 10.415-10.42 11.847 11.847 0 0 1 -10.826 16.66h-1.082v9.945h-19.932v-16.185z" fill="#995a4d"/><path d="m92.792 48.335a10.419 10.419 0 0 0 10.419-10.419 11.847 11.847 0 0 1 -10.826 16.659h-1.085v9.945h-14.925v-16.185z" fill="#e69f6e"/><path d="m88.789 32.151a10.42 10.42 0 0 0 10.419-10.42 11.847 11.847 0 0 1 -10.826 16.659h-1.082v9.945h-10.925v-16.184z" fill="#995a4d"/><path d="m97.562 88.078h16.969a0 0 0 0 1 0 0v11.752a0 0 0 0 1 0 0h-12.969a4 4 0 0 1 -4-4v-7.752a0 0 0 0 1 0 0z" fill="#995a4d" transform="matrix(-1 0 0 -1 212.094 187.908)"/><path d="m88.789 32.151-5.162-18.412h-7.252v18.412z" fill="#e69f6e"/></g></svg>