<svg id="Capa_1" enable-background="new 0 0 496.997 496.997" height="512" viewBox="0 0 496.997 496.997" width="512" xmlns="http://www.w3.org/2000/svg"><g><g><path d="m87.527 461.4c-4.142 0-7.5-3.358-7.5-7.5v-76.64l15-8.862v85.502c0 4.142-3.358 7.5-7.5 7.5z" fill="#9e9797"/><path d="m141.397 461.4c-4.142 0-7.5-3.358-7.5-7.5v-85.502h15v85.502c0 4.142-3.358 7.5-7.5 7.5z" fill="#b9acac"/><path d="m355.597 461.4c-4.142 0-7.5-3.358-7.5-7.5v-85.502h15v85.502c0 4.142-3.358 7.5-7.5 7.5z" fill="#b9acac"/><path d="m409.466 461.4c-4.142 0-7.5-3.358-7.5-7.5v-85.502l15 8.862v76.64c0 4.142-3.358 7.5-7.5 7.5z" fill="#9e9797"/></g><path d="m313.617 461.398h-130.24c-4.85 0-8.54-4.36-7.74-9.14l2.03-12.08 2.51-15 2.07-12.31 2.51-15 3.46-20.61 60.28-12.24 43.29 8.79 16.99 3.45 3.46 20.61 2.51 15 2.07 12.31 2.51 15 2.03 12.08c.8 4.78-2.89 9.14-7.74 9.14z" fill="#a6e7f0"/><path d="m313.617 461.398h-22.53c4.85 0 8.54-4.36 7.74-9.14l-12.58-75 5.54-3.45 16.99 3.45 3.46 20.61 2.51 15 2.07 12.31 2.51 15 2.03 12.08c.8 4.78-2.89 9.14-7.74 9.14z" fill="#6bd9e7"/><g><path d="m319.327 440.178h-141.66l2.51-15h136.64z" fill="#6bd9e7"/></g><g><path d="m314.747 412.869h-132.5l2.51-15h127.48z" fill="#6bd9e7"/></g><path d="m85.997 232.878-5.97 22.17-29.52-14.54-34.55-17.01c-5.51-2.71-6.55-10.12-2-14.24l10.18-9.23 9.33-8.46 23.62 1.51 22.94 17.99z" fill="#b9acac"/><path d="m85.997 232.878-5.97 22.17-29.52-14.54v-22.03c0-4.49-2.7-8.54-6.85-10.28l-19.52-8.17 9.33-8.46 23.62 1.51 22.94 17.99z" fill="#9e9797"/><path d="m160.037 210.948-21.87 3-17.63 2.41-40.51-5.29-46.56-19.5-28.4-102.13-4.85-17.46c-1.41-5.05 4.36-9.03 8.59-5.93l28.05 20.65c2.61 1.92 5.68 3.13 8.9 3.51l66.16 7.88z" fill="#b9acac"/><path d="m160.037 210.948-21.87 3-6.5-2.96-34.46-49.12c-3.05-4.5-5.12-9.59-6.08-14.95l-7.52-42c-.72-4.05-4.03-7.14-8.12-7.6l-70.42-7.88-4.85-17.46c-1.41-5.05 4.36-9.03 8.59-5.93l28.05 20.65c2.61 1.92 5.68 3.13 8.9 3.51l66.16 7.88z" fill="#878383"/><path d="m222.977 100.428v57.36l-62.94 53.16-14.44-21.28v-.01l-18.86-27.79c-3.05-4.5-5.13-9.59-6.08-14.95l-13.1-73.2-3.16-17.65c-.9-5.03 4.93-8.47 8.9-5.26l41.17 33.24c3.66 2.96 7.99 4.97 12.61 5.84z" fill="#9e9797"/><path d="m222.977 100.428v57.36l-62.94 53.16-14.44-21.28v-.01l30.96-43.71c3.15-4.45 5.59-9.37 7.21-14.57l7.38-23.59c1.22-3.92-1.24-8.03-5.27-8.79l-48.21-9.09c-4.69-.89-9.09-2.94-12.78-5.97l-11.59-9.5c-1.8-1.45-3.98-1.53-5.74-.72l-3.16-17.65c-.9-5.03 4.93-8.47 8.9-5.26l41.17 33.24c3.66 2.96 7.99 4.97 12.61 5.84z" fill="#878383"/><path d="m416.966 255.046 64.074-31.551c5.503-2.71 6.542-10.114 1.998-14.234l-19.512-17.691-28.395 6.391-18.165 13.105-5.861 18.054z" fill="#b9acac"/><path d="m483.038 209.26-19.512-17.691-14.134 3.181-6.063 5.276 10.184 9.234c4.544 4.12 3.505 11.524-1.998 14.234l-34.549 17.013-2.427 3.804 2.427 10.734 64.074-31.551c5.503-2.709 6.543-10.114 1.998-14.234z" fill="#9e9797"/><path d="m385.08 98.091 66.161-7.879c3.22-.384 6.286-1.595 8.898-3.518l28.052-20.641c4.225-3.109 9.996.872 8.591 5.926l-33.255 119.591-46.56 19.496-41.901 6.791-38.11-6.908z" fill="#b9acac"/><path d="m488.19 66.052-24.247 17.842-28.17 101.304c-1.119 4.023-4.019 7.312-7.871 8.925l-40.359 16.899 6.898 4.28 22.525-4.237 46.56-19.496 33.255-119.591c1.406-5.053-4.366-9.034-8.591-5.926z" fill="#9e9797"/><path d="m274.021 100.43 55.891-10.544c4.623-.872 8.959-2.876 12.619-5.832l41.164-33.248c3.975-3.211 9.804.237 8.904 5.267l-16.257 90.85c-.958 5.352-3.03 10.444-6.083 14.943l-33.302 49.083-58.31-56.537z" fill="#9e9797"/><path d="m383.695 50.805-28.203 22.78c2.118-.732 4.242 1.085 3.848 3.291l-12.523 70.047c-.958 5.352-3.03 10.444-6.083 14.943l-20.759 32.618 16.982 16.465 33.302-49.083c3.053-4.499 5.125-9.591 6.083-14.943l16.257-90.85c.9-5.031-4.929-8.479-8.904-5.268z" fill="#878383"/><path d="m283.697 131.375-28.381-90.765c-2.09-6.684-11.549-6.684-13.639 0l-28.381 90.765c-1.628 5.205-4.062 10.123-7.215 14.574l-46.043 65 88.459 13.665 88.459-13.665-46.043-65c-3.153-4.451-5.588-9.369-7.216-14.574z" fill="#9e9797"/><path d="m283.697 131.375-28.381-90.765c-2.09-6.684-11.549-6.684-13.639 0l-10.645 34.045c2.894-.008 5.793 1.662 6.84 5.011l16.301 51.765c1.628 5.168 4.051 10.052 7.183 14.473l47.42 69.398 28.179-4.353-46.043-65c-3.152-4.451-5.587-9.369-7.215-14.574z" fill="#878383"/><path d="m416.966 377.259h-108.189l-60.28-12.24-60.28 12.24h-108.19v-166.193h108.19l60.28 13.548 60.279-13.548h108.19z" fill="#f6a96c"/><path d="m394.442 211.066h22.525v166.194h-22.525z" fill="#ea9b58"/><path d="m188.217 211.066h120.559v166.194h-120.559z" fill="#ffe5c2"/><path d="m286.252 211.066h22.525v166.194h-22.525z" fill="#fed2a4"/><path d="m152.737 266.338v54.69c0 2.96-2.4 5.36-5.36 5.36h-26.96c-2.96 0-5.36-2.4-5.36-5.36v-54.69c0-2.97 2.4-5.37 5.36-5.37h26.96c2.96 0 5.36 2.401 5.36 5.37z" fill="#a6e7f0"/><path d="m381.937 266.338v54.69c0 2.96-2.4 5.36-5.36 5.36h-26.96c-2.96 0-5.36-2.4-5.36-5.36v-54.69c0-2.97 2.4-5.37 5.36-5.37h26.96c2.96 0 5.36 2.401 5.36 5.37z" fill="#a6e7f0"/><g><g><path d="m218.348 333.892c-4.143 0-7.5-3.357-7.5-7.5v-56.674c0-4.143 3.357-7.5 7.5-7.5s7.5 3.357 7.5 7.5v56.674c0 4.143-3.357 7.5-7.5 7.5z" fill="#fed2a4"/></g><g><path d="m248.497 344.715c-4.143 0-7.5-3.357-7.5-7.5v-82.17c0-4.143 3.357-7.5 7.5-7.5s7.5 3.357 7.5 7.5v82.17c0 4.143-3.358 7.5-7.5 7.5z" fill="#fed2a4"/></g><g><path d="m278.645 333.892c-4.143 0-7.5-3.357-7.5-7.5v-56.674c0-4.143 3.357-7.5 7.5-7.5s7.5 3.357 7.5 7.5v56.674c0 4.143-3.357 7.5-7.5 7.5z" fill="#fed2a4"/></g></g><path d="m344.257 286.658h37.68v15h-37.68z" fill="#6bd9e7"/><g><path d="m115.057 286.658h37.68v15h-37.68z" fill="#6bd9e7"/></g></g></svg>