<svg id="flat" height="512" viewBox="0 0 512 512" width="512" xmlns="http://www.w3.org/2000/svg"><path d="m40 448h432v40h-432z" fill="#d6bfae"/><path d="m24 416h464v32h-464z" fill="#e9d5c6"/><path d="m368 488-48-72h-128l-48 72z" fill="#f0dfd3"/><path d="m224 416h64v72h-64z" fill="#d6bfae"/><path d="m304 96-16 32h-64l-16-32z" fill="#f07f2f"/><path d="m240 96a79.63236 79.63236 0 0 1 8.97056-60.28421l7.02944-11.71579 7.02945 11.71576a79.63236 79.63236 0 0 1 8.97055 60.28424z" fill="#f6bb00"/><path d="m128 336h256v32h-256z" fill="#f0dfd3"/><path d="m296 416 64-48h-208l64 48z" fill="#e9d5c6"/><path d="m296 336-16-208h-48l-16 208z" fill="#e9d5c6"/><path d="m256 336v-208h24l16 208z" fill="#d6bfae"/></svg>