<svg id="Capa_1" enable-background="new 0 0 512.007 512.007" height="512" viewBox="0 0 512.007 512.007" width="512" xmlns="http://www.w3.org/2000/svg"><g><path d="m436.003 407.003v60h-360v-60h30v-151h300v151z" fill="#b3987d"/><path d="m436.003 407.003v60h-180v-211h150v151z" fill="#99705c"/><path d="m196.003 316.003h120v151h-120z" fill="#704c55"/><path d="m256.003 316.003h60v151h-60z" fill="#5b362a"/><path d="m301.003 88.302v17.701h-90v-17.701c0-30.899 12.599-61.899 34.501-83.8 2.699-2.999 6.599-4.499 10.499-4.499s7.8 1.5 10.499 4.499c21.902 21.901 34.501 52.901 34.501 83.8z" fill="#d9c7a3"/><path d="m301.003 106.003h-45v-106c3.9 0 7.8 1.5 10.499 4.499 21.901 21.901 34.501 52.901 34.501 83.8z" fill="#b3987d"/><path d="m331.003 106.003v60h-150v-60c0-8.401 6.599-15 15-15h120c8.401 0 15 6.599 15 15z" fill="#b3987d"/><path d="m331.003 106.003v60h-75v-75h60c8.401 0 15 6.599 15 15z" fill="#99705c"/><path d="m164.003 166.003h88v90h-88z" fill="#b3987d"/><path d="m260.003 166.003h81v90h-81z" fill="#99705c"/><path d="m436.003 392.003h-105v-61c5.7 0 11.1-3.3 13.5-8.701 2.699-5.1 1.8-11.4-2.1-15.899l-29.5-35.4h108.1c8.401 0 15-6.601 15-15 0-8.401-6.599-15-15-15h-60v-60h15c8.401 0 15-6.601 15-15 0-8.401-6.599-15-15-15h-240c-8.401 0-15 6.599-15 15 0 8.399 6.599 15 15 15h15v60h-60c-8.401 0-15 6.599-15 15 0 8.399 6.599 15 15 15h108.1l-29.5 35.4c-3.9 4.499-4.799 10.799-2.1 15.899 2.401 5.401 7.8 8.701 13.5 8.701v61h-105c-8.291 0-15 6.709-15 15v60c0 8.291 6.709 15 15 15s15-6.709 15-15v-45h30v45c0 8.291 6.709 15 15 15s15-6.709 15-15v-45h30v45h30v-136h45 45v136h30v-45h30v45c0 8.291 6.709 15 15 15s15-6.709 15-15v-45h30v45c0 8.291 6.709 15 15 15s15-6.709 15-15v-60c0-8.291-6.709-15-15-15zm-105-151h-43.1l-16.9-20.28v-39.72h60zm-150-60h60v39.72l-16.9 20.28h-43.1z" fill="#d9c7a3"/><path d="m436.003 392.003h-105v-61c5.7 0 11.1-3.3 13.5-8.701 2.699-5.1 1.8-11.4-2.1-15.899l-29.5-35.4h108.1c8.401 0 15-6.601 15-15 0-8.401-6.599-15-15-15h-60v-60h15c8.401 0 15-6.601 15-15 0-8.401-6.599-15-15-15h-120v180h45v136h30v-45h30v45c0 8.291 6.709 15 15 15s15-6.709 15-15v-45h30v45c0 8.291 6.709 15 15 15s15-6.709 15-15v-60c0-8.291-6.709-15-15-15zm-148.1-151-16.9-20.28v-39.72h60v60z" fill="#b3987d"/><path d="m45.003 452.003c-3.984 0-7.793 1.582-10.605 4.395l-30 30c-4.292 4.292-5.581 10.737-3.252 16.348 2.314 5.61 7.793 9.258 13.857 9.258h166l30-27.079-30-32.921h-136z" fill="#ffe6b3"/><path d="m507.609 486.398-30-30c-2.812-2.812-6.621-4.395-10.605-4.395h-136l-30 35.052 30 24.948h166c6.064 0 11.543-3.647 13.857-9.258 2.329-5.61 1.04-12.055-3.252-16.347z" fill="#ffca80"/><path d="m181.003 452.003h150v60h-150z" fill="#fff7cc"/><path d="m256.003 452.003h75v60h-75z" fill="#ffe6b3"/></g></svg>