<svg id="Capa_1" enable-background="new 0 0 494.579 494.579" height="512" viewBox="0 0 494.579 494.579" width="512" xmlns="http://www.w3.org/2000/svg"><g><g><path d="m247.286 139.447c-4.143 0-7.5-3.357-7.5-7.5v-51.177c0-4.143 3.357-7.5 7.5-7.5s7.5 3.357 7.5 7.5v51.178c0 4.142-3.357 7.499-7.5 7.499z" fill="#22b27f"/></g><g><path d="m113.832 156.898c-4.143 0-7.5-3.357-7.5-7.5v-118.411c0-4.143 3.357-7.5 7.5-7.5s7.5 3.357 7.5 7.5v118.411c0 4.143-3.357 7.5-7.5 7.5z" fill="#67c142"/></g><g><path d="m146.852 139.447c-4.143 0-7.5-3.357-7.5-7.5v-114.084c0-4.143 3.357-7.5 7.5-7.5s7.5 3.357 7.5 7.5v114.084c0 4.143-3.358 7.5-7.5 7.5z" fill="#67c142"/></g><g><path d="m179.881 128.196c-4.143 0-7.5-3.357-7.5-7.5v-103.668c0-4.143 3.357-7.5 7.5-7.5s7.5 3.357 7.5 7.5v103.668c0 4.143-3.357 7.5-7.5 7.5z" fill="#67c142"/></g><g><path d="m380.741 156.898c-4.143 0-7.5-3.357-7.5-7.5v-118.411c0-4.143 3.357-7.5 7.5-7.5s7.5 3.357 7.5 7.5v118.411c0 4.143-3.358 7.5-7.5 7.5z" fill="#67c142"/></g><g><path d="m347.721 139.447c-4.143 0-7.5-3.357-7.5-7.5v-24.217c0-4.143 3.357-7.5 7.5-7.5s7.5 3.357 7.5 7.5v24.217c0 4.143-3.357 7.5-7.5 7.5z" fill="#67c142"/></g><g><path d="m347.721 80.153c-4.143 0-7.5-3.357-7.5-7.5v-54.79c0-4.143 3.357-7.5 7.5-7.5s7.5 3.357 7.5 7.5v54.79c0 4.143-3.357 7.5-7.5 7.5z" fill="#67c142"/></g><g><path d="m314.692 128.196c-4.143 0-7.5-3.357-7.5-7.5v-103.668c0-4.143 3.357-7.5 7.5-7.5s7.5 3.357 7.5 7.5v103.668c0 4.143-3.358 7.5-7.5 7.5z" fill="#67c142"/></g><g><path d="m414.048 139.838v-45.056c0-38.738-31.516-70.254-70.254-70.254h-72.679c-4.143 0-7.5-3.357-7.5-7.5s3.357-7.5 7.5-7.5h72.679c47.009 0 85.254 38.245 85.254 85.254v57.844z" fill="#80d261"/></g><g><path d="m65.524 149.153v-54.371c0-47.009 38.245-85.254 85.254-85.254h68.929c4.143 0 7.5 3.357 7.5 7.5s-3.357 7.5-7.5 7.5h-68.929c-38.738 0-70.254 31.516-70.254 70.254v45.057z" fill="#80d261"/></g><path d="m462.481 284.389v66.51l-13.31 3.01-10.91 2.47-24.21-5.48v-66.51l24.21-7.6 13.34 4.19z" fill="#80d261"/><path d="m462.481 284.389v66.51l-13.31 3.01-8.77-3.01v-66.51l11.2-3.41z" fill="#67c142"/><path d="m476.581 386.069v100.91c0 4.2-3.4 7.6-7.59 7.6h-61.45c-4.2 0-7.6-3.4-7.6-7.6v-100.91l38.32-10.92z" fill="#80d261"/><path d="m476.581 386.069v100.91c0 4.2-3.4 7.6-7.59 7.6h-22.15c4.19 0 7.59-3.4 7.59-7.6v-107.22z" fill="#67c142"/><g><path d="m445.761 386.069v108.51h-15v-108.51c0-4.15 3.36-7.5 7.5-7.5 4.15 0 7.5 3.35 7.5 7.5z" fill="#67c142"/></g><path d="m472.566 350.9h-68.605c-7.231 0-13.627 4.692-15.798 11.589l-4.894 15.548c-1.253 3.979 1.719 8.029 5.89 8.029h98.21c4.171 0 7.143-4.05 5.89-8.029l-4.894-15.548c-2.172-6.897-8.567-11.589-15.799-11.589z" fill="#22b27f"/><path d="m487.371 386.069h-22.15c4.17 0 7.14-4.05 5.89-8.03l-4.9-15.55c-2.17-6.9-8.56-11.59-15.79-11.59h22.15c7.23 0 13.62 4.69 15.79 11.59l4.9 15.55c1.25 3.98-1.72 8.03-5.89 8.03z" fill="#09a76d"/><path d="m482.311 248.999c-.07.15-.15.3-.23.44l-19.6 34.95h-48.43l-19.61-34.95c-.08-.14-.16-.29-.23-.44-2.46-4.68-2.57-10.23-.33-15 .14-.31.29-.6.45-.9l19.72-36.35 24.215-7.427 24.215 7.427 19.72 36.35c.16.3.31.6.45.9 2.24 4.77 2.11 10.32-.34 15z" fill="#ffe177"/><path d="m462.479 196.748-13.329-4.087-8.749 4.087 19.72 36.351c2.77 5.106 2.726 11.275-.116 16.341l-19.604 34.946h22.079l19.604-34.946c2.842-5.066 2.886-11.236.116-16.341z" fill="#ffd15b"/><path d="m482.311 248.999h-88.1c-2.46-4.68-2.57-10.23-.33-15h88.77c2.24 4.77 2.11 10.32-.34 15z" fill="#ffd15b"/><path d="m80.526 284.389v66.51l-13.31 3.01-10.91 2.47-24.21-5.48v-66.51l24.21-7.6 13.34 4.19z" fill="#80d261"/><path d="m80.526 284.389v66.51l-13.31 3.01-8.77-3.01v-66.51l11.2-3.41z" fill="#67c142"/><path d="m94.627 386.069v100.91c0 4.2-3.4 7.6-7.59 7.6h-61.45c-4.2 0-7.6-3.4-7.6-7.6v-100.91l38.32-10.92z" fill="#80d261"/><path d="m94.627 386.069v100.91c0 4.2-3.4 7.6-7.59 7.6h-22.15c4.19 0 7.59-3.4 7.59-7.6v-107.22z" fill="#67c142"/><g><path d="m63.806 386.069v108.51h-15v-108.51c0-4.15 3.36-7.5 7.5-7.5 4.15 0 7.5 3.35 7.5 7.5z" fill="#67c142"/></g><path d="m90.612 350.9h-68.605c-7.231 0-13.627 4.692-15.798 11.589l-4.894 15.548c-1.253 3.979 1.719 8.029 5.89 8.029h98.21c4.171 0 7.143-4.05 5.89-8.029l-4.894-15.548c-2.173-6.897-8.568-11.589-15.799-11.589z" fill="#22b27f"/><path d="m105.416 386.069h-22.15c4.17 0 7.14-4.05 5.89-8.03l-4.9-15.55c-2.17-6.9-8.56-11.59-15.79-11.59h22.15c7.23 0 13.62 4.69 15.79 11.59l4.9 15.55c1.25 3.98-1.72 8.03-5.89 8.03z" fill="#09a76d"/><path d="m100.356 248.999c-.07.15-.15.3-.23.44l-19.6 34.95h-48.43l-19.61-34.95c-.08-.14-.16-.29-.23-.44-2.46-4.68-2.57-10.23-.33-15 .14-.31.29-.6.45-.9l19.72-36.35 24.215-7.427 24.215 7.427 19.72 36.35c.16.3.31.6.45.9 2.24 4.77 2.11 10.32-.34 15z" fill="#ffe177"/><path d="m80.524 196.748-13.329-4.087-8.749 4.087 19.72 36.351c2.77 5.106 2.726 11.275-.116 16.341l-19.604 34.946h22.079l19.604-34.946c2.842-5.066 2.886-11.236.116-16.342z" fill="#ffd15b"/><path d="m32.094 196.748h48.431v-56.909l-33.73 14.408c-8.916 3.809-14.701 12.569-14.701 22.265z" fill="#22b27f"/><path d="m58.446 149.269v47.479h22.078v-56.91z" fill="#09a76d"/><path d="m49.156 150.597c-1.13 4.24-6.04 6.17-9.73 3.81-2.91-1.86-6.44-4.45-10.19-7.93-.33-.31-.64-.61-.95-.91-14.05-13.53-30.48-39.6-27.29-86.46v-.01c.18-2.72.43-5.5.75-8.36.38-3.36 4.2-5.11 7-3.2 15.82 10.82 55.98 44.81 40.41 103.06z" fill="#80d261"/><path d="m49.156 150.597c-1.13 4.24-6.04 6.17-9.73 3.81-2.91-1.86-6.44-4.45-10.19-7.93-.33-.31-.64-.61-.95-.91 9.08-41.67-10.52-70.32-27.29-86.37v-.1c.18-2.72.43-5.5.75-8.36.38-3.36 4.2-5.11 7-3.2 15.82 10.82 55.98 44.81 40.41 103.06z" fill="#67c142"/><path d="m462.479 196.748h-48.431v-56.909l33.73 14.408c8.916 3.809 14.701 12.569 14.701 22.265z" fill="#22b27f"/><path d="m447.778 154.246-33.73-14.408v9.431l11.651 4.977c8.917 3.809 14.701 12.57 14.701 22.265v20.236h22.079v-20.236c0-9.696-5.784-18.456-14.701-22.265z" fill="#09a76d"/><path d="m454.336 154.506c-3.28 2.03-7.63.35-8.67-3.37-.56-2.01-1.04-4-1.47-5.95-9.09-41.68 10.53-70.34 27.3-86.4 4.54-4.35 8.87-7.77 12.37-10.28 3.65-2.62 8.76-.3 9.21 4.17 6.62 66.05-24.66 93.12-38.74 101.83z" fill="#80d261"/><path d="m454.336 154.506c-3.28 2.03-7.63.35-8.67-3.37-.56-2.01-1.04-4-1.47-5.95 0-.01.01-.02.01-.03 14.05-13.52 30.45-39.58 27.29-86.37 4.54-4.35 8.87-7.77 12.37-10.28 3.65-2.62 8.76-.3 9.21 4.17 6.62 66.05-24.66 93.12-38.74 101.83z" fill="#67c142"/><path d="m275.293 37.525h-56.013c-4.058 0-7.348-3.29-7.348-7.348v-22.829c0-4.058 3.29-7.348 7.348-7.348h56.012c4.058 0 7.348 3.29 7.348 7.348v22.83c0 4.057-3.29 7.347-7.347 7.347z" fill="#22b27f"/><path d="m275.293 0h-22.079c4.058 0 7.348 3.29 7.348 7.348v22.83c0 4.058-3.29 7.347-7.348 7.347h22.079c4.058 0 7.348-3.29 7.348-7.347v-22.83c-.001-4.058-3.291-7.348-7.348-7.348z" fill="#09a76d"/><path d="m285.726 91.215-4.47 12.05c-1.45 3.91-6.54 4.89-9.34 1.8l-20.85-23.02c-1.01-1.12-2.4-1.68-3.78-1.68s-2.77.56-3.78 1.68l-20.85 23.02c-2.8 3.09-7.89 2.11-9.34-1.8l-4.47-12.05c-4.01-10.8-.85-22.95 7.89-30.44l24.57-21.04c1.72-1.47 3.85-2.21 5.98-2.21s4.26.74 5.98 2.21l24.57 21.04c8.74 7.49 11.9 19.64 7.89 30.44z" fill="#6c7fd8"/><path d="m285.726 91.215-4.47 12.05c-1.45 3.91-6.54 4.89-9.34 1.8l-20.85-23.02c-1.01-1.12-2.4-1.68-3.78-1.68v-42.84c2.13 0 4.26.74 5.98 2.21l24.57 21.04c8.74 7.49 11.9 19.64 7.89 30.44z" fill="#4f66d0"/><g><path d="m213.864 368.903c-.175 0-.351-.006-.528-.019-28.429-1.977-50.698-25.871-50.698-54.397 0-30.068 24.463-54.531 54.531-54.531s54.531 24.463 54.531 54.531c0 16.215-7.146 31.479-19.605 41.881-3.18 2.653-7.909 2.229-10.564-.951-2.654-3.181-2.229-7.91.951-10.564 9.036-7.543 14.219-18.61 14.219-30.365 0-21.798-17.733-39.531-39.531-39.531s-39.531 17.733-39.531 39.531c0 20.68 16.138 38.001 36.739 39.435 4.132.287 7.249 3.87 6.961 8.002-.276 3.954-3.571 6.978-7.475 6.978z" fill="#ffd15b"/></g><g><path d="m277.405 369.019c-30.068 0-54.531-24.463-54.531-54.531s24.463-54.531 54.531-54.531 54.531 24.463 54.531 54.531-24.463 54.531-54.531 54.531zm0-94.063c-21.798 0-39.531 17.733-39.531 39.531s17.733 39.531 39.531 39.531 39.531-17.733 39.531-39.531-17.734-39.531-39.531-39.531z" fill="#ffe177"/></g><g><path d="m248.207 236.713c0 3.756 1.574 7.34 4.341 9.88l19.599 18c2.973 2.731 7.542 2.731 10.515 0l19.599-18c2.766-2.541 4.341-6.124 4.341-9.88 0-7.409-6.006-13.415-13.415-13.415h-31.563c-7.41-.001-13.417 6.006-13.417 13.415z" fill="#a6e7f0"/></g><path d="m293.186 223.297h-23.601c7.409 0 13.415 6.006 13.415 13.415 0 3.756-1.574 7.34-4.341 9.88l-13.056 11.991 6.543 6.009c2.973 2.731 7.542 2.731 10.515 0l19.598-18c2.766-2.541 4.341-6.124 4.341-9.88.001-7.409-6.005-13.415-13.414-13.415z" fill="#6bd9e7"/><path d="m100.356 248.999h-88.1c-2.46-4.68-2.57-10.23-.33-15h88.77c2.24 4.77 2.11 10.32-.34 15z" fill="#ffd15b"/></g></svg>