<svg width="410" height="307" viewBox="0 0 410 307" fill="none" xmlns="http://www.w3.org/2000/svg">
<rect width="410" height="307" rx="20" fill="#151E3F"/>
<mask id="mask0" style="mask-type:alpha" maskUnits="userSpaceOnUse" x="0" y="0" width="410" height="307">
<rect width="410" height="307" rx="20" fill="#151E3F"/>
</mask>
<g mask="url(#mask0)">
<path d="M376.397 262.141V295.774H174.603V262.141H191.419V177.5H359.581V262.141H376.397Z" fill="#B3987D"/>
<path d="M376.397 262.141V295.774H275.5V177.5H359.581V262.141H376.397Z" fill="#99705C"/>
<path d="M241.867 211.132H309.132V295.774H241.867V211.132Z" fill="#704C55"/>
<path d="M275.5 211.132H309.132V295.774H275.5V211.132Z" fill="#5B362A"/>
<path d="M300.724 83.4968V93.4189H250.275V83.4968C250.275 66.1767 257.338 48.8 269.615 36.5236C271.127 34.8425 273.314 34.0017 275.5 34.0017C277.686 34.0017 279.872 34.8425 281.385 36.5236C293.662 48.8 300.724 66.1767 300.724 83.4968V83.4968Z" fill="#D9C7A3"/>
<path d="M300.724 93.4189H275.5V34.0017C277.686 34.0017 279.872 34.8425 281.385 36.5236C293.661 48.8 300.724 66.1767 300.724 83.4968V93.4189Z" fill="#B3987D"/>
<path d="M317.54 93.4188V127.051H233.459V93.4188C233.459 88.7097 237.158 85.0107 241.867 85.0107H309.132C313.841 85.0107 317.54 88.7097 317.54 93.4188V93.4188Z" fill="#B3987D"/>
<path d="M317.54 93.4188V127.051H275.5V85.0107H309.132C313.841 85.0107 317.54 88.7097 317.54 93.4188V93.4188Z" fill="#99705C"/>
<path d="M223.93 127.051H273.257V177.5H223.93V127.051Z" fill="#B3987D"/>
<path d="M277.742 127.051H323.146V177.5H277.742V127.051Z" fill="#99705C"/>
<path d="M376.397 253.733H317.54V219.54C320.735 219.54 323.762 217.69 325.108 214.663C326.62 211.804 326.117 208.273 323.93 205.751L307.394 185.908H367.989C372.698 185.908 376.397 182.208 376.397 177.5C376.397 172.791 372.698 169.092 367.989 169.092H334.356V135.459H342.765C347.474 135.459 351.173 131.759 351.173 127.051C351.173 122.342 347.474 118.643 342.765 118.643H208.235C203.526 118.643 199.827 122.342 199.827 127.051C199.827 131.759 203.526 135.459 208.235 135.459H216.643V169.092H183.011C178.302 169.092 174.603 172.791 174.603 177.5C174.603 182.208 178.302 185.908 183.011 185.908H243.605L227.069 205.751C224.883 208.273 224.379 211.804 225.892 214.663C227.238 217.69 230.264 219.54 233.459 219.54V253.733H174.603C169.955 253.733 166.195 257.494 166.195 262.141V295.774C166.195 300.421 169.955 304.182 174.603 304.182C179.25 304.182 183.011 300.421 183.011 295.774V270.549H199.827V295.774C199.827 300.421 203.588 304.182 208.235 304.182C212.882 304.182 216.643 300.421 216.643 295.774V270.549H233.459V295.774H250.276V219.54H275.5H300.724V295.774H317.54V270.549H334.356V295.774C334.356 300.421 338.117 304.182 342.765 304.182C347.412 304.182 351.173 300.421 351.173 295.774V270.549H367.989V295.774C367.989 300.421 371.749 304.182 376.397 304.182C381.044 304.182 384.805 300.421 384.805 295.774V262.141C384.805 257.494 381.044 253.733 376.397 253.733V253.733ZM317.54 169.092H293.381L283.908 157.724V135.459H317.54V169.092ZM233.459 135.459H267.092V157.724L257.619 169.092H233.459V135.459Z" fill="#D9C7A3"/>
<path d="M376.397 253.733H317.54V219.54C320.735 219.54 323.762 217.69 325.107 214.663C326.62 211.804 326.116 208.273 323.93 205.751L307.394 185.908H367.989C372.698 185.908 376.397 182.208 376.397 177.5C376.397 172.791 372.698 169.092 367.989 169.092H334.356V135.459H342.764C347.473 135.459 351.172 131.759 351.172 127.051C351.172 122.342 347.473 118.643 342.764 118.643H275.5V219.54H300.724V295.774H317.54V270.549H334.356V295.774C334.356 300.421 338.117 304.182 342.764 304.182C347.412 304.182 351.172 300.421 351.172 295.774V270.549H367.989V295.774C367.989 300.421 371.749 304.182 376.397 304.182C381.044 304.182 384.805 300.421 384.805 295.774V262.141C384.805 257.494 381.044 253.733 376.397 253.733V253.733ZM293.381 169.092L283.908 157.724V135.459H317.54V169.092H293.381Z" fill="#B3987D"/>
<path d="M157.226 287.365C154.993 287.365 152.858 288.252 151.281 289.829L134.465 306.645C132.059 309.051 131.337 312.664 132.642 315.809C133.939 318.954 137.011 320.998 140.41 320.998H233.459L250.275 305.82L233.459 287.366H157.226V287.365Z" fill="#FFE6B3"/>
<path d="M416.535 306.645L399.719 289.829C398.142 288.253 396.007 287.365 393.774 287.365H317.541L300.725 307.014L317.541 320.998H410.59C413.989 320.998 417.061 318.954 418.358 315.808C419.663 312.664 418.941 309.051 416.535 306.645V306.645Z" fill="#FFCA80"/>
<path d="M233.459 287.365H317.54V320.998H233.459V287.365Z" fill="#FFF7CC"/>
<path d="M275.5 287.365H317.54V320.998H275.5V287.365Z" fill="#FFE6B3"/>
</g>
<path d="M55.34 34.5C58.86 34.5 61.4817 35.325 63.205 36.975C64.9283 38.625 65.79 41.0633 65.79 44.29C65.79 46.0133 65.3683 47.535 64.525 48.855C63.6817 50.1383 62.435 51.1467 60.785 51.88C59.135 52.5767 57.1 52.925 54.68 52.925L54.9 50.45C56.0367 50.45 57.3383 50.615 58.805 50.945C60.2717 51.2383 61.6833 51.7883 63.04 52.595C64.4333 53.365 65.57 54.465 66.45 55.895C67.3667 57.2883 67.825 59.085 67.825 61.285C67.825 63.705 67.4217 65.685 66.615 67.225C65.845 68.765 64.8183 69.9567 63.535 70.8C62.2517 71.6433 60.8767 72.23 59.41 72.56C57.9433 72.8533 56.5317 73 55.175 73H41.48C40.5267 73 39.72 72.6883 39.06 72.065C38.4367 71.405 38.125 70.5983 38.125 69.645V37.855C38.125 36.9017 38.4367 36.1133 39.06 35.49C39.72 34.83 40.5267 34.5 41.48 34.5H55.34ZM54.35 40.99H44.56L45.275 40.11V50.065L44.615 49.57H54.515C55.5783 49.57 56.5317 49.2217 57.375 48.525C58.2183 47.8283 58.64 46.82 58.64 45.5C58.64 43.9233 58.2367 42.7867 57.43 42.09C56.66 41.3567 55.6333 40.99 54.35 40.99ZM54.79 56.06H44.78L45.275 55.62V67.225L44.725 66.675H55.175C56.8617 66.675 58.2 66.235 59.19 65.355C60.18 64.4383 60.675 63.0817 60.675 61.285C60.675 59.635 60.345 58.4433 59.685 57.71C59.025 56.9767 58.2367 56.5183 57.32 56.335C56.4033 56.1517 55.56 56.06 54.79 56.06ZM97.705 43.025C98.6584 43.025 99.4467 43.3367 100.07 43.96C100.693 44.5833 101.005 45.39 101.005 46.38V69.645C101.005 70.5983 100.693 71.405 100.07 72.065C99.4467 72.6883 98.6584 73 97.705 73C96.7517 73 95.9634 72.6883 95.34 72.065C94.7167 71.405 94.405 70.5983 94.405 69.645V66.95L95.615 67.445C95.615 67.9217 95.3584 68.5083 94.845 69.205C94.3317 69.865 93.635 70.525 92.755 71.185C91.875 71.845 90.83 72.4133 89.62 72.89C88.4467 73.33 87.1634 73.55 85.77 73.55C83.24 73.55 80.9484 72.9083 78.895 71.625C76.8417 70.305 75.21 68.5083 74 66.235C72.8267 63.925 72.24 61.285 72.24 58.315C72.24 55.3083 72.8267 52.6683 74 50.395C75.21 48.085 76.8234 46.2883 78.84 45.005C80.8567 43.685 83.0934 43.025 85.55 43.025C87.1267 43.025 88.575 43.2633 89.895 43.74C91.215 44.2167 92.3517 44.8217 93.305 45.555C94.295 46.2883 95.0467 47.04 95.56 47.81C96.11 48.5433 96.385 49.1667 96.385 49.68L94.405 50.395V46.38C94.405 45.4267 94.7167 44.6383 95.34 44.015C95.9634 43.355 96.7517 43.025 97.705 43.025ZM86.595 67.5C88.2084 67.5 89.62 67.0967 90.83 66.29C92.04 65.4833 92.975 64.3833 93.635 62.99C94.3317 61.5967 94.68 60.0383 94.68 58.315C94.68 56.555 94.3317 54.9783 93.635 53.585C92.975 52.1917 92.04 51.0917 90.83 50.285C89.62 49.4783 88.2084 49.075 86.595 49.075C85.0184 49.075 83.625 49.4783 82.415 50.285C81.205 51.0917 80.2517 52.1917 79.555 53.585C78.895 54.9783 78.565 56.555 78.565 58.315C78.565 60.0383 78.895 61.5967 79.555 62.99C80.2517 64.3833 81.205 65.4833 82.415 66.29C83.625 67.0967 85.0184 67.5 86.595 67.5ZM106.446 68.435C106.08 67.9217 105.915 67.2617 105.951 66.455C105.988 65.6483 106.465 64.9517 107.381 64.365C107.968 63.9983 108.591 63.8517 109.251 63.925C109.911 63.9617 110.553 64.2917 111.176 64.915C112.24 65.9783 113.358 66.8033 114.531 67.39C115.705 67.9767 117.171 68.27 118.931 68.27C119.481 68.2333 120.086 68.16 120.746 68.05C121.406 67.9033 121.975 67.61 122.451 67.17C122.965 66.6933 123.221 65.9783 123.221 65.025C123.221 64.2183 122.946 63.5767 122.396 63.1C121.846 62.6233 121.113 62.22 120.196 61.89C119.316 61.56 118.326 61.2483 117.226 60.955C116.09 60.625 114.916 60.2583 113.706 59.855C112.533 59.4517 111.451 58.9383 110.461 58.315C109.471 57.655 108.665 56.7933 108.041 55.73C107.418 54.6667 107.106 53.3283 107.106 51.715C107.106 49.8817 107.62 48.3233 108.646 47.04C109.673 45.7567 110.993 44.7667 112.606 44.07C114.256 43.3733 115.98 43.025 117.776 43.025C118.913 43.025 120.105 43.1717 121.351 43.465C122.598 43.7217 123.79 44.1617 124.926 44.785C126.063 45.3717 127.016 46.16 127.786 47.15C128.19 47.7 128.428 48.36 128.501 49.13C128.575 49.9 128.226 50.5967 127.456 51.22C126.906 51.66 126.265 51.8617 125.531 51.825C124.798 51.7517 124.193 51.495 123.716 51.055C123.093 50.2483 122.25 49.6067 121.186 49.13C120.16 48.6533 118.968 48.415 117.611 48.415C117.061 48.415 116.456 48.4883 115.796 48.635C115.173 48.745 114.623 49.02 114.146 49.46C113.67 49.8633 113.431 50.5233 113.431 51.44C113.431 52.2833 113.706 52.9617 114.256 53.475C114.806 53.9517 115.54 54.355 116.456 54.685C117.41 54.9783 118.418 55.2717 119.481 55.565C120.581 55.8583 121.7 56.2067 122.836 56.61C123.973 57.0133 125.018 57.545 125.971 58.205C126.925 58.865 127.695 59.7267 128.281 60.79C128.868 61.8167 129.161 63.1367 129.161 64.75C129.161 66.62 128.611 68.215 127.511 69.535C126.411 70.855 125.036 71.8633 123.386 72.56C121.736 73.22 120.05 73.55 118.326 73.55C116.163 73.55 114 73.1833 111.836 72.45C109.673 71.68 107.876 70.3417 106.446 68.435ZM159.204 43.025C160.157 43.025 160.946 43.3367 161.569 43.96C162.192 44.5833 162.504 45.39 162.504 46.38V69.645C162.504 70.5983 162.192 71.405 161.569 72.065C160.946 72.6883 160.157 73 159.204 73C158.251 73 157.462 72.6883 156.839 72.065C156.216 71.405 155.904 70.5983 155.904 69.645V66.95L157.114 67.445C157.114 67.9217 156.857 68.5083 156.344 69.205C155.831 69.865 155.134 70.525 154.254 71.185C153.374 71.845 152.329 72.4133 151.119 72.89C149.946 73.33 148.662 73.55 147.269 73.55C144.739 73.55 142.447 72.9083 140.394 71.625C138.341 70.305 136.709 68.5083 135.499 66.235C134.326 63.925 133.739 61.285 133.739 58.315C133.739 55.3083 134.326 52.6683 135.499 50.395C136.709 48.085 138.322 46.2883 140.339 45.005C142.356 43.685 144.592 43.025 147.049 43.025C148.626 43.025 150.074 43.2633 151.394 43.74C152.714 44.2167 153.851 44.8217 154.804 45.555C155.794 46.2883 156.546 47.04 157.059 47.81C157.609 48.5433 157.884 49.1667 157.884 49.68L155.904 50.395V46.38C155.904 45.4267 156.216 44.6383 156.839 44.015C157.462 43.355 158.251 43.025 159.204 43.025ZM148.094 67.5C149.707 67.5 151.119 67.0967 152.329 66.29C153.539 65.4833 154.474 64.3833 155.134 62.99C155.831 61.5967 156.179 60.0383 156.179 58.315C156.179 56.555 155.831 54.9783 155.134 53.585C154.474 52.1917 153.539 51.0917 152.329 50.285C151.119 49.4783 149.707 49.075 148.094 49.075C146.517 49.075 145.124 49.4783 143.914 50.285C142.704 51.0917 141.751 52.1917 141.054 53.585C140.394 54.9783 140.064 56.555 140.064 58.315C140.064 60.0383 140.394 61.5967 141.054 62.99C141.751 64.3833 142.704 65.4833 143.914 66.29C145.124 67.0967 146.517 67.5 148.094 67.5ZM52.26 112.135L40.38 140.075C40.1233 140.772 39.72 141.322 39.17 141.725C38.6567 142.092 38.0883 142.275 37.465 142.275C36.475 142.275 35.7417 142 35.265 141.45C34.7883 140.9 34.55 140.222 34.55 139.415C34.55 139.085 34.605 138.737 34.715 138.37L48.41 105.48C48.7033 104.747 49.1433 104.178 49.73 103.775C50.3533 103.372 51.0133 103.207 51.71 103.28C52.37 103.28 52.975 103.482 53.525 103.885C54.1117 104.252 54.5333 104.783 54.79 105.48L68.32 137.71C68.5033 138.187 68.595 138.627 68.595 139.03C68.595 140.02 68.265 140.808 67.605 141.395C66.9817 141.982 66.285 142.275 65.515 142.275C64.855 142.275 64.25 142.073 63.7 141.67C63.1867 141.267 62.7833 140.717 62.49 140.02L50.665 112.465L52.26 112.135ZM42.085 133.365L45.11 127.04H59.96L61.005 133.365H42.085ZM85.792 112.025C87.882 112.025 89.697 112.245 91.237 112.685C92.8136 113.125 94.0236 113.748 94.867 114.555C95.747 115.325 96.187 116.26 96.187 117.36C96.187 118.093 95.967 118.79 95.527 119.45C95.087 120.073 94.4453 120.385 93.602 120.385C93.0153 120.385 92.5203 120.312 92.117 120.165C91.7503 119.982 91.4203 119.762 91.127 119.505C90.8336 119.248 90.4853 119.01 90.082 118.79C89.7153 118.57 89.147 118.405 88.377 118.295C87.6436 118.148 87.0936 118.075 86.727 118.075C84.857 118.075 83.262 118.478 81.942 119.285C80.6586 120.092 79.6686 121.192 78.972 122.585C78.2753 123.942 77.927 125.518 77.927 127.315C77.927 129.075 78.2753 130.652 78.972 132.045C79.7053 133.402 80.6953 134.483 81.942 135.29C83.2253 136.097 84.692 136.5 86.342 136.5C87.2586 136.5 88.047 136.445 88.707 136.335C89.367 136.225 89.917 136.06 90.357 135.84C90.8703 135.547 91.3286 135.235 91.732 134.905C92.1353 134.575 92.7403 134.41 93.547 134.41C94.5003 134.41 95.2336 134.722 95.747 135.345C96.2603 135.932 96.517 136.665 96.517 137.545C96.517 138.462 96.0036 139.305 94.977 140.075C93.9503 140.808 92.5936 141.413 90.907 141.89C89.257 142.33 87.4603 142.55 85.517 142.55C82.6203 142.55 80.1086 141.89 77.982 140.57C75.8553 139.213 74.2053 137.38 73.032 135.07C71.8953 132.76 71.327 130.175 71.327 127.315C71.327 124.308 71.932 121.668 73.142 119.395C74.3886 117.085 76.0936 115.288 78.257 114.005C80.457 112.685 82.9686 112.025 85.792 112.025ZM115.136 142.55C112.02 142.55 109.306 141.908 106.996 140.625C104.723 139.305 102.963 137.527 101.716 135.29C100.506 133.053 99.9012 130.523 99.9012 127.7C99.9012 124.4 100.561 121.595 101.881 119.285C103.238 116.938 104.998 115.142 107.161 113.895C109.325 112.648 111.616 112.025 114.036 112.025C115.906 112.025 117.666 112.41 119.316 113.18C121.003 113.95 122.488 115.013 123.771 116.37C125.055 117.69 126.063 119.23 126.796 120.99C127.566 122.75 127.951 124.62 127.951 126.6C127.915 127.48 127.566 128.195 126.906 128.745C126.246 129.295 125.476 129.57 124.596 129.57H103.586L101.936 124.07H122.121L120.911 125.17V123.685C120.838 122.622 120.453 121.668 119.756 120.825C119.096 119.982 118.253 119.322 117.226 118.845C116.236 118.332 115.173 118.075 114.036 118.075C112.936 118.075 111.91 118.222 110.956 118.515C110.003 118.808 109.178 119.303 108.481 120C107.785 120.697 107.235 121.632 106.831 122.805C106.428 123.978 106.226 125.463 106.226 127.26C106.226 129.24 106.63 130.927 107.436 132.32C108.28 133.677 109.343 134.722 110.626 135.455C111.946 136.152 113.34 136.5 114.806 136.5C116.163 136.5 117.245 136.39 118.051 136.17C118.858 135.95 119.5 135.693 119.976 135.4C120.49 135.07 120.948 134.795 121.351 134.575C122.011 134.245 122.635 134.08 123.221 134.08C124.028 134.08 124.688 134.355 125.201 134.905C125.751 135.455 126.026 136.097 126.026 136.83C126.026 137.82 125.513 138.718 124.486 139.525C123.533 140.332 122.195 141.047 120.471 141.67C118.748 142.257 116.97 142.55 115.136 142.55ZM149.173 112.025C151.813 112.025 153.811 112.593 155.168 113.73C156.561 114.867 157.514 116.388 158.028 118.295C158.541 120.165 158.798 122.255 158.798 124.565V138.645C158.798 139.598 158.486 140.405 157.863 141.065C157.239 141.688 156.451 142 155.498 142C154.544 142 153.756 141.688 153.133 141.065C152.509 140.405 152.198 139.598 152.198 138.645V124.565C152.198 123.355 152.051 122.273 151.758 121.32C151.464 120.33 150.933 119.542 150.163 118.955C149.393 118.368 148.293 118.075 146.863 118.075C145.469 118.075 144.278 118.368 143.288 118.955C142.298 119.542 141.546 120.33 141.033 121.32C140.556 122.273 140.318 123.355 140.318 124.565V138.645C140.318 139.598 140.006 140.405 139.383 141.065C138.759 141.688 137.971 142 137.018 142C136.064 142 135.276 141.688 134.653 141.065C134.029 140.405 133.718 139.598 133.718 138.645V104.655C133.718 103.702 134.029 102.913 134.653 102.29C135.276 101.63 136.064 101.3 137.018 101.3C137.971 101.3 138.759 101.63 139.383 102.29C140.006 102.913 140.318 103.702 140.318 104.655V118.295L139.493 118.13C139.823 117.507 140.281 116.847 140.868 116.15C141.454 115.417 142.169 114.738 143.013 114.115C143.856 113.492 144.791 112.997 145.818 112.63C146.844 112.227 147.963 112.025 149.173 112.025Z" fill="white"/>
</svg>
