<svg width="410" height="307" viewBox="0 0 410 307" fill="none" xmlns="http://www.w3.org/2000/svg">
<rect width="410" height="307" rx="20" fill="#008DD5"/>
<mask id="mask0" style="mask-type:alpha" maskUnits="userSpaceOnUse" x="0" y="0" width="410" height="307">
<rect width="410" height="307" rx="20" fill="#008DD5"/>
</mask>
<g mask="url(#mask0)">
<path d="M257.057 71.4245C254.286 71.4245 252.04 69.1782 252.04 66.4076V39.0169C252.04 36.2463 254.286 34 257.057 34C259.827 34 262.074 36.2463 262.074 39.0169V66.4076C262.074 69.1782 259.827 71.4245 257.057 71.4245Z" fill="#9B9B9B"/>
<path d="M380.913 227.354C378.142 227.354 375.896 225.108 375.896 222.337V190.779C375.896 188.009 378.142 185.762 380.913 185.762C383.683 185.762 385.929 188.009 385.929 190.779V222.337C385.929 225.108 383.683 227.354 380.913 227.354Z" fill="#9B9B9B"/>
<path d="M358.65 283.593H403.175V309.932H358.65V283.593Z" fill="#D38A54"/>
<path d="M347.286 242.092H414.539V283.593H347.286V242.092Z" fill="#FFB272"/>
<path d="M315.952 242.092H198.161L202.305 228.792C204.492 220.116 214.094 213.872 225.247 213.872H288.448C299.432 213.872 308.938 219.934 311.298 228.444L315.952 242.092Z" fill="#9B9B9B"/>
<path d="M433.904 242.092H329.421L333.565 228.792C335.752 220.116 345.354 213.872 356.506 213.872H406.399C417.384 213.872 426.889 219.934 429.25 228.444L433.904 242.092Z" fill="#9B9B9B"/>
<path d="M228.992 188.676H285.121V213.872H228.992V188.676Z" fill="#FFB272"/>
<path d="M307.226 188.676H206.887L211.031 175.376C213.219 166.7 222.82 160.456 233.973 160.456H279.721C290.706 160.456 300.211 166.518 302.572 175.028L307.226 188.676Z" fill="#9B9B9B"/>
<path d="M237.719 137.474H276.395V160.456H237.719V137.474Z" fill="#FFB272"/>
<path d="M297.819 137.474H216.294L220.438 127.309C222.625 118.634 232.227 112.39 243.38 112.39H270.315C281.299 112.39 290.804 118.451 293.165 126.961L297.819 137.474Z" fill="#9B9B9B"/>
<path d="M247.126 84.1697H266.988V112.39H247.126V84.1697Z" fill="#FFB272"/>
<path d="M291.548 84.1692H222.565L226.709 74.0042C228.897 65.3287 238.498 59.0845 249.651 59.0845H264.043C275.028 59.0845 284.533 65.1462 286.894 73.6562L291.548 84.1692Z" fill="#9B9B9B"/>
<path d="M215.353 242.092H298.76V309.932H215.353V242.092Z" fill="#FFB272"/>
<path d="M243.99 262.843H270.226V309.933H243.99V262.843Z" fill="#8C5835"/>
<path d="M152.328 286.388H180.96V330H152.328V286.388Z" fill="#D38A54"/>
<path d="M266.988 84.1697H247.125C256.274 87.1717 263.64 90.7839 266.988 95.7713V84.1697Z" fill="#D38A54"/>
<path d="M276.395 137.364H244.932C259.425 140.366 271.091 143.978 276.395 148.965V137.364Z" fill="#D38A54"/>
<path d="M285.121 188.676H246.821C264.464 192.33 278.666 196.728 285.121 202.8V188.676Z" fill="#D38A54"/>
<path d="M298.76 242.093H260.459C278.102 245.747 292.305 258.709 298.76 264.78V242.093Z" fill="#D38A54"/>
<path d="M414.539 242.093H376.239C393.881 245.747 408.084 258.709 414.539 264.78V242.093Z" fill="#D38A54"/>
<path d="M403.175 283.593H370.251C385.417 286.734 397.626 297.876 403.175 303.095V283.593Z" fill="#AF6A3A"/>
<path d="M247.126 112.442H260.611C257.077 107.69 251.729 105.59 247.126 104.565V112.442Z" fill="#FFD8B3"/>
<path d="M237.719 160.456H253.868C249.636 154.765 243.231 152.25 237.719 151.022V160.456Z" fill="#FFD8B3"/>
<path d="M228.992 213.872H245.141C240.909 208.181 234.504 205.667 228.992 204.439V213.872Z" fill="#FFD8B3"/>
<path d="M347.286 283.593H374.641C367.473 273.954 356.624 269.694 347.286 267.615V283.593Z" fill="#FFD8B3"/>
<path d="M358.65 309.932H378.78C373.506 302.838 365.522 299.704 358.65 298.173V309.932Z" fill="#FFB272"/>
<path d="M215.353 309.932H231.502C227.27 304.241 220.866 284.82 215.353 283.593V309.932Z" fill="#FFD8B3"/>
<path d="M302.572 175.028C300.211 166.518 290.706 160.456 279.721 160.456H260.384C271.368 160.456 280.873 166.518 283.234 175.028L287.888 188.676H307.226L302.572 175.028Z" fill="#828282"/>
<path d="M293.165 126.961C290.804 118.451 281.299 112.39 270.315 112.39H250.977C261.961 112.39 271.467 118.451 273.827 126.961L278.482 137.474H297.819L293.165 126.961Z" fill="#828282"/>
<path d="M286.894 73.6564C284.533 65.1464 275.028 59.0847 264.043 59.0847C247.733 59.0847 249.795 59.0797 249.013 59.096C259.721 59.3293 268.902 65.3151 271.216 73.6571L275.87 84.1694H291.548L286.894 73.6564Z" fill="#828282"/>
<path d="M311.298 228.444C308.938 219.934 299.432 213.872 288.448 213.872H264.043C275.028 213.872 284.533 219.934 286.894 228.444L291.548 242.092H315.953L311.298 228.444Z" fill="#828282"/>
<path d="M429.249 228.444C426.889 219.934 417.384 213.872 406.399 213.872H383.387C394.372 213.872 403.877 219.934 406.237 228.444L410.892 242.092H433.904L429.249 228.444Z" fill="#828282"/>
<path d="M242.588 213.872H225.247C214.094 213.872 204.492 220.117 202.305 228.792L198.161 242.092H215.502L219.646 228.792C221.833 220.116 231.435 213.872 242.588 213.872V213.872Z" fill="#DBDBDB"/>
<path d="M251.315 160.456H233.974C222.821 160.456 213.219 166.701 211.032 175.376L206.887 188.676H224.228L228.372 175.376C230.56 166.701 240.162 160.456 251.315 160.456V160.456Z" fill="#DBDBDB"/>
<path d="M258.799 112.39H243.38C232.227 112.39 222.625 118.634 220.438 127.309L216.294 137.474H231.713L235.857 127.309C238.044 118.634 247.646 112.39 258.799 112.39Z" fill="#DBDBDB"/>
<path d="M262.821 59.0845H249.651C238.498 59.0845 228.896 65.3293 226.709 74.0042L222.565 84.1692H235.735L239.879 74.0042C242.065 65.3293 251.668 59.0845 262.821 59.0845Z" fill="#DBDBDB"/>
<path d="M347.286 242.092L351.43 228.792C353.617 220.118 363.217 213.874 374.368 213.872H356.507C345.354 213.872 335.752 220.117 333.565 228.792L329.421 242.092C456.307 242.092 474.218 242.092 347.286 242.092V242.092Z" fill="#DBDBDB"/>
<path d="M152.328 304.47V286.387H180.96L152.328 304.47Z" fill="#FFD8B3"/>
</g>
<path d="M55.34 34.5C58.86 34.5 61.4817 35.325 63.205 36.975C64.9283 38.625 65.79 41.0633 65.79 44.29C65.79 46.0133 65.3683 47.535 64.525 48.855C63.6817 50.1383 62.435 51.1467 60.785 51.88C59.135 52.5767 57.1 52.925 54.68 52.925L54.9 50.45C56.0367 50.45 57.3383 50.615 58.805 50.945C60.2717 51.2383 61.6833 51.7883 63.04 52.595C64.4333 53.365 65.57 54.465 66.45 55.895C67.3667 57.2883 67.825 59.085 67.825 61.285C67.825 63.705 67.4217 65.685 66.615 67.225C65.845 68.765 64.8183 69.9567 63.535 70.8C62.2517 71.6433 60.8767 72.23 59.41 72.56C57.9433 72.8533 56.5317 73 55.175 73H41.48C40.5267 73 39.72 72.6883 39.06 72.065C38.4367 71.405 38.125 70.5983 38.125 69.645V37.855C38.125 36.9017 38.4367 36.1133 39.06 35.49C39.72 34.83 40.5267 34.5 41.48 34.5H55.34ZM54.35 40.99H44.56L45.275 40.11V50.065L44.615 49.57H54.515C55.5783 49.57 56.5317 49.2217 57.375 48.525C58.2183 47.8283 58.64 46.82 58.64 45.5C58.64 43.9233 58.2367 42.7867 57.43 42.09C56.66 41.3567 55.6333 40.99 54.35 40.99ZM54.79 56.06H44.78L45.275 55.62V67.225L44.725 66.675H55.175C56.8617 66.675 58.2 66.235 59.19 65.355C60.18 64.4383 60.675 63.0817 60.675 61.285C60.675 59.635 60.345 58.4433 59.685 57.71C59.025 56.9767 58.2367 56.5183 57.32 56.335C56.4033 56.1517 55.56 56.06 54.79 56.06ZM97.705 43.025C98.6584 43.025 99.4467 43.3367 100.07 43.96C100.693 44.5833 101.005 45.39 101.005 46.38V69.645C101.005 70.5983 100.693 71.405 100.07 72.065C99.4467 72.6883 98.6584 73 97.705 73C96.7517 73 95.9634 72.6883 95.34 72.065C94.7167 71.405 94.405 70.5983 94.405 69.645V66.95L95.615 67.445C95.615 67.9217 95.3584 68.5083 94.845 69.205C94.3317 69.865 93.635 70.525 92.755 71.185C91.875 71.845 90.83 72.4133 89.62 72.89C88.4467 73.33 87.1634 73.55 85.77 73.55C83.24 73.55 80.9484 72.9083 78.895 71.625C76.8417 70.305 75.21 68.5083 74 66.235C72.8267 63.925 72.24 61.285 72.24 58.315C72.24 55.3083 72.8267 52.6683 74 50.395C75.21 48.085 76.8234 46.2883 78.84 45.005C80.8567 43.685 83.0934 43.025 85.55 43.025C87.1267 43.025 88.575 43.2633 89.895 43.74C91.215 44.2167 92.3517 44.8217 93.305 45.555C94.295 46.2883 95.0467 47.04 95.56 47.81C96.11 48.5433 96.385 49.1667 96.385 49.68L94.405 50.395V46.38C94.405 45.4267 94.7167 44.6383 95.34 44.015C95.9634 43.355 96.7517 43.025 97.705 43.025ZM86.595 67.5C88.2084 67.5 89.62 67.0967 90.83 66.29C92.04 65.4833 92.975 64.3833 93.635 62.99C94.3317 61.5967 94.68 60.0383 94.68 58.315C94.68 56.555 94.3317 54.9783 93.635 53.585C92.975 52.1917 92.04 51.0917 90.83 50.285C89.62 49.4783 88.2084 49.075 86.595 49.075C85.0184 49.075 83.625 49.4783 82.415 50.285C81.205 51.0917 80.2517 52.1917 79.555 53.585C78.895 54.9783 78.565 56.555 78.565 58.315C78.565 60.0383 78.895 61.5967 79.555 62.99C80.2517 64.3833 81.205 65.4833 82.415 66.29C83.625 67.0967 85.0184 67.5 86.595 67.5ZM106.446 68.435C106.08 67.9217 105.915 67.2617 105.951 66.455C105.988 65.6483 106.465 64.9517 107.381 64.365C107.968 63.9983 108.591 63.8517 109.251 63.925C109.911 63.9617 110.553 64.2917 111.176 64.915C112.24 65.9783 113.358 66.8033 114.531 67.39C115.705 67.9767 117.171 68.27 118.931 68.27C119.481 68.2333 120.086 68.16 120.746 68.05C121.406 67.9033 121.975 67.61 122.451 67.17C122.965 66.6933 123.221 65.9783 123.221 65.025C123.221 64.2183 122.946 63.5767 122.396 63.1C121.846 62.6233 121.113 62.22 120.196 61.89C119.316 61.56 118.326 61.2483 117.226 60.955C116.09 60.625 114.916 60.2583 113.706 59.855C112.533 59.4517 111.451 58.9383 110.461 58.315C109.471 57.655 108.665 56.7933 108.041 55.73C107.418 54.6667 107.106 53.3283 107.106 51.715C107.106 49.8817 107.62 48.3233 108.646 47.04C109.673 45.7567 110.993 44.7667 112.606 44.07C114.256 43.3733 115.98 43.025 117.776 43.025C118.913 43.025 120.105 43.1717 121.351 43.465C122.598 43.7217 123.79 44.1617 124.926 44.785C126.063 45.3717 127.016 46.16 127.786 47.15C128.19 47.7 128.428 48.36 128.501 49.13C128.575 49.9 128.226 50.5967 127.456 51.22C126.906 51.66 126.265 51.8617 125.531 51.825C124.798 51.7517 124.193 51.495 123.716 51.055C123.093 50.2483 122.25 49.6067 121.186 49.13C120.16 48.6533 118.968 48.415 117.611 48.415C117.061 48.415 116.456 48.4883 115.796 48.635C115.173 48.745 114.623 49.02 114.146 49.46C113.67 49.8633 113.431 50.5233 113.431 51.44C113.431 52.2833 113.706 52.9617 114.256 53.475C114.806 53.9517 115.54 54.355 116.456 54.685C117.41 54.9783 118.418 55.2717 119.481 55.565C120.581 55.8583 121.7 56.2067 122.836 56.61C123.973 57.0133 125.018 57.545 125.971 58.205C126.925 58.865 127.695 59.7267 128.281 60.79C128.868 61.8167 129.161 63.1367 129.161 64.75C129.161 66.62 128.611 68.215 127.511 69.535C126.411 70.855 125.036 71.8633 123.386 72.56C121.736 73.22 120.05 73.55 118.326 73.55C116.163 73.55 114 73.1833 111.836 72.45C109.673 71.68 107.876 70.3417 106.446 68.435ZM159.204 43.025C160.157 43.025 160.946 43.3367 161.569 43.96C162.192 44.5833 162.504 45.39 162.504 46.38V69.645C162.504 70.5983 162.192 71.405 161.569 72.065C160.946 72.6883 160.157 73 159.204 73C158.251 73 157.462 72.6883 156.839 72.065C156.216 71.405 155.904 70.5983 155.904 69.645V66.95L157.114 67.445C157.114 67.9217 156.857 68.5083 156.344 69.205C155.831 69.865 155.134 70.525 154.254 71.185C153.374 71.845 152.329 72.4133 151.119 72.89C149.946 73.33 148.662 73.55 147.269 73.55C144.739 73.55 142.447 72.9083 140.394 71.625C138.341 70.305 136.709 68.5083 135.499 66.235C134.326 63.925 133.739 61.285 133.739 58.315C133.739 55.3083 134.326 52.6683 135.499 50.395C136.709 48.085 138.322 46.2883 140.339 45.005C142.356 43.685 144.592 43.025 147.049 43.025C148.626 43.025 150.074 43.2633 151.394 43.74C152.714 44.2167 153.851 44.8217 154.804 45.555C155.794 46.2883 156.546 47.04 157.059 47.81C157.609 48.5433 157.884 49.1667 157.884 49.68L155.904 50.395V46.38C155.904 45.4267 156.216 44.6383 156.839 44.015C157.462 43.355 158.251 43.025 159.204 43.025ZM148.094 67.5C149.707 67.5 151.119 67.0967 152.329 66.29C153.539 65.4833 154.474 64.3833 155.134 62.99C155.831 61.5967 156.179 60.0383 156.179 58.315C156.179 56.555 155.831 54.9783 155.134 53.585C154.474 52.1917 153.539 51.0917 152.329 50.285C151.119 49.4783 149.707 49.075 148.094 49.075C146.517 49.075 145.124 49.4783 143.914 50.285C142.704 51.0917 141.751 52.1917 141.054 53.585C140.394 54.9783 140.064 56.555 140.064 58.315C140.064 60.0383 140.394 61.5967 141.054 62.99C141.751 64.3833 142.704 65.4833 143.914 66.29C145.124 67.0967 146.517 67.5 148.094 67.5ZM55.34 103.5C58.86 103.5 61.4817 104.325 63.205 105.975C64.9283 107.625 65.79 110.063 65.79 113.29C65.79 115.013 65.3683 116.535 64.525 117.855C63.6817 119.138 62.435 120.147 60.785 120.88C59.135 121.577 57.1 121.925 54.68 121.925L54.9 119.45C56.0367 119.45 57.3383 119.615 58.805 119.945C60.2717 120.238 61.6833 120.788 63.04 121.595C64.4333 122.365 65.57 123.465 66.45 124.895C67.3667 126.288 67.825 128.085 67.825 130.285C67.825 132.705 67.4217 134.685 66.615 136.225C65.845 137.765 64.8183 138.957 63.535 139.8C62.2517 140.643 60.8767 141.23 59.41 141.56C57.9433 141.853 56.5317 142 55.175 142H41.48C40.5267 142 39.72 141.688 39.06 141.065C38.4367 140.405 38.125 139.598 38.125 138.645V106.855C38.125 105.902 38.4367 105.113 39.06 104.49C39.72 103.83 40.5267 103.5 41.48 103.5H55.34ZM54.35 109.99H44.56L45.275 109.11V119.065L44.615 118.57H54.515C55.5783 118.57 56.5317 118.222 57.375 117.525C58.2183 116.828 58.64 115.82 58.64 114.5C58.64 112.923 58.2367 111.787 57.43 111.09C56.66 110.357 55.6333 109.99 54.35 109.99ZM54.79 125.06H44.78L45.275 124.62V136.225L44.725 135.675H55.175C56.8617 135.675 58.2 135.235 59.19 134.355C60.18 133.438 60.675 132.082 60.675 130.285C60.675 128.635 60.345 127.443 59.685 126.71C59.025 125.977 58.2367 125.518 57.32 125.335C56.4033 125.152 55.56 125.06 54.79 125.06ZM97.705 112.025C98.6584 112.025 99.4467 112.337 100.07 112.96C100.693 113.583 101.005 114.39 101.005 115.38V138.645C101.005 139.598 100.693 140.405 100.07 141.065C99.4467 141.688 98.6584 142 97.705 142C96.7517 142 95.9634 141.688 95.34 141.065C94.7167 140.405 94.405 139.598 94.405 138.645V135.95L95.615 136.445C95.615 136.922 95.3584 137.508 94.845 138.205C94.3317 138.865 93.635 139.525 92.755 140.185C91.875 140.845 90.83 141.413 89.62 141.89C88.4467 142.33 87.1634 142.55 85.77 142.55C83.24 142.55 80.9484 141.908 78.895 140.625C76.8417 139.305 75.21 137.508 74 135.235C72.8267 132.925 72.24 130.285 72.24 127.315C72.24 124.308 72.8267 121.668 74 119.395C75.21 117.085 76.8234 115.288 78.84 114.005C80.8567 112.685 83.0934 112.025 85.55 112.025C87.1267 112.025 88.575 112.263 89.895 112.74C91.215 113.217 92.3517 113.822 93.305 114.555C94.295 115.288 95.0467 116.04 95.56 116.81C96.11 117.543 96.385 118.167 96.385 118.68L94.405 119.395V115.38C94.405 114.427 94.7167 113.638 95.34 113.015C95.9634 112.355 96.7517 112.025 97.705 112.025ZM86.595 136.5C88.2084 136.5 89.62 136.097 90.83 135.29C92.04 134.483 92.975 133.383 93.635 131.99C94.3317 130.597 94.68 129.038 94.68 127.315C94.68 125.555 94.3317 123.978 93.635 122.585C92.975 121.192 92.04 120.092 90.83 119.285C89.62 118.478 88.2084 118.075 86.595 118.075C85.0184 118.075 83.625 118.478 82.415 119.285C81.205 120.092 80.2517 121.192 79.555 122.585C78.895 123.978 78.565 125.555 78.565 127.315C78.565 129.038 78.895 130.597 79.555 131.99C80.2517 133.383 81.205 134.483 82.415 135.29C83.625 136.097 85.0184 136.5 86.595 136.5ZM115.301 138.645C115.301 139.598 114.971 140.405 114.311 141.065C113.688 141.688 112.9 142 111.946 142C111.03 142 110.26 141.688 109.636 141.065C109.013 140.405 108.701 139.598 108.701 138.645V104.655C108.701 103.702 109.013 102.913 109.636 102.29C110.296 101.63 111.103 101.3 112.056 101.3C113.01 101.3 113.78 101.63 114.366 102.29C114.99 102.913 115.301 103.702 115.301 104.655V138.645ZM129.19 138.645C129.19 139.598 128.879 140.405 128.255 141.065C127.632 141.688 126.844 142 125.89 142C124.937 142 124.149 141.688 123.525 141.065C122.902 140.405 122.59 139.598 122.59 138.645V115.93C122.59 114.977 122.902 114.188 123.525 113.565C124.149 112.905 124.937 112.575 125.89 112.575C126.844 112.575 127.632 112.905 128.255 113.565C128.879 114.188 129.19 114.977 129.19 115.93V138.645ZM125.835 109C124.589 109 123.709 108.798 123.195 108.395C122.682 107.992 122.425 107.277 122.425 106.25V105.205C122.425 104.142 122.7 103.427 123.25 103.06C123.837 102.657 124.717 102.455 125.89 102.455C127.174 102.455 128.072 102.657 128.585 103.06C129.099 103.463 129.355 104.178 129.355 105.205V106.25C129.355 107.313 129.08 108.047 128.53 108.45C127.98 108.817 127.082 109 125.835 109Z" fill="white"/>
</svg>
