<svg width="218" height="163" viewBox="0 0 218 163" fill="none" xmlns="http://www.w3.org/2000/svg">
<g clip-path="url(#clip0)">
<rect x="0.183594" width="217.345" height="162.744" rx="10.6022" fill="#00BFA6"/>
<mask id="mask0" style="mask-type:alpha" maskUnits="userSpaceOnUse" x="0" y="0" width="218" height="163">
<rect x="0.183594" width="217.345" height="162.744" rx="10.6022" fill="#151E3F"/>
</mask>
<g mask="url(#mask0)">
</g>
<g clip-path="url(#clip1)">
<path d="M228.597 102.432H207.336C206.138 102.432 205.166 101.46 205.166 100.261C205.166 99.0623 206.138 98.0908 207.336 98.0908H228.597C229.796 98.0908 230.767 99.0623 230.767 100.261C230.767 101.46 229.796 102.432 228.597 102.432Z" fill="#D8AA5E"/>
<path d="M188.96 153.839C187.761 153.839 186.789 152.868 186.789 151.669V38.5699C186.789 37.3709 187.761 36.3994 188.96 36.3994C190.158 36.3994 191.13 37.3709 191.13 38.5699V151.669C191.13 152.867 190.158 153.839 188.96 153.839Z" fill="#E9B665"/>
<path d="M188.959 83.6449H174.765C173.567 83.6449 172.595 82.6734 172.595 81.4744C172.595 80.2755 173.567 79.304 174.765 79.304H188.959C190.158 79.304 191.129 80.2755 191.129 81.4744C191.129 82.6734 190.158 83.6449 188.959 83.6449Z" fill="#D8AA5E"/>
<path d="M180.569 112.986V155.106H165.431V58.0014C165.431 57.3722 165.941 56.8623 166.57 56.8623H173.626C174.255 56.8623 174.765 57.3722 174.765 58.0014V104.851C174.765 107.38 176.382 109.531 178.639 110.326C179.781 110.729 180.569 111.775 180.569 112.986V112.986Z" fill="#A44F3E"/>
<path d="M175.725 112.986V155.106H165.431V58.0014C165.431 57.3722 165.941 56.8623 166.57 56.8623H168.782C169.411 56.8623 169.921 57.3722 169.921 58.0014V104.851C169.921 107.38 171.538 109.531 173.794 110.326C174.936 110.729 175.725 111.775 175.725 112.986V112.986Z" fill="#BB5D4C"/>
<path d="M125.123 153.838C123.924 153.838 122.952 152.867 122.952 151.668V38.5699C122.952 37.3709 123.924 36.3994 125.123 36.3994C126.321 36.3994 127.293 37.3709 127.293 38.5699V151.668C127.293 152.867 126.321 153.838 125.123 153.838Z" fill="#E9B665"/>
<path d="M157.042 153.839C155.843 153.839 154.871 152.868 154.871 151.669V38.5699C154.871 37.3709 155.843 36.3994 157.042 36.3994C158.24 36.3994 159.212 37.3709 159.212 38.5699V151.669C159.212 152.867 158.24 153.839 157.042 153.839Z" fill="#E9B665"/>
<path d="M228.598 32.4137V37.1554C228.598 37.9362 227.965 38.5691 227.184 38.5691H118.817C118.036 38.5691 117.403 37.9362 117.403 37.1554V32.4137C117.403 31.6329 118.036 31 118.817 31H227.184C227.965 31 228.598 31.6329 228.598 32.4137V32.4137Z" fill="#E19974"/>
<path d="M214.973 32.4137V37.1554C214.973 37.9362 214.34 38.5691 213.56 38.5691H118.817C118.036 38.5691 117.403 37.9362 117.403 37.1554V32.4137C117.403 31.6329 118.036 31 118.817 31H213.56C214.34 31 214.973 31.6329 214.973 32.4137V32.4137Z" fill="#E8AD8C"/>
<path d="M165.431 83.6449H142.847C141.649 83.6449 140.677 82.6734 140.677 81.4744C140.677 80.2755 141.649 79.304 142.847 79.304H165.431C166.629 79.304 167.601 80.2755 167.601 81.4744C167.601 82.6734 166.629 83.6449 165.431 83.6449Z" fill="#D8AA5E"/>
<path d="M148.651 112.986V155.741H133.513V58.0014C133.513 57.3722 134.023 56.8623 134.652 56.8623H141.708C142.337 56.8623 142.847 57.3722 142.847 58.0014V104.851C142.847 107.38 144.464 109.531 146.721 110.326C147.863 110.729 148.651 111.775 148.651 112.986V112.986Z" fill="#A44F3E"/>
<path d="M144.01 112.986V155.741H133.513V58.0014C133.513 57.3722 134.023 56.8623 134.652 56.8623H137.067C137.696 56.8623 138.206 57.3722 138.206 58.0014V104.851C138.206 107.38 139.823 109.531 142.079 110.326C143.221 110.729 144.01 111.775 144.01 112.986V112.986Z" fill="#BB5D4C"/>
<path d="M210.964 120.988V153.839H198.871V77.0758C198.871 76.4467 199.381 75.9368 200.01 75.9368H206.197C206.827 75.9368 207.336 76.4467 207.336 77.0758V115.203C207.336 116.623 208.151 117.851 209.338 118.447C210.314 118.936 210.964 119.896 210.964 120.988V120.988Z" fill="#A44F3E"/>
<path d="M207.337 120.988V153.839H198.872V77.0758C198.872 76.4467 199.382 75.9368 200.011 75.9368H202.571C203.201 75.9368 203.71 76.4467 203.71 77.0758V115.203C203.71 116.623 204.525 117.851 205.712 118.447C206.687 118.936 207.337 119.896 207.337 120.988V120.988Z" fill="#BB5D4C"/>
<path d="M133.513 83.6449H117.403C116.204 83.6449 115.232 82.6734 115.232 81.4744C115.232 80.2755 116.204 79.304 117.403 79.304H133.513C134.712 79.304 135.684 80.2755 135.684 81.4744C135.684 82.6734 134.712 83.6449 133.513 83.6449Z" fill="#D8AA5E"/>
<path d="M198.871 102.432H188.959C187.76 102.432 186.788 101.46 186.788 100.261C186.788 99.0623 187.76 98.0908 188.959 98.0908H198.871C200.07 98.0908 201.042 99.0623 201.042 100.261C201.042 101.46 200.07 102.432 198.871 102.432Z" fill="#D8AA5E"/>
<path d="M228.598 155.669V162.363C228.598 164.573 226.807 166.364 224.597 166.364H121.404C119.194 166.364 117.403 164.573 117.403 162.363V155.669C117.403 153.459 119.194 151.668 121.404 151.668H224.597C226.807 151.668 228.598 153.459 228.598 155.669Z" fill="#E19974"/>
<path d="M214.973 155.669V162.363C214.973 164.573 213.182 166.364 210.973 166.364H121.404C119.194 166.364 117.403 164.573 117.403 162.363V155.669C117.403 153.459 119.194 151.668 121.404 151.668H210.972C213.182 151.668 214.973 153.459 214.973 155.669Z" fill="#E8AD8C"/>
</g>
<path d="M29.3126 18.5908C31.1785 18.5908 32.5683 19.0281 33.4819 19.9028C34.3954 20.7775 34.8522 22.07 34.8522 23.7805C34.8522 24.6941 34.6287 25.5007 34.1816 26.2005C33.7346 26.8808 33.0737 27.4153 32.199 27.8041C31.3243 28.1734 30.2455 28.358 28.9627 28.358L29.0793 27.046C29.6819 27.046 30.3719 27.1335 31.1494 27.3084C31.9269 27.4639 32.6752 27.7555 33.3944 28.1831C34.133 28.5913 34.7356 29.1744 35.2021 29.9325C35.688 30.6711 35.931 31.6235 35.931 32.7898C35.931 34.0726 35.7172 35.1222 35.2895 35.9386C34.8814 36.755 34.3371 37.3867 33.6568 37.8338C32.9765 38.2808 32.2476 38.5918 31.4701 38.7668C30.6926 38.9223 29.9443 39 29.2251 39H21.9652C21.4599 39 21.0322 38.8348 20.6824 38.5043C20.3519 38.1545 20.1867 37.7269 20.1867 37.2215V20.3693C20.1867 19.8639 20.3519 19.446 20.6824 19.1156C21.0322 18.7657 21.4599 18.5908 21.9652 18.5908H29.3126ZM28.7877 22.0312H23.598L23.977 21.5647V26.8419L23.6271 26.5795H28.8752C29.4389 26.5795 29.9443 26.3949 30.3913 26.0256C30.8384 25.6562 31.0619 25.1217 31.0619 24.422C31.0619 23.5862 30.8481 22.9836 30.4205 22.6143C30.0123 22.2255 29.4681 22.0312 28.7877 22.0312ZM29.021 30.0199H23.7146L23.977 29.7867V35.9386L23.6854 35.6471H29.2251C30.1192 35.6471 30.8287 35.4138 31.3535 34.9473C31.8783 34.4614 32.1407 33.7422 32.1407 32.7898C32.1407 31.9151 31.9658 31.2834 31.6159 30.8946C31.266 30.5059 30.8481 30.2629 30.3622 30.1657C29.8762 30.0685 29.4292 30.0199 29.021 30.0199ZM51.7707 23.1099C52.2761 23.1099 52.694 23.2752 53.0244 23.6056C53.3548 23.936 53.5201 24.3637 53.5201 24.8885V37.2215C53.5201 37.7269 53.3548 38.1545 53.0244 38.5043C52.694 38.8348 52.2761 39 51.7707 39C51.2653 39 50.8474 38.8348 50.517 38.5043C50.1865 38.1545 50.0213 37.7269 50.0213 37.2215V35.7928L50.6628 36.0552C50.6628 36.3079 50.5267 36.6189 50.2546 36.9882C49.9825 37.3381 49.6131 37.688 49.1466 38.0378C48.6802 38.3877 48.1262 38.689 47.4848 38.9417C46.8628 39.1749 46.1824 39.2916 45.4438 39.2916C44.1026 39.2916 42.8878 38.9514 41.7993 38.2711C40.7108 37.5714 39.8459 36.6189 39.2044 35.4138C38.5824 34.1892 38.2714 32.7898 38.2714 31.2153C38.2714 29.6215 38.5824 28.222 39.2044 27.0169C39.8459 25.7923 40.7011 24.8399 41.7702 24.1596C42.8392 23.4598 44.0249 23.1099 45.3272 23.1099C46.163 23.1099 46.9308 23.2363 47.6305 23.489C48.3303 23.7417 48.9328 24.0624 49.4382 24.4511C49.963 24.8399 50.3615 25.2383 50.6336 25.6465C50.9252 26.0353 51.071 26.3657 51.071 26.6378L50.0213 27.0169V24.8885C50.0213 24.3831 50.1865 23.9652 50.517 23.6348C50.8474 23.2849 51.2653 23.1099 51.7707 23.1099ZM45.8812 36.0844C46.7364 36.0844 47.4848 35.8706 48.1262 35.443C48.7676 35.0153 49.2633 34.4322 49.6131 33.6936C49.9825 32.955 50.1671 32.1289 50.1671 31.2153C50.1671 30.2823 49.9825 29.4465 49.6131 28.7079C49.2633 27.9693 48.7676 27.3862 48.1262 26.9585C47.4848 26.5309 46.7364 26.3171 45.8812 26.3171C45.0454 26.3171 44.3067 26.5309 43.6653 26.9585C43.0239 27.3862 42.5185 27.9693 42.1492 28.7079C41.7993 29.4465 41.6244 30.2823 41.6244 31.2153C41.6244 32.1289 41.7993 32.955 42.1492 33.6936C42.5185 34.4322 43.0239 35.0153 43.6653 35.443C44.3067 35.8706 45.0454 36.0844 45.8812 36.0844ZM56.4045 36.58C56.2101 36.3079 56.1226 35.9581 56.1421 35.5304C56.1615 35.1028 56.4142 34.7335 56.9001 34.4225C57.2111 34.2281 57.5415 34.1504 57.8914 34.1892C58.2413 34.2087 58.5814 34.3836 58.9119 34.7141C59.4756 35.2777 60.0684 35.7151 60.6904 36.0261C61.3124 36.3371 62.0899 36.4926 63.0229 36.4926C63.3144 36.4731 63.6352 36.4343 63.985 36.376C64.3349 36.2982 64.6362 36.1427 64.8889 35.9095C65.161 35.6568 65.2971 35.2777 65.2971 34.7724C65.2971 34.3447 65.1513 34.0046 64.8597 33.7519C64.5682 33.4992 64.1794 33.2854 63.6935 33.1105C63.227 32.9355 62.7022 32.7703 62.119 32.6148C61.5165 32.4399 60.8945 32.2455 60.2531 32.0317C59.6311 31.8179 59.0577 31.5458 58.5329 31.2153C58.008 30.8655 57.5804 30.4087 57.25 29.845C56.9196 29.2813 56.7543 28.5718 56.7543 27.7166C56.7543 26.7447 57.0265 25.9186 57.5707 25.2383C58.115 24.558 58.8147 24.0332 59.6699 23.6639C60.5446 23.2946 61.4582 23.1099 62.4106 23.1099C63.0132 23.1099 63.6449 23.1877 64.3058 23.3432C64.9666 23.4793 65.5983 23.7125 66.2009 24.0429C66.8035 24.3539 67.3088 24.7718 67.717 25.2966C67.9308 25.5882 68.0572 25.9381 68.096 26.3463C68.1349 26.7545 67.9503 27.1238 67.5421 27.4542C67.2505 27.6874 66.9104 27.7944 66.5216 27.7749C66.1329 27.736 65.8122 27.6 65.5595 27.3667C65.229 26.9391 64.782 26.599 64.2183 26.3463C63.674 26.0936 63.0423 25.9672 62.3231 25.9672C62.0316 25.9672 61.7109 26.0061 61.361 26.0839C61.0306 26.1422 60.739 26.288 60.4863 26.5212C60.2336 26.735 60.1073 27.0849 60.1073 27.5708C60.1073 28.0179 60.2531 28.3775 60.5446 28.6496C60.8362 28.9023 61.2249 29.1161 61.7109 29.291C62.2162 29.4465 62.7508 29.602 63.3144 29.7575C63.8976 29.913 64.4904 30.0977 65.093 30.3115C65.6955 30.5253 66.2495 30.8071 66.7549 31.157C67.2602 31.5069 67.6684 31.9637 67.9794 32.5274C68.2904 33.0716 68.4459 33.7713 68.4459 34.6266C68.4459 35.6179 68.1544 36.4634 67.5712 37.1632C66.9881 37.8629 66.2592 38.3974 65.3845 38.7668C64.5098 39.1166 63.6157 39.2916 62.7022 39.2916C61.5554 39.2916 60.4086 39.0972 59.2618 38.7084C58.115 38.3003 57.1625 37.5908 56.4045 36.58ZM84.372 23.1099C84.8773 23.1099 85.2952 23.2752 85.6257 23.6056C85.9561 23.936 86.1213 24.3637 86.1213 24.8885V37.2215C86.1213 37.7269 85.9561 38.1545 85.6257 38.5043C85.2952 38.8348 84.8773 39 84.372 39C83.8666 39 83.4487 38.8348 83.1182 38.5043C82.7878 38.1545 82.6226 37.7269 82.6226 37.2215V35.7928L83.264 36.0552C83.264 36.3079 83.128 36.6189 82.8558 36.9882C82.5837 37.3381 82.2144 37.688 81.7479 38.0378C81.2814 38.3877 80.7275 38.689 80.086 38.9417C79.464 39.1749 78.7837 39.2916 78.0451 39.2916C76.7039 39.2916 75.4891 38.9514 74.4006 38.2711C73.3121 37.5714 72.4471 36.6189 71.8057 35.4138C71.1837 34.1892 70.8727 32.7898 70.8727 31.2153C70.8727 29.6215 71.1837 28.222 71.8057 27.0169C72.4471 25.7923 73.3024 24.8399 74.3714 24.1596C75.4405 23.4598 76.6262 23.1099 77.9285 23.1099C78.7643 23.1099 79.5321 23.2363 80.2318 23.489C80.9315 23.7417 81.5341 24.0624 82.0395 24.4511C82.5643 24.8399 82.9628 25.2383 83.2349 25.6465C83.5264 26.0353 83.6722 26.3657 83.6722 26.6378L82.6226 27.0169V24.8885C82.6226 24.3831 82.7878 23.9652 83.1182 23.6348C83.4487 23.2849 83.8666 23.1099 84.372 23.1099ZM78.4824 36.0844C79.3377 36.0844 80.086 35.8706 80.7275 35.443C81.3689 35.0153 81.8645 34.4322 82.2144 33.6936C82.5837 32.955 82.7684 32.1289 82.7684 31.2153C82.7684 30.2823 82.5837 29.4465 82.2144 28.7079C81.8645 27.9693 81.3689 27.3862 80.7275 26.9585C80.086 26.5309 79.3377 26.3171 78.4824 26.3171C77.6466 26.3171 76.908 26.5309 76.2666 26.9585C75.6251 27.3862 75.1198 27.9693 74.7505 28.7079C74.4006 29.4465 74.2256 30.2823 74.2256 31.2153C74.2256 32.1289 74.4006 32.955 74.7505 33.6936C75.1198 34.4322 75.6251 35.0153 76.2666 35.443C76.908 35.8706 77.6466 36.0844 78.4824 36.0844ZM29.3126 54.5908C31.1785 54.5908 32.5683 55.0281 33.4819 55.9028C34.3954 56.7775 34.8522 58.07 34.8522 59.7805C34.8522 60.6941 34.6287 61.5007 34.1816 62.2005C33.7346 62.8808 33.0737 63.4153 32.199 63.8041C31.3243 64.1734 30.2455 64.358 28.9627 64.358L29.0793 63.046C29.6819 63.046 30.3719 63.1335 31.1494 63.3084C31.9269 63.4639 32.6752 63.7555 33.3944 64.1831C34.133 64.5913 34.7356 65.1744 35.2021 65.9325C35.688 66.6711 35.931 67.6235 35.931 68.7898C35.931 70.0726 35.7172 71.1222 35.2895 71.9386C34.8814 72.755 34.3371 73.3867 33.6568 73.8338C32.9765 74.2808 32.2476 74.5918 31.4701 74.7668C30.6926 74.9223 29.9443 75 29.2251 75H21.9652C21.4599 75 21.0322 74.8348 20.6824 74.5043C20.3519 74.1545 20.1867 73.7269 20.1867 73.2215V56.3693C20.1867 55.8639 20.3519 55.446 20.6824 55.1156C21.0322 54.7657 21.4599 54.5908 21.9652 54.5908H29.3126ZM28.7877 58.0312H23.598L23.977 57.5647V62.8419L23.6271 62.5795H28.8752C29.4389 62.5795 29.9443 62.3949 30.3913 62.0256C30.8384 61.6562 31.0619 61.1217 31.0619 60.422C31.0619 59.5862 30.8481 58.9836 30.4205 58.6143C30.0123 58.2255 29.4681 58.0312 28.7877 58.0312ZM29.021 66.0199H23.7146L23.977 65.7867V71.9386L23.6854 71.6471H29.2251C30.1192 71.6471 30.8287 71.4138 31.3535 70.9473C31.8783 70.4614 32.1407 69.7422 32.1407 68.7898C32.1407 67.9151 31.9658 67.2834 31.6159 66.8946C31.266 66.5059 30.8481 66.2629 30.3622 66.1657C29.8762 66.0685 29.4292 66.0199 29.021 66.0199ZM51.7707 59.1099C52.2761 59.1099 52.694 59.2752 53.0244 59.6056C53.3548 59.936 53.5201 60.3637 53.5201 60.8885V73.2215C53.5201 73.7269 53.3548 74.1545 53.0244 74.5043C52.694 74.8348 52.2761 75 51.7707 75C51.2653 75 50.8474 74.8348 50.517 74.5043C50.1865 74.1545 50.0213 73.7269 50.0213 73.2215V71.7928L50.6628 72.0552C50.6628 72.3079 50.5267 72.6189 50.2546 72.9882C49.9825 73.3381 49.6131 73.688 49.1466 74.0378C48.6802 74.3877 48.1262 74.689 47.4848 74.9417C46.8628 75.1749 46.1824 75.2916 45.4438 75.2916C44.1026 75.2916 42.8878 74.9514 41.7993 74.2711C40.7108 73.5714 39.8459 72.6189 39.2044 71.4138C38.5824 70.1892 38.2714 68.7898 38.2714 67.2153C38.2714 65.6215 38.5824 64.222 39.2044 63.0169C39.8459 61.7923 40.7011 60.8399 41.7702 60.1596C42.8392 59.4598 44.0249 59.1099 45.3272 59.1099C46.163 59.1099 46.9308 59.2363 47.6305 59.489C48.3303 59.7417 48.9328 60.0624 49.4382 60.4511C49.963 60.8399 50.3615 61.2383 50.6336 61.6465C50.9252 62.0353 51.071 62.3657 51.071 62.6378L50.0213 63.0169V60.8885C50.0213 60.3831 50.1865 59.9652 50.517 59.6348C50.8474 59.2849 51.2653 59.1099 51.7707 59.1099ZM45.8812 72.0844C46.7364 72.0844 47.4848 71.8706 48.1262 71.443C48.7676 71.0153 49.2633 70.4322 49.6131 69.6936C49.9825 68.955 50.1671 68.1289 50.1671 67.2153C50.1671 66.2823 49.9825 65.4465 49.6131 64.7079C49.2633 63.9693 48.7676 63.3862 48.1262 62.9585C47.4848 62.5309 46.7364 62.3171 45.8812 62.3171C45.0454 62.3171 44.3067 62.5309 43.6653 62.9585C43.0239 63.3862 42.5185 63.9693 42.1492 64.7079C41.7993 65.4465 41.6244 66.2823 41.6244 67.2153C41.6244 68.1289 41.7993 68.955 42.1492 69.6936C42.5185 70.4322 43.0239 71.0153 43.6653 71.443C44.3067 71.8706 45.0454 72.0844 45.8812 72.0844ZM57.4832 59.6931H64.3932C64.8597 59.6931 65.2485 59.8486 65.5595 60.1596C65.8705 60.4706 66.026 60.8593 66.026 61.3258C66.026 61.7729 65.8705 62.1519 65.5595 62.4629C65.2485 62.7545 64.8597 62.9002 64.3932 62.9002H57.4832C57.0167 62.9002 56.628 62.7447 56.317 62.4337C56.006 62.1227 55.8505 61.734 55.8505 61.2675C55.8505 60.8204 56.006 60.4511 56.317 60.1596C56.628 59.8486 57.0167 59.6931 57.4832 59.6931ZM60.6029 56.0486C61.1083 56.0486 61.5165 56.2235 61.8275 56.5734C62.1579 56.9038 62.3231 57.3217 62.3231 57.8271V70.8015C62.3231 71.0736 62.3717 71.2972 62.4689 71.4721C62.5855 71.6471 62.7313 71.7734 62.9063 71.8511C63.1006 71.9289 63.3047 71.9678 63.5185 71.9678C63.7518 71.9678 63.9656 71.9289 64.16 71.8511C64.3543 71.754 64.5779 71.7054 64.8306 71.7054C65.1027 71.7054 65.3457 71.8317 65.5595 72.0844C65.7927 72.3371 65.9093 72.687 65.9093 73.134C65.9093 73.6783 65.6081 74.1253 65.0055 74.4752C64.4224 74.8251 63.7907 75 63.1104 75C62.7022 75 62.2454 74.9708 61.74 74.9125C61.2541 74.8348 60.7876 74.6696 60.3405 74.4169C59.9129 74.1448 59.5533 73.7366 59.2618 73.1923C58.9702 72.6481 58.8244 71.8997 58.8244 70.9473V57.8271C58.8244 57.3217 58.9896 56.9038 59.3201 56.5734C59.6699 56.2235 60.0976 56.0486 60.6029 56.0486ZM82.0087 59.1099C82.5141 59.1099 82.932 59.2752 83.2624 59.6056C83.5929 59.936 83.7581 60.3637 83.7581 60.8885V73.2215C83.7581 73.7269 83.5929 74.1545 83.2624 74.5043C82.932 74.8348 82.5141 75 82.0087 75C81.5034 75 81.0854 74.8348 80.755 74.5043C80.4246 74.1545 80.2594 73.7269 80.2594 73.2215V71.7928L80.9008 72.0552C80.9008 72.3079 80.7647 72.6189 80.4926 72.9882C80.2205 73.3381 79.8512 73.688 79.3847 74.0378C78.9182 74.3877 78.3642 74.689 77.7228 74.9417C77.1008 75.1749 76.4205 75.2916 75.6819 75.2916C74.3407 75.2916 73.1258 74.9514 72.0374 74.2711C70.9489 73.5714 70.0839 72.6189 69.4425 71.4138C68.8205 70.1892 68.5095 68.7898 68.5095 67.2153C68.5095 65.6215 68.8205 64.222 69.4425 63.0169C70.0839 61.7923 70.9391 60.8399 72.0082 60.1596C73.0772 59.4598 74.2629 59.1099 75.5652 59.1099C76.401 59.1099 77.1688 59.2363 77.8686 59.489C78.5683 59.7417 79.1709 60.0624 79.6762 60.4511C80.201 60.8399 80.5995 61.2383 80.8716 61.6465C81.1632 62.0353 81.309 62.3657 81.309 62.6378L80.2594 63.0169V60.8885C80.2594 60.3831 80.4246 59.9652 80.755 59.6348C81.0854 59.2849 81.5034 59.1099 82.0087 59.1099ZM76.1192 72.0844C76.9744 72.0844 77.7228 71.8706 78.3642 71.443C79.0057 71.0153 79.5013 70.4322 79.8512 69.6936C80.2205 68.955 80.4051 68.1289 80.4051 67.2153C80.4051 66.2823 80.2205 65.4465 79.8512 64.7079C79.5013 63.9693 79.0057 63.3862 78.3642 62.9585C77.7228 62.5309 76.9744 62.3171 76.1192 62.3171C75.2834 62.3171 74.5448 62.5309 73.9033 62.9585C73.2619 63.3862 72.7565 63.9693 72.3872 64.7079C72.0374 65.4465 71.8624 66.2823 71.8624 67.2153C71.8624 68.1289 72.0374 68.955 72.3872 69.6936C72.7565 70.4322 73.2619 71.0153 73.9033 71.443C74.5448 71.8706 75.2834 72.0844 76.1192 72.0844ZM89.5873 75C89.0819 75 88.664 74.8348 88.3335 74.5043C88.0031 74.1545 87.8379 73.7269 87.8379 73.2215V55.203C87.8379 54.6977 88.0031 54.2798 88.3335 53.9493C88.664 53.5994 89.0819 53.4245 89.5873 53.4245C90.0926 53.4245 90.5105 53.5994 90.841 53.9493C91.1714 54.2798 91.3366 54.6977 91.3366 55.203V73.2215C91.3366 73.7269 91.1714 74.1545 90.841 74.5043C90.5105 74.8348 90.0926 75 89.5873 75ZM98.8589 59.4015C99.3059 59.4015 99.6947 59.5862 100.025 59.9555C100.356 60.3248 100.521 60.6844 100.521 61.0342C100.521 61.5007 100.288 61.9381 99.821 62.3463L91.0451 70.4225L90.8993 66.399L97.576 59.9555C97.9453 59.5862 98.3729 59.4015 98.8589 59.4015ZM99.2962 74.9708C98.7909 74.9708 98.3632 74.7765 98.0134 74.3877L92.6195 68.6731L95.2727 66.224L100.521 71.9386C100.89 72.3274 101.075 72.7647 101.075 73.2506C101.075 73.756 100.871 74.1739 100.462 74.5043C100.074 74.8153 99.685 74.9708 99.2962 74.9708Z" fill="white"/>
</g>
<defs>
<clipPath id="clip0">
<rect width="217.345" height="162.744" fill="white" transform="translate(0.183594)"/>
</clipPath>
<clipPath id="clip1">
<rect width="146" height="146" fill="white" transform="translate(100 31)"/>
</clipPath>
</defs>
</svg>
