<svg width="410" height="307" viewBox="0 0 410 307" fill="none" xmlns="http://www.w3.org/2000/svg">
<rect width="410" height="307" rx="20" fill="#330036"/>
<mask id="mask0" style="mask-type:alpha" maskUnits="userSpaceOnUse" x="0" y="0" width="410" height="307">
<rect width="410" height="307" rx="20" fill="#330036"/>
</mask>
<g mask="url(#mask0)">
<path d="M393.101 119.978C390.547 119.978 388.477 117.908 388.477 115.354V83.7998C388.477 81.2453 390.547 79.1755 393.101 79.1755C395.656 79.1755 397.726 81.2453 397.726 83.7998V115.354C397.726 117.908 395.656 119.978 393.101 119.978Z" fill="#22B27F"/>
<path d="M310.818 130.737C308.264 130.737 306.194 128.668 306.194 126.113V53.1052C306.194 50.5508 308.264 48.481 310.818 48.481C313.373 48.481 315.443 50.5508 315.443 53.1052V126.113C315.443 128.668 313.373 130.737 310.818 130.737Z" fill="#67C142"/>
<path d="M331.177 119.978C328.623 119.978 326.553 117.908 326.553 115.354V45.0139C326.553 42.4595 328.623 40.3896 331.177 40.3896C333.732 40.3896 335.801 42.4595 335.801 45.0139V115.354C335.801 117.908 333.731 119.978 331.177 119.978Z" fill="#67C142"/>
<path d="M351.542 113.041C348.987 113.041 346.917 110.971 346.917 108.416V44.4985C346.917 41.9441 348.987 39.8743 351.542 39.8743C354.096 39.8743 356.166 41.9441 356.166 44.4985V108.416C356.166 110.971 354.096 113.041 351.542 113.041Z" fill="#67C142"/>
<path d="M495.921 120.219V92.4388C495.921 68.5544 476.489 49.1227 452.605 49.1227H407.793C405.239 49.1227 403.169 47.0529 403.169 44.4985C403.169 41.9441 405.239 39.8743 407.793 39.8743H452.605C481.589 39.8743 505.169 63.4548 505.169 92.4388V128.103L495.921 120.219Z" fill="#80D261"/>
<path d="M281.033 125.962V92.4388C281.033 63.4548 304.614 39.8743 333.598 39.8743H376.097C378.651 39.8743 380.721 41.9441 380.721 44.4985C380.721 47.0529 378.651 49.1227 376.097 49.1227H333.598C309.713 49.1227 290.282 68.5544 290.282 92.4388V120.219L281.033 125.962Z" fill="#80D261"/>
<path d="M290.283 209.344V250.352L282.076 252.208L275.35 253.731L260.423 250.352V209.344L275.35 204.658L283.575 207.242L290.283 209.344Z" fill="#80D261"/>
<path d="M290.283 209.344V250.352L282.077 252.208L276.669 250.352V209.344L283.575 207.242L290.283 209.344Z" fill="#67C142"/>
<path d="M298.977 272.036V334.254C298.977 336.843 296.881 338.94 294.298 338.94H256.41C253.82 338.94 251.724 336.843 251.724 334.254V272.036L275.35 265.303L298.977 272.036Z" fill="#80D261"/>
<path d="M298.977 272.037V334.254C298.977 336.844 296.881 338.94 294.298 338.94H280.641C283.224 338.94 285.32 336.844 285.32 334.254V268.146L298.977 272.037Z" fill="#67C142"/>
<path d="M279.974 272.036V338.94H270.726V272.036C270.726 269.478 272.797 267.412 275.35 267.412C277.909 267.412 279.974 269.478 279.974 272.036Z" fill="#67C142"/>
<path d="M296.502 250.352H254.202C249.744 250.352 245.8 253.245 244.462 257.498L241.444 267.084C240.672 269.537 242.504 272.034 245.076 272.034H305.629C308.2 272.034 310.033 269.537 309.26 267.084L306.243 257.498C304.903 253.245 300.96 250.352 296.502 250.352V250.352Z" fill="#22B27F"/>
<path d="M305.629 272.036H291.973C294.544 272.036 296.375 269.539 295.604 267.085L292.583 257.498C291.245 253.244 287.305 250.352 282.847 250.352H296.504C300.962 250.352 304.902 253.244 306.24 257.498L309.261 267.085C310.032 269.539 308.201 272.036 305.629 272.036V272.036Z" fill="#09A76D"/>
<path d="M302.51 187.524C302.466 187.616 302.417 187.709 302.368 187.795L290.283 209.344H260.423L248.332 187.795C248.283 187.709 248.233 187.616 248.19 187.524C246.673 184.638 246.606 181.216 247.987 178.275C248.073 178.084 248.166 177.905 248.264 177.72L260.423 155.308L275.353 150.729L290.283 155.308L302.442 177.72C302.54 177.905 302.633 178.09 302.719 178.275C304.1 181.216 304.02 184.638 302.51 187.524V187.524Z" fill="#FFE177"/>
<path d="M290.282 155.308L282.064 152.788L276.669 155.308L288.828 177.72C290.536 180.869 290.509 184.672 288.756 187.796L276.669 209.342H290.282L302.37 187.796C304.122 184.672 304.149 180.868 302.441 177.72L290.282 155.308Z" fill="#FFD15B"/>
<path d="M260.422 155.308H290.282V120.22L269.486 129.103C263.988 131.452 260.422 136.853 260.422 142.831V155.308Z" fill="#22B27F"/>
<path d="M276.669 126.034V155.308H290.282V120.219L276.669 126.034Z" fill="#09A76D"/>
<path d="M270.941 126.853C270.245 129.467 267.217 130.657 264.942 129.202C263.148 128.055 260.972 126.458 258.659 124.312C258.456 124.121 258.265 123.936 258.074 123.751C249.411 115.409 239.281 99.3354 241.248 70.4432V70.437C241.359 68.7599 241.513 67.0459 241.71 65.2825C241.944 63.2109 244.3 62.1319 246.026 63.3095C255.78 69.9807 280.541 90.9378 270.941 126.853V126.853Z" fill="#80D261"/>
<path d="M270.941 126.853C270.245 129.467 267.217 130.657 264.942 129.202C263.148 128.055 260.972 126.458 258.659 124.312C258.456 124.121 258.265 123.936 258.074 123.751C263.672 98.0591 251.587 80.3945 241.248 70.4987V70.437C241.359 68.7599 241.513 67.0459 241.71 65.2825C241.944 63.2109 244.3 62.1319 246.026 63.3095C255.78 69.9807 280.541 90.9378 270.941 126.853V126.853Z" fill="#67C142"/>
<path d="M410.369 57.1366H375.834C373.332 57.1366 371.303 55.1081 371.303 52.6061V38.5305C371.303 36.0285 373.332 34 375.834 34H410.369C412.871 34 414.899 36.0285 414.899 38.5305V52.6067C414.899 55.1081 412.871 57.1366 410.369 57.1366V57.1366Z" fill="#22B27F"/>
<path d="M410.369 34H396.756C399.258 34 401.287 36.0285 401.287 38.5305V52.6067C401.287 55.1087 399.258 57.1366 396.756 57.1366H410.369C412.871 57.1366 414.9 55.1081 414.9 52.6067V38.5305C414.899 36.0285 412.871 34 410.369 34V34Z" fill="#09A76D"/>
<path d="M416.802 90.24L414.046 97.6696C413.152 100.08 410.014 100.685 408.287 98.7795L395.432 84.5862C394.809 83.8956 393.952 83.5503 393.101 83.5503C392.25 83.5503 391.393 83.8956 390.771 84.5862L377.915 98.7795C376.189 100.685 373.051 100.08 372.157 97.6696L369.401 90.24C366.928 83.5812 368.876 76.0899 374.265 71.4718L389.414 58.4993C390.475 57.593 391.788 57.1367 393.101 57.1367C394.415 57.1367 395.728 57.593 396.788 58.4993L411.937 71.4718C417.326 76.0899 419.274 83.5812 416.802 90.24V90.24Z" fill="#6C7FD8"/>
<path d="M416.802 90.24L414.046 97.6696C413.152 100.08 410.014 100.685 408.287 98.7795L395.432 84.5862C394.809 83.8956 393.952 83.5503 393.101 83.5503V57.1367C394.414 57.1367 395.728 57.593 396.788 58.4993L411.937 71.4718C417.326 76.0899 419.274 83.5812 416.802 90.24V90.24Z" fill="#4F66D0"/>
<path d="M302.51 187.524H248.19C246.673 184.638 246.606 181.216 247.987 178.275H302.719C304.1 181.216 304.02 184.638 302.51 187.524Z" fill="#FFD15B"/>
</g>
<path d="M55.34 34.5C58.86 34.5 61.4817 35.325 63.205 36.975C64.9283 38.625 65.79 41.0633 65.79 44.29C65.79 46.0133 65.3683 47.535 64.525 48.855C63.6817 50.1383 62.435 51.1467 60.785 51.88C59.135 52.5767 57.1 52.925 54.68 52.925L54.9 50.45C56.0367 50.45 57.3383 50.615 58.805 50.945C60.2717 51.2383 61.6833 51.7883 63.04 52.595C64.4333 53.365 65.57 54.465 66.45 55.895C67.3667 57.2883 67.825 59.085 67.825 61.285C67.825 63.705 67.4217 65.685 66.615 67.225C65.845 68.765 64.8183 69.9567 63.535 70.8C62.2517 71.6433 60.8767 72.23 59.41 72.56C57.9433 72.8533 56.5317 73 55.175 73H41.48C40.5267 73 39.72 72.6883 39.06 72.065C38.4367 71.405 38.125 70.5983 38.125 69.645V37.855C38.125 36.9017 38.4367 36.1133 39.06 35.49C39.72 34.83 40.5267 34.5 41.48 34.5H55.34ZM54.35 40.99H44.56L45.275 40.11V50.065L44.615 49.57H54.515C55.5783 49.57 56.5317 49.2217 57.375 48.525C58.2183 47.8283 58.64 46.82 58.64 45.5C58.64 43.9233 58.2367 42.7867 57.43 42.09C56.66 41.3567 55.6333 40.99 54.35 40.99ZM54.79 56.06H44.78L45.275 55.62V67.225L44.725 66.675H55.175C56.8617 66.675 58.2 66.235 59.19 65.355C60.18 64.4383 60.675 63.0817 60.675 61.285C60.675 59.635 60.345 58.4433 59.685 57.71C59.025 56.9767 58.2367 56.5183 57.32 56.335C56.4033 56.1517 55.56 56.06 54.79 56.06ZM97.705 43.025C98.6584 43.025 99.4467 43.3367 100.07 43.96C100.693 44.5833 101.005 45.39 101.005 46.38V69.645C101.005 70.5983 100.693 71.405 100.07 72.065C99.4467 72.6883 98.6584 73 97.705 73C96.7517 73 95.9634 72.6883 95.34 72.065C94.7167 71.405 94.405 70.5983 94.405 69.645V66.95L95.615 67.445C95.615 67.9217 95.3584 68.5083 94.845 69.205C94.3317 69.865 93.635 70.525 92.755 71.185C91.875 71.845 90.83 72.4133 89.62 72.89C88.4467 73.33 87.1634 73.55 85.77 73.55C83.24 73.55 80.9484 72.9083 78.895 71.625C76.8417 70.305 75.21 68.5083 74 66.235C72.8267 63.925 72.24 61.285 72.24 58.315C72.24 55.3083 72.8267 52.6683 74 50.395C75.21 48.085 76.8234 46.2883 78.84 45.005C80.8567 43.685 83.0934 43.025 85.55 43.025C87.1267 43.025 88.575 43.2633 89.895 43.74C91.215 44.2167 92.3517 44.8217 93.305 45.555C94.295 46.2883 95.0467 47.04 95.56 47.81C96.11 48.5433 96.385 49.1667 96.385 49.68L94.405 50.395V46.38C94.405 45.4267 94.7167 44.6383 95.34 44.015C95.9634 43.355 96.7517 43.025 97.705 43.025ZM86.595 67.5C88.2084 67.5 89.62 67.0967 90.83 66.29C92.04 65.4833 92.975 64.3833 93.635 62.99C94.3317 61.5967 94.68 60.0383 94.68 58.315C94.68 56.555 94.3317 54.9783 93.635 53.585C92.975 52.1917 92.04 51.0917 90.83 50.285C89.62 49.4783 88.2084 49.075 86.595 49.075C85.0184 49.075 83.625 49.4783 82.415 50.285C81.205 51.0917 80.2517 52.1917 79.555 53.585C78.895 54.9783 78.565 56.555 78.565 58.315C78.565 60.0383 78.895 61.5967 79.555 62.99C80.2517 64.3833 81.205 65.4833 82.415 66.29C83.625 67.0967 85.0184 67.5 86.595 67.5ZM106.446 68.435C106.08 67.9217 105.915 67.2617 105.951 66.455C105.988 65.6483 106.465 64.9517 107.381 64.365C107.968 63.9983 108.591 63.8517 109.251 63.925C109.911 63.9617 110.553 64.2917 111.176 64.915C112.24 65.9783 113.358 66.8033 114.531 67.39C115.705 67.9767 117.171 68.27 118.931 68.27C119.481 68.2333 120.086 68.16 120.746 68.05C121.406 67.9033 121.975 67.61 122.451 67.17C122.965 66.6933 123.221 65.9783 123.221 65.025C123.221 64.2183 122.946 63.5767 122.396 63.1C121.846 62.6233 121.113 62.22 120.196 61.89C119.316 61.56 118.326 61.2483 117.226 60.955C116.09 60.625 114.916 60.2583 113.706 59.855C112.533 59.4517 111.451 58.9383 110.461 58.315C109.471 57.655 108.665 56.7933 108.041 55.73C107.418 54.6667 107.106 53.3283 107.106 51.715C107.106 49.8817 107.62 48.3233 108.646 47.04C109.673 45.7567 110.993 44.7667 112.606 44.07C114.256 43.3733 115.98 43.025 117.776 43.025C118.913 43.025 120.105 43.1717 121.351 43.465C122.598 43.7217 123.79 44.1617 124.926 44.785C126.063 45.3717 127.016 46.16 127.786 47.15C128.19 47.7 128.428 48.36 128.501 49.13C128.575 49.9 128.226 50.5967 127.456 51.22C126.906 51.66 126.265 51.8617 125.531 51.825C124.798 51.7517 124.193 51.495 123.716 51.055C123.093 50.2483 122.25 49.6067 121.186 49.13C120.16 48.6533 118.968 48.415 117.611 48.415C117.061 48.415 116.456 48.4883 115.796 48.635C115.173 48.745 114.623 49.02 114.146 49.46C113.67 49.8633 113.431 50.5233 113.431 51.44C113.431 52.2833 113.706 52.9617 114.256 53.475C114.806 53.9517 115.54 54.355 116.456 54.685C117.41 54.9783 118.418 55.2717 119.481 55.565C120.581 55.8583 121.7 56.2067 122.836 56.61C123.973 57.0133 125.018 57.545 125.971 58.205C126.925 58.865 127.695 59.7267 128.281 60.79C128.868 61.8167 129.161 63.1367 129.161 64.75C129.161 66.62 128.611 68.215 127.511 69.535C126.411 70.855 125.036 71.8633 123.386 72.56C121.736 73.22 120.05 73.55 118.326 73.55C116.163 73.55 114 73.1833 111.836 72.45C109.673 71.68 107.876 70.3417 106.446 68.435ZM159.204 43.025C160.157 43.025 160.946 43.3367 161.569 43.96C162.192 44.5833 162.504 45.39 162.504 46.38V69.645C162.504 70.5983 162.192 71.405 161.569 72.065C160.946 72.6883 160.157 73 159.204 73C158.251 73 157.462 72.6883 156.839 72.065C156.216 71.405 155.904 70.5983 155.904 69.645V66.95L157.114 67.445C157.114 67.9217 156.857 68.5083 156.344 69.205C155.831 69.865 155.134 70.525 154.254 71.185C153.374 71.845 152.329 72.4133 151.119 72.89C149.946 73.33 148.662 73.55 147.269 73.55C144.739 73.55 142.447 72.9083 140.394 71.625C138.341 70.305 136.709 68.5083 135.499 66.235C134.326 63.925 133.739 61.285 133.739 58.315C133.739 55.3083 134.326 52.6683 135.499 50.395C136.709 48.085 138.322 46.2883 140.339 45.005C142.356 43.685 144.592 43.025 147.049 43.025C148.626 43.025 150.074 43.2633 151.394 43.74C152.714 44.2167 153.851 44.8217 154.804 45.555C155.794 46.2883 156.546 47.04 157.059 47.81C157.609 48.5433 157.884 49.1667 157.884 49.68L155.904 50.395V46.38C155.904 45.4267 156.216 44.6383 156.839 44.015C157.462 43.355 158.251 43.025 159.204 43.025ZM148.094 67.5C149.707 67.5 151.119 67.0967 152.329 66.29C153.539 65.4833 154.474 64.3833 155.134 62.99C155.831 61.5967 156.179 60.0383 156.179 58.315C156.179 56.555 155.831 54.9783 155.134 53.585C154.474 52.1917 153.539 51.0917 152.329 50.285C151.119 49.4783 149.707 49.075 148.094 49.075C146.517 49.075 145.124 49.4783 143.914 50.285C142.704 51.0917 141.751 52.1917 141.054 53.585C140.394 54.9783 140.064 56.555 140.064 58.315C140.064 60.0383 140.394 61.5967 141.054 62.99C141.751 64.3833 142.704 65.4833 143.914 66.29C145.124 67.0967 146.517 67.5 148.094 67.5ZM55.34 103.5C58.86 103.5 61.4817 104.325 63.205 105.975C64.9283 107.625 65.79 110.063 65.79 113.29C65.79 115.013 65.3683 116.535 64.525 117.855C63.6817 119.138 62.435 120.147 60.785 120.88C59.135 121.577 57.1 121.925 54.68 121.925L54.9 119.45C56.0367 119.45 57.3383 119.615 58.805 119.945C60.2717 120.238 61.6833 120.788 63.04 121.595C64.4333 122.365 65.57 123.465 66.45 124.895C67.3667 126.288 67.825 128.085 67.825 130.285C67.825 132.705 67.4217 134.685 66.615 136.225C65.845 137.765 64.8183 138.957 63.535 139.8C62.2517 140.643 60.8767 141.23 59.41 141.56C57.9433 141.853 56.5317 142 55.175 142H41.48C40.5267 142 39.72 141.688 39.06 141.065C38.4367 140.405 38.125 139.598 38.125 138.645V106.855C38.125 105.902 38.4367 105.113 39.06 104.49C39.72 103.83 40.5267 103.5 41.48 103.5H55.34ZM54.35 109.99H44.56L45.275 109.11V119.065L44.615 118.57H54.515C55.5783 118.57 56.5317 118.222 57.375 117.525C58.2183 116.828 58.64 115.82 58.64 114.5C58.64 112.923 58.2367 111.787 57.43 111.09C56.66 110.357 55.6333 109.99 54.35 109.99ZM54.79 125.06H44.78L45.275 124.62V136.225L44.725 135.675H55.175C56.8617 135.675 58.2 135.235 59.19 134.355C60.18 133.438 60.675 132.082 60.675 130.285C60.675 128.635 60.345 127.443 59.685 126.71C59.025 125.977 58.2367 125.518 57.32 125.335C56.4033 125.152 55.56 125.06 54.79 125.06ZM87.4213 142.55C84.3047 142.55 81.5913 141.908 79.2813 140.625C77.008 139.305 75.248 137.527 74.0013 135.29C72.7913 133.053 72.1863 130.523 72.1863 127.7C72.1863 124.4 72.8463 121.595 74.1663 119.285C75.523 116.938 77.283 115.142 79.4463 113.895C81.6097 112.648 83.9013 112.025 86.3213 112.025C88.1913 112.025 89.9513 112.41 91.6013 113.18C93.288 113.95 94.773 115.013 96.0563 116.37C97.3397 117.69 98.348 119.23 99.0813 120.99C99.8513 122.75 100.236 124.62 100.236 126.6C100.2 127.48 99.8513 128.195 99.1913 128.745C98.5313 129.295 97.7613 129.57 96.8813 129.57H75.8713L74.2213 124.07H94.4063L93.1963 125.17V123.685C93.123 122.622 92.738 121.668 92.0413 120.825C91.3813 119.982 90.538 119.322 89.5113 118.845C88.5213 118.332 87.458 118.075 86.3213 118.075C85.2213 118.075 84.1947 118.222 83.2413 118.515C82.288 118.808 81.463 119.303 80.7663 120C80.0697 120.697 79.5197 121.632 79.1163 122.805C78.713 123.978 78.5113 125.463 78.5113 127.26C78.5113 129.24 78.9147 130.927 79.7213 132.32C80.5647 133.677 81.628 134.722 82.9113 135.455C84.2313 136.152 85.6247 136.5 87.0913 136.5C88.448 136.5 89.5297 136.39 90.3363 136.17C91.143 135.95 91.7847 135.693 92.2613 135.4C92.7747 135.07 93.233 134.795 93.6363 134.575C94.2963 134.245 94.9197 134.08 95.5063 134.08C96.313 134.08 96.973 134.355 97.4863 134.905C98.0363 135.455 98.3113 136.097 98.3113 136.83C98.3113 137.82 97.798 138.718 96.7713 139.525C95.818 140.332 94.4797 141.047 92.7563 141.67C91.033 142.257 89.2547 142.55 87.4213 142.55ZM106.333 113.125H119.368C120.248 113.125 120.981 113.418 121.568 114.005C122.154 114.592 122.448 115.325 122.448 116.205C122.448 117.048 122.154 117.763 121.568 118.35C120.981 118.9 120.248 119.175 119.368 119.175H106.333C105.453 119.175 104.719 118.882 104.133 118.295C103.546 117.708 103.253 116.975 103.253 116.095C103.253 115.252 103.546 114.555 104.133 114.005C104.719 113.418 105.453 113.125 106.333 113.125ZM112.218 106.25C113.171 106.25 113.941 106.58 114.528 107.24C115.151 107.863 115.463 108.652 115.463 109.605V134.08C115.463 134.593 115.554 135.015 115.738 135.345C115.958 135.675 116.233 135.913 116.563 136.06C116.929 136.207 117.314 136.28 117.718 136.28C118.158 136.28 118.561 136.207 118.928 136.06C119.294 135.877 119.716 135.785 120.193 135.785C120.706 135.785 121.164 136.023 121.568 136.5C122.008 136.977 122.228 137.637 122.228 138.48C122.228 139.507 121.659 140.35 120.523 141.01C119.423 141.67 118.231 142 116.948 142C116.178 142 115.316 141.945 114.363 141.835C113.446 141.688 112.566 141.377 111.723 140.9C110.916 140.387 110.238 139.617 109.688 138.59C109.138 137.563 108.863 136.152 108.863 134.355V109.605C108.863 108.652 109.174 107.863 109.798 107.24C110.458 106.58 111.264 106.25 112.218 106.25ZM152.598 112.025C153.551 112.025 154.339 112.337 154.963 112.96C155.586 113.583 155.898 114.39 155.898 115.38V138.645C155.898 139.598 155.586 140.405 154.963 141.065C154.339 141.688 153.551 142 152.598 142C151.644 142 150.856 141.688 150.233 141.065C149.609 140.405 149.298 139.598 149.298 138.645V135.95L150.508 136.445C150.508 136.922 150.251 137.508 149.738 138.205C149.224 138.865 148.528 139.525 147.648 140.185C146.768 140.845 145.723 141.413 144.513 141.89C143.339 142.33 142.056 142.55 140.663 142.55C138.133 142.55 135.841 141.908 133.788 140.625C131.734 139.305 130.103 137.508 128.893 135.235C127.719 132.925 127.133 130.285 127.133 127.315C127.133 124.308 127.719 121.668 128.893 119.395C130.103 117.085 131.716 115.288 133.733 114.005C135.749 112.685 137.986 112.025 140.443 112.025C142.019 112.025 143.468 112.263 144.788 112.74C146.108 113.217 147.244 113.822 148.198 114.555C149.188 115.288 149.939 116.04 150.453 116.81C151.003 117.543 151.278 118.167 151.278 118.68L149.298 119.395V115.38C149.298 114.427 149.609 113.638 150.233 113.015C150.856 112.355 151.644 112.025 152.598 112.025ZM141.488 136.5C143.101 136.5 144.513 136.097 145.723 135.29C146.933 134.483 147.868 133.383 148.528 131.99C149.224 130.597 149.573 129.038 149.573 127.315C149.573 125.555 149.224 123.978 148.528 122.585C147.868 121.192 146.933 120.092 145.723 119.285C144.513 118.478 143.101 118.075 141.488 118.075C139.911 118.075 138.518 118.478 137.308 119.285C136.098 120.092 135.144 121.192 134.448 122.585C133.788 123.978 133.458 125.555 133.458 127.315C133.458 129.038 133.788 130.597 134.448 131.99C135.144 133.383 136.098 134.483 137.308 135.29C138.518 136.097 139.911 136.5 141.488 136.5ZM196.601 112.575C197.445 112.575 198.178 112.905 198.801 113.565C199.425 114.188 199.736 114.995 199.736 115.985C199.736 116.242 199.718 116.48 199.681 116.7C199.645 116.883 199.59 117.067 199.516 117.25L191.101 139.91C190.845 140.643 190.386 141.212 189.726 141.615C189.066 141.982 188.37 142.11 187.636 142C186.39 141.927 185.455 141.23 184.831 139.91L179.386 124.235L180.816 124.29L175.701 139.91C175.078 141.23 174.143 141.927 172.896 142C172.2 142.11 171.503 141.982 170.806 141.615C170.146 141.212 169.688 140.643 169.431 139.91L161.016 117.25C160.87 116.847 160.796 116.425 160.796 115.985C160.796 115.105 161.09 114.317 161.676 113.62C162.263 112.923 163.07 112.575 164.096 112.575C164.793 112.575 165.416 112.74 165.966 113.07C166.516 113.4 166.901 113.932 167.121 114.665L173.776 132.705L172.401 132.595L177.406 119.01C177.993 117.653 179.001 116.975 180.431 116.975C181.238 116.975 181.843 117.158 182.246 117.525C182.686 117.855 183.035 118.35 183.291 119.01L188.296 132.595L186.646 132.815L193.411 114.665C193.851 113.272 194.915 112.575 196.601 112.575ZM211.153 138.645C211.153 139.598 210.842 140.405 210.218 141.065C209.595 141.688 208.807 142 207.853 142C206.9 142 206.112 141.688 205.488 141.065C204.865 140.405 204.553 139.598 204.553 138.645V115.93C204.553 114.977 204.865 114.188 205.488 113.565C206.112 112.905 206.9 112.575 207.853 112.575C208.807 112.575 209.595 112.905 210.218 113.565C210.842 114.188 211.153 114.977 211.153 115.93V138.645ZM207.798 109C206.552 109 205.672 108.798 205.158 108.395C204.645 107.992 204.388 107.277 204.388 106.25V105.205C204.388 104.142 204.663 103.427 205.213 103.06C205.8 102.657 206.68 102.455 207.853 102.455C209.137 102.455 210.035 102.657 210.548 103.06C211.062 103.463 211.318 104.178 211.318 105.205V106.25C211.318 107.313 211.043 108.047 210.493 108.45C209.943 108.817 209.045 109 207.798 109Z" fill="white"/>
</svg>
