<svg id="Layer_1" data-name="Layer 1" xmlns="http://www.w3.org/2000/svg" viewBox="0 0 595.28 841.89"><defs><style>.cls-1{fill:#fefefe;}.cls-2{fill:#fefdfd;}.cls-3{fill:#fee55b;}.cls-4{fill:#86556a;}.cls-5{fill:#673452;}.cls-6{fill:#301827;}.cls-7{fill:#4a2339;}.cls-8{fill:#febf01;}.cls-9{fill:#4a2239;}.cls-10{fill:#fdbe00;}.cls-11{fill:#673351;}.cls-12{fill:#fb8543;}.cls-13{fill:#86546a;}.cls-14{fill:#fe8744;}</style></defs><path class="cls-1" d="M106,343.42V228.89H490v384H311.85l10.5-1.69c3.78-.68,7.59-1.25,11.34-2.06,40.54-8.76,73.76-29.49,99.64-61.79a168.87,168.87,0,0,0,35.15-79.09,178.82,178.82,0,0,0,1.68-44.68c-1.31-15.41-5.05-30.31-10.17-44.87l15.55-1.62c.37-4.74.8-9.07,1-13.41a12.61,12.61,0,0,1,3.42-8.74c3.26-3.4,6.13-7.17,9.23-10.84a37.25,37.25,0,0,0-4-4.73c-7.22-6.14-9.6-14.13-9.35-23.24,0-.87-.17-1.75-.1-2.61.15-2.12-.91-2.81-2.88-2.92-3.86-.2-7.71-.75-11.56-.81a10.71,10.71,0,0,1-7.72-3c-3.53-3.31-7.36-6.29-11.26-9.57-4.13,3.51-8.07,6.93-12.12,10.23a8.2,8.2,0,0,1-3.83,2c-4.58.51-9.19.65-13.79.94a155.34,155.34,0,0,0-48.4-30.59c-7.39-3-15.19-5-22.8-7.43-10.17-7.19-10.18-18.22-10.33-29.1-4.43-.35-8.27-.73-12.11-.93-4.3-.22-8.2-.94-11.42-4.36-2.71-2.87-6.05-5.16-9.11-7.71l-1-.12,0,.05a37,37,0,0,0-3.27,2.39c-6.19,5.64-12.31,11.17-21.73,10.17-2.52-.27-6.18,0-7.52,1.54s-.76,5.2-1.1,7.9c-.44,3.54,0,7.62-1.7,10.47-2.31,4-6.2,7-9.42,10.47a22.66,22.66,0,0,0-3.61.4,151.39,151.39,0,0,0-43.38,19.54c-7.93,5.28-15.21,11.53-22.78,17.34-12.55,1.67-21.8-4.42-29.75-13.47-4.41,3.73-8.18,7.15-12.22,10.2a13.43,13.43,0,0,1-5.95,2.43c-4.16.59-8.4.73-12.62.93-2,.1-2.88.8-3,2.9-.13,3.84-.45,7.68-.82,11.51-.18,1.83-.1,4.09-1.12,5.37C113.9,334.88,109.87,339.08,106,343.42Z"/><path class="cls-2" d="M283.4,612.89H106V344.16c2.51,2.92,4.85,6,7.56,8.7a17.07,17.07,0,0,1,5.28,13.29c-.1,3.55.59,7.11,1,11l15.6,1.58a191.78,191.78,0,0,0-9.46,38.69c-4,32-.2,63.05,13.37,92.29,25.87,55.73,69.32,89.4,129.82,100.83,1.56.29,3.12.59,4.69.85C277,611.87,280.21,612.38,283.4,612.89Z"/><path class="cls-3" d="M135.4,378.68l-15.6-1.58c-.37-3.84-1.06-7.4-1-11a17.07,17.07,0,0,0-5.28-13.29c-2.71-2.71-5-5.78-7.56-8.7v-.74c3.87-4.34,7.9-8.54,11.51-13.09,1-1.28.94-3.54,1.12-5.37.37-3.83.69-7.67.82-11.51.07-2.1,1-2.8,3-2.9,4.22-.2,8.46-.34,12.62-.93a13.43,13.43,0,0,0,5.95-2.43c4-3.05,7.81-6.47,12.22-10.2,7.95,9.05,17.2,15.14,29.75,13.47,2.28-.25,3.42.65,3.43,3.07a57.87,57.87,0,0,0,.48,6.3c.6,5.17.14,10.54,4.76,14.62,3.11,2.74,5.48,6.31,8.3,9.65-3.32,3.92-6.34,7.69-9.61,11.24-2.17,2.36-3.34,4.83-2.58,8-.48,4-.83,8.09-1.55,12.08a3.66,3.66,0,0,1-2.49,2.3c-3.9.53-7.86.68-11.8,1-2.36.77-5.09,1-7,2.4-4.2,3-8,6.6-12,10-4.23-3.59-8.1-7.08-12.22-10.26C139.21,379.74,137.17,379.38,135.4,378.68Z"/><path class="cls-4" d="M283.4,612.89c-3.19-.51-6.39-1-9.58-1.55-1.57-.26-3.13-.56-4.69-.85a43.86,43.86,0,0,0-3.82-3.89,71.07,71.07,0,0,1-24.1-34.68c-3.28-10.33-3.84-21-3.51-31.68,1.93,1.47,3.8,3.06,5.82,4.4,5.75,3.84,11.56,7.59,17.34,11.37.14,1.23.19,2.48.44,3.69,4.26,20.53,18.28,32.31,36.3,40.5l.15.59-.12,12.1Z"/><path class="cls-5" d="M297.63,612.89l.12-12.1c2.17.82,4.38,1.54,6.51,2.46,6.05,2.61,12.06,5.29,18.09,8l-10.5,1.69Z"/><path class="cls-6" d="M322.35,611.2c-6-2.66-12-5.34-18.09-8-2.13-.92-4.34-1.64-6.51-2.46l-.15-.59q0-18,0-36h0c3.59-.24,7.2-.28,10.75-.75,22.27-2.92,40.86-12.83,55.05-30.27,20.07-24.68,24.74-52.47,15.07-82.59-2-6.32-5.5-12.19-8.31-18.26,3.22-3.28,6.41-6.58,9.65-9.84q21.8-21.93,43.63-43.85c2.95-.52,5.22.64,7.39,2.59,3.75,3.37,7.67,6.54,11.58,9.83,4.3-3.65,8.17-7.15,12.29-10.31,1.44-1.11,3.5-1.4,5.28-2.06,5.12,14.56,8.86,29.46,10.17,44.87a178.82,178.82,0,0,1-1.68,44.68,168.87,168.87,0,0,1-35.15,79.09c-25.88,32.3-59.1,53-99.64,61.79C329.94,610,326.13,610.52,322.35,611.2Z"/><path class="cls-7" d="M187.72,363.37c-.76-3.2.41-5.67,2.58-8,3.27-3.55,6.29-7.32,9.61-11.24-2.82-3.34-5.19-6.91-8.3-9.65-4.62-4.08-4.16-9.45-4.76-14.62a57.87,57.87,0,0,1-.48-6.3c0-2.42-1.15-3.32-3.43-3.07,7.57-5.81,14.85-12.06,22.78-17.34a151.39,151.39,0,0,1,43.38-19.54,22.66,22.66,0,0,1,3.61-.4c-.6,1.15-1.21,2.31-1.9,3.61,3.27,3.85,6.77,7.58,9.78,11.68a15.42,15.42,0,0,1,2.52,6.71c.66,4.75.81,9.57,1.19,14.55a95.63,95.63,0,0,1,9.6.81c4.32.8,9.42-.79,12.59,3.82q0,15.31-.08,30.64c-1.37.53-2.73,1.09-4.12,1.59-17,6-28.22,17.7-32,35.24-1.81,8.36-1,17.29-1.35,26l-9.39,7.46c-4.5-4.61-9-9.28-13.52-13.83Q206.91,382.35,187.72,363.37Z"/><path class="cls-6" d="M341.42,272.41c7.61,2.44,15.41,4.43,22.8,7.43a155.34,155.34,0,0,1,48.4,30.59l-3.49.41c-.25,3.17-.38,6.14-.74,9.09-.62,5.05-.06,10.33-4.58,14.36-3.18,2.84-5.64,6.49-8.45,9.81,3.68,4.34,7.18,8.23,10.39,12.35,1.06,1.35,1.39,3.28,2.05,4.95a12.19,12.19,0,0,1-1.59,2.81Q381,389.5,355.6,414.71l-8.63-7c-.23-6.3-.38-12.62-.7-18.92-.57-11.37-5.3-21-12.77-29.34-6.67-7.48-15.31-11.62-24.65-14.56V314.2a9.87,9.87,0,0,1,7.53-3.14c4.89,0,9.78-.85,14.66-1.34.37-5,.46-9.49,1.12-13.89a17.66,17.66,0,0,1,2.69-7.39c3-4.2,6.55-8,9.81-11.87Z"/><path class="cls-8" d="M407.8,361.4c-.66-1.67-1-3.6-2.05-4.95-3.21-4.12-6.71-8-10.39-12.35,2.81-3.32,5.27-7,8.45-9.81,4.52-4,4-9.31,4.58-14.36.36-2.95.49-5.92.74-9.09l3.49-.41c4.6-.29,9.21-.43,13.79-.94a8.2,8.2,0,0,0,3.83-2c4.05-3.3,8-6.72,12.12-10.23,3.9,3.28,7.73,6.26,11.26,9.57a10.71,10.71,0,0,0,7.72,3c3.85.06,7.7.61,11.56.81,2,.11,3,.8,2.88,2.92-.07.86.12,1.74.1,2.61-.25,9.11,2.13,17.1,9.35,23.24a37.25,37.25,0,0,1,4,4.73c-3.1,3.67-6,7.44-9.23,10.84a12.61,12.61,0,0,0-3.42,8.74c-.22,4.34-.65,8.67-1,13.41L460,378.71c-1.78.66-3.84,1-5.28,2.06-4.12,3.16-8,6.66-12.29,10.31-3.91-3.29-7.83-6.46-11.58-9.83-2.17-1.95-4.44-3.11-7.39-2.59L409.5,377Z"/><path class="cls-8" d="M341.42,272.41l3.23,4.16c-3.26,3.88-6.82,7.67-9.81,11.87a17.66,17.66,0,0,0-2.69,7.39c-.66,4.4-.75,8.89-1.12,13.89-4.88.49-9.77,1.33-14.66,1.34a9.87,9.87,0,0,0-7.53,3.14l-11.2,9h0q0-33.62,0-67.22c0-8.59-.11-17.17-.17-25.76l0-.05,1,.12c3.06,2.55,6.4,4.84,9.11,7.71,3.22,3.42,7.12,4.14,11.42,4.36,3.84.2,7.68.58,12.11.93C331.24,254.19,331.25,265.22,341.42,272.41Z"/><path class="cls-3" d="M297.45,230.24c.06,8.59.16,17.17.17,25.76q0,33.6,0,67.22l-11.15-8.86c-3.17-4.61-8.27-3-12.59-3.82a95.63,95.63,0,0,0-9.6-.81c-.38-5-.53-9.8-1.19-14.55a15.42,15.42,0,0,0-2.52-6.71c-3-4.1-6.51-7.83-9.78-11.68.69-1.3,1.3-2.46,1.9-3.61,3.22-3.44,7.11-6.49,9.42-10.47,1.67-2.85,1.26-6.93,1.7-10.47.34-2.7-.35-6.2,1.1-7.9s5-1.81,7.52-1.54c9.42,1,15.54-4.53,21.73-10.17A37,37,0,0,1,297.45,230.24Z"/><path class="cls-3" d="M298.45,230.31l-1-.12Z"/><path class="cls-9" d="M237.7,540.24c-.33,10.72.23,21.35,3.51,31.68a71.07,71.07,0,0,0,24.1,34.68,43.86,43.86,0,0,1,3.82,3.89c-60.5-11.43-103.95-45.1-129.82-100.83-13.57-29.24-17.37-60.28-13.37-92.29a191.78,191.78,0,0,1,9.46-38.69c1.77.7,3.81,1.06,5.26,2.18,4.12,3.18,8,6.67,12.22,10.26,4-3.4,7.79-7,12-10,1.92-1.38,4.65-1.63,7-2.4,1.27,1.35,2.5,2.74,3.81,4q24.69,24.83,49.39,49.62c-2.55,5.52-5.43,10.9-7.57,16.57A82.18,82.18,0,0,0,213,489.6c2.08,15.37,7.48,29.27,17.29,41.38C232.76,534.05,235.22,537.15,237.7,540.24Z"/><path class="cls-10" d="M225.08,432.39q-24.71-24.81-49.39-49.62c-1.31-1.31-2.54-2.7-3.81-4,3.94-.29,7.9-.44,11.8-1a3.66,3.66,0,0,0,2.49-2.3c.72-4,1.07-8,1.55-12.08q19.16,19,38.3,38.05c4.56,4.55,9,9.22,13.52,13.83Z"/><path class="cls-11" d="M225.08,432.39l14.46-17.14,9.39-7.46a29.85,29.85,0,0,0,2.94-1.47c14-8.86,29.36-12.93,45.78-13.47q0,85.7,0,171.37h0c-6.13-.73-12.37-1-18.37-2.33C273,560.48,267,558,260.86,556c-5.78-3.78-11.59-7.53-17.34-11.37-2-1.34-3.89-2.93-5.82-4.4-2.48-3.09-4.94-6.19-7.43-9.26-9.81-12.11-15.21-26-17.29-41.38A82.18,82.18,0,0,1,217.51,449C219.65,443.29,222.53,437.91,225.08,432.39Z"/><path class="cls-9" d="M260.86,556c6.12,2,12.13,4.47,18.38,5.88,6,1.35,12.24,1.6,18.37,2.33q0,18,0,36c-18-8.19-32-20-36.3-40.5C261.05,558.49,261,557.24,260.86,556Z"/><path class="cls-9" d="M297.61,564.22q0-85.68,0-171.37h0c2.32.23,4.65.58,7,.67,14.37.59,27.19,5.78,39.31,13.13a15.44,15.44,0,0,0,3,1.08l8.63,7,14.57,17.64c2.81,6.07,6.28,11.94,8.31,18.26,9.67,30.12,5,57.91-15.07,82.59-14.19,17.44-32.78,27.35-55.05,30.27C304.81,563.94,301.2,564,297.61,564.22Z"/><path class="cls-12" d="M370.17,432.35,355.6,414.71q25.32-25.23,50.61-50.5a12.19,12.19,0,0,0,1.59-2.81c.56,5.1,1.12,10.19,1.7,15.55l13.95,1.71q-21.82,21.91-43.63,43.85C376.58,425.77,373.39,429.07,370.17,432.35Z"/><path class="cls-13" d="M297.65,392.85c-16.42.54-31.8,4.61-45.78,13.47a29.85,29.85,0,0,1-2.94,1.47c.37-8.67-.46-17.6,1.35-26,3.79-17.54,15-29.22,32-35.24,1.39-.5,2.75-1.06,4.12-1.59l11.24-.8v48.65Z"/><path class="cls-8" d="M297.65,344.2l-11.24.8q0-15.31.08-30.64l11.15,8.86h0q0,10.41-.08,20.82Z"/><path class="cls-11" d="M297.66,392.85V344.2l-.09-.16,11.29.87c9.34,2.94,18,7.08,24.65,14.56,7.47,8.37,12.2,18,12.77,29.34.32,6.3.47,12.62.7,18.92a15.44,15.44,0,0,1-3-1.08c-12.12-7.35-24.94-12.54-39.31-13.13C302.31,393.43,300,393.08,297.66,392.85Z"/><path class="cls-14" d="M308.85,344.91,297.56,344q0-10.41.08-20.82l11.2-9Q308.84,329.56,308.85,344.91Z"/></svg>