<svg width="410" height="307" viewBox="0 0 410 307" fill="none" xmlns="http://www.w3.org/2000/svg">
<rect width="410" height="307" rx="20" fill="#7CB518"/>
<mask id="mask0" style="mask-type:alpha" maskUnits="userSpaceOnUse" x="0" y="0" width="410" height="307">
<rect width="410" height="307" rx="20" fill="#7CB518"/>
</mask>
<g mask="url(#mask0)">
<path d="M157.425 279.7H412.225V307H157.425V279.7Z" fill="#758190"/>
<path d="M364.577 261.5H205.073C192.601 261.5 181.203 268.548 175.625 279.7H394.025C388.447 268.548 377.049 261.5 364.577 261.5Z" fill="#C18E59"/>
<path d="M364.577 261.5H205.073C192.601 261.5 181.203 254.452 175.625 243.3H394.025C388.447 254.452 377.049 261.5 364.577 261.5Z" fill="#976947"/>
<path d="M375.825 243.3V225.1H193.825V243.3" fill="#758190"/>
<path d="M262.075 97.6998V79.4998H307.575V97.6998" fill="#C1C8D1"/>
<path d="M252.975 115.9V97.7H316.675V115.9" fill="#A8B0BC"/>
<path d="M275.725 79.5L284.825 34L293.925 79.5" fill="#A8B0BC"/>
<path d="M366.725 225.1L365.31 222.625C354.313 203.374 348.525 181.589 348.525 159.416V156.85C348.525 134.232 330.193 115.9 307.575 115.9H262.075C239.457 115.9 221.125 134.232 221.125 156.85V159.416C221.125 181.589 215.337 203.374 204.34 222.625L202.925 225.1" fill="#A8B0BC"/>
<path d="M252.975 211.45C298.207 211.45 334.875 179.873 334.875 140.925C334.875 135.238 334.006 129.732 332.532 124.436C325.616 119.103 316.98 115.9 307.575 115.9H262.075C239.457 115.9 221.125 134.232 221.125 156.85V159.416C221.125 174.236 218.481 188.864 213.481 202.701C225.197 208.265 238.652 211.45 252.975 211.45Z" fill="#C1C8D1"/>
<path d="M239.302 147.75L252.953 134.099L266.604 147.75L252.953 161.401L239.302 147.75Z" fill="#758190"/>
<path d="M302.997 147.755L316.648 134.103L330.3 147.755L316.648 161.406L302.997 147.755Z" fill="#758190"/>
<path d="M239.297 193.245L252.948 179.594L266.6 193.245L252.948 206.897L239.297 193.245Z" fill="#758190"/>
<path d="M302.993 193.25L316.644 179.599L330.295 193.25L316.644 206.901L302.993 193.25Z" fill="#758190"/>
<path d="M271.147 170.5L284.798 156.849L298.45 170.5L284.798 184.151L271.147 170.5Z" fill="#758190"/>
</g>
<path d="M55.34 34.5C58.86 34.5 61.4817 35.325 63.205 36.975C64.9283 38.625 65.79 41.0633 65.79 44.29C65.79 46.0133 65.3683 47.535 64.525 48.855C63.6817 50.1383 62.435 51.1467 60.785 51.88C59.135 52.5767 57.1 52.925 54.68 52.925L54.9 50.45C56.0367 50.45 57.3383 50.615 58.805 50.945C60.2717 51.2383 61.6833 51.7883 63.04 52.595C64.4333 53.365 65.57 54.465 66.45 55.895C67.3667 57.2883 67.825 59.085 67.825 61.285C67.825 63.705 67.4217 65.685 66.615 67.225C65.845 68.765 64.8183 69.9567 63.535 70.8C62.2517 71.6433 60.8767 72.23 59.41 72.56C57.9433 72.8533 56.5317 73 55.175 73H41.48C40.5267 73 39.72 72.6883 39.06 72.065C38.4367 71.405 38.125 70.5983 38.125 69.645V37.855C38.125 36.9017 38.4367 36.1133 39.06 35.49C39.72 34.83 40.5267 34.5 41.48 34.5H55.34ZM54.35 40.99H44.56L45.275 40.11V50.065L44.615 49.57H54.515C55.5783 49.57 56.5317 49.2217 57.375 48.525C58.2183 47.8283 58.64 46.82 58.64 45.5C58.64 43.9233 58.2367 42.7867 57.43 42.09C56.66 41.3567 55.6333 40.99 54.35 40.99ZM54.79 56.06H44.78L45.275 55.62V67.225L44.725 66.675H55.175C56.8617 66.675 58.2 66.235 59.19 65.355C60.18 64.4383 60.675 63.0817 60.675 61.285C60.675 59.635 60.345 58.4433 59.685 57.71C59.025 56.9767 58.2367 56.5183 57.32 56.335C56.4033 56.1517 55.56 56.06 54.79 56.06ZM97.705 43.025C98.6584 43.025 99.4467 43.3367 100.07 43.96C100.693 44.5833 101.005 45.39 101.005 46.38V69.645C101.005 70.5983 100.693 71.405 100.07 72.065C99.4467 72.6883 98.6584 73 97.705 73C96.7517 73 95.9634 72.6883 95.34 72.065C94.7167 71.405 94.405 70.5983 94.405 69.645V66.95L95.615 67.445C95.615 67.9217 95.3584 68.5083 94.845 69.205C94.3317 69.865 93.635 70.525 92.755 71.185C91.875 71.845 90.83 72.4133 89.62 72.89C88.4467 73.33 87.1634 73.55 85.77 73.55C83.24 73.55 80.9484 72.9083 78.895 71.625C76.8417 70.305 75.21 68.5083 74 66.235C72.8267 63.925 72.24 61.285 72.24 58.315C72.24 55.3083 72.8267 52.6683 74 50.395C75.21 48.085 76.8234 46.2883 78.84 45.005C80.8567 43.685 83.0934 43.025 85.55 43.025C87.1267 43.025 88.575 43.2633 89.895 43.74C91.215 44.2167 92.3517 44.8217 93.305 45.555C94.295 46.2883 95.0467 47.04 95.56 47.81C96.11 48.5433 96.385 49.1667 96.385 49.68L94.405 50.395V46.38C94.405 45.4267 94.7167 44.6383 95.34 44.015C95.9634 43.355 96.7517 43.025 97.705 43.025ZM86.595 67.5C88.2084 67.5 89.62 67.0967 90.83 66.29C92.04 65.4833 92.975 64.3833 93.635 62.99C94.3317 61.5967 94.68 60.0383 94.68 58.315C94.68 56.555 94.3317 54.9783 93.635 53.585C92.975 52.1917 92.04 51.0917 90.83 50.285C89.62 49.4783 88.2084 49.075 86.595 49.075C85.0184 49.075 83.625 49.4783 82.415 50.285C81.205 51.0917 80.2517 52.1917 79.555 53.585C78.895 54.9783 78.565 56.555 78.565 58.315C78.565 60.0383 78.895 61.5967 79.555 62.99C80.2517 64.3833 81.205 65.4833 82.415 66.29C83.625 67.0967 85.0184 67.5 86.595 67.5ZM106.446 68.435C106.08 67.9217 105.915 67.2617 105.951 66.455C105.988 65.6483 106.465 64.9517 107.381 64.365C107.968 63.9983 108.591 63.8517 109.251 63.925C109.911 63.9617 110.553 64.2917 111.176 64.915C112.24 65.9783 113.358 66.8033 114.531 67.39C115.705 67.9767 117.171 68.27 118.931 68.27C119.481 68.2333 120.086 68.16 120.746 68.05C121.406 67.9033 121.975 67.61 122.451 67.17C122.965 66.6933 123.221 65.9783 123.221 65.025C123.221 64.2183 122.946 63.5767 122.396 63.1C121.846 62.6233 121.113 62.22 120.196 61.89C119.316 61.56 118.326 61.2483 117.226 60.955C116.09 60.625 114.916 60.2583 113.706 59.855C112.533 59.4517 111.451 58.9383 110.461 58.315C109.471 57.655 108.665 56.7933 108.041 55.73C107.418 54.6667 107.106 53.3283 107.106 51.715C107.106 49.8817 107.62 48.3233 108.646 47.04C109.673 45.7567 110.993 44.7667 112.606 44.07C114.256 43.3733 115.98 43.025 117.776 43.025C118.913 43.025 120.105 43.1717 121.351 43.465C122.598 43.7217 123.79 44.1617 124.926 44.785C126.063 45.3717 127.016 46.16 127.786 47.15C128.19 47.7 128.428 48.36 128.501 49.13C128.575 49.9 128.226 50.5967 127.456 51.22C126.906 51.66 126.265 51.8617 125.531 51.825C124.798 51.7517 124.193 51.495 123.716 51.055C123.093 50.2483 122.25 49.6067 121.186 49.13C120.16 48.6533 118.968 48.415 117.611 48.415C117.061 48.415 116.456 48.4883 115.796 48.635C115.173 48.745 114.623 49.02 114.146 49.46C113.67 49.8633 113.431 50.5233 113.431 51.44C113.431 52.2833 113.706 52.9617 114.256 53.475C114.806 53.9517 115.54 54.355 116.456 54.685C117.41 54.9783 118.418 55.2717 119.481 55.565C120.581 55.8583 121.7 56.2067 122.836 56.61C123.973 57.0133 125.018 57.545 125.971 58.205C126.925 58.865 127.695 59.7267 128.281 60.79C128.868 61.8167 129.161 63.1367 129.161 64.75C129.161 66.62 128.611 68.215 127.511 69.535C126.411 70.855 125.036 71.8633 123.386 72.56C121.736 73.22 120.05 73.55 118.326 73.55C116.163 73.55 114 73.1833 111.836 72.45C109.673 71.68 107.876 70.3417 106.446 68.435ZM159.204 43.025C160.157 43.025 160.946 43.3367 161.569 43.96C162.192 44.5833 162.504 45.39 162.504 46.38V69.645C162.504 70.5983 162.192 71.405 161.569 72.065C160.946 72.6883 160.157 73 159.204 73C158.251 73 157.462 72.6883 156.839 72.065C156.216 71.405 155.904 70.5983 155.904 69.645V66.95L157.114 67.445C157.114 67.9217 156.857 68.5083 156.344 69.205C155.831 69.865 155.134 70.525 154.254 71.185C153.374 71.845 152.329 72.4133 151.119 72.89C149.946 73.33 148.662 73.55 147.269 73.55C144.739 73.55 142.447 72.9083 140.394 71.625C138.341 70.305 136.709 68.5083 135.499 66.235C134.326 63.925 133.739 61.285 133.739 58.315C133.739 55.3083 134.326 52.6683 135.499 50.395C136.709 48.085 138.322 46.2883 140.339 45.005C142.356 43.685 144.592 43.025 147.049 43.025C148.626 43.025 150.074 43.2633 151.394 43.74C152.714 44.2167 153.851 44.8217 154.804 45.555C155.794 46.2883 156.546 47.04 157.059 47.81C157.609 48.5433 157.884 49.1667 157.884 49.68L155.904 50.395V46.38C155.904 45.4267 156.216 44.6383 156.839 44.015C157.462 43.355 158.251 43.025 159.204 43.025ZM148.094 67.5C149.707 67.5 151.119 67.0967 152.329 66.29C153.539 65.4833 154.474 64.3833 155.134 62.99C155.831 61.5967 156.179 60.0383 156.179 58.315C156.179 56.555 155.831 54.9783 155.134 53.585C154.474 52.1917 153.539 51.0917 152.329 50.285C151.119 49.4783 149.707 49.075 148.094 49.075C146.517 49.075 145.124 49.4783 143.914 50.285C142.704 51.0917 141.751 52.1917 141.054 53.585C140.394 54.9783 140.064 56.555 140.064 58.315C140.064 60.0383 140.394 61.5967 141.054 62.99C141.751 64.3833 142.704 65.4833 143.914 66.29C145.124 67.0967 146.517 67.5 148.094 67.5ZM47.09 142.55C45 142.55 43.0567 142.128 41.26 141.285C39.4633 140.442 37.9967 139.232 36.86 137.655C36.42 136.995 36.2 136.353 36.2 135.73C36.2 134.813 36.5483 134.043 37.245 133.42C37.9783 132.797 38.6933 132.485 39.39 132.485C39.94 132.485 40.4717 132.65 40.985 132.98C41.535 133.31 42.03 133.695 42.47 134.135C43.2033 134.795 43.9183 135.272 44.615 135.565C45.3483 135.822 46.1733 135.95 47.09 135.95C48.19 135.95 49.2167 135.675 50.17 135.125C51.1233 134.575 51.8933 133.842 52.48 132.925C53.0667 132.008 53.36 131.018 53.36 129.955V106.855C53.36 105.902 53.7083 105.113 54.405 104.49C55.1017 103.83 55.9083 103.5 56.825 103.5C57.8517 103.5 58.6767 103.83 59.3 104.49C59.9233 105.113 60.235 105.902 60.235 106.855V129.955C60.235 132.192 59.6483 134.263 58.475 136.17C57.3017 138.077 55.725 139.617 53.745 140.79C51.765 141.963 49.5467 142.55 47.09 142.55ZM92.0117 112.025C92.965 112.025 93.7533 112.337 94.3767 112.96C95 113.583 95.3117 114.39 95.3117 115.38V138.645C95.3117 139.598 95 140.405 94.3767 141.065C93.7533 141.688 92.965 142 92.0117 142C91.0583 142 90.27 141.688 89.6467 141.065C89.0233 140.405 88.7117 139.598 88.7117 138.645V135.95L89.9217 136.445C89.9217 136.922 89.665 137.508 89.1517 138.205C88.6383 138.865 87.9417 139.525 87.0617 140.185C86.1817 140.845 85.1367 141.413 83.9267 141.89C82.7533 142.33 81.47 142.55 80.0767 142.55C77.5467 142.55 75.255 141.908 73.2017 140.625C71.1483 139.305 69.5167 137.508 68.3067 135.235C67.1333 132.925 66.5467 130.285 66.5467 127.315C66.5467 124.308 67.1333 121.668 68.3067 119.395C69.5167 117.085 71.13 115.288 73.1467 114.005C75.1633 112.685 77.4 112.025 79.8567 112.025C81.4333 112.025 82.8817 112.263 84.2017 112.74C85.5217 113.217 86.6583 113.822 87.6117 114.555C88.6017 115.288 89.3533 116.04 89.8667 116.81C90.4167 117.543 90.6917 118.167 90.6917 118.68L88.7117 119.395V115.38C88.7117 114.427 89.0233 113.638 89.6467 113.015C90.27 112.355 91.0583 112.025 92.0117 112.025ZM80.9017 136.5C82.515 136.5 83.9267 136.097 85.1367 135.29C86.3467 134.483 87.2817 133.383 87.9417 131.99C88.6383 130.597 88.9867 129.038 88.9867 127.315C88.9867 125.555 88.6383 123.978 87.9417 122.585C87.2817 121.192 86.3467 120.092 85.1367 119.285C83.9267 118.478 82.515 118.075 80.9017 118.075C79.325 118.075 77.9317 118.478 76.7217 119.285C75.5117 120.092 74.5583 121.192 73.8617 122.585C73.2017 123.978 72.8717 125.555 72.8717 127.315C72.8717 129.038 73.2017 130.597 73.8617 131.99C74.5583 133.383 75.5117 134.483 76.7217 135.29C77.9317 136.097 79.325 136.5 80.9017 136.5ZM136.016 112.575C136.859 112.575 137.592 112.905 138.216 113.565C138.839 114.188 139.151 114.995 139.151 115.985C139.151 116.242 139.132 116.48 139.096 116.7C139.059 116.883 139.004 117.067 138.931 117.25L130.516 139.91C130.259 140.643 129.801 141.212 129.141 141.615C128.481 141.982 127.784 142.11 127.051 142C125.804 141.927 124.869 141.23 124.246 139.91L118.801 124.235L120.231 124.29L115.116 139.91C114.492 141.23 113.557 141.927 112.311 142C111.614 142.11 110.917 141.982 110.221 141.615C109.561 141.212 109.102 140.643 108.846 139.91L100.431 117.25C100.284 116.847 100.211 116.425 100.211 115.985C100.211 115.105 100.504 114.317 101.091 113.62C101.677 112.923 102.484 112.575 103.511 112.575C104.207 112.575 104.831 112.74 105.381 113.07C105.931 113.4 106.316 113.932 106.536 114.665L113.191 132.705L111.816 132.595L116.821 119.01C117.407 117.653 118.416 116.975 119.846 116.975C120.652 116.975 121.257 117.158 121.661 117.525C122.101 117.855 122.449 118.35 122.706 119.01L127.711 132.595L126.061 132.815L132.826 114.665C133.266 113.272 134.329 112.575 136.016 112.575ZM168.657 112.025C169.611 112.025 170.399 112.337 171.022 112.96C171.646 113.583 171.957 114.39 171.957 115.38V138.645C171.957 139.598 171.646 140.405 171.022 141.065C170.399 141.688 169.611 142 168.657 142C167.704 142 166.916 141.688 166.292 141.065C165.669 140.405 165.357 139.598 165.357 138.645V135.95L166.567 136.445C166.567 136.922 166.311 137.508 165.797 138.205C165.284 138.865 164.587 139.525 163.707 140.185C162.827 140.845 161.782 141.413 160.572 141.89C159.399 142.33 158.116 142.55 156.722 142.55C154.192 142.55 151.901 141.908 149.847 140.625C147.794 139.305 146.162 137.508 144.952 135.235C143.779 132.925 143.192 130.285 143.192 127.315C143.192 124.308 143.779 121.668 144.952 119.395C146.162 117.085 147.776 115.288 149.792 114.005C151.809 112.685 154.046 112.025 156.502 112.025C158.079 112.025 159.527 112.263 160.847 112.74C162.167 113.217 163.304 113.822 164.257 114.555C165.247 115.288 165.999 116.04 166.512 116.81C167.062 117.543 167.337 118.167 167.337 118.68L165.357 119.395V115.38C165.357 114.427 165.669 113.638 166.292 113.015C166.916 112.355 167.704 112.025 168.657 112.025ZM157.547 136.5C159.161 136.5 160.572 136.097 161.782 135.29C162.992 134.483 163.927 133.383 164.587 131.99C165.284 130.597 165.632 129.038 165.632 127.315C165.632 125.555 165.284 123.978 164.587 122.585C163.927 121.192 162.992 120.092 161.782 119.285C160.572 118.478 159.161 118.075 157.547 118.075C155.971 118.075 154.577 118.478 153.367 119.285C152.157 120.092 151.204 121.192 150.507 122.585C149.847 123.978 149.517 125.555 149.517 127.315C149.517 129.038 149.847 130.597 150.507 131.99C151.204 133.383 152.157 134.483 153.367 135.29C154.577 136.097 155.971 136.5 157.547 136.5Z" fill="white"/>
</svg>
