<svg width="218" height="163" viewBox="0 0 218 163" fill="none" xmlns="http://www.w3.org/2000/svg">
<g clip-path="url(#clip0)">
<rect width="217.345" height="162.744" rx="10.6022" fill="#F57600"/>
<mask id="mask0" style="mask-type:alpha" maskUnits="userSpaceOnUse" x="0" y="0" width="218" height="163">
<rect width="217.345" height="162.744" rx="10.6022" fill="#DB162F"/>
</mask>
<g mask="url(#mask0)">
<path d="M129.438 127.092L124.8 129.178C124.073 128.16 123.302 127.272 122.735 126.251C122.373 125.536 121.86 124.909 121.231 124.413C120.603 123.916 119.875 123.562 119.096 123.374C117.896 123.052 116.755 122.561 115.562 122.156L115.442 121.948C115.825 120.101 116.276 118.268 116.552 116.404C116.626 115.883 116.242 115.258 115.996 114.714C115.479 113.579 114.946 112.448 114.36 111.348C114.039 110.747 114.186 110.4 114.732 110.047C115.885 109.307 117.053 108.58 118.126 107.739C118.679 107.302 119.117 106.736 119.403 106.092C120.032 104.586 120.548 103.008 121.182 101.245C124.883 102.498 128.468 102.708 131.723 100.204C132.323 99.7638 132.789 99.8317 133.184 100.51C133.539 101.094 133.925 101.659 134.341 102.202C135.348 103.557 136.089 105.14 138.049 105.536C139.367 105.802 140.612 106.42 141.945 106.901C141.649 108.541 141.412 110.089 141.069 111.617C140.842 112.632 140.914 113.515 141.641 114.282C142.155 115.484 142.72 116.689 143.165 117.927C143.199 118.115 143.188 118.309 143.131 118.492C143.074 118.675 142.974 118.841 142.839 118.977C141.829 119.758 140.741 120.443 139.686 121.171C139.148 121.771 138.419 122.278 138.109 122.981C137.416 124.505 136.932 126.132 136.36 127.736C134.59 127.414 132.937 127.061 131.264 126.836C130.68 126.772 130.049 127.002 129.438 127.092Z" fill="#FEE55B"/>
<path d="M208.995 168.879C208.016 169.253 207.038 169.634 206.052 169.997C205.569 170.179 205.082 170.347 204.597 170.519C204.04 170.326 203.471 170.168 202.893 170.046C198.266 169.402 193.944 167.368 190.499 164.213C187.903 161.843 186.015 158.937 184.376 155.883C185.156 155.983 185.939 156.126 186.724 156.175C188.962 156.321 191.202 156.432 193.439 156.557C193.678 156.88 193.894 157.223 194.161 157.522C198.687 162.598 204.536 163.633 210.926 163.011L211.063 163.153L212.992 166.571L208.995 168.879Z" fill="#86556A"/>
<path d="M212.992 166.571L211.063 163.153C211.806 163.032 212.543 162.875 213.291 162.788C215.413 162.54 217.536 162.318 219.669 162.102L216.994 164.279L212.992 166.571Z" fill="#673452"/>
<path d="M219.662 162.088C217.545 162.314 215.425 162.534 213.283 162.774C212.536 162.861 211.798 163.017 211.056 163.139L210.918 162.998C208.972 159.627 207.026 156.256 205.079 152.885C206.049 152.236 207.056 151.639 207.977 150.931C213.759 146.499 217.374 140.701 218.532 133.501C220.167 123.313 216.972 114.75 209.371 107.857C207.784 106.406 205.849 105.325 204.075 104.076C204.448 102.632 204.809 101.188 205.19 99.7468C206.901 93.2831 208.616 86.8187 210.334 80.3537C211.078 79.7292 211.904 79.6869 212.83 79.8827C214.43 80.2212 216.045 80.4759 217.677 80.766C218.293 79.0433 218.812 77.4326 219.457 75.8767C219.682 75.3314 220.213 74.9159 220.606 74.4418C224.406 77.7013 227.873 81.2802 230.74 85.3964C233.525 89.3704 235.801 93.6784 237.514 98.2193C240.907 107.11 241.924 116.732 240.467 126.136C238.436 139.406 232.461 150.608 222.499 159.652C221.599 160.52 220.614 161.284 219.662 162.088Z" fill="#301827"/>
<path d="M141.653 114.307C140.921 113.531 140.849 112.647 141.08 111.641C141.423 110.114 141.66 108.565 141.957 106.925C140.623 106.444 139.378 105.826 138.06 105.561C136.101 105.164 135.359 103.581 134.352 102.226C133.936 101.683 133.55 101.119 133.196 100.534C132.803 99.8543 132.334 99.788 131.734 100.228C132.919 97.3683 133.95 94.432 135.321 91.6628C137.648 87.0391 140.691 82.8122 144.338 79.1389C144.635 78.8812 144.952 78.6479 145.287 78.4411C145.305 78.8614 145.321 79.2862 145.338 79.7632C146.881 80.3144 148.469 80.7945 149.98 81.458C150.686 81.8022 151.301 82.3079 151.776 82.9342C152.732 84.1614 153.555 85.491 154.47 86.8283C155.39 86.3379 156.333 85.8942 157.298 85.4989C158.641 85.023 159.816 83.7493 161.454 84.5301C163.109 87.3971 164.758 90.2704 166.4 93.1498C166.102 93.5208 165.81 93.8987 165.501 94.2646C161.699 98.707 160.445 103.813 162.227 109.353C163.075 111.995 164.751 114.372 166.065 116.875L164.637 120.494C162.625 119.929 160.604 119.347 158.596 118.801C152.946 117.284 147.299 115.786 141.653 114.307Z" fill="#4A2339"/>
<path d="M170.074 63.8295C172.607 63.2807 175.121 62.5747 177.683 62.2189C183.861 61.3148 190.154 61.5668 196.239 62.9623L195.326 63.6434C195.77 64.5744 196.215 65.4298 196.592 66.3168C197.237 67.8359 198.25 69.2282 197.634 71.0933C197.202 72.4067 197.103 73.831 196.852 75.2193C198.589 75.8415 200.203 76.3666 201.773 77.0033C202.29 77.2106 202.695 77.6992 203.152 78.0613C203.201 78.4084 203.204 78.7606 203.161 79.1085C201.174 86.5701 199.165 94.0344 197.134 101.502L193.575 100.935C192.489 99.2025 191.422 97.4516 190.31 95.7338C188.306 92.6324 185.416 90.6945 181.965 89.5633C178.878 88.5439 175.78 88.7821 172.679 89.471L167.702 80.8503C167.804 80.4055 168.001 79.9877 168.278 79.625C168.555 79.2622 168.906 78.9629 169.308 78.7471C170.682 77.954 171.917 76.9222 173.209 75.9932C172.502 74.5287 171.799 73.2528 171.271 71.9099C170.936 71.1164 170.785 70.2578 170.828 69.3978C170.989 67.7315 171.37 66.0883 171.658 64.4726L170.074 63.8295Z" fill="#301827"/>
<path d="M203.152 78.0613C202.696 77.6992 202.287 77.2123 201.774 77.0033C200.204 76.3666 198.591 75.8443 196.852 75.2193C197.103 73.831 197.197 72.3983 197.635 71.0933C198.256 69.2366 197.249 67.8294 196.592 66.3168C196.215 65.4298 195.77 64.5744 195.326 63.6434L196.24 62.9623C197.485 62.1348 198.757 61.3478 199.961 60.4618C200.313 60.1418 200.572 59.7333 200.713 59.2789C201.315 57.6951 201.87 56.0938 202.458 54.4397C204.085 54.7286 205.645 54.9445 207.173 55.3018C207.621 55.4133 208.086 55.4345 208.542 55.3642C208.998 55.2939 209.435 55.1336 209.828 54.8925C210.919 54.285 212.09 53.8151 213.207 53.2453C213.786 52.9518 214.179 52.9835 214.489 53.5984C214.609 53.8513 214.805 54.0677 214.94 54.3153C216.348 56.9149 218.312 58.7733 221.336 59.3271C221.984 59.5008 222.616 59.7283 223.227 60.007C222.951 61.5406 222.748 63.0699 222.392 64.5488C222.151 65.5734 222.315 66.6514 222.849 67.5585C223.491 68.8133 224.072 70.0993 224.742 71.4875L220.622 74.458C220.229 74.9321 219.706 75.3617 219.473 75.893C218.828 77.4488 218.306 79.0612 217.693 80.7822C216.061 80.4921 214.446 80.2374 212.846 79.899C211.92 79.7031 211.095 79.7454 210.35 80.3699L206.16 82.1676L203.152 78.0613Z" fill="#FEBF01"/>
<path d="M170.075 63.8298L171.657 64.4745C171.37 66.093 170.985 67.735 170.826 69.3997C170.783 70.2597 170.934 71.1183 171.269 71.9117C171.797 73.2547 172.5 74.5306 173.207 75.9951C171.916 76.9241 170.678 77.9531 169.306 78.749C168.904 78.9648 168.553 79.2641 168.276 79.6269C167.999 79.9896 167.803 80.4074 167.7 80.8522L166.014 85.1966C162.379 78.9008 158.745 72.6068 155.112 66.3147C153.719 63.9018 152.297 61.5095 150.887 59.1063L150.879 59.0923L151.179 58.9638C152.452 59.1838 153.762 59.2854 154.989 59.6521C156.448 60.0906 157.66 59.6603 158.904 59.0248C160.015 58.4582 161.155 57.9422 162.456 57.3221C164.26 60.3628 166.052 63.4594 170.075 63.8298Z" fill="#FEBF01"/>
<path d="M150.885 59.1152C152.295 61.5184 153.715 63.9123 155.11 66.3236C158.743 72.6157 162.377 78.9097 166.012 85.2055L161.443 84.525C159.805 83.7442 158.633 85.0235 157.287 85.4938C156.323 85.8891 155.379 86.3328 154.459 86.8232C153.541 85.4803 152.721 84.1563 151.765 82.9291C151.291 82.3028 150.675 81.7971 149.969 81.4529C148.461 80.7878 146.871 80.3093 145.328 79.7582C145.311 79.2811 145.294 78.8563 145.276 78.436C145.622 76.9475 146.221 75.4599 146.224 73.9673C146.231 72.8959 145.454 71.8163 145.003 70.7506C144.661 69.937 143.9 69.0658 144.031 68.3531C144.163 67.6404 145.142 67.0338 145.894 66.701C148.702 65.4541 149.524 62.9083 150.348 60.3201C150.505 59.909 150.684 59.5067 150.885 59.1152Z" fill="#FEE55B"/>
<path d="M151.176 58.9724L150.876 59.1008L151.176 58.9724Z" fill="#FEE55B"/>
<path d="M184.376 155.883C186.022 158.948 187.903 161.843 190.5 164.213C193.944 167.368 198.267 169.402 202.894 170.046C203.471 170.168 204.04 170.326 204.597 170.519C185.749 177.12 168.084 174.709 151.779 163.25C143.225 157.237 137.124 149.134 133.056 139.494C131.423 135.497 130.211 131.34 129.439 127.092C130.05 127.001 130.681 126.772 131.27 126.851C132.943 127.076 134.599 127.427 136.367 127.751C136.939 126.148 137.419 124.522 138.116 122.996C138.431 122.297 139.157 121.784 139.693 121.187C140.268 121.36 140.839 121.551 141.411 121.693C148.72 123.673 156.027 125.649 163.332 127.621C163.511 129.585 163.575 131.563 163.893 133.503C164.616 137.942 166.45 142.125 169.225 145.664C172.302 149.644 176.073 152.673 180.793 154.484C181.984 154.945 183.178 155.417 184.376 155.883Z" fill="#4A2239"/>
<path d="M163.34 127.636C156.03 125.661 148.723 123.685 141.419 121.707C140.839 121.552 140.268 121.361 139.7 121.202C140.76 120.481 141.848 119.797 142.853 119.007C142.988 118.871 143.088 118.705 143.145 118.522C143.202 118.339 143.213 118.145 143.179 117.957C142.733 116.717 142.182 115.536 141.655 114.312C147.298 115.799 152.941 117.291 158.585 118.789C160.603 119.328 162.608 119.92 164.625 120.481L163.34 127.636Z" fill="#FDBE00"/>
<path d="M163.34 127.635L164.622 120.476L166.05 116.857C166.262 116.572 166.458 116.275 166.637 115.968C169.133 111.208 172.787 107.574 177.312 104.76C186.578 120.808 195.842 136.854 205.104 152.897C203.264 153.686 201.467 154.622 199.566 155.222C197.574 155.844 195.486 156.12 193.437 156.554C191.2 156.43 188.96 156.319 186.722 156.173C185.943 156.121 185.154 155.981 184.374 155.881C183.176 155.415 181.982 154.943 180.785 154.485C176.065 152.674 172.296 149.648 169.217 145.665C166.454 142.131 164.628 137.957 163.907 133.529C163.582 131.578 163.519 129.599 163.34 127.635Z" fill="#673351"/>
<path d="M193.437 156.554C195.48 156.123 197.569 155.843 199.553 155.225C201.457 154.631 203.251 153.689 205.091 152.9C207.037 156.271 208.983 159.642 210.929 163.013C204.545 163.631 198.697 162.584 194.165 157.523C193.894 157.223 193.677 156.88 193.437 156.554Z" fill="#4A2239"/>
<path d="M205.095 152.903C195.831 136.858 186.567 120.813 177.303 104.766C177.992 104.454 178.703 104.175 179.378 103.819C183.51 101.654 187.953 101.033 192.549 101.132C192.894 101.106 193.235 101.045 193.567 100.949L197.126 101.515L204.08 104.108C205.854 105.357 207.78 106.443 209.375 107.889C216.976 114.781 220.172 123.345 218.536 133.532C217.379 140.732 213.764 146.531 207.982 150.963C207.072 151.657 206.068 152.259 205.095 152.903Z" fill="#4A2239"/>
<path d="M204.089 104.094L197.136 101.502C199.15 94.0395 201.158 86.5752 203.162 79.1087C203.206 78.7608 203.203 78.4086 203.153 78.0615C204.137 79.4033 205.12 80.7422 206.152 82.1538L210.348 80.3717C208.631 86.8338 206.916 93.2982 205.204 99.7648C204.823 101.206 204.462 102.65 204.089 104.094Z" fill="#FB8543"/>
<path d="M177.313 104.76C172.788 107.574 169.128 111.212 166.638 115.968C166.459 116.275 166.263 116.572 166.051 116.857C164.749 114.362 163.067 111.988 162.213 109.335C160.433 103.794 161.688 98.6946 165.487 94.2466C165.796 93.8808 166.088 93.5029 166.386 93.1319L169.414 91.0843L177.304 104.75L177.313 104.76Z" fill="#86546A"/>
<path d="M169.423 91.0936L166.396 93.1411C164.741 90.2741 163.092 87.4009 161.449 84.5215L166.018 85.2019C167.144 87.1514 168.262 89.1051 169.372 91.0632L169.423 91.0936Z" fill="#FEBF01"/>
<path d="M177.315 104.758L169.425 91.0919L169.374 91.0615L172.686 89.4749C175.787 88.786 178.891 88.5445 181.972 89.5672C185.428 90.7068 188.318 92.6448 190.317 95.7377C191.429 97.4555 192.496 99.2064 193.582 100.939C193.25 101.035 192.909 101.096 192.564 101.122C187.968 101.023 183.525 101.644 179.393 103.809C178.715 104.166 178.01 104.443 177.315 104.758Z" fill="#673351"/>
<path d="M172.683 89.4766L169.364 91.0519C168.239 89.1025 167.121 87.1487 166.01 85.1906L167.697 80.8462C169.36 83.7263 171.022 86.6031 172.683 89.4766Z" fill="#FE8744"/>
</g>
<path d="M29.3126 18.5908C31.1785 18.5908 32.5683 19.0281 33.4819 19.9028C34.3954 20.7775 34.8522 22.07 34.8522 23.7805C34.8522 24.6941 34.6287 25.5007 34.1816 26.2005C33.7346 26.8808 33.0737 27.4153 32.199 27.8041C31.3243 28.1734 30.2455 28.358 28.9627 28.358L29.0793 27.046C29.6819 27.046 30.3719 27.1335 31.1494 27.3084C31.9269 27.4639 32.6752 27.7555 33.3944 28.1831C34.133 28.5913 34.7356 29.1744 35.2021 29.9325C35.688 30.6711 35.931 31.6235 35.931 32.7898C35.931 34.0726 35.7172 35.1222 35.2895 35.9386C34.8814 36.755 34.3371 37.3867 33.6568 37.8338C32.9765 38.2808 32.2476 38.5918 31.4701 38.7668C30.6926 38.9223 29.9443 39 29.2251 39H21.9652C21.4599 39 21.0322 38.8348 20.6824 38.5043C20.3519 38.1545 20.1867 37.7269 20.1867 37.2215V20.3693C20.1867 19.8639 20.3519 19.446 20.6824 19.1156C21.0322 18.7657 21.4599 18.5908 21.9652 18.5908H29.3126ZM28.7877 22.0312H23.598L23.977 21.5647V26.8419L23.6271 26.5795H28.8752C29.4389 26.5795 29.9443 26.3949 30.3913 26.0256C30.8384 25.6562 31.0619 25.1217 31.0619 24.422C31.0619 23.5862 30.8481 22.9836 30.4205 22.6143C30.0123 22.2255 29.4681 22.0312 28.7877 22.0312ZM29.021 30.0199H23.7146L23.977 29.7867V35.9386L23.6854 35.6471H29.2251C30.1192 35.6471 30.8287 35.4138 31.3535 34.9473C31.8783 34.4614 32.1407 33.7422 32.1407 32.7898C32.1407 31.9151 31.9658 31.2834 31.6159 30.8946C31.266 30.5059 30.8481 30.2629 30.3622 30.1657C29.8762 30.0685 29.4292 30.0199 29.021 30.0199ZM51.7707 23.1099C52.2761 23.1099 52.694 23.2752 53.0244 23.6056C53.3548 23.936 53.5201 24.3637 53.5201 24.8885V37.2215C53.5201 37.7269 53.3548 38.1545 53.0244 38.5043C52.694 38.8348 52.2761 39 51.7707 39C51.2653 39 50.8474 38.8348 50.517 38.5043C50.1865 38.1545 50.0213 37.7269 50.0213 37.2215V35.7928L50.6628 36.0552C50.6628 36.3079 50.5267 36.6189 50.2546 36.9882C49.9825 37.3381 49.6131 37.688 49.1466 38.0378C48.6802 38.3877 48.1262 38.689 47.4848 38.9417C46.8628 39.1749 46.1824 39.2916 45.4438 39.2916C44.1026 39.2916 42.8878 38.9514 41.7993 38.2711C40.7108 37.5714 39.8459 36.6189 39.2044 35.4138C38.5824 34.1892 38.2714 32.7898 38.2714 31.2153C38.2714 29.6215 38.5824 28.222 39.2044 27.0169C39.8459 25.7923 40.7011 24.8399 41.7702 24.1596C42.8392 23.4598 44.0249 23.1099 45.3272 23.1099C46.163 23.1099 46.9308 23.2363 47.6305 23.489C48.3303 23.7417 48.9328 24.0624 49.4382 24.4511C49.963 24.8399 50.3615 25.2383 50.6336 25.6465C50.9252 26.0353 51.071 26.3657 51.071 26.6378L50.0213 27.0169V24.8885C50.0213 24.3831 50.1865 23.9652 50.517 23.6348C50.8474 23.2849 51.2653 23.1099 51.7707 23.1099ZM45.8812 36.0844C46.7364 36.0844 47.4848 35.8706 48.1262 35.443C48.7676 35.0153 49.2633 34.4322 49.6131 33.6936C49.9825 32.955 50.1671 32.1289 50.1671 31.2153C50.1671 30.2823 49.9825 29.4465 49.6131 28.7079C49.2633 27.9693 48.7676 27.3862 48.1262 26.9585C47.4848 26.5309 46.7364 26.3171 45.8812 26.3171C45.0454 26.3171 44.3067 26.5309 43.6653 26.9585C43.0239 27.3862 42.5185 27.9693 42.1492 28.7079C41.7993 29.4465 41.6244 30.2823 41.6244 31.2153C41.6244 32.1289 41.7993 32.955 42.1492 33.6936C42.5185 34.4322 43.0239 35.0153 43.6653 35.443C44.3067 35.8706 45.0454 36.0844 45.8812 36.0844ZM56.4045 36.58C56.2101 36.3079 56.1226 35.9581 56.1421 35.5304C56.1615 35.1028 56.4142 34.7335 56.9001 34.4225C57.2111 34.2281 57.5415 34.1504 57.8914 34.1892C58.2413 34.2087 58.5814 34.3836 58.9119 34.7141C59.4756 35.2777 60.0684 35.7151 60.6904 36.0261C61.3124 36.3371 62.0899 36.4926 63.0229 36.4926C63.3144 36.4731 63.6352 36.4343 63.985 36.376C64.3349 36.2982 64.6362 36.1427 64.8889 35.9095C65.161 35.6568 65.2971 35.2777 65.2971 34.7724C65.2971 34.3447 65.1513 34.0046 64.8597 33.7519C64.5682 33.4992 64.1794 33.2854 63.6935 33.1105C63.227 32.9355 62.7022 32.7703 62.119 32.6148C61.5165 32.4399 60.8945 32.2455 60.2531 32.0317C59.6311 31.8179 59.0577 31.5458 58.5329 31.2153C58.008 30.8655 57.5804 30.4087 57.25 29.845C56.9196 29.2813 56.7543 28.5718 56.7543 27.7166C56.7543 26.7447 57.0265 25.9186 57.5707 25.2383C58.115 24.558 58.8147 24.0332 59.6699 23.6639C60.5446 23.2946 61.4582 23.1099 62.4106 23.1099C63.0132 23.1099 63.6449 23.1877 64.3058 23.3432C64.9666 23.4793 65.5983 23.7125 66.2009 24.0429C66.8035 24.3539 67.3088 24.7718 67.717 25.2966C67.9308 25.5882 68.0572 25.9381 68.096 26.3463C68.1349 26.7545 67.9503 27.1238 67.5421 27.4542C67.2505 27.6874 66.9104 27.7944 66.5216 27.7749C66.1329 27.736 65.8122 27.6 65.5595 27.3667C65.229 26.9391 64.782 26.599 64.2183 26.3463C63.674 26.0936 63.0423 25.9672 62.3231 25.9672C62.0316 25.9672 61.7109 26.0061 61.361 26.0839C61.0306 26.1422 60.739 26.288 60.4863 26.5212C60.2336 26.735 60.1073 27.0849 60.1073 27.5708C60.1073 28.0179 60.2531 28.3775 60.5446 28.6496C60.8362 28.9023 61.2249 29.1161 61.7109 29.291C62.2162 29.4465 62.7508 29.602 63.3144 29.7575C63.8976 29.913 64.4904 30.0977 65.093 30.3115C65.6955 30.5253 66.2495 30.8071 66.7549 31.157C67.2602 31.5069 67.6684 31.9637 67.9794 32.5274C68.2904 33.0716 68.4459 33.7713 68.4459 34.6266C68.4459 35.6179 68.1544 36.4634 67.5712 37.1632C66.9881 37.8629 66.2592 38.3974 65.3845 38.7668C64.5098 39.1166 63.6157 39.2916 62.7022 39.2916C61.5554 39.2916 60.4086 39.0972 59.2618 38.7084C58.115 38.3003 57.1625 37.5908 56.4045 36.58ZM84.372 23.1099C84.8773 23.1099 85.2952 23.2752 85.6257 23.6056C85.9561 23.936 86.1213 24.3637 86.1213 24.8885V37.2215C86.1213 37.7269 85.9561 38.1545 85.6257 38.5043C85.2952 38.8348 84.8773 39 84.372 39C83.8666 39 83.4487 38.8348 83.1182 38.5043C82.7878 38.1545 82.6226 37.7269 82.6226 37.2215V35.7928L83.264 36.0552C83.264 36.3079 83.128 36.6189 82.8558 36.9882C82.5837 37.3381 82.2144 37.688 81.7479 38.0378C81.2814 38.3877 80.7275 38.689 80.086 38.9417C79.464 39.1749 78.7837 39.2916 78.0451 39.2916C76.7039 39.2916 75.4891 38.9514 74.4006 38.2711C73.3121 37.5714 72.4471 36.6189 71.8057 35.4138C71.1837 34.1892 70.8727 32.7898 70.8727 31.2153C70.8727 29.6215 71.1837 28.222 71.8057 27.0169C72.4471 25.7923 73.3024 24.8399 74.3714 24.1596C75.4405 23.4598 76.6262 23.1099 77.9285 23.1099C78.7643 23.1099 79.5321 23.2363 80.2318 23.489C80.9315 23.7417 81.5341 24.0624 82.0395 24.4511C82.5643 24.8399 82.9628 25.2383 83.2349 25.6465C83.5264 26.0353 83.6722 26.3657 83.6722 26.6378L82.6226 27.0169V24.8885C82.6226 24.3831 82.7878 23.9652 83.1182 23.6348C83.4487 23.2849 83.8666 23.1099 84.372 23.1099ZM78.4824 36.0844C79.3377 36.0844 80.086 35.8706 80.7275 35.443C81.3689 35.0153 81.8645 34.4322 82.2144 33.6936C82.5837 32.955 82.7684 32.1289 82.7684 31.2153C82.7684 30.2823 82.5837 29.4465 82.2144 28.7079C81.8645 27.9693 81.3689 27.3862 80.7275 26.9585C80.086 26.5309 79.3377 26.3171 78.4824 26.3171C77.6466 26.3171 76.908 26.5309 76.2666 26.9585C75.6251 27.3862 75.1198 27.9693 74.7505 28.7079C74.4006 29.4465 74.2256 30.2823 74.2256 31.2153C74.2256 32.1289 74.4006 32.955 74.7505 33.6936C75.1198 34.4322 75.6251 35.0153 76.2666 35.443C76.908 35.8706 77.6466 36.0844 78.4824 36.0844ZM22.0235 54.5616C22.2957 54.5616 22.5775 54.6393 22.8691 54.7948C23.1801 54.9309 23.4133 55.1156 23.5688 55.3488L30.6537 66.2532L29.1959 66.1949L36.4558 55.3488C36.8251 54.824 37.3013 54.5616 37.8844 54.5616C38.3509 54.5616 38.7688 54.7268 39.1381 55.0573C39.5075 55.3877 39.6921 55.8153 39.6921 56.3401V73.2215C39.6921 73.7269 39.5269 74.1545 39.1965 74.5043C38.866 74.8348 38.4287 75 37.8844 75C37.3402 75 36.8931 74.8348 36.5433 74.5043C36.2128 74.1545 36.0476 73.7269 36.0476 73.2215V59.489L37.1847 59.7514L31.2369 68.8189C31.0619 69.0327 30.8384 69.2174 30.5663 69.3729C30.3136 69.5284 30.0512 69.5964 29.7791 69.577C29.5264 69.5964 29.264 69.5284 28.9918 69.3729C28.7392 69.2174 28.5253 69.0327 28.3504 68.8189L22.7816 60.0138L23.5397 58.4685V73.2215C23.5397 73.7269 23.3842 74.1545 23.0732 74.5043C22.7622 74.8348 22.354 75 21.8486 75C21.3627 75 20.9642 74.8348 20.6532 74.5043C20.3422 74.1545 20.1867 73.7269 20.1867 73.2215V56.3401C20.1867 55.8542 20.3616 55.4363 20.7115 55.0864C21.0808 54.7365 21.5182 54.5616 22.0235 54.5616ZM56.5541 59.1099C57.0595 59.1099 57.4774 59.2752 57.8078 59.6056C58.1383 59.936 58.3035 60.3637 58.3035 60.8885V73.2215C58.3035 73.7269 58.1383 74.1545 57.8078 74.5043C57.4774 74.8348 57.0595 75 56.5541 75C56.0487 75 55.6308 74.8348 55.3004 74.5043C54.97 74.1545 54.8048 73.7269 54.8048 73.2215V71.7928L55.4462 72.0552C55.4462 72.3079 55.3101 72.6189 55.038 72.9882C54.7659 73.3381 54.3966 73.688 53.9301 74.0378C53.4636 74.3877 52.9096 74.689 52.2682 74.9417C51.6462 75.1749 50.9659 75.2916 50.2272 75.2916C48.8861 75.2916 47.6712 74.9514 46.5827 74.2711C45.4942 73.5714 44.6293 72.6189 43.9878 71.4138C43.3659 70.1892 43.0549 68.7898 43.0549 67.2153C43.0549 65.6215 43.3659 64.222 43.9878 63.0169C44.6293 61.7923 45.4845 60.8399 46.5536 60.1596C47.6226 59.4598 48.8083 59.1099 50.1106 59.1099C50.9464 59.1099 51.7142 59.2363 52.414 59.489C53.1137 59.7417 53.7163 60.0624 54.2216 60.4511C54.7464 60.8399 55.1449 61.2383 55.417 61.6465C55.7086 62.0353 55.8544 62.3657 55.8544 62.6378L54.8048 63.0169V60.8885C54.8048 60.3831 54.97 59.9652 55.3004 59.6348C55.6308 59.2849 56.0487 59.1099 56.5541 59.1099ZM50.6646 72.0844C51.5198 72.0844 52.2682 71.8706 52.9096 71.443C53.551 71.0153 54.0467 70.4322 54.3966 69.6936C54.7659 68.955 54.9505 68.1289 54.9505 67.2153C54.9505 66.2823 54.7659 65.4465 54.3966 64.7079C54.0467 63.9693 53.551 63.3862 52.9096 62.9585C52.2682 62.5309 51.5198 62.3171 50.6646 62.3171C49.8288 62.3171 49.0902 62.5309 48.4487 62.9585C47.8073 63.3862 47.3019 63.9693 46.9326 64.7079C46.5827 65.4465 46.4078 66.2823 46.4078 67.2153C46.4078 68.1289 46.5827 68.955 46.9326 69.6936C47.3019 70.4322 47.8073 71.0153 48.4487 71.443C49.0902 71.8706 49.8288 72.0844 50.6646 72.0844ZM74.8621 53.4245C75.3674 53.4245 75.7853 53.5897 76.1158 53.9202C76.4462 54.2506 76.6114 54.6782 76.6114 55.203V73.2215C76.6114 73.7269 76.4462 74.1545 76.1158 74.5043C75.7853 74.8348 75.3674 75 74.8621 75C74.3567 75 73.9388 74.8348 73.6084 74.5043C73.2779 74.1545 73.1127 73.7269 73.1127 73.2215V71.7928L73.7541 72.0552C73.7541 72.3079 73.6181 72.6189 73.346 72.9882C73.0738 73.3381 72.7045 73.688 72.238 74.0378C71.7715 74.3877 71.2176 74.689 70.5761 74.9417C69.9541 75.1749 69.2738 75.2916 68.5352 75.2916C67.194 75.2916 65.9792 74.9514 64.8907 74.2711C63.8022 73.5714 62.9372 72.6189 62.2958 71.4138C61.6738 70.1892 61.3628 68.7898 61.3628 67.2153C61.3628 65.6215 61.6738 64.222 62.2958 63.0169C62.9372 61.7923 63.7925 60.8399 64.8615 60.1596C65.9306 59.4598 67.1163 59.1099 68.4186 59.1099C69.2544 59.1099 70.0222 59.2363 70.7219 59.489C71.4217 59.7417 72.0242 60.0624 72.5296 60.4511C73.0544 60.8399 73.4529 61.2383 73.725 61.6465C74.0165 62.0353 74.1623 62.3657 74.1623 62.6378L73.1127 63.0169V55.203C73.1127 54.6977 73.2779 54.2798 73.6084 53.9493C73.9388 53.5994 74.3567 53.4245 74.8621 53.4245ZM68.9725 72.0844C69.8278 72.0844 70.5761 71.8706 71.2176 71.443C71.859 71.0153 72.3547 70.4322 72.7045 69.6936C73.0738 68.955 73.2585 68.1289 73.2585 67.2153C73.2585 66.2823 73.0738 65.4465 72.7045 64.7079C72.3547 63.9693 71.859 63.3862 71.2176 62.9585C70.5761 62.5309 69.8278 62.3171 68.9725 62.3171C68.1367 62.3171 67.3981 62.5309 66.7567 62.9585C66.1153 63.3862 65.6099 63.9693 65.2406 64.7079C64.8907 65.4465 64.7158 66.2823 64.7158 67.2153C64.7158 68.1289 64.8907 68.955 65.2406 69.6936C65.6099 70.4322 66.1153 71.0153 66.7567 71.443C67.3981 71.8706 68.1367 72.0844 68.9725 72.0844ZM92.4302 59.4015C92.9356 59.4015 93.3535 59.5764 93.6839 59.9263C94.0143 60.2567 94.1796 60.6747 94.1796 61.18V68.5857C94.1796 70.646 93.6062 72.2788 92.4594 73.4839C91.3125 74.689 89.6604 75.2916 87.5028 75.2916C85.3453 75.2916 83.6931 74.689 82.5463 73.4839C81.4189 72.2788 80.8552 70.646 80.8552 68.5857V61.18C80.8552 60.6747 81.0205 60.2567 81.3509 59.9263C81.6813 59.5764 82.0992 59.4015 82.6046 59.4015C83.11 59.4015 83.5279 59.5764 83.8583 59.9263C84.1887 60.2567 84.354 60.6747 84.354 61.18V68.5857C84.354 69.7713 84.6164 70.6557 85.1412 71.2389C85.666 71.8026 86.4532 72.0844 87.5028 72.0844C88.5719 72.0844 89.3688 71.8026 89.8936 71.2389C90.4184 70.6557 90.6808 69.7713 90.6808 68.5857V61.18C90.6808 60.6747 90.8461 60.2567 91.1765 59.9263C91.5069 59.5764 91.9248 59.4015 92.4302 59.4015ZM99.7167 75C99.2113 75 98.7934 74.8348 98.463 74.5043C98.1326 74.1545 97.9673 73.7269 97.9673 73.2215V61.18C97.9673 60.6747 98.1326 60.2567 98.463 59.9263C98.7934 59.5764 99.2113 59.4015 99.7167 59.4015C100.222 59.4015 100.64 59.5764 100.97 59.9263C101.301 60.2567 101.466 60.6747 101.466 61.18V63.9207L101.262 61.9672C101.476 61.5007 101.748 61.0926 102.078 60.7427C102.428 60.3734 102.817 60.0721 103.245 59.8388C103.672 59.5862 104.129 59.4015 104.615 59.2849C105.101 59.1683 105.587 59.1099 106.073 59.1099C106.656 59.1099 107.142 59.2752 107.531 59.6056C107.939 59.936 108.143 60.3248 108.143 60.7718C108.143 61.4133 107.978 61.8798 107.647 62.1713C107.317 62.4435 106.957 62.5795 106.568 62.5795C106.199 62.5795 105.859 62.5115 105.548 62.3754C105.256 62.2394 104.916 62.1713 104.527 62.1713C104.178 62.1713 103.818 62.2588 103.449 62.4337C103.099 62.5892 102.768 62.8419 102.457 63.1918C102.166 63.5417 101.923 63.979 101.728 64.5038C101.554 65.0092 101.466 65.6117 101.466 66.3115V73.2215C101.466 73.7269 101.301 74.1545 100.97 74.5043C100.64 74.8348 100.222 75 99.7167 75ZM123.038 59.1099C123.543 59.1099 123.961 59.2752 124.292 59.6056C124.622 59.936 124.787 60.3637 124.787 60.8885V73.2215C124.787 73.7269 124.622 74.1545 124.292 74.5043C123.961 74.8348 123.543 75 123.038 75C122.533 75 122.115 74.8348 121.784 74.5043C121.454 74.1545 121.289 73.7269 121.289 73.2215V71.7928L121.93 72.0552C121.93 72.3079 121.794 72.6189 121.522 72.9882C121.25 73.3381 120.88 73.688 120.414 74.0378C119.947 74.3877 119.393 74.689 118.752 74.9417C118.13 75.1749 117.45 75.2916 116.711 75.2916C115.37 75.2916 114.155 74.9514 113.067 74.2711C111.978 73.5714 111.113 72.6189 110.472 71.4138C109.85 70.1892 109.539 68.7898 109.539 67.2153C109.539 65.6215 109.85 64.222 110.472 63.0169C111.113 61.7923 111.968 60.8399 113.037 60.1596C114.106 59.4598 115.292 59.1099 116.594 59.1099C117.43 59.1099 118.198 59.2363 118.898 59.489C119.597 59.7417 120.2 60.0624 120.705 60.4511C121.23 60.8399 121.629 61.2383 121.901 61.6465C122.192 62.0353 122.338 62.3657 122.338 62.6378L121.289 63.0169V60.8885C121.289 60.3831 121.454 59.9652 121.784 59.6348C122.115 59.2849 122.533 59.1099 123.038 59.1099ZM117.148 72.0844C118.004 72.0844 118.752 71.8706 119.393 71.443C120.035 71.0153 120.53 70.4322 120.88 69.6936C121.25 68.955 121.434 68.1289 121.434 67.2153C121.434 66.2823 121.25 65.4465 120.88 64.7079C120.53 63.9693 120.035 63.3862 119.393 62.9585C118.752 62.5309 118.004 62.3171 117.148 62.3171C116.313 62.3171 115.574 62.5309 114.933 62.9585C114.291 63.3862 113.786 63.9693 113.416 64.7079C113.067 65.4465 112.892 66.2823 112.892 67.2153C112.892 68.1289 113.067 68.955 113.416 69.6936C113.786 70.4322 114.291 71.0153 114.933 71.443C115.574 71.8706 116.313 72.0844 117.148 72.0844Z" fill="white"/>
</g>
<defs>
<clipPath id="clip0">
<rect width="217.345" height="162.744" fill="white"/>
</clipPath>
</defs>
</svg>
