<svg width="218" height="163" viewBox="0 0 218 163" fill="none" xmlns="http://www.w3.org/2000/svg">
<g clip-path="url(#clip0)">
<rect x="0.0917969" width="217.345" height="162.744" rx="10.6022" fill="#7D0085"/>
<mask id="mask0" style="mask-type:alpha" maskUnits="userSpaceOnUse" x="0" y="0" width="218" height="163">
<rect x="0.0917969" width="217.345" height="162.744" rx="10.6022" fill="#330036"/>
</mask>
<g mask="url(#mask0)">
<path d="M91.5781 150.875H227.422V163.453H91.5781V150.875Z" fill="#D6BFAE"/>
<path d="M86.5469 140.812H232.453V150.875H86.5469V140.812Z" fill="#E9D5C6"/>
<path d="M194.719 163.453L179.625 140.812H139.375L124.281 163.453H194.719Z" fill="#F0DFD3"/>
<path d="M149.438 140.812H169.562V163.453H149.438V140.812Z" fill="#D6BFAE"/>
<path d="M174.594 40.1875L169.562 50.25H149.438L144.406 40.1875H174.594Z" fill="#F07F2F"/>
<path d="M154.469 40.1875C153.672 36.9973 153.51 33.6812 153.994 30.4287C154.478 27.1761 155.598 24.0507 157.29 21.2309L159.501 17.5469L161.711 21.2309C163.403 24.0507 164.523 27.1761 165.007 30.4287C165.491 33.6812 165.329 36.9973 164.532 40.1875H154.469Z" fill="#F6BB00"/>
<path d="M119.25 115.656H199.75V125.719H119.25V115.656Z" fill="#F0DFD3"/>
<path d="M172.078 140.812L192.203 125.719H126.797L146.922 140.812H172.078Z" fill="#E9D5C6"/>
<path d="M172.078 115.656L167.047 50.25H151.953L146.922 115.656H172.078Z" fill="#E9D5C6"/>
<path d="M159.5 115.656V50.25H167.047L172.078 115.656H159.5Z" fill="#D6BFAE"/>
</g>
<path d="M29.3126 18.5908C31.1785 18.5908 32.5683 19.0281 33.4819 19.9028C34.3954 20.7775 34.8522 22.07 34.8522 23.7805C34.8522 24.6941 34.6287 25.5007 34.1816 26.2005C33.7346 26.8808 33.0737 27.4153 32.199 27.8041C31.3243 28.1734 30.2455 28.358 28.9627 28.358L29.0793 27.046C29.6819 27.046 30.3719 27.1335 31.1494 27.3084C31.9269 27.4639 32.6752 27.7555 33.3944 28.1831C34.133 28.5913 34.7356 29.1744 35.2021 29.9325C35.688 30.6711 35.931 31.6235 35.931 32.7898C35.931 34.0726 35.7172 35.1222 35.2895 35.9386C34.8814 36.755 34.3371 37.3867 33.6568 37.8338C32.9765 38.2808 32.2476 38.5918 31.4701 38.7668C30.6926 38.9223 29.9443 39 29.2251 39H21.9652C21.4599 39 21.0322 38.8348 20.6824 38.5043C20.3519 38.1545 20.1867 37.7269 20.1867 37.2215V20.3693C20.1867 19.8639 20.3519 19.446 20.6824 19.1156C21.0322 18.7657 21.4599 18.5908 21.9652 18.5908H29.3126ZM28.7877 22.0312H23.598L23.977 21.5647V26.8419L23.6271 26.5795H28.8752C29.4389 26.5795 29.9443 26.3949 30.3913 26.0256C30.8384 25.6562 31.0619 25.1217 31.0619 24.422C31.0619 23.5862 30.8481 22.9836 30.4205 22.6143C30.0123 22.2255 29.4681 22.0312 28.7877 22.0312ZM29.021 30.0199H23.7146L23.977 29.7867V35.9386L23.6854 35.6471H29.2251C30.1192 35.6471 30.8287 35.4138 31.3535 34.9473C31.8783 34.4614 32.1407 33.7422 32.1407 32.7898C32.1407 31.9151 31.9658 31.2834 31.6159 30.8946C31.266 30.5059 30.8481 30.2629 30.3622 30.1657C29.8762 30.0685 29.4292 30.0199 29.021 30.0199ZM51.7707 23.1099C52.2761 23.1099 52.694 23.2752 53.0244 23.6056C53.3548 23.936 53.5201 24.3637 53.5201 24.8885V37.2215C53.5201 37.7269 53.3548 38.1545 53.0244 38.5043C52.694 38.8348 52.2761 39 51.7707 39C51.2653 39 50.8474 38.8348 50.517 38.5043C50.1865 38.1545 50.0213 37.7269 50.0213 37.2215V35.7928L50.6628 36.0552C50.6628 36.3079 50.5267 36.6189 50.2546 36.9882C49.9825 37.3381 49.6131 37.688 49.1466 38.0378C48.6802 38.3877 48.1262 38.689 47.4848 38.9417C46.8628 39.1749 46.1824 39.2916 45.4438 39.2916C44.1026 39.2916 42.8878 38.9514 41.7993 38.2711C40.7108 37.5714 39.8459 36.6189 39.2044 35.4138C38.5824 34.1892 38.2714 32.7898 38.2714 31.2153C38.2714 29.6215 38.5824 28.222 39.2044 27.0169C39.8459 25.7923 40.7011 24.8399 41.7702 24.1596C42.8392 23.4598 44.0249 23.1099 45.3272 23.1099C46.163 23.1099 46.9308 23.2363 47.6305 23.489C48.3303 23.7417 48.9328 24.0624 49.4382 24.4511C49.963 24.8399 50.3615 25.2383 50.6336 25.6465C50.9252 26.0353 51.071 26.3657 51.071 26.6378L50.0213 27.0169V24.8885C50.0213 24.3831 50.1865 23.9652 50.517 23.6348C50.8474 23.2849 51.2653 23.1099 51.7707 23.1099ZM45.8812 36.0844C46.7364 36.0844 47.4848 35.8706 48.1262 35.443C48.7676 35.0153 49.2633 34.4322 49.6131 33.6936C49.9825 32.955 50.1671 32.1289 50.1671 31.2153C50.1671 30.2823 49.9825 29.4465 49.6131 28.7079C49.2633 27.9693 48.7676 27.3862 48.1262 26.9585C47.4848 26.5309 46.7364 26.3171 45.8812 26.3171C45.0454 26.3171 44.3067 26.5309 43.6653 26.9585C43.0239 27.3862 42.5185 27.9693 42.1492 28.7079C41.7993 29.4465 41.6244 30.2823 41.6244 31.2153C41.6244 32.1289 41.7993 32.955 42.1492 33.6936C42.5185 34.4322 43.0239 35.0153 43.6653 35.443C44.3067 35.8706 45.0454 36.0844 45.8812 36.0844ZM56.4045 36.58C56.2101 36.3079 56.1226 35.9581 56.1421 35.5304C56.1615 35.1028 56.4142 34.7335 56.9001 34.4225C57.2111 34.2281 57.5415 34.1504 57.8914 34.1892C58.2413 34.2087 58.5814 34.3836 58.9119 34.7141C59.4756 35.2777 60.0684 35.7151 60.6904 36.0261C61.3124 36.3371 62.0899 36.4926 63.0229 36.4926C63.3144 36.4731 63.6352 36.4343 63.985 36.376C64.3349 36.2982 64.6362 36.1427 64.8889 35.9095C65.161 35.6568 65.2971 35.2777 65.2971 34.7724C65.2971 34.3447 65.1513 34.0046 64.8597 33.7519C64.5682 33.4992 64.1794 33.2854 63.6935 33.1105C63.227 32.9355 62.7022 32.7703 62.119 32.6148C61.5165 32.4399 60.8945 32.2455 60.2531 32.0317C59.6311 31.8179 59.0577 31.5458 58.5329 31.2153C58.008 30.8655 57.5804 30.4087 57.25 29.845C56.9196 29.2813 56.7543 28.5718 56.7543 27.7166C56.7543 26.7447 57.0265 25.9186 57.5707 25.2383C58.115 24.558 58.8147 24.0332 59.6699 23.6639C60.5446 23.2946 61.4582 23.1099 62.4106 23.1099C63.0132 23.1099 63.6449 23.1877 64.3058 23.3432C64.9666 23.4793 65.5983 23.7125 66.2009 24.0429C66.8035 24.3539 67.3088 24.7718 67.717 25.2966C67.9308 25.5882 68.0572 25.9381 68.096 26.3463C68.1349 26.7545 67.9503 27.1238 67.5421 27.4542C67.2505 27.6874 66.9104 27.7944 66.5216 27.7749C66.1329 27.736 65.8122 27.6 65.5595 27.3667C65.229 26.9391 64.782 26.599 64.2183 26.3463C63.674 26.0936 63.0423 25.9672 62.3231 25.9672C62.0316 25.9672 61.7109 26.0061 61.361 26.0839C61.0306 26.1422 60.739 26.288 60.4863 26.5212C60.2336 26.735 60.1073 27.0849 60.1073 27.5708C60.1073 28.0179 60.2531 28.3775 60.5446 28.6496C60.8362 28.9023 61.2249 29.1161 61.7109 29.291C62.2162 29.4465 62.7508 29.602 63.3144 29.7575C63.8976 29.913 64.4904 30.0977 65.093 30.3115C65.6955 30.5253 66.2495 30.8071 66.7549 31.157C67.2602 31.5069 67.6684 31.9637 67.9794 32.5274C68.2904 33.0716 68.4459 33.7713 68.4459 34.6266C68.4459 35.6179 68.1544 36.4634 67.5712 37.1632C66.9881 37.8629 66.2592 38.3974 65.3845 38.7668C64.5098 39.1166 63.6157 39.2916 62.7022 39.2916C61.5554 39.2916 60.4086 39.0972 59.2618 38.7084C58.115 38.3003 57.1625 37.5908 56.4045 36.58ZM84.372 23.1099C84.8773 23.1099 85.2952 23.2752 85.6257 23.6056C85.9561 23.936 86.1213 24.3637 86.1213 24.8885V37.2215C86.1213 37.7269 85.9561 38.1545 85.6257 38.5043C85.2952 38.8348 84.8773 39 84.372 39C83.8666 39 83.4487 38.8348 83.1182 38.5043C82.7878 38.1545 82.6226 37.7269 82.6226 37.2215V35.7928L83.264 36.0552C83.264 36.3079 83.128 36.6189 82.8558 36.9882C82.5837 37.3381 82.2144 37.688 81.7479 38.0378C81.2814 38.3877 80.7275 38.689 80.086 38.9417C79.464 39.1749 78.7837 39.2916 78.0451 39.2916C76.7039 39.2916 75.4891 38.9514 74.4006 38.2711C73.3121 37.5714 72.4471 36.6189 71.8057 35.4138C71.1837 34.1892 70.8727 32.7898 70.8727 31.2153C70.8727 29.6215 71.1837 28.222 71.8057 27.0169C72.4471 25.7923 73.3024 24.8399 74.3714 24.1596C75.4405 23.4598 76.6262 23.1099 77.9285 23.1099C78.7643 23.1099 79.5321 23.2363 80.2318 23.489C80.9315 23.7417 81.5341 24.0624 82.0395 24.4511C82.5643 24.8399 82.9628 25.2383 83.2349 25.6465C83.5264 26.0353 83.6722 26.3657 83.6722 26.6378L82.6226 27.0169V24.8885C82.6226 24.3831 82.7878 23.9652 83.1182 23.6348C83.4487 23.2849 83.8666 23.1099 84.372 23.1099ZM78.4824 36.0844C79.3377 36.0844 80.086 35.8706 80.7275 35.443C81.3689 35.0153 81.8645 34.4322 82.2144 33.6936C82.5837 32.955 82.7684 32.1289 82.7684 31.2153C82.7684 30.2823 82.5837 29.4465 82.2144 28.7079C81.8645 27.9693 81.3689 27.3862 80.7275 26.9585C80.086 26.5309 79.3377 26.3171 78.4824 26.3171C77.6466 26.3171 76.908 26.5309 76.2666 26.9585C75.6251 27.3862 75.1198 27.9693 74.7505 28.7079C74.4006 29.4465 74.2256 30.2823 74.2256 31.2153C74.2256 32.1289 74.4006 32.955 74.7505 33.6936C75.1198 34.4322 75.6251 35.0153 76.2666 35.443C76.908 35.8706 77.6466 36.0844 78.4824 36.0844ZM22.0235 54.5616C22.2957 54.5616 22.5775 54.6393 22.8691 54.7948C23.1801 54.9309 23.4133 55.1156 23.5688 55.3488L30.6537 66.2532L29.1959 66.1949L36.4558 55.3488C36.8251 54.824 37.3013 54.5616 37.8844 54.5616C38.3509 54.5616 38.7688 54.7268 39.1381 55.0573C39.5075 55.3877 39.6921 55.8153 39.6921 56.3401V73.2215C39.6921 73.7269 39.5269 74.1545 39.1965 74.5043C38.866 74.8348 38.4287 75 37.8844 75C37.3402 75 36.8931 74.8348 36.5433 74.5043C36.2128 74.1545 36.0476 73.7269 36.0476 73.2215V59.489L37.1847 59.7514L31.2369 68.8189C31.0619 69.0327 30.8384 69.2174 30.5663 69.3729C30.3136 69.5284 30.0512 69.5964 29.7791 69.577C29.5264 69.5964 29.264 69.5284 28.9918 69.3729C28.7392 69.2174 28.5253 69.0327 28.3504 68.8189L22.7816 60.0138L23.5397 58.4685V73.2215C23.5397 73.7269 23.3842 74.1545 23.0732 74.5043C22.7622 74.8348 22.354 75 21.8486 75C21.3627 75 20.9642 74.8348 20.6532 74.5043C20.3422 74.1545 20.1867 73.7269 20.1867 73.2215V56.3401C20.1867 55.8542 20.3616 55.4363 20.7115 55.0864C21.0808 54.7365 21.5182 54.5616 22.0235 54.5616ZM51.1311 75.2916C49.4789 75.2916 48.0405 74.9514 46.816 74.2711C45.6109 73.5714 44.6779 72.6286 44.017 71.443C43.3756 70.2573 43.0549 68.9161 43.0549 67.4194C43.0549 65.6701 43.4047 64.1831 44.1045 62.9585C44.8237 61.7146 45.7567 60.7621 46.9035 60.1012C48.0503 59.4404 49.2651 59.1099 50.548 59.1099C51.5393 59.1099 52.4723 59.314 53.3469 59.7222C54.2411 60.1304 55.0283 60.6941 55.7086 61.4133C56.3889 62.113 56.9234 62.9294 57.3122 63.8624C57.7204 64.7954 57.9244 65.7867 57.9244 66.8363C57.905 67.3028 57.7204 67.6818 57.3705 67.9734C57.0206 68.2649 56.6124 68.4107 56.1459 68.4107H45.0083L44.1336 65.4951H54.8339L54.1925 66.0782V65.291C54.1536 64.7273 53.9495 64.222 53.5802 63.7749C53.2303 63.3279 52.7833 62.978 52.239 62.7253C51.7142 62.4532 51.1505 62.3171 50.548 62.3171C49.9648 62.3171 49.4206 62.3949 48.9152 62.5504C48.4099 62.7059 47.9725 62.9683 47.6032 63.3376C47.2339 63.7069 46.9423 64.2025 46.7285 64.8245C46.5147 65.4465 46.4078 66.2337 46.4078 67.1862C46.4078 68.2358 46.6216 69.1299 47.0492 69.8685C47.4963 70.5877 48.06 71.1417 48.7403 71.5304C49.44 71.8997 50.1787 72.0844 50.9561 72.0844C51.6753 72.0844 52.2487 72.0261 52.6764 71.9095C53.104 71.7928 53.4441 71.6568 53.6968 71.5013C53.9689 71.3263 54.2119 71.1806 54.4257 71.0639C54.7756 70.889 55.106 70.8015 55.417 70.8015C55.8446 70.8015 56.1945 70.9473 56.4666 71.2389C56.7582 71.5304 56.904 71.8706 56.904 72.2593C56.904 72.7841 56.6319 73.2604 56.0876 73.688C55.5822 74.1156 54.8728 74.4946 53.9592 74.8251C53.0457 75.1361 52.103 75.2916 51.1311 75.2916ZM64.7716 73.2215C64.7716 73.7269 64.5966 74.1545 64.2468 74.5043C63.9163 74.8348 63.4984 75 62.993 75C62.5071 75 62.0989 74.8348 61.7685 74.5043C61.4381 74.1545 61.2728 73.7269 61.2728 73.2215V55.203C61.2728 54.6977 61.4381 54.2798 61.7685 53.9493C62.1184 53.5994 62.546 53.4245 63.0514 53.4245C63.5567 53.4245 63.9649 53.5994 64.2759 53.9493C64.6064 54.2798 64.7716 54.6977 64.7716 55.203V73.2215ZM81.6101 59.1099C82.1155 59.1099 82.5334 59.2752 82.8638 59.6056C83.1943 59.936 83.3595 60.3637 83.3595 60.8885V73.2215C83.3595 73.7269 83.1943 74.1545 82.8638 74.5043C82.5334 74.8348 82.1155 75 81.6101 75C81.1047 75 80.6868 74.8348 80.3564 74.5043C80.026 74.1545 79.8607 73.7269 79.8607 73.2215V71.7928L80.5022 72.0552C80.5022 72.3079 80.3661 72.6189 80.094 72.9882C79.8219 73.3381 79.4526 73.688 78.9861 74.0378C78.5196 74.3877 77.9656 74.689 77.3242 74.9417C76.7022 75.1749 76.0219 75.2916 75.2832 75.2916C73.9421 75.2916 72.7272 74.9514 71.6387 74.2711C70.5502 73.5714 69.6853 72.6189 69.0438 71.4138C68.4218 70.1892 68.1108 68.7898 68.1108 67.2153C68.1108 65.6215 68.4218 64.222 69.0438 63.0169C69.6853 61.7923 70.5405 60.8399 71.6096 60.1596C72.6786 59.4598 73.8643 59.1099 75.1666 59.1099C76.0024 59.1099 76.7702 59.2363 77.4699 59.489C78.1697 59.7417 78.7723 60.0624 79.2776 60.4511C79.8024 60.8399 80.2009 61.2383 80.473 61.6465C80.7646 62.0353 80.9104 62.3657 80.9104 62.6378L79.8607 63.0169V60.8885C79.8607 60.3831 80.026 59.9652 80.3564 59.6348C80.6868 59.2849 81.1047 59.1099 81.6101 59.1099ZM75.7206 72.0844C76.5758 72.0844 77.3242 71.8706 77.9656 71.443C78.607 71.0153 79.1027 70.4322 79.4526 69.6936C79.8219 68.955 80.0065 68.1289 80.0065 67.2153C80.0065 66.2823 79.8219 65.4465 79.4526 64.7079C79.1027 63.9693 78.607 63.3862 77.9656 62.9585C77.3242 62.5309 76.5758 62.3171 75.7206 62.3171C74.8848 62.3171 74.1462 62.5309 73.5047 62.9585C72.8633 63.3862 72.3579 63.9693 71.9886 64.7079C71.6387 65.4465 71.4638 66.2823 71.4638 67.2153C71.4638 68.1289 71.6387 68.955 71.9886 69.6936C72.3579 70.4322 72.8633 71.0153 73.5047 71.443C74.1462 71.8706 74.8848 72.0844 75.7206 72.0844ZM98.7227 59.4015C99.228 59.4015 99.6459 59.5764 99.9764 59.9263C100.307 60.2567 100.472 60.6747 100.472 61.18V73.5714C100.472 75.3596 100.132 76.7785 99.4516 77.8281C98.7907 78.8972 97.8966 79.665 96.7692 80.1315C95.6418 80.598 94.3784 80.8312 92.9789 80.8312C92.3569 80.8312 91.6961 80.7826 90.9963 80.6854C90.2966 80.5882 89.7232 80.4425 89.2761 80.2481C88.693 79.9954 88.2848 79.6747 88.0515 79.2859C87.8377 78.9166 87.7989 78.5182 87.9349 78.0905C88.1099 77.5269 88.3917 77.1381 88.7804 76.9243C89.1692 76.7299 89.5774 76.7105 90.005 76.866C90.316 76.9632 90.7242 77.109 91.2296 77.3033C91.7349 77.5171 92.3181 77.624 92.9789 77.624C93.873 77.624 94.6117 77.4977 95.1948 77.245C95.7973 77.0118 96.2444 76.6036 96.536 76.0205C96.847 75.4568 97.0025 74.6793 97.0025 73.688V71.7345L97.6147 72.4343C97.2843 73.0757 96.8664 73.6102 96.361 74.0378C95.8751 74.446 95.292 74.757 94.6117 74.9708C93.9314 75.1847 93.1539 75.2916 92.2792 75.2916C91.249 75.2916 90.3452 75.0583 89.5677 74.5918C88.8096 74.1059 88.2168 73.445 87.7891 72.6092C87.3615 71.754 87.1477 70.7821 87.1477 69.6936V61.18C87.1477 60.6747 87.3129 60.2567 87.6434 59.9263C87.9738 59.5764 88.3917 59.4015 88.8971 59.4015C89.4024 59.4015 89.8203 59.5764 90.1508 59.9263C90.4812 60.2567 90.6464 60.6747 90.6464 61.18V68.644C90.6464 69.9074 90.9186 70.8015 91.4628 71.3263C92.0265 71.8317 92.804 72.0844 93.7953 72.0844C94.4756 72.0844 95.049 71.9581 95.5155 71.7054C95.982 71.4332 96.3416 71.0445 96.5943 70.5391C96.847 70.0143 96.9733 69.3826 96.9733 68.644V61.18C96.9733 60.6747 97.1385 60.2567 97.469 59.9263C97.7994 59.5764 98.2173 59.4015 98.7227 59.4015ZM115.835 59.4015C116.34 59.4015 116.758 59.5764 117.088 59.9263C117.419 60.2567 117.584 60.6747 117.584 61.18V68.5857C117.584 70.646 117.011 72.2788 115.864 73.4839C114.717 74.689 113.065 75.2916 110.907 75.2916C108.75 75.2916 107.098 74.689 105.951 73.4839C104.823 72.2788 104.26 70.646 104.26 68.5857V61.18C104.26 60.6747 104.425 60.2567 104.755 59.9263C105.086 59.5764 105.504 59.4015 106.009 59.4015C106.515 59.4015 106.932 59.5764 107.263 59.9263C107.593 60.2567 107.759 60.6747 107.759 61.18V68.5857C107.759 69.7713 108.021 70.6557 108.546 71.2389C109.071 71.8026 109.858 72.0844 110.907 72.0844C111.976 72.0844 112.773 71.8026 113.298 71.2389C113.823 70.6557 114.085 69.7713 114.085 68.5857V61.18C114.085 60.6747 114.251 60.2567 114.581 59.9263C114.911 59.5764 115.329 59.4015 115.835 59.4015Z" fill="white"/>
</g>
<defs>
<clipPath id="clip0">
<rect width="217.345" height="162.744" fill="white" transform="translate(0.0917969)"/>
</clipPath>
</defs>
</svg>
