<svg width="410" height="307" viewBox="0 0 410 307" fill="none" xmlns="http://www.w3.org/2000/svg">
<rect width="410" height="307" rx="20" fill="#DB162F"/>
<mask id="mask0" style="mask-type:alpha" maskUnits="userSpaceOnUse" x="0" y="0" width="410" height="307">
<rect width="410" height="307" rx="20" fill="#DB162F"/>
</mask>
<g mask="url(#mask0)">
<path d="M300.418 320.868C297.843 320.868 295.755 318.78 295.755 316.205V268.555L305.082 263.046V316.205C305.082 318.78 302.994 320.868 300.418 320.868Z" fill="#9E9797"/>
<path d="M333.911 320.868C331.336 320.868 329.248 318.78 329.248 316.205V263.046H338.574V316.205C338.574 318.78 336.487 320.868 333.911 320.868Z" fill="#B9ACAC"/>
<path d="M440.986 320.867H360.012C356.996 320.867 354.702 318.156 355.199 315.184L356.462 307.674L358.022 298.348L359.309 290.694L360.87 281.368L363.021 268.554L400.499 260.944L427.414 266.409L437.977 268.554L440.128 281.368L441.689 290.694L442.976 298.348L444.536 307.674L445.799 315.184C446.296 318.156 444.002 320.867 440.986 320.867V320.867Z" fill="#A6E7F0"/>
<path d="M444.537 307.674H356.462L358.022 298.348H442.976L444.537 307.674Z" fill="#6BD9E7"/>
<path d="M441.689 290.695H359.309L360.87 281.369H440.128L441.689 290.695Z" fill="#6BD9E7"/>
<path d="M299.467 178.788L295.755 192.572L277.402 183.532L255.921 172.956C252.495 171.271 251.849 166.664 254.678 164.103L261.007 158.364L266.808 153.104L281.493 154.043L295.755 165.228L299.467 178.788Z" fill="#B9ACAC"/>
<path d="M299.467 178.788L295.756 192.572L277.402 183.532V169.835C277.402 167.044 275.723 164.525 273.143 163.444L261.007 158.364L266.808 153.104L281.493 154.043L295.756 165.228L299.467 178.788Z" fill="#9E9797"/>
<path d="M345.5 165.153L331.903 167.019L320.942 168.517L295.755 165.228L266.808 153.104L249.15 89.6065L246.135 78.751C245.258 75.6113 248.846 73.1368 251.476 75.0642L268.915 87.903C270.538 89.0967 272.447 89.849 274.449 90.0853L315.583 94.9845L345.5 165.153Z" fill="#B9ACAC"/>
<path d="M345.5 165.153L331.903 167.019L327.862 165.178L306.437 134.639C304.541 131.841 303.254 128.676 302.657 125.344L297.981 99.231C297.534 96.7129 295.476 94.7918 292.933 94.5058L249.15 89.6065L246.135 78.751C245.258 75.6113 248.846 73.1368 251.476 75.0642L268.915 87.903C270.538 89.0967 272.447 89.849 274.449 90.0853L315.583 94.9845L345.5 165.153Z" fill="#878383"/>
<path d="M384.632 96.4394V132.102L345.5 165.153L336.523 151.923V151.917L324.797 134.639C322.9 131.841 321.607 128.676 321.017 125.344L312.872 79.8329L310.907 68.8593C310.348 65.732 313.972 63.5932 316.441 65.589L342.037 86.2554C344.313 88.0958 347.005 89.3454 349.877 89.8863L384.632 96.4394Z" fill="#9E9797"/>
<path d="M384.632 96.4394V132.102L345.5 165.153L336.523 151.923V151.917L355.771 124.741C357.73 121.974 359.247 118.915 360.254 115.682L364.843 101.015C365.601 98.5782 364.072 96.0229 361.566 95.5503L331.592 89.8988C328.676 89.3454 325.941 88.0709 323.646 86.187L316.441 80.2806C315.321 79.379 313.966 79.3293 312.872 79.8329L310.907 68.8593C310.348 65.732 313.972 63.5932 316.441 65.589L342.037 86.2554C344.313 88.0958 347.005 89.3454 349.877 89.8863L384.632 96.4394Z" fill="#878383"/>
<path d="M422.384 115.68L404.739 59.2486C403.439 55.0929 397.558 55.0929 396.259 59.2486L378.613 115.68C377.601 118.916 376.088 121.974 374.128 124.741L345.501 165.154L400.499 173.65L455.497 165.154L426.871 124.741C424.91 121.974 423.396 118.916 422.384 115.68Z" fill="#9E9797"/>
<path d="M422.384 115.68L404.739 59.2486C403.439 55.0929 397.558 55.0929 396.259 59.2486L389.64 80.4155C391.44 80.4106 393.242 81.4489 393.893 83.531L404.028 115.715C405.04 118.928 406.547 121.965 408.494 124.713L437.976 167.861L455.496 165.154L426.87 124.741C424.91 121.974 423.396 118.916 422.384 115.68V115.68Z" fill="#878383"/>
<path d="M505.242 268.555H437.977L400.499 260.945L363.021 268.555H295.755V165.227H363.021L400.499 173.65L437.977 165.227H505.242V268.555Z" fill="#F6A96C"/>
<path d="M363.021 165.227H437.977V268.556H363.021V165.227Z" fill="#FFE5C2"/>
<path d="M340.962 199.591V233.594C340.962 235.434 339.47 236.927 337.629 236.927H320.867C319.027 236.927 317.535 235.434 317.535 233.594V199.591C317.535 197.745 319.027 196.253 320.867 196.253H337.629C339.47 196.253 340.962 197.745 340.962 199.591Z" fill="#A6E7F0"/>
<path d="M381.754 241.592C379.178 241.592 377.091 239.505 377.091 236.929V201.693C377.091 199.117 379.178 197.03 381.754 197.03C384.33 197.03 386.417 199.117 386.417 201.693V236.929C386.417 239.505 384.33 241.592 381.754 241.592Z" fill="#FED2A4"/>
<path d="M400.499 248.321C397.923 248.321 395.836 246.234 395.836 243.658V192.57C395.836 189.994 397.923 187.907 400.499 187.907C403.075 187.907 405.162 189.994 405.162 192.57V243.658C405.162 246.234 403.074 248.321 400.499 248.321Z" fill="#FED2A4"/>
<path d="M317.535 212.225H340.962V221.551H317.535V212.225Z" fill="#6BD9E7"/>
</g>
<path d="M55.34 34.5C58.86 34.5 61.4817 35.325 63.205 36.975C64.9283 38.625 65.79 41.0633 65.79 44.29C65.79 46.0133 65.3683 47.535 64.525 48.855C63.6817 50.1383 62.435 51.1467 60.785 51.88C59.135 52.5767 57.1 52.925 54.68 52.925L54.9 50.45C56.0367 50.45 57.3383 50.615 58.805 50.945C60.2717 51.2383 61.6833 51.7883 63.04 52.595C64.4333 53.365 65.57 54.465 66.45 55.895C67.3667 57.2883 67.825 59.085 67.825 61.285C67.825 63.705 67.4217 65.685 66.615 67.225C65.845 68.765 64.8183 69.9567 63.535 70.8C62.2517 71.6433 60.8767 72.23 59.41 72.56C57.9433 72.8533 56.5317 73 55.175 73H41.48C40.5267 73 39.72 72.6883 39.06 72.065C38.4367 71.405 38.125 70.5983 38.125 69.645V37.855C38.125 36.9017 38.4367 36.1133 39.06 35.49C39.72 34.83 40.5267 34.5 41.48 34.5H55.34ZM54.35 40.99H44.56L45.275 40.11V50.065L44.615 49.57H54.515C55.5783 49.57 56.5317 49.2217 57.375 48.525C58.2183 47.8283 58.64 46.82 58.64 45.5C58.64 43.9233 58.2367 42.7867 57.43 42.09C56.66 41.3567 55.6333 40.99 54.35 40.99ZM54.79 56.06H44.78L45.275 55.62V67.225L44.725 66.675H55.175C56.8617 66.675 58.2 66.235 59.19 65.355C60.18 64.4383 60.675 63.0817 60.675 61.285C60.675 59.635 60.345 58.4433 59.685 57.71C59.025 56.9767 58.2367 56.5183 57.32 56.335C56.4033 56.1517 55.56 56.06 54.79 56.06ZM97.705 43.025C98.6584 43.025 99.4467 43.3367 100.07 43.96C100.693 44.5833 101.005 45.39 101.005 46.38V69.645C101.005 70.5983 100.693 71.405 100.07 72.065C99.4467 72.6883 98.6584 73 97.705 73C96.7517 73 95.9634 72.6883 95.34 72.065C94.7167 71.405 94.405 70.5983 94.405 69.645V66.95L95.615 67.445C95.615 67.9217 95.3584 68.5083 94.845 69.205C94.3317 69.865 93.635 70.525 92.755 71.185C91.875 71.845 90.83 72.4133 89.62 72.89C88.4467 73.33 87.1634 73.55 85.77 73.55C83.24 73.55 80.9484 72.9083 78.895 71.625C76.8417 70.305 75.21 68.5083 74 66.235C72.8267 63.925 72.24 61.285 72.24 58.315C72.24 55.3083 72.8267 52.6683 74 50.395C75.21 48.085 76.8234 46.2883 78.84 45.005C80.8567 43.685 83.0934 43.025 85.55 43.025C87.1267 43.025 88.575 43.2633 89.895 43.74C91.215 44.2167 92.3517 44.8217 93.305 45.555C94.295 46.2883 95.0467 47.04 95.56 47.81C96.11 48.5433 96.385 49.1667 96.385 49.68L94.405 50.395V46.38C94.405 45.4267 94.7167 44.6383 95.34 44.015C95.9634 43.355 96.7517 43.025 97.705 43.025ZM86.595 67.5C88.2084 67.5 89.62 67.0967 90.83 66.29C92.04 65.4833 92.975 64.3833 93.635 62.99C94.3317 61.5967 94.68 60.0383 94.68 58.315C94.68 56.555 94.3317 54.9783 93.635 53.585C92.975 52.1917 92.04 51.0917 90.83 50.285C89.62 49.4783 88.2084 49.075 86.595 49.075C85.0184 49.075 83.625 49.4783 82.415 50.285C81.205 51.0917 80.2517 52.1917 79.555 53.585C78.895 54.9783 78.565 56.555 78.565 58.315C78.565 60.0383 78.895 61.5967 79.555 62.99C80.2517 64.3833 81.205 65.4833 82.415 66.29C83.625 67.0967 85.0184 67.5 86.595 67.5ZM106.446 68.435C106.08 67.9217 105.915 67.2617 105.951 66.455C105.988 65.6483 106.465 64.9517 107.381 64.365C107.968 63.9983 108.591 63.8517 109.251 63.925C109.911 63.9617 110.553 64.2917 111.176 64.915C112.24 65.9783 113.358 66.8033 114.531 67.39C115.705 67.9767 117.171 68.27 118.931 68.27C119.481 68.2333 120.086 68.16 120.746 68.05C121.406 67.9033 121.975 67.61 122.451 67.17C122.965 66.6933 123.221 65.9783 123.221 65.025C123.221 64.2183 122.946 63.5767 122.396 63.1C121.846 62.6233 121.113 62.22 120.196 61.89C119.316 61.56 118.326 61.2483 117.226 60.955C116.09 60.625 114.916 60.2583 113.706 59.855C112.533 59.4517 111.451 58.9383 110.461 58.315C109.471 57.655 108.665 56.7933 108.041 55.73C107.418 54.6667 107.106 53.3283 107.106 51.715C107.106 49.8817 107.62 48.3233 108.646 47.04C109.673 45.7567 110.993 44.7667 112.606 44.07C114.256 43.3733 115.98 43.025 117.776 43.025C118.913 43.025 120.105 43.1717 121.351 43.465C122.598 43.7217 123.79 44.1617 124.926 44.785C126.063 45.3717 127.016 46.16 127.786 47.15C128.19 47.7 128.428 48.36 128.501 49.13C128.575 49.9 128.226 50.5967 127.456 51.22C126.906 51.66 126.265 51.8617 125.531 51.825C124.798 51.7517 124.193 51.495 123.716 51.055C123.093 50.2483 122.25 49.6067 121.186 49.13C120.16 48.6533 118.968 48.415 117.611 48.415C117.061 48.415 116.456 48.4883 115.796 48.635C115.173 48.745 114.623 49.02 114.146 49.46C113.67 49.8633 113.431 50.5233 113.431 51.44C113.431 52.2833 113.706 52.9617 114.256 53.475C114.806 53.9517 115.54 54.355 116.456 54.685C117.41 54.9783 118.418 55.2717 119.481 55.565C120.581 55.8583 121.7 56.2067 122.836 56.61C123.973 57.0133 125.018 57.545 125.971 58.205C126.925 58.865 127.695 59.7267 128.281 60.79C128.868 61.8167 129.161 63.1367 129.161 64.75C129.161 66.62 128.611 68.215 127.511 69.535C126.411 70.855 125.036 71.8633 123.386 72.56C121.736 73.22 120.05 73.55 118.326 73.55C116.163 73.55 114 73.1833 111.836 72.45C109.673 71.68 107.876 70.3417 106.446 68.435ZM159.204 43.025C160.157 43.025 160.946 43.3367 161.569 43.96C162.192 44.5833 162.504 45.39 162.504 46.38V69.645C162.504 70.5983 162.192 71.405 161.569 72.065C160.946 72.6883 160.157 73 159.204 73C158.251 73 157.462 72.6883 156.839 72.065C156.216 71.405 155.904 70.5983 155.904 69.645V66.95L157.114 67.445C157.114 67.9217 156.857 68.5083 156.344 69.205C155.831 69.865 155.134 70.525 154.254 71.185C153.374 71.845 152.329 72.4133 151.119 72.89C149.946 73.33 148.662 73.55 147.269 73.55C144.739 73.55 142.447 72.9083 140.394 71.625C138.341 70.305 136.709 68.5083 135.499 66.235C134.326 63.925 133.739 61.285 133.739 58.315C133.739 55.3083 134.326 52.6683 135.499 50.395C136.709 48.085 138.322 46.2883 140.339 45.005C142.356 43.685 144.592 43.025 147.049 43.025C148.626 43.025 150.074 43.2633 151.394 43.74C152.714 44.2167 153.851 44.8217 154.804 45.555C155.794 46.2883 156.546 47.04 157.059 47.81C157.609 48.5433 157.884 49.1667 157.884 49.68L155.904 50.395V46.38C155.904 45.4267 156.216 44.6383 156.839 44.015C157.462 43.355 158.251 43.025 159.204 43.025ZM148.094 67.5C149.707 67.5 151.119 67.0967 152.329 66.29C153.539 65.4833 154.474 64.3833 155.134 62.99C155.831 61.5967 156.179 60.0383 156.179 58.315C156.179 56.555 155.831 54.9783 155.134 53.585C154.474 52.1917 153.539 51.0917 152.329 50.285C151.119 49.4783 149.707 49.075 148.094 49.075C146.517 49.075 145.124 49.4783 143.914 50.285C142.704 51.0917 141.751 52.1917 141.054 53.585C140.394 54.9783 140.064 56.555 140.064 58.315C140.064 60.0383 140.394 61.5967 141.054 62.99C141.751 64.3833 142.704 65.4833 143.914 66.29C145.124 67.0967 146.517 67.5 148.094 67.5ZM41.59 103.445C42.1033 103.445 42.635 103.592 43.185 103.885C43.7717 104.142 44.2117 104.49 44.505 104.93L57.87 125.5L55.12 125.39L68.815 104.93C69.5117 103.94 70.41 103.445 71.51 103.445C72.39 103.445 73.1783 103.757 73.875 104.38C74.5717 105.003 74.92 105.81 74.92 106.8V138.645C74.92 139.598 74.6083 140.405 73.985 141.065C73.3617 141.688 72.5367 142 71.51 142C70.4833 142 69.64 141.688 68.98 141.065C68.3567 140.405 68.045 139.598 68.045 138.645V112.74L70.19 113.235L58.97 130.34C58.64 130.743 58.2183 131.092 57.705 131.385C57.2283 131.678 56.7333 131.807 56.22 131.77C55.7433 131.807 55.2483 131.678 54.735 131.385C54.2583 131.092 53.855 130.743 53.525 130.34L43.02 113.73L44.45 110.815V138.645C44.45 139.598 44.1567 140.405 43.57 141.065C42.9833 141.688 42.2133 142 41.26 142C40.3433 142 39.5917 141.688 39.005 141.065C38.4183 140.405 38.125 139.598 38.125 138.645V106.8C38.125 105.883 38.455 105.095 39.115 104.435C39.8117 103.775 40.6367 103.445 41.59 103.445ZM88.8535 138.645C88.8535 139.598 88.5418 140.405 87.9185 141.065C87.2951 141.688 86.5068 142 85.5535 142C84.6001 142 83.8118 141.688 83.1885 141.065C82.5651 140.405 82.2535 139.598 82.2535 138.645V115.93C82.2535 114.977 82.5651 114.188 83.1885 113.565C83.8118 112.905 84.6001 112.575 85.5535 112.575C86.5068 112.575 87.2951 112.905 87.9185 113.565C88.5418 114.188 88.8535 114.977 88.8535 115.93V138.645ZM85.4985 109C84.2518 109 83.3718 108.798 82.8585 108.395C82.3451 107.992 82.0885 107.277 82.0885 106.25V105.205C82.0885 104.142 82.3635 103.427 82.9135 103.06C83.5001 102.657 84.3801 102.455 85.5535 102.455C86.8368 102.455 87.7351 102.657 88.2485 103.06C88.7618 103.463 89.0185 104.178 89.0185 105.205V106.25C89.0185 107.313 88.7435 108.047 88.1935 108.45C87.6435 108.817 86.7451 109 85.4985 109ZM111.367 112.025C114.08 112.025 116.133 112.593 117.527 113.73C118.957 114.867 119.928 116.388 120.442 118.295C120.992 120.165 121.267 122.255 121.267 124.565V138.645C121.267 139.598 120.955 140.405 120.332 141.065C119.708 141.688 118.92 142 117.967 142C117.013 142 116.225 141.688 115.602 141.065C114.978 140.405 114.667 139.598 114.667 138.645V124.565C114.667 123.355 114.502 122.273 114.172 121.32C113.878 120.33 113.328 119.542 112.522 118.955C111.715 118.368 110.56 118.075 109.057 118.075C107.59 118.075 106.343 118.368 105.317 118.955C104.327 119.542 103.557 120.33 103.007 121.32C102.493 122.273 102.237 123.355 102.237 124.565V138.645C102.237 139.598 101.925 140.405 101.302 141.065C100.678 141.688 99.8899 142 98.9365 142C97.9832 142 97.1949 141.688 96.5715 141.065C95.9482 140.405 95.6365 139.598 95.6365 138.645V115.93C95.6365 114.977 95.9482 114.188 96.5715 113.565C97.1949 112.905 97.9832 112.575 98.9365 112.575C99.8899 112.575 100.678 112.905 101.302 113.565C101.925 114.188 102.237 114.977 102.237 115.93V118.295L101.412 118.13C101.742 117.507 102.218 116.847 102.842 116.15C103.465 115.417 104.198 114.738 105.042 114.115C105.885 113.492 106.838 112.997 107.902 112.63C108.965 112.227 110.12 112.025 111.367 112.025ZM152.49 112.025C153.444 112.025 154.232 112.337 154.855 112.96C155.479 113.583 155.79 114.39 155.79 115.38V138.645C155.79 139.598 155.479 140.405 154.855 141.065C154.232 141.688 153.444 142 152.49 142C151.537 142 150.749 141.688 150.125 141.065C149.502 140.405 149.19 139.598 149.19 138.645V135.95L150.4 136.445C150.4 136.922 150.144 137.508 149.63 138.205C149.117 138.865 148.42 139.525 147.54 140.185C146.66 140.845 145.615 141.413 144.405 141.89C143.232 142.33 141.949 142.55 140.555 142.55C138.025 142.55 135.734 141.908 133.68 140.625C131.627 139.305 129.995 137.508 128.785 135.235C127.612 132.925 127.025 130.285 127.025 127.315C127.025 124.308 127.612 121.668 128.785 119.395C129.995 117.085 131.609 115.288 133.625 114.005C135.642 112.685 137.879 112.025 140.335 112.025C141.912 112.025 143.36 112.263 144.68 112.74C146 113.217 147.137 113.822 148.09 114.555C149.08 115.288 149.832 116.04 150.345 116.81C150.895 117.543 151.17 118.167 151.17 118.68L149.19 119.395V115.38C149.19 114.427 149.502 113.638 150.125 113.015C150.749 112.355 151.537 112.025 152.49 112.025ZM141.38 136.5C142.994 136.5 144.405 136.097 145.615 135.29C146.825 134.483 147.76 133.383 148.42 131.99C149.117 130.597 149.465 129.038 149.465 127.315C149.465 125.555 149.117 123.978 148.42 122.585C147.76 121.192 146.825 120.092 145.615 119.285C144.405 118.478 142.994 118.075 141.38 118.075C139.804 118.075 138.41 118.478 137.2 119.285C135.99 120.092 135.037 121.192 134.34 122.585C133.68 123.978 133.35 125.555 133.35 127.315C133.35 129.038 133.68 130.597 134.34 131.99C135.037 133.383 135.99 134.483 137.2 135.29C138.41 136.097 139.804 136.5 141.38 136.5ZM178.666 112.025C181.38 112.025 183.433 112.593 184.826 113.73C186.256 114.867 187.228 116.388 187.741 118.295C188.291 120.165 188.566 122.255 188.566 124.565V138.645C188.566 139.598 188.255 140.405 187.631 141.065C187.008 141.688 186.22 142 185.266 142C184.313 142 183.525 141.688 182.901 141.065C182.278 140.405 181.966 139.598 181.966 138.645V124.565C181.966 123.355 181.801 122.273 181.471 121.32C181.178 120.33 180.628 119.542 179.821 118.955C179.015 118.368 177.86 118.075 176.356 118.075C174.89 118.075 173.643 118.368 172.616 118.955C171.626 119.542 170.856 120.33 170.306 121.32C169.793 122.273 169.536 123.355 169.536 124.565V138.645C169.536 139.598 169.225 140.405 168.601 141.065C167.978 141.688 167.19 142 166.236 142C165.283 142 164.495 141.688 163.871 141.065C163.248 140.405 162.936 139.598 162.936 138.645V115.93C162.936 114.977 163.248 114.188 163.871 113.565C164.495 112.905 165.283 112.575 166.236 112.575C167.19 112.575 167.978 112.905 168.601 113.565C169.225 114.188 169.536 114.977 169.536 115.93V118.295L168.711 118.13C169.041 117.507 169.518 116.847 170.141 116.15C170.765 115.417 171.498 114.738 172.341 114.115C173.185 113.492 174.138 112.997 175.201 112.63C176.265 112.227 177.42 112.025 178.666 112.025ZM207.91 112.025C209.45 112.025 210.862 112.263 212.145 112.74C213.428 113.217 214.528 113.822 215.445 114.555C216.398 115.288 217.132 116.04 217.645 116.81C218.195 117.543 218.47 118.167 218.47 118.68L217.04 119.395V115.38C217.04 114.427 217.352 113.638 217.975 113.015C218.598 112.355 219.387 112.025 220.34 112.025C221.293 112.025 222.082 112.337 222.705 112.96C223.328 113.583 223.64 114.39 223.64 115.38V139.855C223.64 143.045 222.943 145.593 221.55 147.5C220.193 149.443 218.397 150.837 216.16 151.68C213.923 152.56 211.522 153 208.955 153C208.222 153 207.268 152.908 206.095 152.725C204.922 152.542 203.803 152.322 202.74 152.065C201.677 151.808 200.87 151.57 200.32 151.35C199.22 150.873 198.45 150.268 198.01 149.535C197.607 148.838 197.533 148.087 197.79 147.28C198.12 146.217 198.652 145.483 199.385 145.08C200.118 144.713 200.888 144.677 201.695 144.97C202.062 145.08 202.667 145.3 203.51 145.63C204.353 145.96 205.27 146.253 206.26 146.51C207.287 146.803 208.185 146.95 208.955 146.95C211.705 146.95 213.74 146.4 215.06 145.3C216.38 144.2 217.04 142.678 217.04 140.735V135.95L217.7 136.445C217.7 136.922 217.443 137.508 216.93 138.205C216.453 138.865 215.775 139.525 214.895 140.185C214.052 140.845 213.043 141.413 211.87 141.89C210.697 142.33 209.45 142.55 208.13 142.55C205.527 142.55 203.18 141.908 201.09 140.625C199 139.305 197.35 137.508 196.14 135.235C194.93 132.925 194.325 130.285 194.325 127.315C194.325 124.308 194.93 121.668 196.14 119.395C197.35 117.085 198.982 115.288 201.035 114.005C203.088 112.685 205.38 112.025 207.91 112.025ZM208.955 118.075C207.305 118.075 205.857 118.478 204.61 119.285C203.363 120.092 202.392 121.192 201.695 122.585C200.998 123.978 200.65 125.555 200.65 127.315C200.65 129.038 200.998 130.597 201.695 131.99C202.392 133.383 203.363 134.483 204.61 135.29C205.857 136.097 207.305 136.5 208.955 136.5C210.642 136.5 212.108 136.097 213.355 135.29C214.602 134.483 215.573 133.383 216.27 131.99C216.967 130.597 217.315 129.038 217.315 127.315C217.315 125.555 216.967 123.978 216.27 122.585C215.573 121.192 214.602 120.092 213.355 119.285C212.108 118.478 210.642 118.075 208.955 118.075Z" fill="white"/>
</svg>
