<svg width="410" height="307" viewBox="0 0 410 307" fill="none" xmlns="http://www.w3.org/2000/svg">
<rect width="410" height="307" rx="20" fill="#D81E5B"/>
<mask id="mask0" style="mask-type:alpha" maskUnits="userSpaceOnUse" x="0" y="0" width="410" height="307">
<rect width="410" height="307" rx="20" fill="#D81E5B"/>
</mask>
<g mask="url(#mask0)">
<path d="M175.385 278.379H316.961V319H175.385V278.379Z" fill="#FFC080"/>
<path d="M270.123 224.091H245.107C235.837 224.09 226.948 220.407 220.394 213.852C213.84 207.298 210.158 198.408 210.158 189.139C207.469 195.189 206.334 201.816 206.856 208.416C207.379 215.017 209.543 221.382 213.151 226.934C216.758 232.486 221.696 237.048 227.516 240.207C233.335 243.365 239.851 245.02 246.472 245.02H256.816V278.379H316.961V224.091H270.123Z" fill="#E69F6E"/>
<path d="M256.143 178.148C248.301 178.144 240.781 175.026 235.237 169.479C229.693 163.933 226.579 156.412 226.579 148.569C224.303 153.69 223.342 159.298 223.784 164.884C224.225 170.47 226.056 175.857 229.109 180.555C232.163 185.254 236.342 189.115 241.267 191.788C246.192 194.461 251.706 195.861 257.31 195.861H260.381V224.091H316.961V178.148H256.143Z" fill="#995A4D"/>
<path d="M270.359 132.205C262.515 132.205 254.993 129.089 249.446 123.542C243.9 117.996 240.784 110.473 240.784 102.629C238.508 107.75 237.547 113.357 237.989 118.943C238.432 124.529 240.262 129.915 243.316 134.613C246.369 139.312 250.548 143.173 255.472 145.845C260.397 148.518 265.911 149.918 271.514 149.918H274.594V178.148H316.961V132.205H270.359Z" fill="#E69F6E"/>
<path d="M281.722 86.2647C273.878 86.2639 266.355 83.1473 260.809 77.6004C255.262 72.0534 252.147 64.5305 252.147 56.6863C249.871 61.8064 248.91 67.4141 249.352 72.9998C249.795 78.5855 251.625 83.9721 254.679 88.6704C257.732 93.3686 261.911 97.2295 266.835 99.9023C271.76 102.575 277.274 103.975 282.877 103.975H285.949V132.205H316.961V86.2647H281.722Z" fill="#995A4D"/>
<path d="M220.005 245.02H256.816V278.379H208.65V256.374C208.65 253.363 209.847 250.475 211.976 248.346C214.105 246.216 216.993 245.02 220.005 245.02Z" fill="#995A4D"/>
<path d="M281.722 86.2646L296.375 34H316.961V86.2646H281.722Z" fill="#E69F6E"/>
<path d="M498.792 318.997H357.216V278.376H498.792V318.997Z" fill="#FFC080"/>
<path d="M404.054 224.091H429.067C438.337 224.091 447.227 220.408 453.782 213.853C460.337 207.299 464.019 198.408 464.019 189.139C466.709 195.189 467.843 201.816 467.321 208.416C466.798 215.017 464.634 221.382 461.027 226.934C457.419 232.486 452.481 237.048 446.662 240.207C440.842 243.365 434.326 245.02 427.705 245.02H417.358V278.379H357.216V224.091H404.054Z" fill="#E69F6E"/>
<path d="M418.034 178.148C425.876 178.144 433.396 175.026 438.94 169.479C444.484 163.933 447.598 156.412 447.598 148.569C449.874 153.69 450.835 159.298 450.394 164.884C449.952 170.47 448.121 175.857 445.068 180.555C442.014 185.254 437.835 189.115 432.91 191.788C427.985 194.461 422.471 195.861 416.867 195.861H413.796V224.091H357.216V178.148H418.034Z" fill="#995A4D"/>
<path d="M403.818 132.205C411.662 132.205 419.185 129.089 424.731 123.542C430.278 117.996 433.394 110.473 433.394 102.629C435.669 107.75 436.63 113.357 436.188 118.943C435.745 124.529 433.915 129.915 430.861 134.613C427.808 139.312 423.629 143.173 418.705 145.845C413.78 148.518 408.266 149.918 402.663 149.918H399.583V178.148H357.216V132.205H403.818Z" fill="#E69F6E"/>
<path d="M392.455 86.2647C400.299 86.2639 407.822 83.1473 413.368 77.6004C418.915 72.0534 422.031 64.5305 422.031 56.6863C424.306 61.8064 425.267 67.4141 424.825 72.9998C424.383 78.5855 422.552 83.9721 419.498 88.6704C416.445 93.3686 412.267 97.2295 407.342 99.9023C402.417 102.575 396.903 103.975 391.3 103.975H388.228V132.205H357.216V86.2647H392.455Z" fill="#995A4D"/>
<path d="M392.455 86.2646L377.802 34H357.216V86.2646H392.455Z" fill="#E69F6E"/>
</g>
<path d="M55.34 34.5C58.86 34.5 61.4817 35.325 63.205 36.975C64.9283 38.625 65.79 41.0633 65.79 44.29C65.79 46.0133 65.3683 47.535 64.525 48.855C63.6817 50.1383 62.435 51.1467 60.785 51.88C59.135 52.5767 57.1 52.925 54.68 52.925L54.9 50.45C56.0367 50.45 57.3383 50.615 58.805 50.945C60.2717 51.2383 61.6833 51.7883 63.04 52.595C64.4333 53.365 65.57 54.465 66.45 55.895C67.3667 57.2883 67.825 59.085 67.825 61.285C67.825 63.705 67.4217 65.685 66.615 67.225C65.845 68.765 64.8183 69.9567 63.535 70.8C62.2517 71.6433 60.8767 72.23 59.41 72.56C57.9433 72.8533 56.5317 73 55.175 73H41.48C40.5267 73 39.72 72.6883 39.06 72.065C38.4367 71.405 38.125 70.5983 38.125 69.645V37.855C38.125 36.9017 38.4367 36.1133 39.06 35.49C39.72 34.83 40.5267 34.5 41.48 34.5H55.34ZM54.35 40.99H44.56L45.275 40.11V50.065L44.615 49.57H54.515C55.5783 49.57 56.5317 49.2217 57.375 48.525C58.2183 47.8283 58.64 46.82 58.64 45.5C58.64 43.9233 58.2367 42.7867 57.43 42.09C56.66 41.3567 55.6333 40.99 54.35 40.99ZM54.79 56.06H44.78L45.275 55.62V67.225L44.725 66.675H55.175C56.8617 66.675 58.2 66.235 59.19 65.355C60.18 64.4383 60.675 63.0817 60.675 61.285C60.675 59.635 60.345 58.4433 59.685 57.71C59.025 56.9767 58.2367 56.5183 57.32 56.335C56.4033 56.1517 55.56 56.06 54.79 56.06ZM97.705 43.025C98.6584 43.025 99.4467 43.3367 100.07 43.96C100.693 44.5833 101.005 45.39 101.005 46.38V69.645C101.005 70.5983 100.693 71.405 100.07 72.065C99.4467 72.6883 98.6584 73 97.705 73C96.7517 73 95.9634 72.6883 95.34 72.065C94.7167 71.405 94.405 70.5983 94.405 69.645V66.95L95.615 67.445C95.615 67.9217 95.3584 68.5083 94.845 69.205C94.3317 69.865 93.635 70.525 92.755 71.185C91.875 71.845 90.83 72.4133 89.62 72.89C88.4467 73.33 87.1634 73.55 85.77 73.55C83.24 73.55 80.9484 72.9083 78.895 71.625C76.8417 70.305 75.21 68.5083 74 66.235C72.8267 63.925 72.24 61.285 72.24 58.315C72.24 55.3083 72.8267 52.6683 74 50.395C75.21 48.085 76.8234 46.2883 78.84 45.005C80.8567 43.685 83.0934 43.025 85.55 43.025C87.1267 43.025 88.575 43.2633 89.895 43.74C91.215 44.2167 92.3517 44.8217 93.305 45.555C94.295 46.2883 95.0467 47.04 95.56 47.81C96.11 48.5433 96.385 49.1667 96.385 49.68L94.405 50.395V46.38C94.405 45.4267 94.7167 44.6383 95.34 44.015C95.9634 43.355 96.7517 43.025 97.705 43.025ZM86.595 67.5C88.2084 67.5 89.62 67.0967 90.83 66.29C92.04 65.4833 92.975 64.3833 93.635 62.99C94.3317 61.5967 94.68 60.0383 94.68 58.315C94.68 56.555 94.3317 54.9783 93.635 53.585C92.975 52.1917 92.04 51.0917 90.83 50.285C89.62 49.4783 88.2084 49.075 86.595 49.075C85.0184 49.075 83.625 49.4783 82.415 50.285C81.205 51.0917 80.2517 52.1917 79.555 53.585C78.895 54.9783 78.565 56.555 78.565 58.315C78.565 60.0383 78.895 61.5967 79.555 62.99C80.2517 64.3833 81.205 65.4833 82.415 66.29C83.625 67.0967 85.0184 67.5 86.595 67.5ZM106.446 68.435C106.08 67.9217 105.915 67.2617 105.951 66.455C105.988 65.6483 106.465 64.9517 107.381 64.365C107.968 63.9983 108.591 63.8517 109.251 63.925C109.911 63.9617 110.553 64.2917 111.176 64.915C112.24 65.9783 113.358 66.8033 114.531 67.39C115.705 67.9767 117.171 68.27 118.931 68.27C119.481 68.2333 120.086 68.16 120.746 68.05C121.406 67.9033 121.975 67.61 122.451 67.17C122.965 66.6933 123.221 65.9783 123.221 65.025C123.221 64.2183 122.946 63.5767 122.396 63.1C121.846 62.6233 121.113 62.22 120.196 61.89C119.316 61.56 118.326 61.2483 117.226 60.955C116.09 60.625 114.916 60.2583 113.706 59.855C112.533 59.4517 111.451 58.9383 110.461 58.315C109.471 57.655 108.665 56.7933 108.041 55.73C107.418 54.6667 107.106 53.3283 107.106 51.715C107.106 49.8817 107.62 48.3233 108.646 47.04C109.673 45.7567 110.993 44.7667 112.606 44.07C114.256 43.3733 115.98 43.025 117.776 43.025C118.913 43.025 120.105 43.1717 121.351 43.465C122.598 43.7217 123.79 44.1617 124.926 44.785C126.063 45.3717 127.016 46.16 127.786 47.15C128.19 47.7 128.428 48.36 128.501 49.13C128.575 49.9 128.226 50.5967 127.456 51.22C126.906 51.66 126.265 51.8617 125.531 51.825C124.798 51.7517 124.193 51.495 123.716 51.055C123.093 50.2483 122.25 49.6067 121.186 49.13C120.16 48.6533 118.968 48.415 117.611 48.415C117.061 48.415 116.456 48.4883 115.796 48.635C115.173 48.745 114.623 49.02 114.146 49.46C113.67 49.8633 113.431 50.5233 113.431 51.44C113.431 52.2833 113.706 52.9617 114.256 53.475C114.806 53.9517 115.54 54.355 116.456 54.685C117.41 54.9783 118.418 55.2717 119.481 55.565C120.581 55.8583 121.7 56.2067 122.836 56.61C123.973 57.0133 125.018 57.545 125.971 58.205C126.925 58.865 127.695 59.7267 128.281 60.79C128.868 61.8167 129.161 63.1367 129.161 64.75C129.161 66.62 128.611 68.215 127.511 69.535C126.411 70.855 125.036 71.8633 123.386 72.56C121.736 73.22 120.05 73.55 118.326 73.55C116.163 73.55 114 73.1833 111.836 72.45C109.673 71.68 107.876 70.3417 106.446 68.435ZM159.204 43.025C160.157 43.025 160.946 43.3367 161.569 43.96C162.192 44.5833 162.504 45.39 162.504 46.38V69.645C162.504 70.5983 162.192 71.405 161.569 72.065C160.946 72.6883 160.157 73 159.204 73C158.251 73 157.462 72.6883 156.839 72.065C156.216 71.405 155.904 70.5983 155.904 69.645V66.95L157.114 67.445C157.114 67.9217 156.857 68.5083 156.344 69.205C155.831 69.865 155.134 70.525 154.254 71.185C153.374 71.845 152.329 72.4133 151.119 72.89C149.946 73.33 148.662 73.55 147.269 73.55C144.739 73.55 142.447 72.9083 140.394 71.625C138.341 70.305 136.709 68.5083 135.499 66.235C134.326 63.925 133.739 61.285 133.739 58.315C133.739 55.3083 134.326 52.6683 135.499 50.395C136.709 48.085 138.322 46.2883 140.339 45.005C142.356 43.685 144.592 43.025 147.049 43.025C148.626 43.025 150.074 43.2633 151.394 43.74C152.714 44.2167 153.851 44.8217 154.804 45.555C155.794 46.2883 156.546 47.04 157.059 47.81C157.609 48.5433 157.884 49.1667 157.884 49.68L155.904 50.395V46.38C155.904 45.4267 156.216 44.6383 156.839 44.015C157.462 43.355 158.251 43.025 159.204 43.025ZM148.094 67.5C149.707 67.5 151.119 67.0967 152.329 66.29C153.539 65.4833 154.474 64.3833 155.134 62.99C155.831 61.5967 156.179 60.0383 156.179 58.315C156.179 56.555 155.831 54.9783 155.134 53.585C154.474 52.1917 153.539 51.0917 152.329 50.285C151.119 49.4783 149.707 49.075 148.094 49.075C146.517 49.075 145.124 49.4783 143.914 50.285C142.704 51.0917 141.751 52.1917 141.054 53.585C140.394 54.9783 140.064 56.555 140.064 58.315C140.064 60.0383 140.394 61.5967 141.054 62.99C141.751 64.3833 142.704 65.4833 143.914 66.29C145.124 67.0967 146.517 67.5 148.094 67.5ZM50.5 142.55C47.9333 142.55 45.6233 142.238 43.57 141.615C41.5167 140.955 39.555 139.818 37.685 138.205C37.2083 137.802 36.8417 137.343 36.585 136.83C36.3283 136.317 36.2 135.803 36.2 135.29C36.2 134.447 36.4933 133.713 37.08 133.09C37.7033 132.43 38.4733 132.1 39.39 132.1C40.0867 132.1 40.71 132.32 41.26 132.76C42.6533 133.897 44.0283 134.758 45.385 135.345C46.7783 135.932 48.4833 136.225 50.5 136.225C51.8567 136.225 53.1033 136.023 54.24 135.62C55.3767 135.18 56.2933 134.612 56.99 133.915C57.6867 133.182 58.035 132.357 58.035 131.44C58.035 130.34 57.705 129.405 57.045 128.635C56.385 127.865 55.3767 127.223 54.02 126.71C52.6633 126.16 50.94 125.738 48.85 125.445C46.87 125.152 45.1283 124.712 43.625 124.125C42.1217 123.502 40.8567 122.732 39.83 121.815C38.84 120.862 38.0883 119.762 37.575 118.515C37.0617 117.232 36.805 115.802 36.805 114.225C36.805 111.842 37.41 109.807 38.62 108.12C39.8667 106.433 41.535 105.15 43.625 104.27C45.715 103.39 48.025 102.95 50.555 102.95C52.9383 102.95 55.1383 103.317 57.155 104.05C59.2083 104.747 60.8767 105.645 62.16 106.745C63.2233 107.588 63.755 108.56 63.755 109.66C63.755 110.467 63.4433 111.2 62.82 111.86C62.1967 112.52 61.4633 112.85 60.62 112.85C60.07 112.85 59.575 112.685 59.135 112.355C58.5483 111.842 57.76 111.365 56.77 110.925C55.78 110.448 54.735 110.063 53.635 109.77C52.535 109.44 51.5083 109.275 50.555 109.275C48.9783 109.275 47.64 109.477 46.54 109.88C45.4767 110.283 44.67 110.833 44.12 111.53C43.57 112.227 43.295 113.033 43.295 113.95C43.295 115.05 43.6067 115.967 44.23 116.7C44.89 117.397 45.825 117.965 47.035 118.405C48.245 118.808 49.6933 119.175 51.38 119.505C53.58 119.908 55.505 120.385 57.155 120.935C58.8417 121.485 60.235 122.2 61.335 123.08C62.435 123.923 63.26 125.005 63.81 126.325C64.36 127.608 64.635 129.185 64.635 131.055C64.635 133.438 63.975 135.492 62.655 137.215C61.335 138.938 59.5933 140.258 57.43 141.175C55.3033 142.092 52.9933 142.55 50.5 142.55ZM92.2274 112.575C93.1807 112.575 93.9691 112.905 94.5924 113.565C95.2157 114.188 95.5274 114.977 95.5274 115.93V129.9C95.5274 133.787 94.4457 136.867 92.2824 139.14C90.1191 141.413 87.0024 142.55 82.9324 142.55C78.8624 142.55 75.7457 141.413 73.5824 139.14C71.4557 136.867 70.3924 133.787 70.3924 129.9V115.93C70.3924 114.977 70.704 114.188 71.3274 113.565C71.9507 112.905 72.739 112.575 73.6924 112.575C74.6457 112.575 75.4341 112.905 76.0574 113.565C76.6807 114.188 76.9924 114.977 76.9924 115.93V129.9C76.9924 132.137 77.4874 133.805 78.4774 134.905C79.4674 135.968 80.9524 136.5 82.9324 136.5C84.9491 136.5 86.4524 135.968 87.4424 134.905C88.4324 133.805 88.9274 132.137 88.9274 129.9V115.93C88.9274 114.977 89.2391 114.188 89.8624 113.565C90.4857 112.905 91.2741 112.575 92.2274 112.575ZM118.403 112.025C121.116 112.025 123.169 112.593 124.563 113.73C125.993 114.867 126.964 116.388 127.478 118.295C128.028 120.165 128.303 122.255 128.303 124.565V138.645C128.303 139.598 127.991 140.405 127.368 141.065C126.744 141.688 125.956 142 125.003 142C124.049 142 123.261 141.688 122.638 141.065C122.014 140.405 121.703 139.598 121.703 138.645V124.565C121.703 123.355 121.538 122.273 121.208 121.32C120.914 120.33 120.364 119.542 119.558 118.955C118.751 118.368 117.596 118.075 116.093 118.075C114.626 118.075 113.379 118.368 112.353 118.955C111.363 119.542 110.593 120.33 110.043 121.32C109.529 122.273 109.273 123.355 109.273 124.565V138.645C109.273 139.598 108.961 140.405 108.338 141.065C107.714 141.688 106.926 142 105.973 142C105.019 142 104.231 141.688 103.608 141.065C102.984 140.405 102.673 139.598 102.673 138.645V115.93C102.673 114.977 102.984 114.188 103.608 113.565C104.231 112.905 105.019 112.575 105.973 112.575C106.926 112.575 107.714 112.905 108.338 113.565C108.961 114.188 109.273 114.977 109.273 115.93V118.295L108.448 118.13C108.778 117.507 109.254 116.847 109.878 116.15C110.501 115.417 111.234 114.738 112.078 114.115C112.921 113.492 113.874 112.997 114.938 112.63C116.001 112.227 117.156 112.025 118.403 112.025ZM159.526 101.3C160.48 101.3 161.268 101.612 161.891 102.235C162.515 102.858 162.826 103.665 162.826 104.655V138.645C162.826 139.598 162.515 140.405 161.891 141.065C161.268 141.688 160.48 142 159.526 142C158.573 142 157.785 141.688 157.161 141.065C156.538 140.405 156.226 139.598 156.226 138.645V135.95L157.436 136.445C157.436 136.922 157.18 137.508 156.666 138.205C156.153 138.865 155.456 139.525 154.576 140.185C153.696 140.845 152.651 141.413 151.441 141.89C150.268 142.33 148.985 142.55 147.591 142.55C145.061 142.55 142.77 141.908 140.716 140.625C138.663 139.305 137.031 137.508 135.821 135.235C134.648 132.925 134.061 130.285 134.061 127.315C134.061 124.308 134.648 121.668 135.821 119.395C137.031 117.085 138.645 115.288 140.661 114.005C142.678 112.685 144.915 112.025 147.371 112.025C148.948 112.025 150.396 112.263 151.716 112.74C153.036 113.217 154.173 113.822 155.126 114.555C156.116 115.288 156.868 116.04 157.381 116.81C157.931 117.543 158.206 118.167 158.206 118.68L156.226 119.395V104.655C156.226 103.702 156.538 102.913 157.161 102.29C157.785 101.63 158.573 101.3 159.526 101.3ZM148.416 136.5C150.03 136.5 151.441 136.097 152.651 135.29C153.861 134.483 154.796 133.383 155.456 131.99C156.153 130.597 156.501 129.038 156.501 127.315C156.501 125.555 156.153 123.978 155.456 122.585C154.796 121.192 153.861 120.092 152.651 119.285C151.441 118.478 150.03 118.075 148.416 118.075C146.84 118.075 145.446 118.478 144.236 119.285C143.026 120.092 142.073 121.192 141.376 122.585C140.716 123.978 140.386 125.555 140.386 127.315C140.386 129.038 140.716 130.597 141.376 131.99C142.073 133.383 143.026 134.483 144.236 135.29C145.446 136.097 146.84 136.5 148.416 136.5ZM194.062 112.025C195.016 112.025 195.804 112.337 196.427 112.96C197.051 113.583 197.362 114.39 197.362 115.38V138.645C197.362 139.598 197.051 140.405 196.427 141.065C195.804 141.688 195.016 142 194.062 142C193.109 142 192.321 141.688 191.697 141.065C191.074 140.405 190.762 139.598 190.762 138.645V135.95L191.972 136.445C191.972 136.922 191.716 137.508 191.202 138.205C190.689 138.865 189.992 139.525 189.112 140.185C188.232 140.845 187.187 141.413 185.977 141.89C184.804 142.33 183.521 142.55 182.127 142.55C179.597 142.55 177.306 141.908 175.252 140.625C173.199 139.305 171.567 137.508 170.357 135.235C169.184 132.925 168.597 130.285 168.597 127.315C168.597 124.308 169.184 121.668 170.357 119.395C171.567 117.085 173.181 115.288 175.197 114.005C177.214 112.685 179.451 112.025 181.907 112.025C183.484 112.025 184.932 112.263 186.252 112.74C187.572 113.217 188.709 113.822 189.662 114.555C190.652 115.288 191.404 116.04 191.917 116.81C192.467 117.543 192.742 118.167 192.742 118.68L190.762 119.395V115.38C190.762 114.427 191.074 113.638 191.697 113.015C192.321 112.355 193.109 112.025 194.062 112.025ZM182.952 136.5C184.566 136.5 185.977 136.097 187.187 135.29C188.397 134.483 189.332 133.383 189.992 131.99C190.689 130.597 191.037 129.038 191.037 127.315C191.037 125.555 190.689 123.978 189.992 122.585C189.332 121.192 188.397 120.092 187.187 119.285C185.977 118.478 184.566 118.075 182.952 118.075C181.376 118.075 179.982 118.478 178.772 119.285C177.562 120.092 176.609 121.192 175.912 122.585C175.252 123.978 174.922 125.555 174.922 127.315C174.922 129.038 175.252 130.597 175.912 131.99C176.609 133.383 177.562 134.483 178.772 135.29C179.982 136.097 181.376 136.5 182.952 136.5Z" fill="white"/>
</svg>
